M48
;Layer_Color=9474304
;FILE_FORMAT=4:4
METRIC,LZ
;TYPE=PLATED
T01F00S00C0.3302
T03F00S00C1.0160
T04F00S00C1.1000
%
T01
X0047371Y0009144
X0061341Y0011684
Y0016891
X0078486Y0019304
X006355Y0044627
X0067818Y0050292
X0052324Y0044831
X0038862Y0052578
X0020701Y003556
X0047371Y0020066
Y0014732
X0047625Y0059563
T03
X0008636Y0001778
X0011176
X0013716
X0003048Y0009144
Y0011684
X0016256Y0001778
X0029464
X0032004
X0034544
X0037084
X0050546
X0053086
X0055626
X0058166
X0071882
X0074422
X0076962
X0079502
X0085852Y0009144
Y0011684
Y0014224
Y0016764
Y0024638
Y0027178
Y0029718
Y0032258
X0086614Y0041656
Y0044196
Y0046736
Y0049276
X0002794Y0049784
Y0047244
Y0044704
Y0042164
X0003048Y0032258
Y0029718
Y0027178
Y0024638
Y0016764
Y0014224
X0021844Y006096
X0024384
X0026924
X0029464
T04
X0057277Y0037973
Y0040513
X0062865Y0039497
X0065405
X0067945
X004826
X004572
X0037084Y0040767
Y0038227
X003048Y0039878
X002794
X00254
X0035052Y0057912
Y0060452
X0059055
Y0057912
M30
