G04*
G04 #@! TF.GenerationSoftware,Altium Limited,Altium Designer,24.1.2 (44)*
G04*
G04 Layer_Physical_Order=1*
G04 Layer_Color=255*
%FSLAX44Y44*%
%MOMM*%
G71*
G04*
G04 #@! TF.SameCoordinates,D001C995-844A-49CF-98A3-68F74957D7C1*
G04*
G04*
G04 #@! TF.FilePolarity,Positive*
G04*
G01*
G75*
%ADD10C,0.5080*%
%ADD11C,0.2540*%
%ADD12C,0.1524*%
%ADD18R,0.8382X1.7000*%
%ADD19R,3.0988X1.7000*%
%ADD20R,1.8034X1.1176*%
%ADD21R,1.1176X1.8034*%
%ADD22R,0.6000X3.4000*%
%ADD23R,2.6500X0.6000*%
%ADD36C,1.5240*%
%ADD37C,1.6500*%
%ADD38O,2.0000X3.8000*%
%ADD39O,3.3000X1.8000*%
%ADD40C,1.7780*%
%ADD41C,0.6350*%
D10*
X454660Y573520D02*
X456680Y571500D01*
X459740D01*
X482600Y548640D02*
X489585D01*
X454660Y422910D02*
Y508520D01*
Y569412D02*
Y571500D01*
X459740D02*
X482600Y548640D01*
X454660Y508520D02*
Y569211D01*
X489585Y548640D02*
X519811Y578866D01*
X442480Y561340D02*
X454660Y573520D01*
X222250Y605790D02*
X266700Y561340D01*
X442480D01*
X63834Y287100D02*
X68834Y292100D01*
X63834Y285416D02*
X69850Y279400D01*
X147740Y590660D02*
X171560D01*
X204470Y623570D01*
X331470D01*
X388620Y458470D02*
Y472694D01*
X577850Y474980D02*
X626110Y426720D01*
X577850Y474980D02*
Y591820D01*
X590550Y604520D01*
X626110Y426720D02*
X664210D01*
X676910Y554736D02*
Y563626D01*
X704390D01*
X660125D02*
X676910D01*
X704390D02*
X704850Y564086D01*
Y565480D01*
X660125Y563626D02*
X660781Y562970D01*
Y498729D02*
Y562970D01*
X603504Y563626D02*
X660125D01*
X144018Y475488D02*
X154305D01*
X140970Y478536D02*
X144018Y475488D01*
X140970Y495895D02*
X141280Y496205D01*
X140970Y478536D02*
Y495895D01*
X137359Y500126D02*
X141280Y496205D01*
Y584200D01*
X85090Y500126D02*
X137359D01*
X664210Y426720D02*
X679450Y411480D01*
X593090Y430530D02*
X628650Y394970D01*
X518160Y430530D02*
X593090D01*
X482600Y394970D02*
X518160Y430530D01*
X735638Y482908D02*
X742950Y490220D01*
X676602Y482908D02*
X735638D01*
X660781Y498729D02*
X676602Y482908D01*
X742950Y490220D02*
Y511480D01*
X454660Y422910D02*
X482600Y394970D01*
X350520Y604520D02*
X590550D01*
X331470Y623570D02*
X350520Y604520D01*
X141280Y584200D02*
X147740Y590660D01*
X231013Y398780D02*
X254000D01*
X154305Y475488D02*
X231013Y398780D01*
X29083Y498983D02*
X83947D01*
X27940Y497840D02*
X29083Y498983D01*
X83947D02*
X85090Y500126D01*
X590550Y576580D02*
X603504Y563626D01*
X654050Y237070D02*
Y394970D01*
Y237070D02*
X698080Y193040D01*
X679450Y394970D02*
Y411480D01*
X69850Y317500D02*
X271780D01*
X279400Y325120D02*
Y356790D01*
X271780Y317500D02*
X279400Y325120D01*
X427990Y292100D02*
X433498Y297608D01*
X427990Y304800D02*
X433498Y299292D01*
X68834Y292100D02*
X427990D01*
X69850Y304800D02*
X427990D01*
X426720Y266700D02*
X432228Y272208D01*
X426720Y279400D02*
X432228Y273892D01*
X69850Y279400D02*
X426720D01*
X69850Y266700D02*
X426720D01*
X425524Y253925D02*
X430958Y248492D01*
X425450Y241300D02*
X430958Y246808D01*
X68834Y241300D02*
X425450D01*
X69845Y253925D02*
X425524D01*
X64302Y259468D02*
X69845Y253925D01*
X64302Y261152D02*
X69850Y266700D01*
X207645Y211248D02*
X228172D01*
X187118D02*
X207645D01*
X279400Y356790D02*
Y398780D01*
X280590Y355600D02*
X309880D01*
X256286D02*
X278210D01*
X64469Y310181D02*
X69850Y304800D01*
X64469Y312119D02*
X69850Y317500D01*
X64469Y236935D02*
X68834Y241300D01*
X64469Y235251D02*
X71120Y228600D01*
X200105D01*
X207645Y221060D01*
Y211248D02*
Y221060D01*
X179920Y195580D02*
Y204050D01*
X187118Y211248D01*
X228172D02*
X236220Y203200D01*
Y195580D02*
Y203200D01*
X443230Y378460D02*
X466090D01*
X386080Y435610D02*
X443230Y378460D01*
X466090D02*
X482600Y394970D01*
X341630Y435610D02*
X386080D01*
X304800Y398780D02*
X341630Y435610D01*
X388620Y458470D02*
X449496Y397594D01*
D11*
X692571Y372107D02*
X685800D01*
Y367028D01*
X689186Y368721D01*
X690878D01*
X692571Y367028D01*
Y363643D01*
X690878Y361950D01*
X687493D01*
X685800Y363643D01*
X695957Y372107D02*
Y365336D01*
X699342Y361950D01*
X702728Y365336D01*
Y372107D01*
X278130Y432644D02*
X279823Y434337D01*
X283208D01*
X284901Y432644D01*
Y430951D01*
X283208Y429258D01*
X281516D01*
X283208D01*
X284901Y427566D01*
Y425873D01*
X283208Y424180D01*
X279823D01*
X278130Y425873D01*
X288287Y424180D02*
Y425873D01*
X289979D01*
Y424180D01*
X288287D01*
X296751Y432644D02*
X298443Y434337D01*
X301829D01*
X303522Y432644D01*
Y430951D01*
X301829Y429258D01*
X300136D01*
X301829D01*
X303522Y427566D01*
Y425873D01*
X301829Y424180D01*
X298443D01*
X296751Y425873D01*
X306907Y434337D02*
Y427566D01*
X310293Y424180D01*
X313678Y427566D01*
Y434337D01*
D12*
X454660Y569211D02*
X458089Y565782D01*
X677916Y503184D02*
X678180Y502920D01*
X685800Y510540D01*
X703910D01*
X676910Y522224D02*
X677916Y521218D01*
Y503184D02*
Y521218D01*
X703910Y510540D02*
X704850Y511480D01*
X30480Y246380D02*
Y271780D01*
Y297180D01*
X126238Y443738D02*
X136144D01*
X97489Y414989D02*
X126238Y443738D01*
X136144D02*
X140970Y448564D01*
X54987Y322580D02*
X55880Y321687D01*
Y205740D02*
Y321687D01*
Y205740D02*
X72342Y189278D01*
X30480Y322580D02*
X54987D01*
X64469Y235251D02*
Y236935D01*
X64302Y259468D02*
Y261152D01*
X63834Y285416D02*
Y287100D01*
X64469Y310181D02*
Y312119D01*
X350520Y579120D02*
X387716D01*
X473710Y200660D02*
X495554D01*
X238878Y147018D02*
X281892D01*
X282194Y147320D01*
X236640Y144780D02*
X238878Y147018D01*
X635000Y581406D02*
X695917D01*
X708421Y593910D01*
X704850Y565480D02*
Y584592D01*
X635500Y446270D02*
X636270Y450381D01*
X380746Y93980D02*
X469864D01*
X472404Y91440D01*
X473710D01*
X391466Y576020D02*
X431546D01*
X476250Y575044D02*
Y595630D01*
X454660Y573520D02*
Y577829D01*
X86360Y414274D02*
X87075Y414989D01*
X97489D01*
X37816Y414274D02*
X86360D01*
X612487Y117763D02*
X613410Y116840D01*
X641780D01*
X613410Y168910D02*
X640510D01*
X641780Y167640D01*
X582676Y83595D02*
X660683Y5588D01*
X582676Y83595D02*
Y157705D01*
X808199Y430530D02*
X830355Y452687D01*
X749178Y383418D02*
X796290Y430530D01*
X808199D01*
X668142Y383418D02*
X749178D01*
X602596Y198604D02*
Y349904D01*
X572770Y379730D02*
X602596Y349904D01*
X666750Y384810D02*
Y405130D01*
Y384810D02*
X668142Y383418D01*
X665358Y406522D02*
X666750Y405130D01*
X642742Y406522D02*
X665358D01*
X641350Y405130D02*
X642742Y406522D01*
X641350Y386080D02*
Y405130D01*
X595752Y383418D02*
X638688D01*
X641350Y386080D01*
X572770Y405130D02*
X574040D01*
X595752Y383418D01*
X570230Y405130D02*
X572770D01*
X516890Y351790D02*
X570230Y405130D01*
X429260Y351790D02*
X516890D01*
X650288Y193040D02*
X652526Y195278D01*
X804926Y416560D02*
X866140D01*
X636270Y450381D02*
Y466344D01*
X635000Y467614D02*
X636270Y466344D01*
X748030Y186690D02*
Y245190D01*
X720090Y180340D02*
X741760D01*
X742950Y181530D01*
Y181610D01*
X748030Y186690D01*
Y245190D02*
X749220Y246380D01*
X858520D01*
X667972Y186642D02*
X713788D01*
X720090Y180340D01*
X662962Y181632D02*
X664210Y182880D01*
X641780Y180340D02*
X661772D01*
X662962Y181530D01*
X664210Y182880D02*
Y182880D01*
X662962Y181530D02*
Y181632D01*
X664210Y182880D02*
X667972Y186642D01*
X754380Y211074D02*
X757951Y214645D01*
X749300Y172720D02*
X754380Y177800D01*
Y211074D01*
X716370Y172720D02*
X749300D01*
X688250Y180340D02*
X698500D01*
X708750D01*
X716370Y154940D02*
Y172720D01*
X708750Y180340D02*
X716370Y172720D01*
X650288Y193040D02*
X698080D01*
X734314D01*
X602596Y198604D02*
X625228Y175972D01*
Y175972D02*
Y175972D01*
X627162Y174038D02*
X683600D01*
X625228Y175972D02*
X627162Y174038D01*
X800070Y5588D02*
X858520Y64038D01*
X660683Y5588D02*
X800070D01*
X584610Y159639D02*
X599154D01*
X582676Y157705D02*
X584610Y159639D01*
X599154D02*
X601615Y157178D01*
X858520Y64038D02*
Y91440D01*
X639542Y157178D02*
X641780Y154940D01*
X601615Y157178D02*
X639542D01*
X665390Y93980D02*
X688250Y116840D01*
X571500Y32339D02*
Y177165D01*
Y32339D02*
X581660Y22179D01*
X571500Y177165D02*
X591566Y197231D01*
X603298Y161242D02*
X692102D01*
X591566Y172974D02*
X603298Y161242D01*
X591566Y172974D02*
Y197231D01*
X686012Y176450D02*
Y178102D01*
X683600Y174038D02*
X686012Y176450D01*
Y178102D02*
X688250Y180340D01*
X591566Y147320D02*
X592788Y148542D01*
X681948D01*
X688250Y142240D01*
X581660Y17780D02*
Y22179D01*
X692102Y161242D02*
X698500Y167640D01*
X591566Y197231D02*
Y200660D01*
X641780Y193040D02*
X650288D01*
X765556Y219471D02*
Y222250D01*
X757951Y214645D02*
X760730D01*
X765556Y219471D01*
X764286Y193040D02*
X784860D01*
X764286D02*
X765556Y194310D01*
X734314Y193040D02*
X735584Y194310D01*
Y222250D01*
X675550Y142240D02*
X688250Y129540D01*
X698500D01*
X641780Y142240D02*
X675550D01*
X716370Y137160D02*
Y154940D01*
X698500D02*
X716370D01*
X708750Y129540D02*
X716370Y137160D01*
X698500Y129540D02*
X708750D01*
X795020Y17780D02*
Y41240D01*
X713022Y123238D02*
X795020Y41240D01*
X683882Y123238D02*
X713022D01*
X677580Y129540D02*
X683882Y123238D01*
X641780Y129540D02*
X677580D01*
X688250Y142240D02*
X698500D01*
X688250Y116840D02*
X698500D01*
X591566Y93980D02*
X665390D01*
X559054Y91440D02*
X561594Y93980D01*
X526796Y91440D02*
X559054D01*
X473710D02*
X496824D01*
X473710Y147320D02*
X495554D01*
X525526D02*
X561594D01*
X525526Y200660D02*
X561594D01*
X370840Y410210D02*
X429260Y351790D01*
X830355Y452687D02*
Y503936D01*
X346710Y320040D02*
X429260D01*
X339852Y326898D02*
Y355600D01*
Y326898D02*
X346710Y320040D01*
X429260D02*
X438150Y311150D01*
X439420Y226060D02*
Y309960D01*
X438150Y311150D02*
X438230D01*
X439420Y309960D01*
X433498Y297608D02*
Y299292D01*
X428879Y215519D02*
X439420Y226060D01*
X432228Y272208D02*
Y273892D01*
X430958Y246808D02*
Y248492D01*
X246890Y182880D02*
X259185Y195175D01*
Y208083D01*
X266620Y215519D01*
X428879D01*
X271655Y194945D02*
X277368D01*
X246890Y170180D02*
X271655Y194945D01*
X277368D02*
X282194Y199771D01*
X339852Y355600D02*
X341122Y356870D01*
X220088Y138382D02*
X226390Y132080D01*
X220088Y138382D02*
Y151178D01*
X226390Y157480D01*
X236640D01*
X226390Y132080D02*
X236640D01*
X219992Y176482D02*
X220088Y176578D01*
X165302Y176482D02*
X219992D01*
X236640Y182880D02*
X246890D01*
X236640Y170180D02*
X246890D01*
X220088Y163782D02*
X226390Y157480D01*
X220088Y163782D02*
Y176578D01*
X226390Y182880D01*
X236640D01*
X190170Y157480D02*
X196472Y151178D01*
X167432Y159718D02*
X169670Y157480D01*
X196125Y167942D02*
X209550Y154517D01*
X196472Y140412D02*
Y151178D01*
X169670Y157480D02*
X179920D01*
X209550Y89750D02*
Y154517D01*
X61088Y138430D02*
X194490D01*
X370840Y17780D02*
Y146529D01*
X349427Y167942D02*
X370840Y146529D01*
X238878Y167942D02*
X349427D01*
X236640Y170180D02*
X238878Y167942D01*
X254676Y119380D02*
X271821Y102235D01*
X236640Y119380D02*
X254676D01*
X282194Y93980D02*
Y97409D01*
X277368Y102235D02*
X282194Y97409D01*
X271821Y102235D02*
X277368D01*
X282194Y199771D02*
Y203200D01*
X380746Y93980D02*
Y147320D01*
X312166Y93980D02*
X350774D01*
X312166Y147320D02*
X350774D01*
X380746D02*
Y203200D01*
X312166D02*
X350774D01*
X278210Y355600D02*
X279400Y356790D01*
X280590Y355600D01*
X194490Y138430D02*
X196472Y140412D01*
X179920Y157480D02*
X190170D01*
X164558Y144780D02*
X179920D01*
X163368Y145970D02*
X164558Y144780D01*
X163368Y145970D02*
Y174548D01*
X165302Y176482D01*
X182158Y167942D02*
X196125D01*
X179920Y170180D02*
X182158Y167942D01*
X30480Y167640D02*
X31878D01*
X61088Y138430D01*
X179920Y119380D02*
X182794D01*
X185032Y114268D02*
X209550Y89750D01*
Y78740D02*
Y89750D01*
X185032Y114268D02*
Y117142D01*
X182794Y119380D02*
X185032Y117142D01*
X209550Y78740D02*
X270510Y17780D01*
X294640D01*
X72342Y189278D02*
X178730D01*
X179920Y188088D01*
Y182880D02*
Y188088D01*
X320040Y17780D02*
X345440D01*
X294640D02*
X320040D01*
X86360D02*
X111760D01*
X137160D01*
X30480Y116840D02*
Y142240D01*
Y91440D02*
Y116840D01*
X162560Y130082D02*
X164558Y132080D01*
X162560Y17780D02*
Y130082D01*
X164558Y132080D02*
X179920D01*
X149352Y5588D02*
X282448D01*
X294640Y17780D01*
X137160D02*
X149352Y5588D01*
X30480Y73660D02*
Y91440D01*
Y73660D02*
X86360Y17780D01*
X18288Y154432D02*
X30480Y142240D01*
X18288Y234188D02*
X30480Y246380D01*
X18288Y154432D02*
Y234188D01*
X341122Y356870D02*
X359410D01*
X370840Y368300D01*
Y384810D01*
X802640Y414274D02*
X804926Y416560D01*
X718820Y535940D02*
X723083D01*
X723948Y535075D01*
Y493112D02*
Y535075D01*
X725882Y491178D02*
X734618D01*
X730250Y541377D02*
Y565480D01*
X717550Y511480D02*
Y534670D01*
X718820Y535940D01*
X723948Y535075D02*
X730250Y541377D01*
X732488Y513718D02*
Y531435D01*
X730250Y511480D02*
X732488Y513718D01*
X792255Y503936D02*
X830355D01*
X760345Y535846D02*
X792255Y503936D01*
X738582Y531782D02*
X750283D01*
X799211Y482854D01*
X734618Y491178D02*
X736600Y493160D01*
Y529800D01*
X732488Y531435D02*
X736899Y535846D01*
X830355Y503936D02*
X866140Y539721D01*
X736600Y529800D02*
X738582Y531782D01*
X723948Y493112D02*
X725882Y491178D01*
X736899Y535846D02*
X760345D01*
X799211Y482854D02*
X802640D01*
Y444246D02*
Y482854D01*
X704850Y497480D02*
Y511480D01*
X635000Y497586D02*
Y551434D01*
X866140Y492760D02*
Y539721D01*
X811951Y593910D02*
X866140Y539721D01*
X708421Y593910D02*
X811951D01*
X717550Y565480D02*
Y584592D01*
X718740Y585782D01*
X747318D01*
X779126Y553974D01*
X802640D01*
X710104Y589846D02*
X749001D01*
X753065Y585782D01*
X800804D01*
X704850Y584592D02*
X710104Y589846D01*
X800804Y585782D02*
X802640Y583946D01*
Y512826D02*
Y553974D01*
X476250Y575044D02*
X477774Y573520D01*
X523240Y500126D02*
Y548894D01*
X449496Y397594D02*
X454576D01*
X457200Y394970D01*
X519811Y578866D02*
X523240D01*
X388620Y502666D02*
Y525780D01*
Y548894D01*
X523240Y448310D02*
Y470154D01*
X207010Y355600D02*
X226314D01*
X30450Y421640D02*
X37816Y414274D01*
X27940Y421640D02*
X30450D01*
X86360Y444246D02*
Y470154D01*
D18*
X431546Y576020D02*
D03*
X454660Y573520D02*
D03*
X477774D02*
D03*
D19*
X454660Y508520D02*
D03*
D20*
X635000Y497586D02*
D03*
Y467614D02*
D03*
X388620Y472694D02*
D03*
Y502666D02*
D03*
X802640Y583946D02*
D03*
Y553974D02*
D03*
Y512826D02*
D03*
Y482854D02*
D03*
Y414274D02*
D03*
Y444246D02*
D03*
X676910Y552196D02*
D03*
Y522224D02*
D03*
X523240Y548894D02*
D03*
Y578866D02*
D03*
X86360Y444246D02*
D03*
Y414274D02*
D03*
X140970Y448564D02*
D03*
Y478536D02*
D03*
X85090Y470154D02*
D03*
Y500126D02*
D03*
X388620Y578866D02*
D03*
Y548894D02*
D03*
X523240Y500126D02*
D03*
Y470154D02*
D03*
X635000Y551434D02*
D03*
Y581406D02*
D03*
D21*
X226314Y355600D02*
D03*
X256286D02*
D03*
X309880D02*
D03*
X339852D02*
D03*
X764286Y193040D02*
D03*
X734314D02*
D03*
Y222250D02*
D03*
X764286D02*
D03*
X312166Y203200D02*
D03*
X282194D02*
D03*
X380746D02*
D03*
X350774D02*
D03*
X561594Y200660D02*
D03*
X591566D02*
D03*
X495554D02*
D03*
X525526D02*
D03*
X312166Y147320D02*
D03*
X282194D02*
D03*
X380746D02*
D03*
X350774D02*
D03*
X561594D02*
D03*
X591566D02*
D03*
X495554D02*
D03*
X525526D02*
D03*
X312166Y93980D02*
D03*
X282194D02*
D03*
X380746D02*
D03*
X350774D02*
D03*
X561594D02*
D03*
X591566D02*
D03*
X496824Y91440D02*
D03*
X526796D02*
D03*
D22*
X704850Y565480D02*
D03*
X717550D02*
D03*
X730250D02*
D03*
X742950D02*
D03*
Y511480D02*
D03*
X730250D02*
D03*
X717550D02*
D03*
X704850D02*
D03*
D23*
X236220Y195580D02*
D03*
X236640Y182880D02*
D03*
Y170180D02*
D03*
Y157480D02*
D03*
Y144780D02*
D03*
Y132080D02*
D03*
Y119380D02*
D03*
X179920D02*
D03*
Y132080D02*
D03*
Y144780D02*
D03*
Y157480D02*
D03*
Y170180D02*
D03*
Y182880D02*
D03*
Y195580D02*
D03*
X698080Y193040D02*
D03*
X698500Y180340D02*
D03*
Y167640D02*
D03*
Y154940D02*
D03*
Y142240D02*
D03*
Y129540D02*
D03*
Y116840D02*
D03*
X641780D02*
D03*
Y129540D02*
D03*
Y142240D02*
D03*
Y154940D02*
D03*
Y167640D02*
D03*
Y180340D02*
D03*
Y193040D02*
D03*
D36*
X572770Y405130D02*
D03*
Y379730D02*
D03*
X370840Y407670D02*
D03*
Y382270D02*
D03*
X590550Y604520D02*
D03*
Y579120D02*
D03*
X457200Y394970D02*
D03*
X482600D02*
D03*
X350520Y604520D02*
D03*
Y579120D02*
D03*
D37*
X679450Y394970D02*
D03*
X654050D02*
D03*
X628650D02*
D03*
X254000Y398780D02*
D03*
X279400D02*
D03*
X304800D02*
D03*
D38*
X141280Y584200D02*
D03*
X81280D02*
D03*
D39*
X116280Y537700D02*
D03*
D40*
X243840Y609600D02*
D03*
X218440D02*
D03*
X294640D02*
D03*
X269240D02*
D03*
X866140Y467360D02*
D03*
Y492760D02*
D03*
Y416560D02*
D03*
Y441960D02*
D03*
X769620Y17780D02*
D03*
X795020D02*
D03*
X718820D02*
D03*
X744220D02*
D03*
X556260D02*
D03*
X581660D02*
D03*
X505460D02*
D03*
X530860D02*
D03*
X858520Y116840D02*
D03*
Y91440D02*
D03*
Y167640D02*
D03*
Y142240D02*
D03*
Y271780D02*
D03*
Y246380D02*
D03*
Y322580D02*
D03*
Y297180D02*
D03*
X30480Y142240D02*
D03*
Y167640D02*
D03*
Y91440D02*
D03*
Y116840D02*
D03*
X345440Y17780D02*
D03*
X370840D02*
D03*
X294640D02*
D03*
X320040D02*
D03*
X137160D02*
D03*
X162560D02*
D03*
X86360D02*
D03*
X111760D02*
D03*
X27940Y472440D02*
D03*
Y497840D02*
D03*
Y421640D02*
D03*
Y447040D02*
D03*
X30480Y297180D02*
D03*
Y322580D02*
D03*
Y246380D02*
D03*
Y271780D02*
D03*
D41*
X678180Y502920D02*
D03*
X635500Y446270D02*
D03*
X476250Y595630D02*
D03*
X613410Y116840D02*
D03*
Y168910D02*
D03*
X784860Y193040D02*
D03*
X473710Y91440D02*
D03*
Y147320D02*
D03*
Y200660D02*
D03*
X388620Y525780D02*
D03*
X523240Y448310D02*
D03*
X207010Y355600D02*
D03*
M02*
