G04*
G04 #@! TF.GenerationSoftware,Altium Limited,Altium Designer,24.1.2 (44)*
G04*
G04 Layer_Physical_Order=2*
G04 Layer_Color=16711680*
%FSLAX44Y44*%
%MOMM*%
G71*
G04*
G04 #@! TF.SameCoordinates,F364B903-5596-4D6A-ADCC-369FF5D97E13*
G04*
G04*
G04 #@! TF.FilePolarity,Positive*
G04*
G01*
G75*
%ADD12C,0.1524*%
%ADD36C,1.5240*%
%ADD37C,1.6500*%
%ADD38O,2.0000X3.8000*%
%ADD39O,3.3000X1.8000*%
%ADD40C,1.7780*%
%ADD41C,0.6350*%
G36*
X883820Y3909D02*
X457200D01*
Y342900D01*
X5179D01*
Y629821D01*
X883820D01*
Y3909D01*
D02*
G37*
%LPC*%
G36*
X296145Y621030D02*
X295910D01*
Y609600D01*
Y598170D01*
X296145D01*
X299052Y598949D01*
X301658Y600454D01*
X303786Y602582D01*
X305291Y605188D01*
X306070Y608095D01*
Y611105D01*
X305291Y614012D01*
X303786Y616618D01*
X301658Y618746D01*
X299052Y620251D01*
X296145Y621030D01*
D02*
G37*
G36*
X293370D02*
X293135D01*
X290228Y620251D01*
X287622Y618746D01*
X285494Y616618D01*
X283989Y614012D01*
X283210Y611105D01*
Y608095D01*
X283989Y605188D01*
X285494Y602582D01*
X287622Y600454D01*
X290228Y598949D01*
X293135Y598170D01*
X293370D01*
Y609600D01*
Y621030D01*
D02*
G37*
G36*
X270745D02*
X270510D01*
Y609600D01*
Y598170D01*
X270745D01*
X273652Y598949D01*
X276258Y600454D01*
X278386Y602582D01*
X279891Y605188D01*
X280670Y608095D01*
Y611105D01*
X279891Y614012D01*
X278386Y616618D01*
X276258Y618746D01*
X273652Y620251D01*
X270745Y621030D01*
D02*
G37*
G36*
X267970D02*
X267735D01*
X264828Y620251D01*
X262222Y618746D01*
X260094Y616618D01*
X258589Y614012D01*
X257810Y611105D01*
Y608095D01*
X258589Y605188D01*
X260094Y602582D01*
X262222Y600454D01*
X264828Y598949D01*
X267735Y598170D01*
X267970D01*
Y609600D01*
Y621030D01*
D02*
G37*
G36*
X245345D02*
X245110D01*
Y609600D01*
Y598170D01*
X245345D01*
X248252Y598949D01*
X250858Y600454D01*
X252986Y602582D01*
X254491Y605188D01*
X255270Y608095D01*
Y611105D01*
X254491Y614012D01*
X252986Y616618D01*
X250858Y618746D01*
X248252Y620251D01*
X245345Y621030D01*
D02*
G37*
G36*
X242570D02*
X242335D01*
X239428Y620251D01*
X236822Y618746D01*
X234694Y616618D01*
X233189Y614012D01*
X232410Y611105D01*
Y608095D01*
X233189Y605188D01*
X234694Y602582D01*
X236822Y600454D01*
X239428Y598949D01*
X242335Y598170D01*
X242570D01*
Y609600D01*
Y621030D01*
D02*
G37*
G36*
X219945D02*
X216935D01*
X214028Y620251D01*
X211422Y618746D01*
X209294Y616618D01*
X207789Y614012D01*
X207010Y611105D01*
Y608095D01*
X207789Y605188D01*
X209294Y602582D01*
X211422Y600454D01*
X214028Y598949D01*
X216935Y598170D01*
X219945D01*
X222852Y598949D01*
X225458Y600454D01*
X227586Y602582D01*
X229091Y605188D01*
X229870Y608095D01*
Y611105D01*
X229091Y614012D01*
X227586Y616618D01*
X225458Y618746D01*
X222852Y620251D01*
X219945Y621030D01*
D02*
G37*
G36*
X591888Y614680D02*
X589212D01*
X586628Y613988D01*
X584312Y612650D01*
X582420Y610758D01*
X581082Y608442D01*
X580390Y605858D01*
Y603182D01*
X581082Y600598D01*
X582420Y598282D01*
X584312Y596390D01*
X586628Y595052D01*
X589212Y594360D01*
X591888D01*
X594472Y595052D01*
X596788Y596390D01*
X598680Y598282D01*
X600018Y600598D01*
X600710Y603182D01*
Y605858D01*
X600018Y608442D01*
X598680Y610758D01*
X596788Y612650D01*
X594472Y613988D01*
X591888Y614680D01*
D02*
G37*
G36*
X351858D02*
X349182D01*
X346598Y613988D01*
X344282Y612650D01*
X342390Y610758D01*
X341052Y608442D01*
X340360Y605858D01*
Y603182D01*
X341052Y600598D01*
X342390Y598282D01*
X344282Y596390D01*
X346598Y595052D01*
X349182Y594360D01*
X351858D01*
X354442Y595052D01*
X356758Y596390D01*
X358650Y598282D01*
X359988Y600598D01*
X360680Y603182D01*
Y605858D01*
X359988Y608442D01*
X358650Y610758D01*
X356758Y612650D01*
X354442Y613988D01*
X351858Y614680D01*
D02*
G37*
G36*
X477520Y601290D02*
Y595630D01*
Y589970D01*
X479487Y590785D01*
X481095Y592393D01*
X481965Y594493D01*
Y596767D01*
X481095Y598867D01*
X479487Y600475D01*
X477520Y601290D01*
D02*
G37*
G36*
X474980D02*
X473013Y600475D01*
X471405Y598867D01*
X470535Y596767D01*
Y594493D01*
X471405Y592393D01*
X473013Y590785D01*
X474980Y589970D01*
Y595630D01*
Y601290D01*
D02*
G37*
G36*
X81280Y605848D02*
X78006Y605417D01*
X74956Y604154D01*
X72336Y602144D01*
X70326Y599524D01*
X69063Y596474D01*
X68632Y593200D01*
Y585470D01*
X81280D01*
X93928D01*
Y593200D01*
X93497Y596474D01*
X92234Y599524D01*
X90224Y602144D01*
X87604Y604154D01*
X84554Y605417D01*
X81280Y605848D01*
D02*
G37*
G36*
X591888Y589280D02*
X589212D01*
X586628Y588588D01*
X584312Y587250D01*
X582420Y585358D01*
X581082Y583042D01*
X580390Y580458D01*
Y577782D01*
X581082Y575198D01*
X582420Y572882D01*
X584312Y570990D01*
X586628Y569652D01*
X589212Y568960D01*
X591888D01*
X594472Y569652D01*
X596788Y570990D01*
X598680Y572882D01*
X600018Y575198D01*
X600710Y577782D01*
Y580458D01*
X600018Y583042D01*
X598680Y585358D01*
X596788Y587250D01*
X594472Y588588D01*
X591888Y589280D01*
D02*
G37*
G36*
X351858D02*
X349182D01*
X346598Y588588D01*
X344282Y587250D01*
X342390Y585358D01*
X341052Y583042D01*
X340360Y580458D01*
Y577782D01*
X341052Y575198D01*
X342390Y572882D01*
X344282Y570990D01*
X346598Y569652D01*
X349182Y568960D01*
X351858D01*
X354442Y569652D01*
X356758Y570990D01*
X358650Y572882D01*
X359988Y575198D01*
X360680Y577782D01*
Y580458D01*
X359988Y583042D01*
X358650Y585358D01*
X356758Y587250D01*
X354442Y588588D01*
X351858Y589280D01*
D02*
G37*
G36*
X141280Y605848D02*
X138006Y605417D01*
X134956Y604154D01*
X132336Y602144D01*
X130326Y599524D01*
X129063Y596474D01*
X128632Y593200D01*
Y575200D01*
X129063Y571926D01*
X130326Y568876D01*
X132336Y566256D01*
X134956Y564246D01*
X138006Y562983D01*
X141280Y562552D01*
X144554Y562983D01*
X147604Y564246D01*
X150224Y566256D01*
X152234Y568876D01*
X153497Y571926D01*
X153928Y575200D01*
Y593200D01*
X153497Y596474D01*
X152234Y599524D01*
X150224Y602144D01*
X147604Y604154D01*
X144554Y605417D01*
X141280Y605848D01*
D02*
G37*
G36*
X93928Y582930D02*
X81280D01*
X68632D01*
Y575200D01*
X69063Y571926D01*
X70326Y568876D01*
X72336Y566256D01*
X74956Y564246D01*
X78006Y562983D01*
X81280Y562552D01*
X84554Y562983D01*
X87604Y564246D01*
X90224Y566256D01*
X92234Y568876D01*
X93497Y571926D01*
X93928Y575200D01*
Y582930D01*
D02*
G37*
G36*
X123780Y549339D02*
X117550D01*
Y537700D01*
Y526060D01*
X123780D01*
X126793Y526457D01*
X129600Y527620D01*
X132010Y529470D01*
X133860Y531880D01*
X135023Y534687D01*
X135420Y537700D01*
X135023Y540713D01*
X133860Y543520D01*
X132010Y545930D01*
X129600Y547780D01*
X126793Y548943D01*
X123780Y549339D01*
D02*
G37*
G36*
X115010D02*
X108780D01*
X105767Y548943D01*
X102960Y547780D01*
X100550Y545930D01*
X98700Y543520D01*
X97537Y540713D01*
X97140Y537700D01*
X97537Y534687D01*
X98700Y531880D01*
X100550Y529470D01*
X102960Y527620D01*
X105767Y526457D01*
X108780Y526060D01*
X115010D01*
Y537700D01*
Y549339D01*
D02*
G37*
G36*
X389890Y531440D02*
Y525780D01*
Y520120D01*
X391857Y520935D01*
X393465Y522543D01*
X394335Y524643D01*
Y526917D01*
X393465Y529017D01*
X391857Y530625D01*
X389890Y531440D01*
D02*
G37*
G36*
X387350D02*
X385383Y530625D01*
X383775Y529017D01*
X382905Y526917D01*
Y524643D01*
X383775Y522543D01*
X385383Y520935D01*
X387350Y520120D01*
Y525780D01*
Y531440D01*
D02*
G37*
G36*
X679450Y508580D02*
Y502920D01*
Y497260D01*
X681417Y498075D01*
X683025Y499683D01*
X683895Y501783D01*
Y504057D01*
X683025Y506157D01*
X681417Y507765D01*
X679450Y508580D01*
D02*
G37*
G36*
X676910D02*
X674943Y507765D01*
X673335Y506157D01*
X672465Y504057D01*
Y501783D01*
X673335Y499683D01*
X674943Y498075D01*
X676910Y497260D01*
Y502920D01*
Y508580D01*
D02*
G37*
G36*
X29445Y509270D02*
X26435D01*
X23528Y508491D01*
X20922Y506986D01*
X18794Y504858D01*
X17289Y502252D01*
X16510Y499345D01*
Y496335D01*
X17289Y493428D01*
X18794Y490822D01*
X20922Y488694D01*
X23528Y487189D01*
X26435Y486410D01*
X29445D01*
X32352Y487189D01*
X34958Y488694D01*
X37086Y490822D01*
X38591Y493428D01*
X39370Y496335D01*
Y499345D01*
X38591Y502252D01*
X37086Y504858D01*
X34958Y506986D01*
X32352Y508491D01*
X29445Y509270D01*
D02*
G37*
G36*
X867645Y504190D02*
X864635D01*
X861728Y503411D01*
X859122Y501906D01*
X856994Y499778D01*
X855489Y497172D01*
X854710Y494265D01*
Y491255D01*
X855489Y488348D01*
X856994Y485742D01*
X859122Y483614D01*
X861728Y482109D01*
X864635Y481330D01*
X867645D01*
X870552Y482109D01*
X873158Y483614D01*
X875286Y485742D01*
X876791Y488348D01*
X877570Y491255D01*
Y494265D01*
X876791Y497172D01*
X875286Y499778D01*
X873158Y501906D01*
X870552Y503411D01*
X867645Y504190D01*
D02*
G37*
G36*
X29445Y483870D02*
X26435D01*
X23528Y483091D01*
X20922Y481586D01*
X18794Y479458D01*
X17289Y476852D01*
X16510Y473945D01*
Y473710D01*
X27940D01*
X39370D01*
Y473945D01*
X38591Y476852D01*
X37086Y479458D01*
X34958Y481586D01*
X32352Y483091D01*
X29445Y483870D01*
D02*
G37*
G36*
X867645Y478790D02*
X864635D01*
X861728Y478011D01*
X859122Y476506D01*
X856994Y474378D01*
X855489Y471772D01*
X854710Y468865D01*
Y468630D01*
X866140D01*
X877570D01*
Y468865D01*
X876791Y471772D01*
X875286Y474378D01*
X873158Y476506D01*
X870552Y478011D01*
X867645Y478790D01*
D02*
G37*
G36*
X39370Y471170D02*
X27940D01*
X16510D01*
Y470935D01*
X17289Y468028D01*
X18794Y465422D01*
X20922Y463294D01*
X23528Y461789D01*
X26435Y461010D01*
X29445D01*
X32352Y461789D01*
X34958Y463294D01*
X37086Y465422D01*
X38591Y468028D01*
X39370Y470935D01*
Y471170D01*
D02*
G37*
G36*
X877570Y466090D02*
X866140D01*
X854710D01*
Y465855D01*
X855489Y462948D01*
X856994Y460342D01*
X859122Y458214D01*
X861728Y456709D01*
X864635Y455930D01*
X867645D01*
X870552Y456709D01*
X873158Y458214D01*
X875286Y460342D01*
X876791Y462948D01*
X877570Y465855D01*
Y466090D01*
D02*
G37*
G36*
X29445Y458470D02*
X26435D01*
X23528Y457691D01*
X20922Y456186D01*
X18794Y454058D01*
X17289Y451452D01*
X16510Y448545D01*
Y448310D01*
X27940D01*
X39370D01*
Y448545D01*
X38591Y451452D01*
X37086Y454058D01*
X34958Y456186D01*
X32352Y457691D01*
X29445Y458470D01*
D02*
G37*
G36*
X867645Y453390D02*
X864635D01*
X861728Y452611D01*
X859122Y451106D01*
X856994Y448978D01*
X855489Y446372D01*
X854710Y443465D01*
Y443230D01*
X866140D01*
X877570D01*
Y443465D01*
X876791Y446372D01*
X875286Y448978D01*
X873158Y451106D01*
X870552Y452611D01*
X867645Y453390D01*
D02*
G37*
G36*
X524510Y453970D02*
Y448310D01*
Y442650D01*
X526477Y443465D01*
X528085Y445073D01*
X528955Y447173D01*
Y449447D01*
X528085Y451547D01*
X526477Y453155D01*
X524510Y453970D01*
D02*
G37*
G36*
X521970D02*
X520003Y453155D01*
X518395Y451547D01*
X517525Y449447D01*
Y447173D01*
X518395Y445073D01*
X520003Y443465D01*
X521970Y442650D01*
Y448310D01*
Y453970D01*
D02*
G37*
G36*
X636770Y451930D02*
Y446270D01*
Y440610D01*
X638737Y441425D01*
X640345Y443033D01*
X641215Y445133D01*
Y447407D01*
X640345Y449507D01*
X638737Y451115D01*
X636770Y451930D01*
D02*
G37*
G36*
X634230D02*
X632263Y451115D01*
X630655Y449507D01*
X629785Y447407D01*
Y445133D01*
X630655Y443033D01*
X632263Y441425D01*
X634230Y440610D01*
Y446270D01*
Y451930D01*
D02*
G37*
G36*
X39370Y445770D02*
X27940D01*
X16510D01*
Y445535D01*
X17289Y442628D01*
X18794Y440022D01*
X20922Y437894D01*
X23528Y436389D01*
X26435Y435610D01*
X29445D01*
X32352Y436389D01*
X34958Y437894D01*
X37086Y440022D01*
X38591Y442628D01*
X39370Y445535D01*
Y445770D01*
D02*
G37*
G36*
X877570Y440690D02*
X866140D01*
X854710D01*
Y440455D01*
X855489Y437548D01*
X856994Y434942D01*
X859122Y432814D01*
X861728Y431309D01*
X864635Y430530D01*
X867645D01*
X870552Y431309D01*
X873158Y432814D01*
X875286Y434942D01*
X876791Y437548D01*
X877570Y440455D01*
Y440690D01*
D02*
G37*
G36*
X29445Y433070D02*
X26435D01*
X23528Y432291D01*
X20922Y430786D01*
X18794Y428658D01*
X17289Y426052D01*
X16510Y423145D01*
Y422910D01*
X27940D01*
X39370D01*
Y423145D01*
X38591Y426052D01*
X37086Y428658D01*
X34958Y430786D01*
X32352Y432291D01*
X29445Y433070D01*
D02*
G37*
G36*
X867645Y427990D02*
X864635D01*
X861728Y427211D01*
X859122Y425706D01*
X856994Y423578D01*
X855489Y420972D01*
X854710Y418065D01*
Y417830D01*
X866140D01*
X877570D01*
Y418065D01*
X876791Y420972D01*
X875286Y423578D01*
X873158Y425706D01*
X870552Y427211D01*
X867645Y427990D01*
D02*
G37*
G36*
X39370Y420370D02*
X27940D01*
X16510D01*
Y420135D01*
X17289Y417228D01*
X18794Y414622D01*
X20922Y412494D01*
X23528Y410989D01*
X26435Y410210D01*
X29445D01*
X32352Y410989D01*
X34958Y412494D01*
X37086Y414622D01*
X38591Y417228D01*
X39370Y420135D01*
Y420370D01*
D02*
G37*
G36*
X877570Y415290D02*
X866140D01*
X854710D01*
Y415055D01*
X855489Y412148D01*
X856994Y409542D01*
X859122Y407414D01*
X861728Y405909D01*
X864635Y405130D01*
X867645D01*
X870552Y405909D01*
X873158Y407414D01*
X875286Y409542D01*
X876791Y412148D01*
X877570Y415055D01*
Y415290D01*
D02*
G37*
G36*
X372178Y417830D02*
X369502D01*
X366918Y417138D01*
X364602Y415800D01*
X362710Y413908D01*
X361372Y411592D01*
X360680Y409008D01*
Y406332D01*
X361372Y403748D01*
X362710Y401432D01*
X364602Y399540D01*
X366918Y398202D01*
X369502Y397510D01*
X372178D01*
X374762Y398202D01*
X377078Y399540D01*
X378970Y401432D01*
X380308Y403748D01*
X381000Y406332D01*
Y409008D01*
X380308Y411592D01*
X378970Y413908D01*
X377078Y415800D01*
X374762Y417138D01*
X372178Y417830D01*
D02*
G37*
G36*
X574108Y415290D02*
X571432D01*
X568848Y414598D01*
X566532Y413260D01*
X564640Y411368D01*
X563302Y409052D01*
X562610Y406468D01*
Y403792D01*
X563302Y401208D01*
X564640Y398892D01*
X566532Y397000D01*
X568848Y395662D01*
X571432Y394970D01*
X574108D01*
X576692Y395662D01*
X579008Y397000D01*
X580900Y398892D01*
X582238Y401208D01*
X582930Y403792D01*
Y406468D01*
X582238Y409052D01*
X580900Y411368D01*
X579008Y413260D01*
X576692Y414598D01*
X574108Y415290D01*
D02*
G37*
G36*
X306220Y409570D02*
X303379D01*
X300635Y408835D01*
X298175Y407414D01*
X296166Y405405D01*
X294745Y402945D01*
X294010Y400201D01*
Y397360D01*
X294745Y394615D01*
X296166Y392155D01*
X298175Y390146D01*
X300635Y388725D01*
X303379Y387990D01*
X306220D01*
X308965Y388725D01*
X311425Y390146D01*
X313434Y392155D01*
X314855Y394615D01*
X315590Y397360D01*
Y400201D01*
X314855Y402945D01*
X313434Y405405D01*
X311425Y407414D01*
X308965Y408835D01*
X306220Y409570D01*
D02*
G37*
G36*
X280821D02*
X277980D01*
X275235Y408835D01*
X272775Y407414D01*
X270766Y405405D01*
X269345Y402945D01*
X268610Y400201D01*
Y397360D01*
X269345Y394615D01*
X270766Y392155D01*
X272775Y390146D01*
X275235Y388725D01*
X277980Y387990D01*
X280821D01*
X283565Y388725D01*
X286025Y390146D01*
X288034Y392155D01*
X289455Y394615D01*
X290190Y397360D01*
Y400201D01*
X289455Y402945D01*
X288034Y405405D01*
X286025Y407414D01*
X283565Y408835D01*
X280821Y409570D01*
D02*
G37*
G36*
X255420D02*
X252579D01*
X249835Y408835D01*
X247375Y407414D01*
X245366Y405405D01*
X243945Y402945D01*
X243210Y400201D01*
Y397360D01*
X243945Y394615D01*
X245366Y392155D01*
X247375Y390146D01*
X249835Y388725D01*
X252579Y387990D01*
X255420D01*
X258165Y388725D01*
X260625Y390146D01*
X262634Y392155D01*
X264055Y394615D01*
X264790Y397360D01*
Y400201D01*
X264055Y402945D01*
X262634Y405405D01*
X260625Y407414D01*
X258165Y408835D01*
X255420Y409570D01*
D02*
G37*
G36*
X483938Y405130D02*
X481262D01*
X478678Y404438D01*
X476362Y403100D01*
X474470Y401208D01*
X473132Y398892D01*
X472440Y396308D01*
Y393632D01*
X473132Y391048D01*
X474470Y388732D01*
X476362Y386840D01*
X478678Y385502D01*
X481262Y384810D01*
X483938D01*
X486522Y385502D01*
X488838Y386840D01*
X490730Y388732D01*
X492068Y391048D01*
X492760Y393632D01*
Y396308D01*
X492068Y398892D01*
X490730Y401208D01*
X488838Y403100D01*
X486522Y404438D01*
X483938Y405130D01*
D02*
G37*
G36*
X458538D02*
X455862D01*
X453278Y404438D01*
X450962Y403100D01*
X449070Y401208D01*
X447732Y398892D01*
X447040Y396308D01*
Y393632D01*
X447732Y391048D01*
X449070Y388732D01*
X450962Y386840D01*
X453278Y385502D01*
X455862Y384810D01*
X458538D01*
X461122Y385502D01*
X463438Y386840D01*
X465330Y388732D01*
X466668Y391048D01*
X467360Y393632D01*
Y396308D01*
X466668Y398892D01*
X465330Y401208D01*
X463438Y403100D01*
X461122Y404438D01*
X458538Y405130D01*
D02*
G37*
G36*
X680871Y405760D02*
X678029D01*
X675285Y405025D01*
X672825Y403604D01*
X670816Y401595D01*
X669395Y399135D01*
X668660Y396390D01*
Y393549D01*
X669395Y390805D01*
X670816Y388345D01*
X672825Y386336D01*
X675285Y384915D01*
X678029Y384180D01*
X680871D01*
X683615Y384915D01*
X686075Y386336D01*
X688084Y388345D01*
X689505Y390805D01*
X690240Y393549D01*
Y396390D01*
X689505Y399135D01*
X688084Y401595D01*
X686075Y403604D01*
X683615Y405025D01*
X680871Y405760D01*
D02*
G37*
G36*
X655471D02*
X652629D01*
X649885Y405025D01*
X647425Y403604D01*
X645416Y401595D01*
X643995Y399135D01*
X643260Y396390D01*
Y393549D01*
X643995Y390805D01*
X645416Y388345D01*
X647425Y386336D01*
X649885Y384915D01*
X652629Y384180D01*
X655471D01*
X658215Y384915D01*
X660675Y386336D01*
X662684Y388345D01*
X664105Y390805D01*
X664840Y393549D01*
Y396390D01*
X664105Y399135D01*
X662684Y401595D01*
X660675Y403604D01*
X658215Y405025D01*
X655471Y405760D01*
D02*
G37*
G36*
X630070D02*
X627229D01*
X624485Y405025D01*
X622025Y403604D01*
X620016Y401595D01*
X618595Y399135D01*
X617860Y396390D01*
Y393549D01*
X618595Y390805D01*
X620016Y388345D01*
X622025Y386336D01*
X624485Y384915D01*
X627229Y384180D01*
X630070D01*
X632815Y384915D01*
X635275Y386336D01*
X637284Y388345D01*
X638705Y390805D01*
X639440Y393549D01*
Y396390D01*
X638705Y399135D01*
X637284Y401595D01*
X635275Y403604D01*
X632815Y405025D01*
X630070Y405760D01*
D02*
G37*
G36*
X372178Y392430D02*
X369502D01*
X366918Y391738D01*
X364602Y390400D01*
X362710Y388508D01*
X361372Y386192D01*
X360680Y383608D01*
Y380932D01*
X361372Y378348D01*
X362710Y376032D01*
X364602Y374140D01*
X366918Y372802D01*
X369502Y372110D01*
X372178D01*
X374762Y372802D01*
X377078Y374140D01*
X378970Y376032D01*
X380308Y378348D01*
X381000Y380932D01*
Y383608D01*
X380308Y386192D01*
X378970Y388508D01*
X377078Y390400D01*
X374762Y391738D01*
X372178Y392430D01*
D02*
G37*
G36*
X574108Y389890D02*
X571432D01*
X568848Y389198D01*
X566532Y387860D01*
X564640Y385968D01*
X563302Y383652D01*
X562610Y381068D01*
Y378392D01*
X563302Y375808D01*
X564640Y373492D01*
X566532Y371600D01*
X568848Y370262D01*
X571432Y369570D01*
X574108D01*
X576692Y370262D01*
X579008Y371600D01*
X580900Y373492D01*
X582238Y375808D01*
X582930Y378392D01*
Y381068D01*
X582238Y383652D01*
X580900Y385968D01*
X579008Y387860D01*
X576692Y389198D01*
X574108Y389890D01*
D02*
G37*
G36*
X208280Y361260D02*
Y355600D01*
Y349940D01*
X210247Y350755D01*
X211855Y352363D01*
X212725Y354463D01*
Y356737D01*
X211855Y358837D01*
X210247Y360445D01*
X208280Y361260D01*
D02*
G37*
G36*
X205740D02*
X203773Y360445D01*
X202165Y358837D01*
X201295Y356737D01*
Y354463D01*
X202165Y352363D01*
X203773Y350755D01*
X205740Y349940D01*
Y355600D01*
Y361260D01*
D02*
G37*
G36*
X860025Y334010D02*
X857015D01*
X854108Y333231D01*
X851502Y331726D01*
X849374Y329598D01*
X847869Y326992D01*
X847090Y324085D01*
Y323850D01*
X858520D01*
X869950D01*
Y324085D01*
X869171Y326992D01*
X867666Y329598D01*
X865538Y331726D01*
X862932Y333231D01*
X860025Y334010D01*
D02*
G37*
G36*
X869950Y321310D02*
X858520D01*
X847090D01*
Y321075D01*
X847869Y318168D01*
X849374Y315562D01*
X851502Y313434D01*
X854108Y311929D01*
X857015Y311150D01*
X860025D01*
X862932Y311929D01*
X865538Y313434D01*
X867666Y315562D01*
X869171Y318168D01*
X869950Y321075D01*
Y321310D01*
D02*
G37*
G36*
X860025Y308610D02*
X857015D01*
X854108Y307831D01*
X851502Y306326D01*
X849374Y304198D01*
X847869Y301592D01*
X847090Y298685D01*
Y298450D01*
X858520D01*
X869950D01*
Y298685D01*
X869171Y301592D01*
X867666Y304198D01*
X865538Y306326D01*
X862932Y307831D01*
X860025Y308610D01*
D02*
G37*
G36*
X869950Y295910D02*
X858520D01*
X847090D01*
Y295675D01*
X847869Y292768D01*
X849374Y290162D01*
X851502Y288034D01*
X854108Y286529D01*
X857015Y285750D01*
X860025D01*
X862932Y286529D01*
X865538Y288034D01*
X867666Y290162D01*
X869171Y292768D01*
X869950Y295675D01*
Y295910D01*
D02*
G37*
G36*
X860025Y283210D02*
X857015D01*
X854108Y282431D01*
X851502Y280926D01*
X849374Y278798D01*
X847869Y276192D01*
X847090Y273285D01*
Y273050D01*
X858520D01*
X869950D01*
Y273285D01*
X869171Y276192D01*
X867666Y278798D01*
X865538Y280926D01*
X862932Y282431D01*
X860025Y283210D01*
D02*
G37*
G36*
X869950Y270510D02*
X858520D01*
X847090D01*
Y270275D01*
X847869Y267368D01*
X849374Y264762D01*
X851502Y262634D01*
X854108Y261129D01*
X857015Y260350D01*
X860025D01*
X862932Y261129D01*
X865538Y262634D01*
X867666Y264762D01*
X869171Y267368D01*
X869950Y270275D01*
Y270510D01*
D02*
G37*
G36*
X860025Y257810D02*
X857015D01*
X854108Y257031D01*
X851502Y255526D01*
X849374Y253398D01*
X847869Y250792D01*
X847090Y247885D01*
Y244875D01*
X847869Y241968D01*
X849374Y239362D01*
X851502Y237234D01*
X854108Y235729D01*
X857015Y234950D01*
X860025D01*
X862932Y235729D01*
X865538Y237234D01*
X867666Y239362D01*
X869171Y241968D01*
X869950Y244875D01*
Y247885D01*
X869171Y250792D01*
X867666Y253398D01*
X865538Y255526D01*
X862932Y257031D01*
X860025Y257810D01*
D02*
G37*
G36*
X474980Y206320D02*
Y200660D01*
Y195000D01*
X476947Y195815D01*
X478555Y197423D01*
X479425Y199523D01*
Y201797D01*
X478555Y203897D01*
X476947Y205505D01*
X474980Y206320D01*
D02*
G37*
G36*
X472440D02*
X470473Y205505D01*
X468865Y203897D01*
X467995Y201797D01*
Y199523D01*
X468865Y197423D01*
X470473Y195815D01*
X472440Y195000D01*
Y200660D01*
Y206320D01*
D02*
G37*
G36*
X786130Y198700D02*
Y193040D01*
Y187380D01*
X788097Y188195D01*
X789705Y189803D01*
X790575Y191903D01*
Y194177D01*
X789705Y196277D01*
X788097Y197885D01*
X786130Y198700D01*
D02*
G37*
G36*
X783590D02*
X781623Y197885D01*
X780015Y196277D01*
X779145Y194177D01*
Y191903D01*
X780015Y189803D01*
X781623Y188195D01*
X783590Y187380D01*
Y193040D01*
Y198700D01*
D02*
G37*
G36*
X860025Y179070D02*
X857015D01*
X854108Y178291D01*
X851502Y176786D01*
X849374Y174658D01*
X847869Y172052D01*
X847090Y169145D01*
Y168910D01*
X858520D01*
X869950D01*
Y169145D01*
X869171Y172052D01*
X867666Y174658D01*
X865538Y176786D01*
X862932Y178291D01*
X860025Y179070D01*
D02*
G37*
G36*
X614680Y174570D02*
Y168910D01*
Y163250D01*
X616647Y164065D01*
X618255Y165673D01*
X619125Y167773D01*
Y170047D01*
X618255Y172147D01*
X616647Y173755D01*
X614680Y174570D01*
D02*
G37*
G36*
X612140D02*
X610173Y173755D01*
X608565Y172147D01*
X607695Y170047D01*
Y167773D01*
X608565Y165673D01*
X610173Y164065D01*
X612140Y163250D01*
Y168910D01*
Y174570D01*
D02*
G37*
G36*
X869950Y166370D02*
X858520D01*
X847090D01*
Y166135D01*
X847869Y163228D01*
X849374Y160622D01*
X851502Y158494D01*
X854108Y156989D01*
X857015Y156210D01*
X860025D01*
X862932Y156989D01*
X865538Y158494D01*
X867666Y160622D01*
X869171Y163228D01*
X869950Y166135D01*
Y166370D01*
D02*
G37*
G36*
X860025Y153670D02*
X857015D01*
X854108Y152891D01*
X851502Y151386D01*
X849374Y149258D01*
X847869Y146652D01*
X847090Y143745D01*
Y143510D01*
X858520D01*
X869950D01*
Y143745D01*
X869171Y146652D01*
X867666Y149258D01*
X865538Y151386D01*
X862932Y152891D01*
X860025Y153670D01*
D02*
G37*
G36*
X474980Y152980D02*
Y147320D01*
Y141660D01*
X476947Y142475D01*
X478555Y144083D01*
X479425Y146183D01*
Y148457D01*
X478555Y150557D01*
X476947Y152165D01*
X474980Y152980D01*
D02*
G37*
G36*
X472440D02*
X470473Y152165D01*
X468865Y150557D01*
X467995Y148457D01*
Y146183D01*
X468865Y144083D01*
X470473Y142475D01*
X472440Y141660D01*
Y147320D01*
Y152980D01*
D02*
G37*
G36*
X869950Y140970D02*
X858520D01*
X847090D01*
Y140735D01*
X847869Y137828D01*
X849374Y135222D01*
X851502Y133094D01*
X854108Y131589D01*
X857015Y130810D01*
X860025D01*
X862932Y131589D01*
X865538Y133094D01*
X867666Y135222D01*
X869171Y137828D01*
X869950Y140735D01*
Y140970D01*
D02*
G37*
G36*
X860025Y128270D02*
X857015D01*
X854108Y127491D01*
X851502Y125986D01*
X849374Y123858D01*
X847869Y121252D01*
X847090Y118345D01*
Y118110D01*
X858520D01*
X869950D01*
Y118345D01*
X869171Y121252D01*
X867666Y123858D01*
X865538Y125986D01*
X862932Y127491D01*
X860025Y128270D01*
D02*
G37*
G36*
X614680Y122500D02*
Y116840D01*
Y111180D01*
X616647Y111995D01*
X618255Y113603D01*
X619125Y115703D01*
Y117977D01*
X618255Y120077D01*
X616647Y121685D01*
X614680Y122500D01*
D02*
G37*
G36*
X612140D02*
X610173Y121685D01*
X608565Y120077D01*
X607695Y117977D01*
Y115703D01*
X608565Y113603D01*
X610173Y111995D01*
X612140Y111180D01*
Y116840D01*
Y122500D01*
D02*
G37*
G36*
X869950Y115570D02*
X858520D01*
X847090D01*
Y115335D01*
X847869Y112428D01*
X849374Y109822D01*
X851502Y107694D01*
X854108Y106189D01*
X857015Y105410D01*
X860025D01*
X862932Y106189D01*
X865538Y107694D01*
X867666Y109822D01*
X869171Y112428D01*
X869950Y115335D01*
Y115570D01*
D02*
G37*
G36*
X474980Y97100D02*
Y91440D01*
Y85780D01*
X476947Y86595D01*
X478555Y88203D01*
X479425Y90303D01*
Y92577D01*
X478555Y94677D01*
X476947Y96285D01*
X474980Y97100D01*
D02*
G37*
G36*
X472440D02*
X470473Y96285D01*
X468865Y94677D01*
X467995Y92577D01*
Y90303D01*
X468865Y88203D01*
X470473Y86595D01*
X472440Y85780D01*
Y91440D01*
Y97100D01*
D02*
G37*
G36*
X860025Y102870D02*
X857015D01*
X854108Y102091D01*
X851502Y100586D01*
X849374Y98458D01*
X847869Y95852D01*
X847090Y92945D01*
Y89935D01*
X847869Y87028D01*
X849374Y84422D01*
X851502Y82294D01*
X854108Y80789D01*
X857015Y80010D01*
X860025D01*
X862932Y80789D01*
X865538Y82294D01*
X867666Y84422D01*
X869171Y87028D01*
X869950Y89935D01*
Y92945D01*
X869171Y95852D01*
X867666Y98458D01*
X865538Y100586D01*
X862932Y102091D01*
X860025Y102870D01*
D02*
G37*
G36*
X796525Y29210D02*
X793515D01*
X790608Y28431D01*
X788002Y26926D01*
X785874Y24798D01*
X784369Y22192D01*
X783590Y19285D01*
Y16275D01*
X784369Y13368D01*
X785874Y10762D01*
X788002Y8634D01*
X790608Y7129D01*
X793515Y6350D01*
X796525D01*
X799432Y7129D01*
X802038Y8634D01*
X804166Y10762D01*
X805671Y13368D01*
X806450Y16275D01*
Y19285D01*
X805671Y22192D01*
X804166Y24798D01*
X802038Y26926D01*
X799432Y28431D01*
X796525Y29210D01*
D02*
G37*
G36*
X771125D02*
X770890D01*
Y17780D01*
Y6350D01*
X771125D01*
X774032Y7129D01*
X776638Y8634D01*
X778766Y10762D01*
X780271Y13368D01*
X781050Y16275D01*
Y19285D01*
X780271Y22192D01*
X778766Y24798D01*
X776638Y26926D01*
X774032Y28431D01*
X771125Y29210D01*
D02*
G37*
G36*
X768350D02*
X768115D01*
X765208Y28431D01*
X762602Y26926D01*
X760474Y24798D01*
X758969Y22192D01*
X758190Y19285D01*
Y16275D01*
X758969Y13368D01*
X760474Y10762D01*
X762602Y8634D01*
X765208Y7129D01*
X768115Y6350D01*
X768350D01*
Y17780D01*
Y29210D01*
D02*
G37*
G36*
X745725D02*
X745490D01*
Y17780D01*
Y6350D01*
X745725D01*
X748632Y7129D01*
X751238Y8634D01*
X753366Y10762D01*
X754871Y13368D01*
X755650Y16275D01*
Y19285D01*
X754871Y22192D01*
X753366Y24798D01*
X751238Y26926D01*
X748632Y28431D01*
X745725Y29210D01*
D02*
G37*
G36*
X742950D02*
X742715D01*
X739808Y28431D01*
X737202Y26926D01*
X735074Y24798D01*
X733569Y22192D01*
X732790Y19285D01*
Y16275D01*
X733569Y13368D01*
X735074Y10762D01*
X737202Y8634D01*
X739808Y7129D01*
X742715Y6350D01*
X742950D01*
Y17780D01*
Y29210D01*
D02*
G37*
G36*
X720325D02*
X720090D01*
Y17780D01*
Y6350D01*
X720325D01*
X723232Y7129D01*
X725838Y8634D01*
X727966Y10762D01*
X729471Y13368D01*
X730250Y16275D01*
Y19285D01*
X729471Y22192D01*
X727966Y24798D01*
X725838Y26926D01*
X723232Y28431D01*
X720325Y29210D01*
D02*
G37*
G36*
X717550D02*
X717315D01*
X714408Y28431D01*
X711802Y26926D01*
X709674Y24798D01*
X708169Y22192D01*
X707390Y19285D01*
Y16275D01*
X708169Y13368D01*
X709674Y10762D01*
X711802Y8634D01*
X714408Y7129D01*
X717315Y6350D01*
X717550D01*
Y17780D01*
Y29210D01*
D02*
G37*
G36*
X583165D02*
X580155D01*
X577248Y28431D01*
X574642Y26926D01*
X572514Y24798D01*
X571009Y22192D01*
X570230Y19285D01*
Y16275D01*
X571009Y13368D01*
X572514Y10762D01*
X574642Y8634D01*
X577248Y7129D01*
X580155Y6350D01*
X583165D01*
X586072Y7129D01*
X588678Y8634D01*
X590806Y10762D01*
X592311Y13368D01*
X593090Y16275D01*
Y19285D01*
X592311Y22192D01*
X590806Y24798D01*
X588678Y26926D01*
X586072Y28431D01*
X583165Y29210D01*
D02*
G37*
G36*
X557765D02*
X557530D01*
Y17780D01*
Y6350D01*
X557765D01*
X560672Y7129D01*
X563278Y8634D01*
X565406Y10762D01*
X566911Y13368D01*
X567690Y16275D01*
Y19285D01*
X566911Y22192D01*
X565406Y24798D01*
X563278Y26926D01*
X560672Y28431D01*
X557765Y29210D01*
D02*
G37*
G36*
X554990D02*
X554755D01*
X551848Y28431D01*
X549242Y26926D01*
X547114Y24798D01*
X545609Y22192D01*
X544830Y19285D01*
Y16275D01*
X545609Y13368D01*
X547114Y10762D01*
X549242Y8634D01*
X551848Y7129D01*
X554755Y6350D01*
X554990D01*
Y17780D01*
Y29210D01*
D02*
G37*
G36*
X532365D02*
X532130D01*
Y17780D01*
Y6350D01*
X532365D01*
X535272Y7129D01*
X537878Y8634D01*
X540006Y10762D01*
X541511Y13368D01*
X542290Y16275D01*
Y19285D01*
X541511Y22192D01*
X540006Y24798D01*
X537878Y26926D01*
X535272Y28431D01*
X532365Y29210D01*
D02*
G37*
G36*
X529590D02*
X529355D01*
X526448Y28431D01*
X523842Y26926D01*
X521714Y24798D01*
X520209Y22192D01*
X519430Y19285D01*
Y16275D01*
X520209Y13368D01*
X521714Y10762D01*
X523842Y8634D01*
X526448Y7129D01*
X529355Y6350D01*
X529590D01*
Y17780D01*
Y29210D01*
D02*
G37*
G36*
X506965D02*
X506730D01*
Y17780D01*
Y6350D01*
X506965D01*
X509872Y7129D01*
X512478Y8634D01*
X514606Y10762D01*
X516111Y13368D01*
X516890Y16275D01*
Y19285D01*
X516111Y22192D01*
X514606Y24798D01*
X512478Y26926D01*
X509872Y28431D01*
X506965Y29210D01*
D02*
G37*
G36*
X504190D02*
X503955D01*
X501048Y28431D01*
X498442Y26926D01*
X496314Y24798D01*
X494809Y22192D01*
X494030Y19285D01*
Y16275D01*
X494809Y13368D01*
X496314Y10762D01*
X498442Y8634D01*
X501048Y7129D01*
X503955Y6350D01*
X504190D01*
Y17780D01*
Y29210D01*
D02*
G37*
%LPD*%
D12*
X13970Y297180D02*
X30480D01*
X11430Y299720D02*
X13970Y297180D01*
X11430Y299720D02*
Y330200D01*
X27940Y346710D01*
Y421640D01*
D36*
X572770Y405130D02*
D03*
Y379730D02*
D03*
X370840Y407670D02*
D03*
Y382270D02*
D03*
X590550Y604520D02*
D03*
Y579120D02*
D03*
X457200Y394970D02*
D03*
X482600D02*
D03*
X350520Y604520D02*
D03*
Y579120D02*
D03*
D37*
X679450Y394970D02*
D03*
X654050D02*
D03*
X628650D02*
D03*
X254000Y398780D02*
D03*
X279400D02*
D03*
X304800D02*
D03*
D38*
X141280Y584200D02*
D03*
X81280D02*
D03*
D39*
X116280Y537700D02*
D03*
D40*
X243840Y609600D02*
D03*
X218440D02*
D03*
X294640D02*
D03*
X269240D02*
D03*
X866140Y467360D02*
D03*
Y492760D02*
D03*
Y416560D02*
D03*
Y441960D02*
D03*
X769620Y17780D02*
D03*
X795020D02*
D03*
X718820D02*
D03*
X744220D02*
D03*
X556260D02*
D03*
X581660D02*
D03*
X505460D02*
D03*
X530860D02*
D03*
X858520Y116840D02*
D03*
Y91440D02*
D03*
Y167640D02*
D03*
Y142240D02*
D03*
Y271780D02*
D03*
Y246380D02*
D03*
Y322580D02*
D03*
Y297180D02*
D03*
X30480Y142240D02*
D03*
Y167640D02*
D03*
Y91440D02*
D03*
Y116840D02*
D03*
X345440Y17780D02*
D03*
X370840D02*
D03*
X294640D02*
D03*
X320040D02*
D03*
X137160D02*
D03*
X162560D02*
D03*
X86360D02*
D03*
X111760D02*
D03*
X27940Y472440D02*
D03*
Y497840D02*
D03*
Y421640D02*
D03*
Y447040D02*
D03*
X30480Y297180D02*
D03*
Y322580D02*
D03*
Y246380D02*
D03*
Y271780D02*
D03*
D41*
X678180Y502920D02*
D03*
X635500Y446270D02*
D03*
X476250Y595630D02*
D03*
X613410Y116840D02*
D03*
Y168910D02*
D03*
X784860Y193040D02*
D03*
X473710Y91440D02*
D03*
Y147320D02*
D03*
Y200660D02*
D03*
X388620Y525780D02*
D03*
X523240Y448310D02*
D03*
X207010Y355600D02*
D03*
M02*
