G04*
G04 #@! TF.GenerationSoftware,Altium Limited,Altium Designer,24.2.2 (26)*
G04*
G04 Layer_Color=8388736*
%FSLAX44Y44*%
%MOMM*%
G71*
G04*
G04 #@! TF.SameCoordinates,EF5741E1-F204-4FC3-9B2C-2ADE7EA652BA*
G04*
G04*
G04 #@! TF.FilePolarity,Negative*
G04*
G01*
G75*
G04:AMPARAMS|DCode=24|XSize=1.3716mm|YSize=1.8542mm|CornerRadius=0mm|HoleSize=0mm|Usage=FLASHONLY|Rotation=45.000|XOffset=0mm|YOffset=0mm|HoleType=Round|Shape=Rectangle|*
%AMROTATEDRECTD24*
4,1,4,0.1706,-1.1405,-1.1405,0.1706,-0.1706,1.1405,1.1405,-0.1706,0.1706,-1.1405,0.0*
%
%ADD24ROTATEDRECTD24*%

%ADD37C,0.0000*%
%ADD38R,1.3208X2.0066*%
%ADD39R,1.7008X0.5588*%
%ADD40R,0.5588X1.7008*%
G04:AMPARAMS|DCode=41|XSize=1.3208mm|YSize=2.0066mm|CornerRadius=0mm|HoleSize=0mm|Usage=FLASHONLY|Rotation=225.000|XOffset=0mm|YOffset=0mm|HoleType=Round|Shape=Rectangle|*
%AMROTATEDRECTD41*
4,1,4,-0.2425,1.1764,1.1764,-0.2425,0.2425,-1.1764,-1.1764,0.2425,-0.2425,1.1764,0.0*
%
%ADD41ROTATEDRECTD41*%

%ADD42R,2.0066X1.3208*%
%ADD43R,1.7032X1.4032*%
%ADD44R,2.0532X1.5532*%
%ADD45R,3.3020X1.9032*%
%ADD46R,1.0414X1.9032*%
%ADD47R,1.6032X2.0032*%
%ADD48R,1.0508X0.7508*%
%ADD49O,2.4032X0.8128*%
%ADD50R,2.0032X1.6032*%
%ADD51C,1.8232*%
%ADD52C,1.7272*%
%ADD53C,1.9812*%
%ADD54C,1.8532*%
%ADD55O,1.4032X2.6032*%
%ADD56C,1.4032*%
%ADD57O,2.0032X3.5032*%
%ADD58O,4.0032X2.2032*%
%ADD59C,0.8382*%
G36*
X348053Y126369D02*
X348335Y126322D01*
X348594Y126157D01*
X348641Y126063D01*
X348829Y125875D01*
X348782Y123428D01*
X348735Y123287D01*
X348665Y122370D01*
X348617Y121899D01*
X348570Y120958D01*
X348523Y120582D01*
X348476Y120393D01*
X348429Y119029D01*
X348335Y118558D01*
X348312Y118535D01*
X348359Y118488D01*
X348312Y118346D01*
X348241Y117335D01*
X348194Y116394D01*
X348170Y116182D01*
X348218Y116041D01*
X348359Y115711D01*
X348547Y115382D01*
X349535Y114394D01*
X349582Y114300D01*
X349958Y113923D01*
X350005Y113829D01*
X350194Y113641D01*
X350241Y113547D01*
X350617Y113170D01*
X350664Y113076D01*
X350758Y112982D01*
X350806Y112888D01*
X351205Y112300D01*
X351323Y112182D01*
X351370Y112088D01*
X351605Y111759D01*
X351652Y111618D01*
X351841Y111335D01*
X351888Y111241D01*
X351982Y111147D01*
X352099Y110841D01*
X352170Y110771D01*
X352217Y110677D01*
X352688Y109689D01*
X352923Y109171D01*
X353041Y108865D01*
X353158Y108606D01*
X353229Y108347D01*
X353346Y108041D01*
X353394Y107712D01*
X353582Y107100D01*
X353652Y106795D01*
X353746Y106418D01*
X353793Y106136D01*
X353840Y105759D01*
X353887Y105242D01*
X353935Y105054D01*
X354005Y104795D01*
X354052Y104607D01*
X354005Y101031D01*
X353958Y100889D01*
X353911Y100136D01*
X353864Y99995D01*
X353770Y99195D01*
X353699Y98795D01*
X353652Y98231D01*
X353605Y97760D01*
X353417Y96631D01*
X353370Y96160D01*
X353323Y95972D01*
X353252Y95902D01*
X353205Y95808D01*
X352923Y95572D01*
X352805Y95455D01*
X352711Y95407D01*
X352617Y95313D01*
X352382Y95172D01*
X351770Y94843D01*
X351441Y94608D01*
X350735Y94231D01*
X350406Y94043D01*
X349135Y93337D01*
X348335Y92914D01*
X348241Y92819D01*
X347982Y92702D01*
X347935Y92514D01*
X348100Y92349D01*
X348194Y92302D01*
X348335Y92161D01*
X348429Y92114D01*
X348523Y92020D01*
X348617Y91973D01*
X348759Y91831D01*
X348853Y91784D01*
X348947Y91690D01*
X349041Y91643D01*
X349229Y91455D01*
X349323Y91408D01*
X349417Y91314D01*
X349511Y91267D01*
X349747Y91031D01*
X349841Y90984D01*
X350029Y90796D01*
X350123Y90749D01*
X350264Y90608D01*
X350359Y90561D01*
X350547Y90373D01*
X350641Y90326D01*
X350711Y90255D01*
X350735Y90184D01*
X350829Y90137D01*
X351064Y89902D01*
X351158Y89855D01*
X352735Y88279D01*
X352782Y88185D01*
X353441Y87526D01*
X353488Y87432D01*
X353582Y87338D01*
X353629Y87244D01*
X354240Y86632D01*
X354382Y86397D01*
X354476Y86302D01*
X354523Y86208D01*
X354664Y86067D01*
X354711Y85973D01*
X354946Y85738D01*
X355087Y85503D01*
X355417Y85032D01*
X355464Y84938D01*
X355652Y84750D01*
X355699Y84656D01*
X355887Y84373D01*
X355934Y84279D01*
X356029Y84185D01*
X356076Y84091D01*
X356264Y83809D01*
X356452Y83479D01*
X356687Y83150D01*
X357111Y82350D01*
X357346Y81926D01*
X357534Y81597D01*
X358099Y80421D01*
X358334Y79903D01*
X358616Y79291D01*
X358805Y78868D01*
X358922Y78562D01*
X358993Y78303D01*
X359158Y77856D01*
X359275Y77550D01*
X359322Y77315D01*
X359463Y77174D01*
X359510Y76797D01*
X359652Y76468D01*
X359699Y76280D01*
X359793Y75856D01*
X359887Y75621D01*
X359958Y75221D01*
X360005Y75033D01*
X360075Y74774D01*
X360169Y74398D01*
X360216Y74115D01*
X360405Y73692D01*
X360452Y73033D01*
X360499Y72892D01*
X360593Y72563D01*
X360640Y71857D01*
X360687Y71716D01*
X360734Y71386D01*
X360781Y71198D01*
X360828Y70728D01*
X360922Y69504D01*
X360969Y69316D01*
X361016Y68987D01*
X361063Y68798D01*
X361087Y66328D01*
X361063Y65410D01*
Y65363D01*
X361016Y64093D01*
X360969Y63952D01*
X360922Y62775D01*
X360875Y62634D01*
X360781Y61834D01*
X360710Y61434D01*
X360663Y61199D01*
X360616Y60729D01*
X360499Y60423D01*
X360452Y59905D01*
X360405Y59764D01*
X360358Y59387D01*
X360169Y59105D01*
X360122Y58588D01*
X360028Y58352D01*
X359934Y57976D01*
X359840Y57646D01*
X359793Y57411D01*
X359699Y57176D01*
X359652Y56846D01*
X359510Y56611D01*
X359346Y56164D01*
X359275Y55953D01*
X359181Y55717D01*
X359040Y55388D01*
X358805Y54776D01*
X358758Y54588D01*
X358334Y53694D01*
X357534Y52141D01*
X357252Y51671D01*
X357158Y51435D01*
X356970Y51106D01*
X356781Y50824D01*
X356734Y50729D01*
X356640Y50635D01*
X356593Y50541D01*
X356405Y50212D01*
X356311Y50118D01*
X356029Y49600D01*
X355934Y49506D01*
X355793Y49271D01*
X355652Y49130D01*
X355511Y48894D01*
X355323Y48612D01*
X355276Y48518D01*
X355182Y48424D01*
X355040Y48189D01*
X354923Y48024D01*
X354829Y47977D01*
X354758Y47906D01*
X354711Y47812D01*
X354617Y47718D01*
X354570Y47624D01*
X354358Y47365D01*
X354217Y47130D01*
X354146Y47106D01*
X354099Y47012D01*
X353864Y46777D01*
X353817Y46683D01*
X353605Y46424D01*
X353441Y46259D01*
X353394Y46165D01*
X353158Y45930D01*
X353111Y45836D01*
X353041Y45765D01*
X352946Y45718D01*
X352829Y45553D01*
X352452Y45177D01*
X352405Y45083D01*
X352123Y44801D01*
X352076Y44707D01*
X351911Y44542D01*
X351817Y44495D01*
X350923Y43601D01*
X350829Y43554D01*
X350264Y42989D01*
X350170Y42942D01*
X349935Y42707D01*
X349841Y42660D01*
X349653Y42471D01*
X349558Y42424D01*
X349441Y42354D01*
X349394Y42260D01*
X349323Y42189D01*
X349229Y42142D01*
X349088Y42001D01*
X348994Y41954D01*
X348853Y41813D01*
X348759Y41766D01*
X348665Y41672D01*
X348570Y41624D01*
X348312Y41413D01*
X348194Y41295D01*
X347959Y41154D01*
X347865Y41060D01*
X347771Y41013D01*
X347676Y40919D01*
X347159Y40636D01*
X346923Y40401D01*
X346406Y40119D01*
X346077Y39883D01*
X345982Y39836D01*
X345559Y39601D01*
X345465Y39507D01*
X343818Y38660D01*
X342830Y38190D01*
X342524Y38072D01*
X341748Y37719D01*
X341559Y37672D01*
X341136Y37484D01*
X340877Y37413D01*
X340571Y37295D01*
X340383Y37248D01*
X339936Y37084D01*
X339724Y37013D01*
X339418Y36943D01*
X339207Y36825D01*
X339018Y36778D01*
X338689Y36731D01*
X338383Y36613D01*
X337630Y36425D01*
X337348Y36378D01*
X337113Y36331D01*
X336925Y36284D01*
X336313Y36190D01*
X336054Y36119D01*
X335583Y36072D01*
X335183Y36002D01*
X334807Y35907D01*
X334172Y35837D01*
X333466Y35790D01*
X333325Y35743D01*
X332478Y35696D01*
X332337Y35649D01*
X326831Y35696D01*
X326596Y35790D01*
X326408Y35837D01*
X325443Y35907D01*
X325184Y36025D01*
X324667Y36072D01*
X324526Y36119D01*
X323726Y36260D01*
X323373Y36331D01*
X323185Y36378D01*
X322902Y36425D01*
X322502Y36543D01*
X322008Y36660D01*
X321796Y36731D01*
X321608Y36778D01*
X321326Y36825D01*
X321044Y37013D01*
X320691Y37084D01*
X320456Y37178D01*
X320056Y37295D01*
X319467Y37507D01*
X319067Y37672D01*
X318456Y37954D01*
X318126Y38096D01*
X317820Y38213D01*
X317609Y38331D01*
X317303Y38448D01*
X317232Y38519D01*
X315679Y39319D01*
X315397Y39507D01*
X315162Y39648D01*
X314503Y40025D01*
X314409Y40119D01*
X314080Y40307D01*
X313421Y40778D01*
X313327Y40872D01*
X312997Y41060D01*
X312244Y41624D01*
X312150Y41719D01*
X312056Y41766D01*
X311868Y41954D01*
X311774Y42001D01*
X311350Y42330D01*
X311021Y42660D01*
X310927Y42707D01*
X310739Y42895D01*
X310504Y43036D01*
X309986Y43554D01*
X309892Y43601D01*
X309821Y43671D01*
X309798Y43742D01*
X309704Y43789D01*
X309421Y44071D01*
X309351Y44095D01*
X309304Y44189D01*
X308810Y44683D01*
X308715Y44730D01*
X308598Y44895D01*
X308457Y44989D01*
X308410Y45083D01*
X308174Y45318D01*
X308127Y45412D01*
X307798Y45742D01*
X307751Y45836D01*
X307327Y46259D01*
X307280Y46354D01*
X307045Y46589D01*
X306998Y46683D01*
X306857Y46777D01*
X306810Y46871D01*
X306669Y47012D01*
X306622Y47106D01*
X306292Y47530D01*
X306080Y47789D01*
X305916Y47953D01*
X305869Y48047D01*
X305728Y48189D01*
X305586Y48424D01*
X305375Y48683D01*
X305186Y48965D01*
X305069Y49083D01*
X304692Y49741D01*
X304598Y49836D01*
X304457Y50071D01*
X304222Y50400D01*
X303986Y50824D01*
X303751Y51200D01*
X303375Y51906D01*
X303281Y52000D01*
X303187Y52235D01*
X302763Y53129D01*
X302387Y53835D01*
X302293Y54070D01*
X302151Y54400D01*
X301963Y54823D01*
X301916Y55011D01*
X301822Y55247D01*
X301704Y55553D01*
X301610Y55788D01*
X301493Y56047D01*
X301422Y56305D01*
X301328Y56541D01*
X301210Y56846D01*
X301140Y57152D01*
X301022Y57552D01*
X300951Y57905D01*
X300787Y58446D01*
X300716Y58752D01*
X300669Y58941D01*
X300552Y59340D01*
X300504Y59529D01*
X300434Y59882D01*
X300316Y60187D01*
X300269Y60658D01*
X300222Y61034D01*
X300175Y61175D01*
X300081Y61975D01*
X300010Y62422D01*
X299963Y62705D01*
X299893Y62964D01*
X299822Y64211D01*
X299775Y64728D01*
X299681Y65293D01*
X299657Y66163D01*
X299705Y66304D01*
X299752Y69222D01*
X299799Y69363D01*
X299846Y70445D01*
X299893Y70586D01*
X299940Y70916D01*
X299987Y71104D01*
X300058Y71833D01*
X300105Y72257D01*
X300152Y72492D01*
X300222Y72751D01*
X300269Y72939D01*
X300316Y73410D01*
X300363Y73692D01*
X300457Y73927D01*
X300504Y74115D01*
X300552Y74492D01*
X300693Y74821D01*
X300740Y75009D01*
X300834Y75433D01*
X300928Y75668D01*
X300999Y75974D01*
X301093Y76209D01*
X301163Y76468D01*
X301234Y76774D01*
X301352Y77033D01*
X301563Y77621D01*
X301916Y78539D01*
X302010Y78774D01*
X302128Y79080D01*
X302222Y79315D01*
X302340Y79574D01*
X302481Y79809D01*
X302622Y80138D01*
X302998Y80938D01*
X303328Y81550D01*
X303469Y81785D01*
X303516Y81879D01*
X303704Y82162D01*
X304034Y82773D01*
X304222Y83103D01*
X304645Y83715D01*
X304692Y83809D01*
X304928Y84232D01*
X305022Y84326D01*
X305069Y84420D01*
X305210Y84562D01*
X305398Y84891D01*
X305633Y85220D01*
X306316Y86138D01*
X306433Y86255D01*
X306574Y86491D01*
X306786Y86749D01*
X307022Y87032D01*
X307280Y87291D01*
X307327Y87385D01*
X307704Y87761D01*
X307845Y87996D01*
X308316Y88467D01*
X308363Y88561D01*
X308904Y89102D01*
X308998Y89149D01*
X309068Y89220D01*
X309115Y89314D01*
X309704Y89902D01*
X309798Y89949D01*
X310551Y90702D01*
X310645Y90749D01*
X311068Y91079D01*
X311209Y91220D01*
X311303Y91267D01*
X311539Y91502D01*
X311633Y91549D01*
X312386Y92114D01*
X312480Y92208D01*
X312715Y92349D01*
X312809Y92443D01*
X312903Y92490D01*
X313186Y92678D01*
X313280Y92725D01*
X313538Y92937D01*
X313939Y93196D01*
X314268Y93431D01*
X314456Y93478D01*
X314785Y93714D01*
X315303Y93996D01*
X315585Y94184D01*
X316103Y94419D01*
X316197Y94466D01*
X316621Y94702D01*
X317891Y95313D01*
X318126Y95360D01*
X318220Y95455D01*
X318667Y95619D01*
X319161Y95831D01*
X319867Y96113D01*
X320197Y96207D01*
X320503Y96325D01*
X321302Y96607D01*
X321561Y96678D01*
X321749Y96725D01*
X322079Y96866D01*
X322267Y96913D01*
X322338Y96984D01*
X322197Y97219D01*
X322079Y97337D01*
X322008Y97360D01*
X321961Y97454D01*
X321420Y97996D01*
X321326Y98042D01*
X321232Y98184D01*
X321138Y98231D01*
X321067Y98301D01*
X321020Y98395D01*
X320902Y98513D01*
X320808Y98560D01*
X320644Y98725D01*
X320620Y98795D01*
X320526Y98842D01*
X320244Y99125D01*
X320150Y99172D01*
X320032Y99337D01*
X319867Y99454D01*
X319538Y99783D01*
X319444Y99831D01*
X319185Y100089D01*
X319138Y100183D01*
X318950Y100372D01*
X318903Y100466D01*
X318691Y100725D01*
X318573Y100983D01*
X318385Y101407D01*
X318338Y101595D01*
X318291Y101972D01*
X318244Y102113D01*
X318197Y102301D01*
X318244Y103524D01*
X318291Y103666D01*
X318338Y103995D01*
X318385Y104513D01*
X318526Y104842D01*
X318573Y105030D01*
X318644Y105289D01*
X318738Y105524D01*
X318809Y105736D01*
X318903Y106112D01*
X319232Y106818D01*
X319303Y107077D01*
X319420Y107336D01*
X319797Y108041D01*
X320267Y108936D01*
X320456Y109265D01*
X320597Y109406D01*
X320785Y109735D01*
X320926Y109971D01*
X321020Y110065D01*
X321114Y110300D01*
X321255Y110441D01*
X321397Y110677D01*
X321491Y110771D01*
X321538Y110865D01*
X321773Y111194D01*
X321914Y111335D01*
X322102Y111665D01*
X322338Y111900D01*
X322385Y111994D01*
X322479Y112088D01*
X322526Y112182D01*
X322597Y112253D01*
X322691Y112300D01*
X322879Y112582D01*
X323091Y112794D01*
X323138Y112888D01*
X323255Y113006D01*
X323349Y113053D01*
X323585Y113335D01*
X323914Y113665D01*
X323985Y113688D01*
X324032Y113782D01*
X324196Y113900D01*
X324808Y114511D01*
X324879Y114535D01*
X324926Y114629D01*
X325090Y114794D01*
X325184Y114841D01*
X325326Y114982D01*
X325420Y115029D01*
X325514Y115123D01*
X325749Y115264D01*
X326173Y115594D01*
X326831Y116064D01*
X326926Y116111D01*
X327020Y116206D01*
X327114Y116252D01*
X327349Y116488D01*
X327443Y116535D01*
X327725Y116723D01*
X328902Y117335D01*
X329608Y117664D01*
X329843Y117758D01*
X330266Y117946D01*
X330972Y118276D01*
X331702Y118535D01*
X332243Y118699D01*
X332525Y118746D01*
X332854Y118888D01*
X333207Y118958D01*
X333395Y119005D01*
X333654Y119076D01*
X333890Y119170D01*
X334219Y119217D01*
X334407Y119264D01*
X334737Y119311D01*
X334972Y119405D01*
X335301Y119452D01*
X336925Y119523D01*
X338077Y119546D01*
X338218Y119499D01*
X339724Y119452D01*
X339865Y119405D01*
X340054Y119358D01*
X340501Y119288D01*
X340736Y119241D01*
X341112Y119146D01*
X341371Y119076D01*
X341701Y119029D01*
X341936Y118935D01*
X342265Y118841D01*
X342759Y118723D01*
X343018Y118652D01*
X343206Y118699D01*
X343277Y118911D01*
X343324Y119805D01*
X343371Y119946D01*
X343418Y120134D01*
X343465Y121170D01*
X343512Y121923D01*
X343559Y122064D01*
X343606Y122534D01*
X343842Y122864D01*
X344053Y122934D01*
X344759Y122840D01*
X345018Y122581D01*
X345065Y122393D01*
X345018Y121217D01*
X344947Y120487D01*
X344900Y120205D01*
X344830Y119570D01*
X344806Y118699D01*
X344830Y118629D01*
X344782Y118488D01*
X344853Y118182D01*
X344971Y118017D01*
X345182Y117711D01*
X345277Y117664D01*
X345606Y117429D01*
X345841Y117288D01*
X346359Y117005D01*
X346500Y116958D01*
X346641Y117005D01*
X346688Y117382D01*
X346759Y117641D01*
X346829Y118793D01*
X346876Y119358D01*
X346971Y120393D01*
X347018Y121193D01*
X347065Y122228D01*
X347159Y123499D01*
X347206Y123875D01*
X347253Y124628D01*
X347300Y125758D01*
X347347Y125946D01*
X347441Y126181D01*
X347629Y126369D01*
X347912Y126416D01*
X348053Y126369D01*
D02*
G37*
G36*
X299003Y65829D02*
X299108D01*
Y65724D01*
X298899D01*
Y65829D01*
X298794D01*
Y65933D01*
X298899D01*
Y66038D01*
X299003D01*
Y65829D01*
D02*
G37*
%LPC*%
G36*
X336172Y118346D02*
X335278Y118299D01*
X334901Y118252D01*
X334784Y118229D01*
X334737D01*
X334501Y118135D01*
X334384Y118017D01*
X334407Y117946D01*
X335607Y117970D01*
X336501Y117923D01*
X336760Y117899D01*
X336901Y117946D01*
X337089Y117993D01*
X337254Y118158D01*
X337207Y118252D01*
X336995Y118323D01*
X336172Y118346D01*
D02*
G37*
G36*
X338736Y118276D02*
X338642Y118229D01*
X338595D01*
X338336Y118017D01*
X338289Y117829D01*
X338360Y117758D01*
X338548Y117711D01*
X338971Y117758D01*
X339113Y117711D01*
X339771Y117617D01*
X340006Y117523D01*
X340548Y117452D01*
X340783Y117405D01*
X340995Y117335D01*
X341089Y117382D01*
X341112Y117688D01*
X340995Y117805D01*
X340453Y117923D01*
X340195Y117993D01*
X339583Y118041D01*
X339301Y118088D01*
X339065Y118229D01*
X338736Y118276D01*
D02*
G37*
G36*
X342171Y117570D02*
X342030Y117523D01*
X342006Y117358D01*
X342218Y117100D01*
X342453Y117052D01*
X342736Y116911D01*
X342783D01*
X343089Y116841D01*
X343277Y116794D01*
X343677Y116629D01*
X344265Y116511D01*
X344477Y116441D01*
X344500Y116464D01*
X344430Y116535D01*
X344336Y116582D01*
X343724Y116864D01*
X343489Y116958D01*
X342689Y117335D01*
X342171Y117570D01*
D02*
G37*
G36*
X334407Y116723D02*
X334384Y116558D01*
X334525Y116417D01*
X334572Y116323D01*
X334807Y115806D01*
X334995Y115382D01*
X335066Y115123D01*
X335113Y114653D01*
X335136Y114347D01*
X335089Y114206D01*
X335042Y113594D01*
X334995Y113453D01*
X334901Y113123D01*
X334854Y112982D01*
X334760Y112888D01*
X334713Y112653D01*
X334878Y112629D01*
X335089Y112794D01*
X335136Y112888D01*
X335301Y113006D01*
X335442Y113147D01*
X335677Y113288D01*
X335819Y113429D01*
X335913Y113476D01*
X336077Y113782D01*
Y113829D01*
X336124Y113970D01*
X336077Y114535D01*
X335983Y114770D01*
X335913Y115123D01*
X335842Y115288D01*
X335701Y115429D01*
X335654Y115523D01*
X335466Y115806D01*
X335419Y115900D01*
X334995Y116323D01*
X334948Y116417D01*
X334878Y116488D01*
X334737Y116535D01*
X334595Y116676D01*
X334407Y116723D01*
D02*
G37*
G36*
X333795Y115406D02*
X333748Y114370D01*
X333607Y113806D01*
X333466Y113429D01*
X333395Y113359D01*
X333207Y113029D01*
X333113Y112935D01*
X332925Y112606D01*
X332784Y112465D01*
X332737Y112371D01*
X332595Y112229D01*
X332572Y112159D01*
X332266Y111994D01*
Y111947D01*
X332196Y111876D01*
X332101Y111829D01*
X331843Y111618D01*
X331066Y111265D01*
X330454Y111030D01*
X330266Y110982D01*
X329819Y110818D01*
X329843Y110747D01*
X330360Y110794D01*
X330502Y110841D01*
X330949Y111006D01*
X331207Y111124D01*
X331513Y111241D01*
X331584Y111312D01*
X332290Y111688D01*
X332384Y111782D01*
X332572Y111829D01*
X332643Y111900D01*
X332690Y111994D01*
X332831Y112135D01*
X332878Y112229D01*
X333042Y112347D01*
X333278Y112629D01*
X333348Y112700D01*
X333678Y113312D01*
X333819Y113547D01*
X333866Y113829D01*
X333960Y114065D01*
X334054Y114441D01*
X334007Y114817D01*
X333960Y114958D01*
X333866Y115382D01*
X333795Y115406D01*
D02*
G37*
G36*
X325326Y113617D02*
X325232Y113570D01*
X325161Y113500D01*
X325114Y113406D01*
X324737Y113029D01*
X324596Y112794D01*
X324267Y112371D01*
X324173Y112276D01*
X324126Y112182D01*
X324032Y112088D01*
X323985Y111994D01*
X323773Y111735D01*
X323655Y111571D01*
X323632Y111547D01*
X323608Y111524D01*
X323514Y111429D01*
X323467Y111335D01*
X323232Y111006D01*
X323091Y110865D01*
X323044Y110771D01*
X322949Y110677D01*
X322902Y110583D01*
X322714Y110394D01*
X322667Y110253D01*
X322526Y110112D01*
X322479Y110018D01*
X322338Y109877D01*
X322197Y109641D01*
X322102Y109547D01*
X322055Y109453D01*
X321820Y109218D01*
X321632Y108889D01*
X321349Y108606D01*
X321302Y108418D01*
X321326Y108347D01*
X321514Y108300D01*
X321702Y108347D01*
X321844Y108394D01*
X322032Y108441D01*
X322479Y108512D01*
X322714Y108606D01*
X322949Y108653D01*
X323467Y108700D01*
X323726Y108771D01*
X324573Y108818D01*
X324714Y108865D01*
X325584Y108889D01*
X327396Y108818D01*
X327537Y108771D01*
X327984Y108700D01*
X328525Y108630D01*
X328761Y108771D01*
X329090Y109100D01*
X329184Y109147D01*
X329255Y109359D01*
X329208Y109453D01*
X328949Y109524D01*
X328478Y109571D01*
X328008Y109712D01*
X327820Y109759D01*
X327302Y109994D01*
X327208Y110041D01*
X327020Y110230D01*
X326926Y110277D01*
X326667Y110488D01*
X326502Y110653D01*
X326408Y110700D01*
X326337Y110771D01*
X326290Y110865D01*
X326102Y111147D01*
X325914Y111476D01*
X325820Y111571D01*
X325749Y111829D01*
X325631Y112041D01*
X325584Y112229D01*
X325537Y112606D01*
X325396Y112935D01*
X325443Y113406D01*
X325326Y113617D01*
D02*
G37*
G36*
X334595Y109524D02*
X334360Y109477D01*
X334172Y109289D01*
X334078Y109241D01*
X334031Y109194D01*
X334007Y109171D01*
X333725Y108559D01*
X333678Y108230D01*
X333725Y107006D01*
X333772Y106865D01*
X333842Y106606D01*
X333960Y106395D01*
X334101Y106159D01*
X334313Y105901D01*
X334384Y105830D01*
X334525Y105595D01*
X334689Y105477D01*
X334878Y105289D01*
X335772Y104865D01*
X335960Y104818D01*
X336430Y104771D01*
X336619Y104724D01*
X337489Y104795D01*
X337724Y104889D01*
X337983Y105007D01*
X338407Y105242D01*
X338477Y105312D01*
X338524Y105407D01*
X338689Y105524D01*
X338760Y105595D01*
X338807Y105689D01*
X339136Y106206D01*
X339183Y106724D01*
X339277Y106959D01*
X339324Y107430D01*
X339277Y107853D01*
X339136Y108183D01*
X339089Y108512D01*
X338854Y108841D01*
X338807Y108983D01*
X338689Y109147D01*
X338548Y109194D01*
X338430Y109077D01*
X338383Y108700D01*
X338007Y107994D01*
X337889Y107830D01*
X337795Y107783D01*
X337560Y107548D01*
X337371Y107500D01*
X337089Y107312D01*
X336619Y107265D01*
X336007Y107312D01*
X335772Y107406D01*
X335254Y107689D01*
X334901Y107947D01*
X334854Y108136D01*
X334666Y108606D01*
X334619Y108794D01*
X334642Y109430D01*
X334595Y109524D01*
D02*
G37*
G36*
X321655Y105854D02*
X321561Y105807D01*
X321491Y105548D01*
X321444Y104936D01*
X321349Y104701D01*
X321255Y104042D01*
X321302Y103948D01*
X321420Y103877D01*
X321679Y104089D01*
X321726Y104230D01*
X321749Y104348D01*
X321773Y104371D01*
X321820Y105265D01*
X321773Y105736D01*
X321655Y105854D01*
D02*
G37*
G36*
X336807Y112582D02*
X336666Y112535D01*
X336383Y112488D01*
X335960Y112300D01*
X335536Y112065D01*
X335207Y111829D01*
X335066Y111688D01*
X334972Y111641D01*
X334784Y111453D01*
X334713Y111429D01*
X334666Y111335D01*
X334478Y111147D01*
X334525Y111006D01*
X334595Y110982D01*
X334831Y111076D01*
X335160Y111124D01*
X335795Y111194D01*
X336030Y111241D01*
X336289Y111312D01*
X337230Y111265D01*
X337371Y111218D01*
X337936Y111124D01*
X338195Y111053D01*
X338265Y110982D01*
X338360Y110935D01*
X338971Y110606D01*
X339113Y110465D01*
X339207Y110418D01*
X339371Y110253D01*
X339418Y110159D01*
X339560Y110065D01*
X339607Y109971D01*
X339701Y109877D01*
X339748Y109783D01*
X339983Y109359D01*
X340077Y109124D01*
X340218Y108794D01*
X340265Y108700D01*
Y108653D01*
X340312Y108277D01*
X340453Y107947D01*
X340406Y106771D01*
X340265Y106442D01*
X340195Y106089D01*
X340101Y105854D01*
X339748Y105218D01*
X339654Y105124D01*
X339607Y105030D01*
X338924Y104348D01*
X338830Y104301D01*
X338548Y104113D01*
X338242Y103995D01*
X338171Y103924D01*
X337866Y103854D01*
X337607Y103783D01*
X337419Y103736D01*
X336854Y103642D01*
X336101Y103689D01*
X335960Y103736D01*
X335654Y103807D01*
X335136Y103995D01*
X334454Y104301D01*
X334195Y104513D01*
X334031Y104630D01*
X333842Y104818D01*
X333748Y104865D01*
X333584Y105030D01*
X333537Y105124D01*
X333066Y105595D01*
X332595Y106583D01*
X332501Y107242D01*
X332548Y108183D01*
X332595Y108324D01*
X332643Y108700D01*
X332690Y108841D01*
X332784Y109077D01*
X332925Y109547D01*
X332901Y109618D01*
X332478Y109571D01*
X332337Y109524D01*
X332149Y109477D01*
X331819Y109335D01*
X331537Y109289D01*
X331019Y109053D01*
X330760Y108983D01*
X330690Y108912D01*
X330360Y108818D01*
X330078Y108771D01*
X329655Y108536D01*
X329537Y108418D01*
X329443Y108183D01*
X329372Y107924D01*
X329325Y107642D01*
X329231Y107171D01*
X329137Y106653D01*
X329066Y106395D01*
X328972Y105736D01*
X328855Y105430D01*
X328808Y105148D01*
X328761Y104771D01*
X328713Y104536D01*
X328666Y104348D01*
X328596Y104136D01*
X328549Y103948D01*
X328502Y103618D01*
X328549Y103430D01*
X328619Y103360D01*
X328761Y103313D01*
X328902Y103360D01*
X329090Y103313D01*
X329749Y103218D01*
X330360Y103124D01*
X330502Y103077D01*
X330690Y103030D01*
X331819Y102983D01*
X332054Y102889D01*
X332243Y102842D01*
X332572Y102795D01*
X333631Y102677D01*
X334478Y102536D01*
X335513Y102442D01*
X335795Y102395D01*
X336266Y102301D01*
X336830Y102254D01*
X337348Y102160D01*
X337818Y102113D01*
X338430Y102019D01*
X338666Y101972D01*
X339277Y101877D01*
X339842Y101830D01*
X340030Y101783D01*
X340618Y101713D01*
X340689Y101783D01*
X340736Y101972D01*
X340854Y102513D01*
X340901Y102748D01*
X340948Y103030D01*
X340995Y103218D01*
X341089Y103454D01*
X341136Y103689D01*
X341183Y104113D01*
X341230Y104301D01*
X341301Y104371D01*
X341395Y104936D01*
X341489Y105312D01*
X341536Y105642D01*
X341630Y105971D01*
X341677Y106536D01*
X341724Y106677D01*
X341771Y106865D01*
X341818Y107195D01*
X341865Y107383D01*
X341912Y107853D01*
X341959Y108747D01*
X341912Y109218D01*
X341818Y109453D01*
X341771Y109689D01*
X341677Y109783D01*
X341559Y110088D01*
X341371Y110371D01*
X341254Y110535D01*
X340665Y111124D01*
X340571Y111171D01*
X340430Y111312D01*
X339724Y111688D01*
X339348Y111924D01*
X339160Y111971D01*
X338642Y112206D01*
X338454Y112253D01*
X337560Y112535D01*
X336807Y112582D01*
D02*
G37*
G36*
X326173Y107924D02*
X323632Y107877D01*
X323490Y107830D01*
X322832Y107783D01*
X322691Y107736D01*
X322361Y107689D01*
X322173Y107642D01*
X321867Y107571D01*
X321655Y107453D01*
X321420Y107359D01*
X321185Y107124D01*
X321091Y107077D01*
X320973Y107006D01*
X320926Y106912D01*
X320785Y106677D01*
X320691Y106583D01*
X320644Y106442D01*
X320620Y106418D01*
X320479Y106042D01*
X320197Y104912D01*
X320056Y104536D01*
X319985Y104324D01*
X319867Y104018D01*
X319750Y103760D01*
X319703Y103524D01*
X319562Y103383D01*
X319514Y103195D01*
X319562Y103101D01*
X319632Y103030D01*
X319820Y103077D01*
X319914Y103171D01*
X320150Y103218D01*
X320291Y103171D01*
X320526Y103265D01*
X320550Y103524D01*
X320456Y103760D01*
X320550Y103995D01*
X320456Y104277D01*
X320503Y104418D01*
X320597Y105077D01*
X320691Y105642D01*
X320738Y105830D01*
X320879Y106348D01*
X320926Y106536D01*
X320973Y106630D01*
X321091Y106748D01*
X321420Y106889D01*
X321985Y106842D01*
X322126Y106795D01*
X322408Y106748D01*
X322526Y106583D01*
X322620Y106489D01*
X322667Y106300D01*
X322714Y105689D01*
X322644Y104677D01*
X322597Y104301D01*
X322549Y104066D01*
X322526Y103524D01*
X322597Y103454D01*
X322785Y103407D01*
X327514Y103383D01*
X327702Y103477D01*
X327749Y103666D01*
X327820Y104066D01*
X327867Y104865D01*
X327914Y105383D01*
X327961Y105618D01*
X328008Y105807D01*
X328055Y106042D01*
X328102Y106465D01*
X328196Y106700D01*
X328290Y107171D01*
X328313Y107618D01*
X328243Y107689D01*
X328055Y107736D01*
X327678Y107783D01*
X327537Y107830D01*
X326926Y107877D01*
X326173Y107924D01*
D02*
G37*
G36*
X324432Y102230D02*
X324290Y102183D01*
X320902Y102136D01*
X320761Y102089D01*
X320244Y102136D01*
X320103Y102089D01*
X319444Y102042D01*
X319373Y101972D01*
X319491Y101854D01*
X320808Y101901D01*
X322338Y101924D01*
X325678Y101877D01*
X326243Y101830D01*
X326714Y101783D01*
X327255Y101760D01*
X327278Y101736D01*
X329725Y101642D01*
X330196Y101595D01*
X330431Y101548D01*
X330713Y101501D01*
X331278Y101454D01*
X331796Y101407D01*
X332078Y101360D01*
X332454Y101313D01*
X332690Y101266D01*
X333348Y101219D01*
X333537Y101172D01*
X333748Y101101D01*
X333937Y101054D01*
X334995Y100983D01*
X335278Y100936D01*
X335513Y100842D01*
X335748Y100795D01*
X336219Y100748D01*
X336972Y100701D01*
X337230Y100583D01*
X337701Y100536D01*
X338124Y100489D01*
X338265Y100442D01*
X338501Y100395D01*
X338642Y100348D01*
X338830Y100301D01*
X339136Y100231D01*
X339324Y100183D01*
X339583Y100113D01*
X340030Y100042D01*
X340312Y99995D01*
X340689Y99901D01*
X340924Y99854D01*
X341442Y99807D01*
X341653Y99736D01*
X342477Y99572D01*
X342877Y99454D01*
X343065Y99407D01*
X343371Y99337D01*
X343630Y99219D01*
X344265Y99148D01*
X344500Y99054D01*
X344712Y98984D01*
X345018Y98913D01*
X345394Y98819D01*
X345677Y98772D01*
X346218Y98607D01*
X346406Y98560D01*
X346712Y98442D01*
X346971Y98325D01*
X347300Y98278D01*
X347606Y98207D01*
X347912Y98090D01*
X348100Y98042D01*
X348429Y97996D01*
X348759Y97854D01*
X349135Y97760D01*
X349606Y97619D01*
X350029Y97431D01*
X350217Y97384D01*
X350476Y97313D01*
X350688Y97243D01*
X350876Y97196D01*
X351135Y97125D01*
X351394Y97007D01*
X351699Y96937D01*
X352052Y96772D01*
X352170Y96843D01*
X352123Y97078D01*
X352005Y97196D01*
X351817Y97243D01*
X351300Y97478D01*
X350994Y97548D01*
X350617Y97690D01*
X350429Y97737D01*
X350053Y97878D01*
X349864Y97925D01*
X349464Y98090D01*
X349112Y98160D01*
X348806Y98325D01*
X348617Y98372D01*
X348265Y98442D01*
X347959Y98560D01*
X347465Y98678D01*
X347229Y98772D01*
X347041Y98819D01*
X346665Y98960D01*
X346265Y99078D01*
X345935Y99172D01*
X345630Y99242D01*
X345394Y99337D01*
X345182Y99407D01*
X344806Y99501D01*
X344477Y99548D01*
X344336Y99595D01*
X344100Y99642D01*
X343959Y99689D01*
X343583Y99783D01*
X343253Y99925D01*
X342853Y99995D01*
X342665Y100042D01*
X342430Y100136D01*
X342171Y100207D01*
X341489Y100325D01*
X341254Y100372D01*
X341065Y100419D01*
X340689Y100466D01*
X340501Y100513D01*
X340265Y100560D01*
X340006Y100631D01*
X339701Y100701D01*
X339512Y100748D01*
X339254Y100819D01*
X338924Y100866D01*
X338571Y100936D01*
X338171Y101054D01*
X337466Y101101D01*
X337324Y101148D01*
X337042Y101195D01*
X336901Y101242D01*
X336713Y101289D01*
X335654Y101360D01*
X335466Y101407D01*
X335207Y101477D01*
X335019Y101524D01*
X334101Y101595D01*
X333725Y101689D01*
X332854Y101760D01*
X332713Y101807D01*
X331772Y101901D01*
X331584Y101948D01*
X330008Y102019D01*
X329396Y102066D01*
X328596Y102113D01*
X325773Y102207D01*
X324432Y102230D01*
D02*
G37*
G36*
X335960Y116958D02*
X335889Y116888D01*
X335936Y116747D01*
X336077Y116605D01*
X336124Y116511D01*
X336219Y116417D01*
X336407Y116088D01*
X336689Y115476D01*
X336736Y115288D01*
X336807Y115029D01*
X336854Y114794D01*
X336995Y113523D01*
X337042Y113429D01*
X337371Y113335D01*
X337560Y113288D01*
X338030Y113147D01*
X338313Y113100D01*
X338454Y113053D01*
X338924Y112912D01*
X339348Y112723D01*
X339607Y112653D01*
X340265Y112324D01*
X340501Y112229D01*
X340971Y111947D01*
X341136Y111829D01*
X341395Y111618D01*
X341865Y111147D01*
X341912Y111053D01*
X342053Y110912D01*
X342100Y110818D01*
X342336Y110488D01*
X342571Y109971D01*
X342618Y109735D01*
X342712Y109500D01*
X342759Y109171D01*
X342806Y108136D01*
X342736Y107406D01*
X342689Y107030D01*
X342642Y106842D01*
X342571Y106583D01*
X342524Y106395D01*
X342477Y105783D01*
X342383Y105548D01*
X342336Y105218D01*
X342265Y104818D01*
X342218Y104630D01*
X342195Y104418D01*
X342312Y104301D01*
X342642Y104254D01*
X342830Y104207D01*
X343065Y104113D01*
X343489Y104066D01*
X343818Y103924D01*
X344359Y103807D01*
X344594Y103713D01*
X345159Y103571D01*
X345394Y103477D01*
X345653Y103313D01*
X345771Y103007D01*
X345724Y102677D01*
X345653Y102419D01*
X345488Y101877D01*
X345441Y101689D01*
X345394Y101407D01*
X345253Y101077D01*
X345206Y100748D01*
X345112Y100560D01*
X345229Y100348D01*
X345418Y100301D01*
X345747Y100254D01*
X345935Y100301D01*
X346006Y100513D01*
X346053Y100701D01*
X346171Y101242D01*
X346218Y101760D01*
X346382Y102301D01*
X346429Y102489D01*
X346524Y102583D01*
X346712Y102913D01*
X346829Y103030D01*
X347253Y103218D01*
X347912Y103124D01*
X348170Y102772D01*
X348359Y102348D01*
X348312Y101407D01*
X348265Y101266D01*
X348218Y100936D01*
X348170Y100325D01*
X348147Y99878D01*
X348194Y99736D01*
X348312Y99760D01*
X348359Y99948D01*
X348429Y100489D01*
X348523Y100725D01*
X348712Y101854D01*
X348853Y102230D01*
X348947Y102324D01*
X349276Y102466D01*
X349606Y102419D01*
X349935Y102277D01*
X350147Y102160D01*
X350194Y102066D01*
X350429Y101830D01*
X350382Y101360D01*
X350288Y101125D01*
X350194Y100325D01*
X350123Y100019D01*
X350076Y99501D01*
X350029Y99219D01*
X350005Y98960D01*
X350029Y98937D01*
X350076D01*
X350264Y98984D01*
X350335Y99054D01*
X350406Y99360D01*
X350453Y99595D01*
X350500Y99878D01*
X350547Y100113D01*
X350617Y100372D01*
X350664Y100560D01*
X350711Y100936D01*
X350947Y101360D01*
X351017Y101430D01*
X351205Y101477D01*
X351394Y101430D01*
X351652Y101360D01*
X351958Y101195D01*
X352194Y101054D01*
X352429Y100960D01*
X352593Y101077D01*
X352688Y101407D01*
X352641Y104607D01*
X352593Y104748D01*
X352523Y105336D01*
X352429Y105948D01*
X352382Y106136D01*
X352335Y106559D01*
X352288Y106748D01*
X352170Y107148D01*
X351982Y107759D01*
X351841Y108089D01*
X351488Y109053D01*
X351370Y109312D01*
X351135Y109735D01*
X350617Y110724D01*
X350382Y111100D01*
X350335Y111194D01*
X350100Y111524D01*
X350005Y111618D01*
X349864Y111853D01*
X349723Y111994D01*
X349676Y112088D01*
X349464Y112347D01*
X349300Y112512D01*
X349253Y112606D01*
X349064Y112794D01*
X349017Y112888D01*
X348876Y113029D01*
X348829Y113123D01*
X348382Y113570D01*
X348288Y113617D01*
X348100Y113806D01*
X348006Y113853D01*
X347865Y113994D01*
X347771Y114041D01*
X347676Y114135D01*
X347253Y114370D01*
X346453Y114747D01*
X346147Y114864D01*
X345771Y115006D01*
X345535Y115100D01*
X345300Y115147D01*
X345065Y115241D01*
X344759Y115358D01*
X344383Y115406D01*
X344288Y115500D01*
X344053Y115594D01*
X343630Y115641D01*
X343300Y115782D01*
X342971Y115829D01*
X342665Y115900D01*
X342406Y116017D01*
X341983Y116064D01*
X341748Y116206D01*
X341183Y116252D01*
X340948Y116347D01*
X340642Y116417D01*
X340453Y116464D01*
X340218Y116511D01*
X339842Y116558D01*
X339371Y116605D01*
X339183Y116652D01*
X338948Y116699D01*
X338313Y116770D01*
X337654Y116864D01*
X336407Y116935D01*
X335960Y116958D01*
D02*
G37*
G36*
X342030Y103454D02*
X341912Y103383D01*
X341865Y103195D01*
X341818Y102724D01*
X341724Y102489D01*
X341677Y102301D01*
X341630Y101783D01*
X341583Y101642D01*
X341630Y101454D01*
X341842Y101383D01*
X342030Y101336D01*
X342359Y101195D01*
X342783Y101148D01*
X343206Y100960D01*
X343536Y100913D01*
X343865Y100819D01*
X344171Y100795D01*
X344312Y100889D01*
X344359Y101501D01*
X344453Y101736D01*
X344524Y102042D01*
X344594Y102677D01*
X344547Y102772D01*
X344241Y102889D01*
X343724Y103030D01*
X343442Y103077D01*
X343300Y103124D01*
X343112Y103171D01*
X343018D01*
X342712Y103289D01*
X342524Y103336D01*
X342242Y103383D01*
X342053Y103430D01*
X342030Y103454D01*
D02*
G37*
G36*
X347347Y101807D02*
X347253Y101760D01*
X347135Y101501D01*
X347041Y101125D01*
X346994Y100842D01*
Y100795D01*
X346900Y100466D01*
X346947Y99948D01*
X347018Y99878D01*
X347159Y99925D01*
X347229Y99995D01*
X347276Y100701D01*
X347323Y100842D01*
X347370Y101172D01*
X347418Y101642D01*
X347347Y101807D01*
D02*
G37*
G36*
X351676Y100254D02*
X351488Y100207D01*
X351417Y99948D01*
X351347Y99642D01*
X351229Y99337D01*
X351158Y98795D01*
X351135Y98537D01*
X351253Y98419D01*
X351511Y98348D01*
X351723Y98231D01*
X352052Y98137D01*
X352288Y98042D01*
X352405Y98113D01*
X352382Y98419D01*
X352452Y99337D01*
X352405Y99478D01*
X352358Y99854D01*
X352217Y99995D01*
X352170Y100089D01*
X352099Y100160D01*
X351911Y100207D01*
X351817D01*
X351676Y100254D01*
D02*
G37*
G36*
X328808Y96490D02*
X328666Y96443D01*
X328055Y96396D01*
X327584Y96349D01*
X327396Y96301D01*
X327067Y96207D01*
X326878D01*
X326149Y96090D01*
X325961Y96043D01*
X325584Y95996D01*
X325514Y95972D01*
X325373Y96019D01*
X325137Y95878D01*
X325067Y95619D01*
X324996Y95266D01*
X324949Y94749D01*
X324926Y93878D01*
X324996Y93808D01*
X325184Y93761D01*
X325749Y93855D01*
X326596Y93902D01*
X326737Y93949D01*
X328431Y93996D01*
X328596Y94160D01*
X328643Y94255D01*
X328690Y94396D01*
X328761Y94655D01*
X328808Y95031D01*
X328855Y95266D01*
X328902Y95455D01*
X328972Y95713D01*
X329019Y95996D01*
X329066Y96137D01*
X329019Y96419D01*
X328808Y96490D01*
D02*
G37*
G36*
X320855Y100819D02*
X320597Y100795D01*
X320644Y100560D01*
X320855Y100348D01*
X320950Y100301D01*
X321067Y100183D01*
X321114Y100089D01*
X321467Y99736D01*
X321561Y99689D01*
X321820Y99478D01*
X322126Y99172D01*
X322220Y99125D01*
X322644Y98701D01*
X322738Y98654D01*
X322855Y98537D01*
X322902Y98442D01*
X323161Y98184D01*
X323255Y98137D01*
X323373Y98019D01*
X323420Y97925D01*
X323820Y97619D01*
X324149Y97525D01*
X324338Y97478D01*
X325137Y97525D01*
X325279Y97572D01*
X325749Y97619D01*
X325984Y97713D01*
X326314Y97760D01*
X327067Y97807D01*
X327255Y97854D01*
X327725Y97901D01*
X327914Y97948D01*
X329513Y97996D01*
X333231Y97948D01*
X333372Y97901D01*
X333913Y97831D01*
X334337Y97784D01*
X334572Y97737D01*
X335183Y97643D01*
X335748Y97596D01*
X335936Y97548D01*
X336195Y97431D01*
X336383Y97384D01*
X336830Y97313D01*
X337113Y97266D01*
X337489Y97172D01*
X337748Y97101D01*
X338124Y97054D01*
X338454Y96913D01*
X338783Y96866D01*
X339089Y96749D01*
X339301Y96678D01*
X339489Y96631D01*
X340077Y96419D01*
X340336Y96349D01*
X340783Y96184D01*
X341089Y96066D01*
X341418Y95972D01*
X341842Y95784D01*
X342030Y95737D01*
X343018Y95266D01*
X343536Y95031D01*
X343630Y94984D01*
X345700Y93902D01*
X345982Y93714D01*
X346171Y93666D01*
X346265Y93572D01*
X346500Y93478D01*
X346618Y93455D01*
X346853Y93549D01*
X347159Y93714D01*
X347253Y93761D01*
X347535Y93949D01*
X347723Y93996D01*
X348006Y94184D01*
X348194Y94231D01*
X348288Y94325D01*
X349088Y94749D01*
X349182Y94843D01*
X349370Y94890D01*
X350453Y95455D01*
X350782Y95643D01*
X351276Y95902D01*
X351229Y96090D01*
X351017Y96160D01*
X350664Y96231D01*
X350406Y96349D01*
X349911Y96466D01*
X349606Y96631D01*
X349276Y96678D01*
X349088Y96725D01*
X348759Y96866D01*
X348335Y96913D01*
X348100Y97007D01*
X347912Y97054D01*
X347300Y97243D01*
X346971Y97290D01*
X346547Y97478D01*
X346218Y97525D01*
X345959Y97596D01*
X345559Y97713D01*
X344782Y97878D01*
X344524Y97948D01*
X344194Y97996D01*
X343583Y98184D01*
X343253Y98231D01*
X343065Y98278D01*
X342736Y98372D01*
X341983Y98560D01*
X341606Y98607D01*
X341465Y98654D01*
X341042Y98701D01*
X340901Y98748D01*
X340712Y98795D01*
X340383Y98842D01*
X340195Y98890D01*
X339865Y98937D01*
X339630Y99031D01*
X339160Y99078D01*
X338971Y99125D01*
X338595Y99172D01*
X338360Y99266D01*
X338171Y99313D01*
X337630Y99384D01*
X337348Y99431D01*
X336736Y99525D01*
X336548Y99572D01*
X336030Y99619D01*
X335513Y99713D01*
X335230Y99760D01*
X334854Y99807D01*
X334290Y99854D01*
X334054Y99901D01*
X333866Y99948D01*
X333113Y99995D01*
X332878Y100042D01*
X332690Y100089D01*
X332431Y100160D01*
X331819Y100207D01*
X331066Y100254D01*
X330925Y100301D01*
X330102Y100372D01*
X329466Y100442D01*
X328713Y100489D01*
X327090Y100560D01*
X326714Y100607D01*
X326243Y100654D01*
X325208Y100701D01*
X324032Y100748D01*
X321938Y100772D01*
X321891D01*
X320855Y100819D01*
D02*
G37*
G36*
X336383Y95737D02*
X335866Y95455D01*
X335466Y95055D01*
X335419Y94960D01*
X335136Y94349D01*
X335042Y94114D01*
X334901Y93784D01*
X334948Y92749D01*
X335089Y92420D01*
X335136Y92231D01*
X335183Y91949D01*
X335278Y91714D01*
X335419Y91384D01*
X335654Y90773D01*
X335748Y90537D01*
X335866Y90232D01*
X336030Y89926D01*
X336595Y88843D01*
X336877Y88420D01*
X337019Y88185D01*
X337254Y87855D01*
X337395Y87620D01*
X337489Y87526D01*
X337677Y87197D01*
X337818Y87055D01*
X337866Y86961D01*
X337960Y86867D01*
X338007Y86773D01*
X338195Y86585D01*
X338383Y86255D01*
X338548Y86091D01*
X338642Y86044D01*
X338807Y85785D01*
X338948Y85644D01*
X338995Y85550D01*
X339183Y85361D01*
X339230Y85267D01*
X339654Y84844D01*
X339701Y84750D01*
X339771Y84679D01*
X339865Y84632D01*
X339983Y84467D01*
X340383Y84067D01*
X340477Y84020D01*
X341089Y83409D01*
X341183Y83362D01*
X341442Y83150D01*
X341748Y82844D01*
X341842Y82797D01*
X341983Y82656D01*
X342077Y82609D01*
X342218Y82468D01*
X342453Y82326D01*
X342594Y82185D01*
X342689Y82138D01*
X342877Y81950D01*
X342971Y81903D01*
X343112Y81762D01*
X343442Y81573D01*
X343983Y81174D01*
X344006Y81150D01*
X344100Y81056D01*
X344430Y80868D01*
X344524Y80774D01*
X344947Y80538D01*
X345277Y80350D01*
X345418Y80209D01*
X345747Y80021D01*
X346547Y79597D01*
X346971Y79362D01*
X348147Y78797D01*
X348570Y78609D01*
X348829Y78539D01*
X348994Y78374D01*
X349323Y78327D01*
X349653Y78186D01*
X349841Y78139D01*
X350453Y77950D01*
X350923Y77903D01*
X351111Y77856D01*
X351582Y77715D01*
X351911Y77668D01*
X352099Y77621D01*
X352852Y77574D01*
X353935Y77621D01*
X354076Y77668D01*
X354640Y77762D01*
X355040Y77833D01*
X355205Y77903D01*
X355723Y78186D01*
X355817Y78280D01*
X355911Y78327D01*
X356076Y78492D01*
X356311Y79009D01*
X356358Y79385D01*
X356405Y79527D01*
X356334Y79880D01*
X356287Y80162D01*
X356193Y80397D01*
X356123Y80468D01*
X356052Y80727D01*
X355934Y80891D01*
X355652Y81409D01*
X355511Y81550D01*
X355393Y81856D01*
X355276Y82021D01*
X355182Y82115D01*
X354805Y82821D01*
X354711Y82915D01*
X354476Y83338D01*
X354240Y83667D01*
X354052Y83997D01*
X353911Y84138D01*
X353629Y84656D01*
X353417Y84914D01*
X353276Y84962D01*
X353205Y84938D01*
X353135Y84679D01*
X353064Y84608D01*
X352970Y84373D01*
X352923Y84185D01*
X352829Y84091D01*
X352711Y83785D01*
X352593Y83620D01*
X352288Y83315D01*
X352194Y83267D01*
X352099Y83173D01*
X351770Y83032D01*
X351464Y82962D01*
X351229Y82915D01*
X350500Y82891D01*
X350359Y82938D01*
X350170Y82985D01*
X349841Y83079D01*
X349535Y83150D01*
X348970Y83291D01*
X348594Y83432D01*
X348359Y83526D01*
X347959Y83738D01*
X347723Y83879D01*
X347206Y84162D01*
X346971Y84256D01*
X346077Y84726D01*
X345794Y84914D01*
X345700Y84962D01*
X345182Y85244D01*
X344947Y85338D01*
X344853Y85385D01*
X344712Y85526D01*
X344336Y85479D01*
X344124Y85267D01*
X344077Y85173D01*
X344006Y85103D01*
X343912Y85056D01*
X343747Y84797D01*
X343653Y84703D01*
X343606Y84608D01*
X343371Y84373D01*
X343324Y84279D01*
X343230Y84185D01*
X343183Y84091D01*
X342947Y83856D01*
X342900Y83762D01*
X342759Y83620D01*
X342712Y83526D01*
X342547Y83362D01*
X342218Y83267D01*
X341912Y83385D01*
X341842Y83456D01*
X341748Y83503D01*
X341630Y83667D01*
X341559Y83738D01*
X341465Y83785D01*
X341395Y83856D01*
X341348Y83950D01*
X341183Y84067D01*
X341112Y84138D01*
X341089Y84209D01*
X340995Y84256D01*
X340830Y84420D01*
X340783Y84514D01*
X340665Y84632D01*
X340595Y84656D01*
X340548Y84750D01*
X340148Y85150D01*
X340054Y85197D01*
X339983Y85267D01*
X339936Y85361D01*
X339818Y85479D01*
X339724Y85526D01*
X339607Y85644D01*
X339560Y85738D01*
X338548Y86749D01*
X338454Y86797D01*
X338289Y86961D01*
X338242Y87055D01*
X338124Y87173D01*
X338054Y87197D01*
X338007Y87291D01*
X337866Y87432D01*
X337818Y87526D01*
X337466Y87879D01*
X337371Y87926D01*
X337160Y88326D01*
X337089Y89526D01*
X336901Y89996D01*
X336783Y90302D01*
X336430Y90655D01*
X336336Y90702D01*
X336077Y90914D01*
X335983Y91008D01*
X335936Y91102D01*
X335795Y91243D01*
X335677Y91549D01*
X335607Y91620D01*
X335560Y91808D01*
X335489Y92208D01*
X335395Y92584D01*
X335372Y92655D01*
X335489Y92819D01*
X335677Y92867D01*
X336525Y92819D01*
X336666Y92773D01*
X337207Y92655D01*
X337466Y92584D01*
X338124Y92537D01*
X338265Y92490D01*
X338548Y92443D01*
X338689Y92396D01*
X339018Y92349D01*
X339560Y92231D01*
X339983Y92184D01*
X340218Y92137D01*
X340383Y92114D01*
X340501Y92184D01*
X340548Y92373D01*
X340595Y92608D01*
X340642Y92749D01*
X340689Y92937D01*
X340971Y93455D01*
X341042Y93525D01*
X341136Y93572D01*
X341418Y93761D01*
X341512Y93808D01*
X341630Y93925D01*
X341583Y94160D01*
X341512Y94231D01*
X341042Y94372D01*
X340736Y94490D01*
X340359Y94584D01*
X339865Y94796D01*
X339371Y94913D01*
X339065Y95031D01*
X338689Y95078D01*
X338360Y95219D01*
X338171Y95266D01*
X337866Y95337D01*
X337630Y95431D01*
X337371Y95502D01*
X337183Y95549D01*
X336713Y95690D01*
X336383Y95737D01*
D02*
G37*
G36*
X342171Y93102D02*
X342030Y93055D01*
X341748Y93008D01*
X341677Y92937D01*
X341630Y92749D01*
X341536Y92655D01*
X341442Y92420D01*
X341489Y92090D01*
X341536Y91714D01*
X341583Y91573D01*
X341536Y91431D01*
X341465Y91361D01*
X341371Y91314D01*
X341230Y91267D01*
X340901Y91314D01*
X339795Y91384D01*
X339277Y91431D01*
X339089Y91479D01*
X338689Y91596D01*
X338454Y91643D01*
X338407D01*
X337983Y91690D01*
X337842Y91737D01*
X337654Y91784D01*
X337324Y91831D01*
X336760Y91878D01*
X336713Y91925D01*
X336501Y91808D01*
X336548Y91667D01*
X336713Y91502D01*
X336854Y91455D01*
X336995Y91314D01*
X337207Y91196D01*
X337254Y91055D01*
X337442Y90726D01*
X337536Y90632D01*
X337677Y90255D01*
X337866Y89973D01*
X337913Y89784D01*
X338007Y89690D01*
X338218Y89102D01*
X338265Y88538D01*
X338313Y88161D01*
X338430Y88043D01*
X338477Y87949D01*
X338595Y87832D01*
X338807Y87714D01*
X338854Y87620D01*
X338971Y87455D01*
X339065Y87408D01*
X339936Y86538D01*
X339983Y86444D01*
X340148Y86326D01*
X340218Y86255D01*
X340265Y86161D01*
X340618Y85808D01*
X340712Y85761D01*
X340830Y85597D01*
X341089Y85338D01*
X341183Y85291D01*
X342006Y84467D01*
X342053Y84373D01*
X342124Y84303D01*
X342289Y84326D01*
X342336Y84420D01*
X342571Y84844D01*
X342642Y84914D01*
X342736Y84962D01*
X342853Y85126D01*
X343041Y85314D01*
X343089Y85408D01*
X343230Y85550D01*
X343277Y85644D01*
X343583Y86091D01*
X343677Y86138D01*
X343747Y86208D01*
X343794Y86349D01*
X343912Y86467D01*
X344006Y86514D01*
X344077Y86679D01*
X344147Y86749D01*
X344406Y86773D01*
X344594Y86726D01*
X344759Y86561D01*
X344994Y86467D01*
X345229Y86326D01*
X345841Y85997D01*
X345935Y85903D01*
X346241Y85785D01*
X346406Y85620D01*
X346923Y85385D01*
X346994Y85456D01*
X347041Y85973D01*
X347135Y86208D01*
X347182Y86397D01*
X347206Y86655D01*
X347159Y86844D01*
X346759Y87573D01*
X346688Y87643D01*
X346594Y87691D01*
X346524Y87761D01*
X346477Y87949D01*
X346382Y88043D01*
X346335Y88232D01*
X346382Y88796D01*
X346453Y88914D01*
X346547Y88961D01*
X347065Y89196D01*
X347300Y89338D01*
X347465Y89738D01*
X347418Y90067D01*
X347370Y90302D01*
X347229Y90632D01*
X347182Y90726D01*
X347041Y90867D01*
X346994Y90961D01*
X346876Y91079D01*
X346641Y91220D01*
X346547Y91314D01*
X346124Y91549D01*
X345794Y91737D01*
X345512Y91925D01*
X345418Y91973D01*
X345324Y92067D01*
X345229Y92114D01*
X344947Y92302D01*
X344288Y92678D01*
X344053Y92773D01*
X343630Y92961D01*
X343347Y93008D01*
X343206Y93055D01*
X342171Y93102D01*
D02*
G37*
G36*
X348382Y89949D02*
X348312Y89784D01*
X348359Y89643D01*
X348312Y89220D01*
X348218Y88938D01*
X348006Y88679D01*
X347959Y88585D01*
X347865Y88538D01*
X347535Y88349D01*
X347465Y88279D01*
X347488Y88114D01*
X347723Y87973D01*
X347865Y87785D01*
X347959Y87738D01*
X348076Y87479D01*
X348123Y87291D01*
X348218Y87055D01*
X348241Y86279D01*
X348194Y85903D01*
X348076Y85644D01*
X348029Y85456D01*
X348006Y85008D01*
X348076Y84844D01*
X348241Y84679D01*
X348712Y84491D01*
X348900Y84444D01*
X349206Y84326D01*
X349394Y84279D01*
X349794Y84209D01*
X350123Y84067D01*
X350311Y84020D01*
X350594Y83973D01*
X350688Y83879D01*
X350876Y83832D01*
X351394Y83785D01*
X351817Y84115D01*
X351911Y84209D01*
X352005Y84256D01*
X352076Y84326D01*
X352123Y84420D01*
X352264Y84750D01*
X352311Y85079D01*
X352358Y85691D01*
X352311Y85832D01*
X352264Y86020D01*
X352099Y86467D01*
X352005Y86561D01*
X351982Y86585D01*
X351770Y86844D01*
X351676Y86891D01*
X350547Y88020D01*
X350453Y88067D01*
X350382Y88138D01*
X350335Y88232D01*
X350170Y88349D01*
X349558Y88961D01*
X349488Y88985D01*
X349441Y89079D01*
X349135Y89385D01*
X349041Y89432D01*
X348853Y89620D01*
X348759Y89667D01*
X348688Y89738D01*
X348641Y89832D01*
X348570Y89902D01*
X348382Y89949D01*
D02*
G37*
G36*
X323914Y95643D02*
X323585Y95596D01*
X323349Y95502D01*
X323020Y95455D01*
X322597Y95266D01*
X322220Y95219D01*
X321985Y95125D01*
X321796Y95078D01*
X321491Y95007D01*
X321091Y94843D01*
X320785Y94725D01*
X320526Y94608D01*
X320197Y94466D01*
X319750Y94302D01*
X319514Y94208D01*
X319326Y94160D01*
X319091Y94066D01*
X319020Y93996D01*
X318762Y93925D01*
X318526Y93831D01*
X318456Y93761D01*
X318220Y93666D01*
X316385Y92725D01*
X316291Y92631D01*
X315491Y92208D01*
X315397Y92114D01*
X315256Y92067D01*
X314927Y91831D01*
X314503Y91596D01*
X314456Y91502D01*
X314362Y91455D01*
X314033Y91267D01*
X313774Y91055D01*
X313656Y90937D01*
X313562Y90890D01*
X313468Y90796D01*
X313374Y90749D01*
X313044Y90514D01*
X312809Y90373D01*
X312715Y90279D01*
X312621Y90232D01*
X312480Y90090D01*
X312386Y90043D01*
X312150Y89808D01*
X312056Y89761D01*
X311962Y89667D01*
X311868Y89620D01*
X311633Y89385D01*
X311539Y89338D01*
X311445Y89243D01*
X311350Y89196D01*
X310974Y88820D01*
X310880Y88773D01*
X309351Y87244D01*
X309304Y87149D01*
X308739Y86585D01*
X308692Y86491D01*
X308457Y86255D01*
X308316Y86020D01*
X308104Y85761D01*
X307986Y85644D01*
X307939Y85550D01*
X307798Y85408D01*
X307751Y85314D01*
X307539Y85056D01*
X307351Y84773D01*
X307280Y84703D01*
X307233Y84608D01*
X306904Y84185D01*
X306669Y83809D01*
X306622Y83715D01*
X306528Y83620D01*
X306480Y83526D01*
X306292Y83197D01*
X306057Y82867D01*
X305963Y82632D01*
X305916Y82538D01*
X305681Y82162D01*
X305633Y82021D01*
X305539Y81785D01*
X305563Y81715D01*
X305681Y81738D01*
X305728Y81832D01*
X305845Y81950D01*
X306057Y82068D01*
X306104Y82162D01*
X306269Y82279D01*
X306457Y82468D01*
X306551Y82515D01*
X306833Y82703D01*
X307069Y82844D01*
X307327Y83056D01*
X307586Y83220D01*
X307680Y83315D01*
X307868Y83362D01*
X308151Y83550D01*
X309515Y84209D01*
X309821Y84326D01*
X310033Y84397D01*
X310409Y84491D01*
X310739Y84585D01*
X310927Y84632D01*
X311233Y84703D01*
X311468Y84750D01*
X311845Y84797D01*
X312127Y84844D01*
X312244Y84867D01*
X312292D01*
X313421Y84914D01*
X313562Y84867D01*
X314480Y84797D01*
X314738Y84726D01*
X315303Y84679D01*
X315538Y84585D01*
X315797Y84514D01*
X316032Y84467D01*
X316221Y84420D01*
X316456Y84326D01*
X316973Y84185D01*
X317279Y84020D01*
X318738Y83267D01*
X319491Y82703D01*
X319750Y82491D01*
X320126Y82256D01*
X320855Y81526D01*
X320950Y81479D01*
X321161Y81268D01*
X321208Y81174D01*
X321349Y81032D01*
X321397Y80938D01*
X321585Y80797D01*
X321632Y80703D01*
X321867Y80468D01*
X321914Y80374D01*
X322008Y80280D01*
X322055Y80185D01*
X322149Y80091D01*
X322197Y79997D01*
X322455Y79738D01*
X322644Y79785D01*
X323067Y80115D01*
X323208Y80256D01*
X323302Y80303D01*
X323538Y80538D01*
X323632Y80585D01*
X324055Y80915D01*
X324149Y81009D01*
X324243Y81056D01*
X324384Y81197D01*
X324479Y81244D01*
X324620Y81385D01*
X324714Y81432D01*
X324808Y81526D01*
X324902Y81573D01*
X325043Y81715D01*
X325137Y81762D01*
X325232Y81856D01*
X325326Y81903D01*
X325584Y82115D01*
X325655Y82185D01*
X325749Y82232D01*
X325937Y82421D01*
X326173Y82562D01*
X326596Y82891D01*
X326737Y83032D01*
X326831Y83079D01*
X327278Y83385D01*
X327631Y83597D01*
X328055Y83832D01*
X328196Y83973D01*
X328431Y84067D01*
X328572Y84209D01*
X328878Y84326D01*
X328949Y84397D01*
X329278Y84585D01*
X329702Y84820D01*
X330219Y85150D01*
X330831Y85479D01*
X330996Y85597D01*
X330949Y85926D01*
X330854Y86020D01*
X330760Y86255D01*
X330431Y86867D01*
X329961Y87855D01*
X329725Y88373D01*
X329561Y88820D01*
X329490Y88890D01*
X329349Y89455D01*
X329208Y89784D01*
X329137Y90090D01*
X329019Y90490D01*
X328949Y90937D01*
X328855Y91314D01*
X328808Y91549D01*
X328761Y91925D01*
X328713Y92490D01*
X328666Y93008D01*
X328525Y93149D01*
X326926Y93102D01*
X326784Y93055D01*
X326314Y93008D01*
X325326Y92961D01*
X325184Y92914D01*
X324714Y92961D01*
X324290Y93008D01*
X324220Y93078D01*
X324173Y93266D01*
X324126Y93596D01*
X324102Y94843D01*
X324173Y95478D01*
X324102Y95596D01*
X323914Y95643D01*
D02*
G37*
G36*
X313092Y83456D02*
X312480Y83409D01*
X312339Y83362D01*
X311868Y83315D01*
X311680Y83267D01*
X311633D01*
X311374Y83197D01*
X310974Y83126D01*
X310739Y83032D01*
X310409Y82891D01*
X309892Y82703D01*
X308527Y81997D01*
X308433Y81903D01*
X308339Y81856D01*
X307915Y81526D01*
X307539Y81291D01*
X307445Y81244D01*
X307327Y81126D01*
X307280Y81032D01*
X307022Y80868D01*
X306927Y80774D01*
X306833Y80727D01*
X306763Y80656D01*
X306716Y80562D01*
X306551Y80397D01*
X306457Y80350D01*
X306316Y80162D01*
X306222Y80115D01*
X305963Y79856D01*
X305916Y79762D01*
X305751Y79597D01*
X305657Y79550D01*
X305469Y79268D01*
X305351Y79150D01*
X305304Y79056D01*
X305116Y78868D01*
X304975Y78633D01*
X304881Y78539D01*
X304834Y78444D01*
X304692Y78303D01*
X304504Y77974D01*
X304222Y77503D01*
X304128Y77268D01*
X303563Y76233D01*
X303187Y75433D01*
X302857Y74727D01*
X302716Y74351D01*
X302575Y74021D01*
X302598Y73951D01*
X302693Y73998D01*
X303045Y74680D01*
X303234Y74962D01*
X303375Y75198D01*
X303610Y75574D01*
X303657Y75668D01*
X303845Y75951D01*
X303892Y76045D01*
X304034Y76186D01*
X304175Y76421D01*
X304316Y76515D01*
X304363Y76609D01*
X304457Y76703D01*
X304504Y76797D01*
X304786Y77080D01*
X304810Y77150D01*
X304904Y77197D01*
X305563Y77856D01*
X305657Y77903D01*
X305892Y78139D01*
X306222Y78327D01*
X306480Y78539D01*
X306763Y78727D01*
X306833Y78797D01*
X307069Y78892D01*
X307163Y78938D01*
X308433Y79550D01*
X308951Y79785D01*
X309186Y79833D01*
X309327Y79880D01*
X310080Y79927D01*
X311256Y79880D01*
X311492Y79785D01*
X312033Y79668D01*
X312574Y79503D01*
X312809Y79456D01*
X313139Y79315D01*
X313468Y79362D01*
X313633Y79527D01*
X313680Y79621D01*
X314009Y79950D01*
X314056Y80044D01*
X314291Y80280D01*
X314338Y80374D01*
X314644Y80821D01*
X314809Y80985D01*
X314856Y81080D01*
X314950Y81174D01*
X315068Y81385D01*
X315138Y81409D01*
X315185Y81503D01*
X315632Y82091D01*
X315750Y82256D01*
X315844Y82350D01*
X315891Y82491D01*
X315962Y82562D01*
X316056Y82609D01*
X316174Y82726D01*
X316126Y82867D01*
X316056Y82938D01*
X315727Y82985D01*
X315538Y83032D01*
X315303Y83126D01*
X314927Y83173D01*
X314691Y83267D01*
X314221Y83315D01*
X313092Y83456D01*
D02*
G37*
G36*
X307210Y77621D02*
X307092Y77503D01*
X307045Y77409D01*
X306975Y77339D01*
X306880Y77292D01*
X306786Y77197D01*
X306692Y77150D01*
X306551Y77009D01*
X306457Y76962D01*
X306245Y76797D01*
X306198Y76703D01*
X306080Y76586D01*
X305916Y76515D01*
X305822Y76280D01*
X305775Y76139D01*
X305633Y75998D01*
X305586Y75809D01*
X305539Y75480D01*
X305516Y75080D01*
X305563Y74798D01*
X305610Y74421D01*
X305657Y74186D01*
X305728Y73927D01*
X305775Y73739D01*
X305822Y73457D01*
X305986Y73292D01*
X306175Y73245D01*
X306363Y73292D01*
X306457Y73386D01*
X306480Y73410D01*
X306998Y73504D01*
X307069Y73574D01*
X307163Y73621D01*
X307374Y73739D01*
X307421Y73927D01*
X307374Y76845D01*
X307280Y77080D01*
X307257Y77197D01*
X307327Y77456D01*
X307280Y77597D01*
X307210Y77621D01*
D02*
G37*
G36*
X330925Y96349D02*
X330807Y96278D01*
X330760Y96184D01*
X330666Y96090D01*
X330572Y95855D01*
X330454Y95549D01*
X330337Y95149D01*
X330290Y94772D01*
X330196Y94537D01*
X330149Y94349D01*
X330125Y93714D01*
X330149Y93596D01*
X330102Y93455D01*
X330172Y92349D01*
X330219Y92067D01*
X330266Y91643D01*
X330360Y91267D01*
X330407Y90984D01*
X330572Y90584D01*
X330666Y90208D01*
X330807Y89879D01*
X330854Y89643D01*
X330878Y89620D01*
X330949Y89549D01*
X331043Y89173D01*
X331278Y88655D01*
X331325Y88514D01*
X332313Y86585D01*
X332501Y86302D01*
X332548Y86208D01*
X332737Y85879D01*
X332972Y85550D01*
X333137Y85244D01*
X333231Y85197D01*
X333701Y84444D01*
X333960Y84185D01*
X334101Y83950D01*
X334195Y83856D01*
X334242Y83762D01*
X334525Y83479D01*
X334572Y83385D01*
X334713Y83244D01*
X334760Y83103D01*
X334972Y82844D01*
X335113Y82703D01*
X335207Y82656D01*
X335278Y82585D01*
X335325Y82491D01*
X335513Y82303D01*
X335560Y82209D01*
X336007Y81762D01*
X336101Y81715D01*
X336172Y81644D01*
X336219Y81550D01*
X336289Y81479D01*
X336383Y81432D01*
X336501Y81315D01*
X336548Y81221D01*
X337042Y80727D01*
X337136Y80680D01*
X337254Y80562D01*
X337301Y80468D01*
X337536Y80327D01*
X337583Y80232D01*
X337701Y80115D01*
X337795Y80068D01*
X337936Y79927D01*
X338030Y79880D01*
X338124Y79785D01*
X338218Y79738D01*
X338454Y79503D01*
X338548Y79456D01*
X338736Y79268D01*
X338830Y79221D01*
X338924Y79127D01*
X339018Y79080D01*
X339160Y78938D01*
X339254Y78892D01*
X339418Y78774D01*
X339442Y78703D01*
X339536Y78656D01*
X340195Y78186D01*
X340524Y77997D01*
X340995Y77668D01*
X341089Y77621D01*
X341465Y77386D01*
X341559Y77339D01*
X341889Y77150D01*
X342406Y76821D01*
X342736Y76633D01*
X344194Y75880D01*
X344477Y75692D01*
X345088Y75409D01*
X345418Y75268D01*
X345606Y75221D01*
X346500Y74798D01*
X346923Y74609D01*
X347112Y74563D01*
X347559Y74398D01*
X347865Y74280D01*
X348100Y74186D01*
X348547Y74021D01*
X348806Y73904D01*
X349182Y73857D01*
X349606Y73668D01*
X350123Y73621D01*
X350453Y73480D01*
X350782Y73433D01*
X351323Y73363D01*
X351723Y73245D01*
X352052Y73198D01*
X352476Y73151D01*
X352617Y73104D01*
X353229Y73057D01*
X355440Y73104D01*
X355582Y73151D01*
X356099Y73198D01*
X356240Y73245D01*
X356593Y73316D01*
X356781Y73363D01*
X357017Y73410D01*
X357205Y73457D01*
X357605Y73574D01*
X358381Y73692D01*
X358546Y73810D01*
X358569Y74210D01*
X358522Y74351D01*
X358334Y74774D01*
X358287Y74962D01*
X358099Y75386D01*
X358052Y75574D01*
X358005Y75904D01*
X357864Y76233D01*
X357793Y76539D01*
X357675Y76797D01*
X357628Y76986D01*
X357581Y77221D01*
X357487Y77315D01*
X357417Y77574D01*
X357369Y77856D01*
X357299Y78021D01*
X357134Y78186D01*
X356946Y78139D01*
X356875Y78068D01*
X356734Y77833D01*
X356617Y77715D01*
X356523Y77668D01*
X356405Y77503D01*
X356193Y77245D01*
X356099Y77197D01*
X355817Y77009D01*
X355393Y76821D01*
X355064Y76727D01*
X354499Y76680D01*
X354358Y76633D01*
X354170Y76586D01*
X354029Y76539D01*
X353887Y76586D01*
X352994Y76539D01*
X352146Y76586D01*
X352005Y76633D01*
X351817Y76680D01*
X351205Y76727D01*
X351017Y76774D01*
X350641Y76821D01*
X350500Y76868D01*
X350123Y76962D01*
X349582Y77080D01*
X349276Y77197D01*
X349041Y77292D01*
X348712Y77386D01*
X348476Y77480D01*
X348053Y77668D01*
X347865Y77715D01*
X347159Y78045D01*
X346923Y78139D01*
X346829Y78186D01*
X346312Y78468D01*
X346218Y78562D01*
X346030Y78609D01*
X345935Y78703D01*
X345606Y78844D01*
X345512Y78892D01*
X345182Y79127D01*
X344853Y79315D01*
X343959Y79880D01*
X343724Y80021D01*
X343630Y80115D01*
X343394Y80256D01*
X343300Y80350D01*
X343206Y80397D01*
X342877Y80632D01*
X342783Y80680D01*
X342689Y80774D01*
X342594Y80821D01*
X342453Y80962D01*
X342218Y81103D01*
X342030Y81291D01*
X341936Y81338D01*
X341842Y81432D01*
X341748Y81479D01*
X341606Y81621D01*
X341512Y81668D01*
X341348Y81785D01*
X341301Y81879D01*
X341065Y82021D01*
X341018Y82115D01*
X340948Y82185D01*
X340854Y82232D01*
X340759Y82326D01*
X340665Y82374D01*
X340406Y82585D01*
X340242Y82703D01*
X339771Y83173D01*
X339677Y83220D01*
X339560Y83385D01*
X339395Y83503D01*
X339230Y83667D01*
X339183Y83762D01*
X338148Y84797D01*
X338101Y84891D01*
X337771Y85220D01*
X337724Y85314D01*
X337536Y85503D01*
X337395Y85738D01*
X337113Y86020D01*
X336972Y86255D01*
X336877Y86349D01*
X336830Y86444D01*
X336360Y87102D01*
X336313Y87197D01*
X336124Y87385D01*
X336077Y87526D01*
X335936Y87667D01*
X335866Y87926D01*
X335607Y88185D01*
X335560Y88279D01*
X334948Y89455D01*
X334854Y89549D01*
X334737Y89855D01*
X334619Y89973D01*
X334548Y90232D01*
X334313Y90843D01*
X334195Y91102D01*
X334101Y91431D01*
X334007Y91667D01*
X333960Y91855D01*
X333890Y92161D01*
X333819Y92420D01*
X333772Y92608D01*
X333725Y93078D01*
X333701Y93714D01*
X333748Y93902D01*
X333819Y94160D01*
X333890Y94514D01*
X334101Y94913D01*
X334195Y95290D01*
X334290Y95384D01*
X334384Y95619D01*
X334572Y95902D01*
X334501Y96066D01*
X334313Y96113D01*
X334172Y96066D01*
X334031Y96113D01*
X333301Y96184D01*
X333066Y96278D01*
X332172Y96325D01*
X330925Y96349D01*
D02*
G37*
G36*
X310268Y78892D02*
X309657Y78844D01*
X309515Y78797D01*
X309163Y78727D01*
X308621Y78421D01*
X308504Y78303D01*
X308410Y78068D01*
X308363Y77739D01*
X308410Y76139D01*
X308363Y73504D01*
X308174Y73174D01*
X308104Y73104D01*
X308033Y73080D01*
X307986Y72986D01*
X307868Y72868D01*
X307680Y72821D01*
X307163Y72586D01*
X306975Y72539D01*
X306810Y72516D01*
X306739Y72539D01*
X306598Y72492D01*
X306127Y72351D01*
X305516Y72398D01*
X305186Y72586D01*
X304928Y72845D01*
X304834Y73080D01*
X304786Y73363D01*
X304692Y73598D01*
X304645Y73786D01*
X304598Y74257D01*
X304551Y74539D01*
X304433Y74657D01*
X304269Y74586D01*
X304222Y74492D01*
X303986Y74115D01*
X303516Y73127D01*
X303234Y72516D01*
X303163Y72257D01*
X303045Y71998D01*
X302975Y71739D01*
X302857Y71433D01*
X302740Y70892D01*
X302622Y70492D01*
X302575Y70304D01*
X302504Y69951D01*
X302457Y69763D01*
X302410Y69528D01*
X302363Y69339D01*
X302316Y68822D01*
X302293Y67951D01*
X302504Y67551D01*
X302598Y67504D01*
X302693Y67410D01*
X302787Y67363D01*
X303445Y67081D01*
X303681Y66987D01*
X304104Y66563D01*
X304198Y66516D01*
X304363Y66351D01*
X304551Y66022D01*
X304786Y65504D01*
X304834Y65316D01*
X304881Y64328D01*
X304739Y64093D01*
X304669Y64022D01*
X304433Y63928D01*
X303939Y63905D01*
X303657Y63952D01*
X303469Y63999D01*
X302857Y64093D01*
X302622Y64140D01*
X302410Y64163D01*
X302293Y64093D01*
X302340Y63528D01*
X302387Y63387D01*
X302457Y62799D01*
X302575Y62399D01*
X302622Y62211D01*
X302693Y61858D01*
X302881Y61340D01*
X302951Y61129D01*
X302998Y60940D01*
X303045Y60658D01*
X303234Y60234D01*
X303328Y59999D01*
X303516Y59576D01*
X303563Y59482D01*
X303986Y58682D01*
X304175Y58352D01*
X304269Y58258D01*
X304316Y58164D01*
X304622Y57717D01*
X304857Y57341D01*
X304975Y57176D01*
X305351Y56800D01*
X305398Y56705D01*
X305775Y56329D01*
X305822Y56235D01*
X306316Y55741D01*
X306386Y55717D01*
X306433Y55623D01*
X306598Y55505D01*
X306739Y55364D01*
X306833Y55317D01*
X307022Y55129D01*
X307116Y55082D01*
X307304Y54894D01*
X307398Y54847D01*
X307727Y54612D01*
X308998Y54000D01*
X309468Y53859D01*
X309774Y53788D01*
X310409Y53717D01*
X310480Y53788D01*
X310433Y54212D01*
X310292Y54541D01*
X310080Y55129D01*
X310033Y55317D01*
X309986Y55553D01*
X309868Y55858D01*
X309774Y56094D01*
X309821Y56894D01*
X310033Y57152D01*
X310151Y57317D01*
X310409Y57576D01*
X310504Y57623D01*
X310739Y57858D01*
X311068Y57999D01*
X311256Y58046D01*
X311868Y57999D01*
X312174Y57694D01*
X312221Y57599D01*
X312456Y57270D01*
X313350Y55529D01*
X313538Y55200D01*
X313915Y54494D01*
X314033Y54376D01*
X314362Y54423D01*
X314503Y54564D01*
X314832Y54753D01*
X315091Y54964D01*
X315209Y55082D01*
X315303Y55129D01*
X315491Y55317D01*
X315727Y55458D01*
X315868Y55600D01*
X315962Y55647D01*
X316080Y55811D01*
X316197Y55929D01*
X316268Y55953D01*
X316315Y56047D01*
X316550Y56282D01*
X316597Y56376D01*
X316785Y56564D01*
X316809Y56635D01*
X316903Y56682D01*
X316973Y56752D01*
X317020Y56846D01*
X317232Y57105D01*
X317468Y57482D01*
X317585Y57599D01*
X317632Y57694D01*
X317868Y58023D01*
X318103Y58399D01*
X318220Y58705D01*
X318338Y58823D01*
X318456Y59129D01*
X318667Y59529D01*
X318856Y59952D01*
X318997Y60282D01*
X319044Y60470D01*
X319138Y60705D01*
X319185Y60846D01*
X319232Y61034D01*
X319279Y61364D01*
X319373Y61599D01*
X319420Y61787D01*
X319467Y62540D01*
X319420Y63387D01*
X319303Y63505D01*
X318903Y63575D01*
X318644Y63646D01*
X318173Y63693D01*
X317938Y63787D01*
X317632Y63858D01*
X317444Y63905D01*
X317185Y64022D01*
X316997Y64069D01*
X316738Y64140D01*
X316268Y64328D01*
X316056Y64540D01*
X315962Y64587D01*
X315891Y64658D01*
X315844Y65552D01*
X315891Y65693D01*
X316032Y66210D01*
X316103Y66516D01*
X316268Y66822D01*
X316385Y67034D01*
X316574Y67081D01*
X317374Y67175D01*
X317844Y67222D01*
X319020Y67269D01*
X319679Y67316D01*
X319750Y67387D01*
X319703Y67763D01*
X319608Y67998D01*
X319562Y68328D01*
X319514Y68892D01*
X319467Y69034D01*
X319350Y69575D01*
X319303Y69810D01*
X319232Y70539D01*
X319161Y70610D01*
X318832Y70422D01*
X318715Y70351D01*
X318667Y70257D01*
X318456Y70045D01*
X318362Y69998D01*
X318079Y69716D01*
X317985Y69669D01*
X317938Y69575D01*
X317844Y69528D01*
X317726Y69457D01*
X317679Y69363D01*
X317609Y69292D01*
X317515Y69245D01*
X317397Y69081D01*
X317232Y68963D01*
X317138Y68869D01*
X317044Y68822D01*
X316950Y68728D01*
X316856Y68681D01*
X316785Y68610D01*
X316738Y68516D01*
X316621Y68398D01*
X316527Y68351D01*
X316197Y68022D01*
X315962Y67928D01*
X315774Y67740D01*
X315679Y67692D01*
X315491Y67504D01*
X315397Y67457D01*
X315303Y67363D01*
X315209Y67316D01*
X315115Y67222D01*
X315021Y67175D01*
X314762Y66916D01*
X314386Y66116D01*
X314291Y65740D01*
X314362Y64258D01*
X314386Y63293D01*
X314338Y63152D01*
X314291Y62634D01*
X314244Y62493D01*
X314080Y61670D01*
X313939Y61293D01*
X313868Y61034D01*
X313680Y60611D01*
X313491Y60282D01*
X313256Y59952D01*
X313068Y59623D01*
X312927Y59482D01*
X312880Y59387D01*
X312786Y59340D01*
X312739Y59246D01*
X312574Y59082D01*
X312480Y59035D01*
X312386Y58941D01*
X312292Y58893D01*
X312009Y58705D01*
X311892Y58682D01*
X311868Y58658D01*
X311774Y58611D01*
X311492Y58423D01*
X310457Y58376D01*
X310315Y58423D01*
X309962Y58493D01*
X309657Y58611D01*
X309468Y58658D01*
X309139Y58846D01*
X308762Y59082D01*
X308668Y59129D01*
X308410Y59340D01*
X308339Y59411D01*
X308268Y59434D01*
X308221Y59529D01*
X307963Y59787D01*
X307868Y59834D01*
X307751Y59952D01*
X307727Y60023D01*
X307633Y60070D01*
X307563Y60140D01*
X307516Y60234D01*
X307327Y60423D01*
X307045Y60940D01*
X306857Y61223D01*
X306433Y62023D01*
X306339Y62258D01*
X306151Y62681D01*
X305916Y63199D01*
X305869Y63387D01*
X305751Y63693D01*
X305704Y63881D01*
X305657Y64258D01*
X305539Y64516D01*
X305469Y65105D01*
X305422Y65387D01*
X305375Y65904D01*
X305328Y66187D01*
X305257Y66822D01*
X305304Y67998D01*
X305422Y68681D01*
X305469Y68916D01*
X305516Y69339D01*
X305563Y69575D01*
X305681Y69881D01*
X305751Y70186D01*
X305869Y70304D01*
X305986Y70610D01*
X306151Y70775D01*
X306198Y70869D01*
X306433Y71198D01*
X306480Y71292D01*
X306574Y71386D01*
X306622Y71480D01*
X306927Y71786D01*
X307022Y71833D01*
X307210Y72021D01*
X307398Y72069D01*
X307586Y72257D01*
X307774Y72304D01*
X308080Y72375D01*
X308292Y72492D01*
X308927Y72516D01*
X309398Y72469D01*
X309798Y72304D01*
X310174Y72257D01*
X310457Y72069D01*
X310786Y72116D01*
X310856Y72186D01*
X310903Y72375D01*
X310998Y72704D01*
X311068Y73010D01*
X311162Y73386D01*
X311256Y73621D01*
X311303Y74045D01*
X311350Y74233D01*
X311468Y74492D01*
X311562Y74868D01*
X311633Y75127D01*
X311680Y75315D01*
X311798Y75621D01*
X311868Y76068D01*
X311915Y76304D01*
X312033Y76609D01*
X312080Y76939D01*
X312150Y77197D01*
X312221Y77268D01*
X312268Y77692D01*
X312362Y77927D01*
X312409Y78256D01*
X312292Y78468D01*
X311986Y78586D01*
X311751Y78680D01*
X311280Y78774D01*
X310903Y78821D01*
X310268Y78892D01*
D02*
G37*
G36*
X313515Y77856D02*
X313421Y77809D01*
X313350Y77739D01*
X313303Y77550D01*
X313256Y77221D01*
X313209Y77080D01*
X313115Y76656D01*
X313021Y76421D01*
X312950Y75974D01*
X312856Y75739D01*
X312786Y75480D01*
X312739Y75198D01*
X312597Y74868D01*
X312503Y74492D01*
X312409Y74257D01*
X312292Y73762D01*
X312221Y73504D01*
X312174Y73221D01*
X312080Y72986D01*
X312033Y72798D01*
X311986Y72469D01*
X311868Y72163D01*
X311798Y71904D01*
X311656Y71575D01*
X311609Y71433D01*
Y71386D01*
X311562Y71198D01*
X311350Y70986D01*
X311115Y70892D01*
X310833Y70939D01*
X310598Y71033D01*
X309986Y71316D01*
X309445Y71386D01*
X309186Y71457D01*
X308692Y71386D01*
X308316Y71339D01*
X308151Y71269D01*
X307727Y70939D01*
X307657Y70869D01*
X307610Y70775D01*
X307539Y70704D01*
X307304Y70563D01*
X307092Y70163D01*
X306904Y69881D01*
X306857Y69551D01*
X306763Y69316D01*
X306716Y69128D01*
X306669Y68798D01*
X306528Y68469D01*
X306480Y66728D01*
X306433Y66587D01*
X306480Y66399D01*
X306528Y65458D01*
X306622Y65222D01*
X306669Y64893D01*
X306739Y64587D01*
X306810Y64516D01*
X306857Y64046D01*
X306904Y63905D01*
X307139Y63293D01*
X307186Y63199D01*
X307280Y63105D01*
X307421Y62728D01*
X307516Y62634D01*
X307563Y62446D01*
X307657Y62211D01*
X307845Y61928D01*
X307892Y61834D01*
X307986Y61740D01*
X308221Y61317D01*
X308410Y60987D01*
X308551Y60846D01*
X308598Y60705D01*
X308762Y60634D01*
X308833Y60564D01*
X308880Y60423D01*
X309139Y60258D01*
X309233Y60164D01*
X309562Y59976D01*
X309657Y59882D01*
X310080Y59646D01*
X310504Y59458D01*
X310692Y59411D01*
X311256Y59458D01*
X311515Y59670D01*
X311798Y59905D01*
X311845Y59999D01*
X312080Y60234D01*
X312127Y60329D01*
X312197Y60399D01*
X312292Y60446D01*
X312409Y60564D01*
X312456Y60752D01*
X312645Y60940D01*
X312692Y61129D01*
X312668Y61293D01*
X312833Y61458D01*
X312997Y61905D01*
X313115Y62164D01*
X313162Y62446D01*
X313303Y62681D01*
X313350Y63669D01*
X313397Y63811D01*
X313374Y65622D01*
X313397Y65881D01*
X313350Y66022D01*
X313327Y66610D01*
X313374Y66893D01*
X313421Y67081D01*
X313562Y67269D01*
X313656Y67316D01*
X313844Y67504D01*
X313939Y67551D01*
X314268Y67881D01*
X314362Y67928D01*
X314550Y68116D01*
X314644Y68163D01*
X314832Y68351D01*
X314927Y68398D01*
X315397Y68869D01*
X315491Y68916D01*
X315609Y69081D01*
X315727Y69198D01*
X315868Y69245D01*
X316009Y69387D01*
X316103Y69434D01*
X316362Y69645D01*
X316668Y69951D01*
X316997Y70139D01*
X317256Y70398D01*
X317397Y70633D01*
X317773Y70869D01*
X317844Y70939D01*
X318079Y71080D01*
X318291Y71245D01*
X318338Y71339D01*
X318409Y71410D01*
X318620Y71528D01*
X318573Y71998D01*
X318385Y72280D01*
X317868Y73363D01*
X317726Y73598D01*
X317397Y74115D01*
X317350Y74210D01*
X317162Y74539D01*
X317020Y74680D01*
X316973Y74774D01*
X316879Y74868D01*
X316832Y74962D01*
X316738Y75057D01*
X316691Y75151D01*
X316503Y75339D01*
X316456Y75433D01*
X316197Y75786D01*
X316126Y75809D01*
X315985Y76045D01*
X315868Y76162D01*
X315774Y76209D01*
X315656Y76374D01*
X315585Y76445D01*
X315491Y76492D01*
X315374Y76609D01*
X315327Y76703D01*
X315256Y76774D01*
X314832Y77009D01*
X314691Y77150D01*
X314597Y77197D01*
X314338Y77409D01*
X314174Y77574D01*
X313986Y77621D01*
X313656Y77809D01*
X313515Y77856D01*
D02*
G37*
G36*
X302316Y66704D02*
X302222Y66657D01*
X302199Y66540D01*
X302246Y66399D01*
X302316Y65951D01*
X302387Y65787D01*
X302434Y65646D01*
X302387Y65316D01*
X302716Y64893D01*
X302928Y64822D01*
X303257Y64775D01*
X303398D01*
X303587Y64822D01*
X303822Y64869D01*
X303939Y64987D01*
X303869Y65246D01*
X303822Y65481D01*
X303728Y65716D01*
X303563Y65975D01*
X303493Y66046D01*
X303398Y66093D01*
X303116Y66281D01*
X302928Y66328D01*
X302810Y66493D01*
X302457Y66657D01*
X302316Y66704D01*
D02*
G37*
G36*
X319444Y66328D02*
X317091Y66281D01*
X316926Y66116D01*
X316879Y65928D01*
X316809Y65528D01*
X316785Y65222D01*
X316832Y65081D01*
X316879Y64987D01*
X316950Y64916D01*
X317326Y64822D01*
X317820Y64752D01*
X318220Y64634D01*
X318832Y64587D01*
X319256Y64399D01*
X319444Y64446D01*
X319467Y65222D01*
Y65269D01*
X319491Y66234D01*
X319444Y66328D01*
D02*
G37*
G36*
X331396Y84820D02*
X331301Y84726D01*
X331207Y84679D01*
X330972Y84538D01*
X330454Y84256D01*
X330125Y84067D01*
X329608Y83738D01*
X329278Y83550D01*
X328902Y83315D01*
X328808Y83267D01*
X328525Y83079D01*
X328313Y82962D01*
X328290Y82891D01*
X328196Y82844D01*
X327820Y82609D01*
X327725Y82562D01*
X327631Y82468D01*
X327537Y82421D01*
X326949Y82021D01*
X326831Y81903D01*
X326502Y81715D01*
X326267Y81479D01*
X326173Y81432D01*
X325890Y81244D01*
X325820Y81221D01*
X325773Y81126D01*
X325702Y81056D01*
X325608Y81009D01*
X325349Y80797D01*
X325067Y80609D01*
X324902Y80491D01*
X324808Y80397D01*
X324714Y80350D01*
X324573Y80209D01*
X324479Y80162D01*
X324290Y79974D01*
X324196Y79927D01*
X323937Y79715D01*
X323773Y79597D01*
X323679Y79503D01*
X323585Y79456D01*
X323255Y79127D01*
X323161Y79080D01*
X323091Y79009D01*
X323138Y78680D01*
X323232Y78586D01*
X323279Y78492D01*
X323514Y78068D01*
X323843Y77362D01*
X324032Y76939D01*
X324596Y75762D01*
X324690Y75433D01*
X324808Y75127D01*
X324879Y75057D01*
X324949Y74751D01*
X325043Y74515D01*
X325114Y74445D01*
X325184Y74139D01*
X325232Y73951D01*
X325302Y73880D01*
X325396Y73551D01*
X325490Y73127D01*
X325537Y72986D01*
X325631Y72610D01*
X325773Y72139D01*
X325843Y71786D01*
X325890Y71598D01*
X325937Y71363D01*
X326008Y71104D01*
X326102Y70728D01*
X326173Y70092D01*
X326243Y69881D01*
X326290Y68563D01*
X326337Y67387D01*
X326384Y66446D01*
X326337Y66304D01*
X326290Y64046D01*
X326243Y63905D01*
X326173Y63458D01*
X326125Y63081D01*
X326055Y62117D01*
X325961Y61881D01*
X325867Y61552D01*
X325773Y60987D01*
X325678Y60752D01*
X325561Y60164D01*
X325467Y59787D01*
X325396Y59529D01*
X325208Y59058D01*
X325137Y58705D01*
X325043Y58470D01*
X324973Y58258D01*
X324808Y57811D01*
X324690Y57505D01*
X324643Y57270D01*
X324502Y56941D01*
X324384Y56635D01*
X324173Y56235D01*
X323796Y55435D01*
X323279Y54447D01*
X323185Y54353D01*
X322996Y54023D01*
X322902Y53929D01*
X322714Y53600D01*
X322267Y53012D01*
X322102Y52753D01*
X321914Y52565D01*
X321867Y52470D01*
X321585Y52188D01*
X321538Y52094D01*
X321020Y51576D01*
X320973Y51482D01*
X320902Y51412D01*
X320808Y51365D01*
X320526Y51082D01*
X320432Y51035D01*
X320244Y50847D01*
X320150Y50800D01*
X319914Y50565D01*
X319820Y50518D01*
X319750Y50447D01*
X319703Y50353D01*
X319326Y50118D01*
X319256Y50047D01*
X319161Y50000D01*
X319067Y49906D01*
X318973Y49859D01*
X318738Y49624D01*
X318644Y49577D01*
X318385Y49365D01*
X318173Y49153D01*
X318079Y49106D01*
X318009Y49036D01*
X317962Y48894D01*
X318150Y48706D01*
X318197Y48612D01*
X318456Y48353D01*
X318550Y48306D01*
X318832Y48024D01*
X318926Y47977D01*
X319303Y47600D01*
X319397Y47553D01*
X319585Y47365D01*
X319679Y47318D01*
X319938Y47106D01*
X320103Y46942D01*
X320197Y46895D01*
X320338Y46753D01*
X320432Y46706D01*
X320761Y46471D01*
X320997Y46330D01*
X321091Y46236D01*
X321185Y46189D01*
X321655Y45859D01*
X321749Y45812D01*
X321844Y45718D01*
X321938Y45671D01*
X322267Y45483D01*
X322691Y45248D01*
X323208Y44918D01*
X324102Y44495D01*
X324408Y44377D01*
X324479Y44307D01*
X324996Y44071D01*
X325302Y43954D01*
X325373Y43883D01*
X325631Y43812D01*
X326008Y43671D01*
X326314Y43554D01*
X326784Y43366D01*
X327090Y43295D01*
X327349Y43177D01*
X327514Y43248D01*
X327608Y43483D01*
X327655Y43812D01*
X327796Y44142D01*
X327890Y44518D01*
X328008Y44824D01*
X328078Y45083D01*
X328196Y45389D01*
X328431Y45906D01*
X328549Y46212D01*
X329114Y47295D01*
X329443Y47812D01*
X329490Y47906D01*
X329584Y48000D01*
X329631Y48095D01*
X329866Y48424D01*
X329913Y48518D01*
X330219Y48965D01*
X330337Y49083D01*
X330478Y49318D01*
X330572Y49412D01*
X330619Y49506D01*
X330760Y49647D01*
X330807Y49741D01*
X330901Y49836D01*
X330949Y49930D01*
X331160Y50188D01*
X331278Y50353D01*
X331443Y50471D01*
X331584Y50706D01*
X331654Y50729D01*
X331702Y50824D01*
X331890Y51012D01*
X331937Y51106D01*
X332078Y51247D01*
X332125Y51341D01*
X332360Y51576D01*
X332407Y51671D01*
X332901Y52165D01*
X332995Y52212D01*
X333113Y52376D01*
X333842Y53106D01*
X333937Y53153D01*
X334031Y53294D01*
X334125Y53341D01*
X334384Y53553D01*
X334737Y53906D01*
X334831Y53953D01*
X335160Y54282D01*
X335254Y54329D01*
X335348Y54423D01*
X335442Y54470D01*
X335630Y54658D01*
X335725Y54706D01*
X335866Y54847D01*
X335960Y54894D01*
X336148Y55082D01*
X336242Y55129D01*
X336830Y55576D01*
X337113Y55764D01*
X337183Y55835D01*
X337277Y55882D01*
X337419Y56023D01*
X337560Y56070D01*
X337889Y56305D01*
X337983Y56353D01*
X338077Y56447D01*
X338171Y56494D01*
X338454Y56682D01*
X338689Y56823D01*
X339018Y57058D01*
X339113Y57105D01*
X339724Y57435D01*
X339818Y57529D01*
X340148Y57717D01*
X341748Y58564D01*
X342030Y58752D01*
X342171Y58799D01*
X343065Y59223D01*
X343371Y59340D01*
X344430Y59834D01*
X345041Y60070D01*
X345229Y60117D01*
X345465Y60211D01*
X345912Y60376D01*
X346312Y60540D01*
X346923Y60776D01*
X347253Y60823D01*
X347488Y60917D01*
X347676Y60964D01*
X348029Y61034D01*
X348429Y61152D01*
X348759Y61199D01*
X349017Y61270D01*
X349253Y61364D01*
X349464Y61434D01*
X350076Y61481D01*
X350311Y61575D01*
X350500Y61623D01*
X351111Y61670D01*
X351747Y61740D01*
X352029Y61787D01*
X352452Y61834D01*
X352570Y61858D01*
X352711Y61811D01*
X352899Y61858D01*
X353158Y62070D01*
X353346Y62493D01*
X353417Y62799D01*
X353511Y63175D01*
X353558Y63411D01*
X353605Y64163D01*
X353676Y64611D01*
X353723Y64752D01*
X353770Y65787D01*
X353723Y67528D01*
X353676Y67669D01*
X353629Y68657D01*
X353582Y68798D01*
X353535Y69692D01*
X353488Y69833D01*
X353441Y70304D01*
X353394Y70916D01*
X353323Y71316D01*
X353088Y71598D01*
X352994Y71692D01*
X352617Y71786D01*
X351488Y71833D01*
X351158Y71975D01*
X350406Y72021D01*
X350170Y72116D01*
X349841Y72210D01*
X348900Y72445D01*
X348570Y72539D01*
X348288Y72586D01*
X348053Y72680D01*
X347794Y72751D01*
X347535Y72868D01*
X347347Y72916D01*
X347112Y72963D01*
X346971Y73104D01*
X346477Y73221D01*
X346241Y73316D01*
X345841Y73433D01*
X345512Y73574D01*
X345277Y73668D01*
X344947Y73810D01*
X344430Y74045D01*
X344406Y74068D01*
X343724Y74374D01*
X342736Y74892D01*
X341936Y75315D01*
X341606Y75504D01*
X341512Y75598D01*
X341277Y75739D01*
X340948Y75927D01*
X340712Y76068D01*
X340618Y76115D01*
X340289Y76350D01*
X339959Y76539D01*
X339771Y76727D01*
X339442Y76915D01*
X338854Y77362D01*
X338783Y77433D01*
X338548Y77574D01*
X338407Y77715D01*
X338313Y77762D01*
X338218Y77856D01*
X338124Y77903D01*
X337983Y78045D01*
X337748Y78186D01*
X337701Y78280D01*
X337607Y78327D01*
X337348Y78539D01*
X337089Y78797D01*
X336995Y78844D01*
X336736Y79056D01*
X336572Y79221D01*
X336478Y79268D01*
X336407Y79338D01*
X336360Y79433D01*
X336289Y79503D01*
X336195Y79550D01*
X335819Y79927D01*
X335748Y79950D01*
X335701Y80044D01*
X335630Y80115D01*
X335536Y80162D01*
X335419Y80280D01*
X335372Y80374D01*
X335207Y80491D01*
X335089Y80656D01*
X335019Y80727D01*
X334925Y80774D01*
X334760Y80938D01*
X334737Y81009D01*
X334642Y81056D01*
X334525Y81221D01*
X334384Y81362D01*
X334337Y81456D01*
X334078Y81715D01*
X334007Y81738D01*
X333960Y81832D01*
X333725Y82068D01*
X333678Y82162D01*
X333537Y82303D01*
X333489Y82397D01*
X333348Y82538D01*
X333301Y82632D01*
X333184Y82797D01*
X333090Y82844D01*
X333019Y82915D01*
X332972Y83009D01*
X332760Y83267D01*
X332643Y83385D01*
X332595Y83479D01*
X332407Y83667D01*
X332266Y83903D01*
X332078Y84091D01*
X332031Y84185D01*
X331702Y84608D01*
X331607Y84703D01*
X331584Y84773D01*
X331396Y84820D01*
D02*
G37*
G36*
X358734Y72210D02*
X358217Y72163D01*
X357887Y72021D01*
X357275Y71975D01*
X356875Y71904D01*
X356687Y71857D01*
X356405Y71810D01*
X355981Y71763D01*
X355605Y71716D01*
X355323Y71669D01*
X355087Y71622D01*
X354452Y71551D01*
X354264Y71504D01*
X354146Y71386D01*
X354193Y70822D01*
X354240Y70680D01*
X354287Y69928D01*
X354358Y69481D01*
X354405Y69245D01*
X354452Y68822D01*
X354499Y67787D01*
X354593Y66846D01*
X354640Y66281D01*
X354664Y66069D01*
X354617Y65928D01*
X354570Y64705D01*
X354523Y64563D01*
X354476Y64375D01*
X354405Y63552D01*
X354358Y63316D01*
X354311Y62893D01*
X354264Y62705D01*
X354170Y62470D01*
X354099Y62258D01*
X354146Y62070D01*
X354264Y61952D01*
X354711Y61881D01*
X355276Y61787D01*
X355676Y61670D01*
X356146Y61623D01*
X356287Y61575D01*
X356593Y61505D01*
X356852Y61434D01*
X357040Y61387D01*
X357558Y61246D01*
X357887Y61199D01*
X358146Y61129D01*
X358334Y61081D01*
X358711Y61034D01*
X358734Y61011D01*
X358899Y61081D01*
X358946Y61175D01*
X358993Y61317D01*
X359040Y61787D01*
X359087Y61928D01*
X359181Y62258D01*
X359228Y62822D01*
X359322Y63058D01*
X359369Y63434D01*
X359416Y63575D01*
X359487Y64634D01*
X359534Y65669D01*
X359557Y68422D01*
X359510Y68563D01*
X359463Y69504D01*
X359416Y69645D01*
X359369Y70304D01*
X359322Y70445D01*
X359275Y70775D01*
X359228Y70963D01*
X359110Y71692D01*
X359040Y71951D01*
X358922Y72163D01*
X358875D01*
X358734Y72210D01*
D02*
G37*
G36*
X354264Y60446D02*
X354123Y60399D01*
X353935Y60446D01*
X353323D01*
X352382Y60399D01*
X352241Y60352D01*
X351770Y60305D01*
X351629Y60258D01*
X351017Y60211D01*
X350735Y60164D01*
X350500Y60070D01*
X350311Y60023D01*
X349958Y59952D01*
X349770Y59905D01*
X349535Y59858D01*
X349347Y59811D01*
X349112Y59764D01*
X348829Y59717D01*
X348594Y59623D01*
X348406Y59576D01*
X348170Y59529D01*
X347865Y59364D01*
X347370Y59246D01*
X347065Y59129D01*
X346759Y59058D01*
X346547Y58941D01*
X346053Y58823D01*
X345865Y58776D01*
X345394Y58588D01*
X345300Y58493D01*
X345347Y58211D01*
X345488Y57882D01*
X345535Y57552D01*
X345606Y57482D01*
X345959Y57552D01*
X346477Y57741D01*
X346712Y57835D01*
X346900Y57882D01*
X347206Y58046D01*
X347394Y58094D01*
X347629Y58188D01*
X347888Y58258D01*
X348076Y58305D01*
X348312Y58399D01*
X348570Y58517D01*
X348806Y58564D01*
X349229Y58752D01*
X349488Y58823D01*
X349747Y58941D01*
X349935Y58987D01*
X350194Y59058D01*
X350500Y59176D01*
X350853Y59246D01*
X351041Y59293D01*
X351276Y59340D01*
X351558Y59387D01*
X352194Y59458D01*
X352452Y59529D01*
X352664Y59599D01*
X355064Y59552D01*
X355205Y59505D01*
X355605Y59434D01*
X355840Y59340D01*
X356123Y59293D01*
X356499Y59199D01*
X356852Y58987D01*
X357369Y58705D01*
X357558Y58517D01*
X357652Y58470D01*
X357934Y58282D01*
X358075Y58235D01*
X358193Y58305D01*
X358287Y58541D01*
X358334Y58917D01*
X358381Y59058D01*
X358264Y59364D01*
X358170Y59505D01*
X357911Y59576D01*
X357652Y59693D01*
X357275Y59740D01*
X357134Y59787D01*
X356946Y59834D01*
X356640Y59952D01*
X356381Y60023D01*
X355958Y60070D01*
X355723Y60164D01*
X355158Y60258D01*
X354782Y60305D01*
X354546Y60399D01*
X354264Y60446D01*
D02*
G37*
G36*
X317279Y82232D02*
X316950Y82185D01*
X316691Y82021D01*
X316621Y81762D01*
X316409Y81597D01*
X316362Y81503D01*
X316174Y81315D01*
X316126Y81221D01*
X315891Y80985D01*
X315679Y80632D01*
X315585Y80585D01*
X315468Y80468D01*
X315421Y80374D01*
X315209Y80115D01*
X315044Y79950D01*
X314997Y79856D01*
X314856Y79715D01*
X314809Y79621D01*
X314621Y79433D01*
X314574Y79338D01*
X314503Y79221D01*
X314409Y79174D01*
X314338Y79103D01*
X314386Y78868D01*
X314456Y78797D01*
X314550Y78750D01*
X315162Y78327D01*
X315256Y78280D01*
X315397Y78139D01*
X315491Y78092D01*
X315585Y77997D01*
X315750Y77927D01*
X315797Y77833D01*
X315915Y77715D01*
X316126Y77597D01*
X316174Y77503D01*
X316432Y77339D01*
X316832Y76939D01*
X316879Y76845D01*
X317044Y76727D01*
X317115Y76656D01*
X317162Y76562D01*
X317326Y76445D01*
X317491Y76280D01*
X317538Y76186D01*
X317632Y76092D01*
X317679Y75998D01*
X317891Y75739D01*
X318150Y75480D01*
X318197Y75386D01*
X318620Y74774D01*
X318667Y74633D01*
X318856Y74445D01*
X318903Y74257D01*
X319091Y74068D01*
X319209Y73762D01*
X319514Y73080D01*
X319797Y72469D01*
X319844Y72280D01*
X319938Y72186D01*
X320009Y71880D01*
X320126Y71622D01*
X320173Y71433D01*
X320291Y70939D01*
X320361Y70728D01*
X320409Y70539D01*
X320456Y70069D01*
X320550Y69833D01*
X320691Y69269D01*
X320738Y68516D01*
X320785Y68375D01*
X320855Y67928D01*
X320902Y66846D01*
X320926Y64658D01*
X320879Y64516D01*
X320832Y63575D01*
X320785Y63434D01*
X320691Y62870D01*
X320620Y62564D01*
X320526Y62046D01*
X320479Y61858D01*
X320385Y61293D01*
X320338Y61105D01*
X320220Y60705D01*
X320173Y60329D01*
X320032Y59999D01*
X319961Y59599D01*
X319797Y59199D01*
X319844Y58917D01*
X320056Y58658D01*
X320197Y58517D01*
X320291Y58470D01*
X320550Y58258D01*
X320761Y58046D01*
X321091Y57858D01*
X321373Y57576D01*
X321891Y57294D01*
X322032Y57152D01*
X322126Y57105D01*
X322220Y57011D01*
X322314Y56964D01*
X322597Y56776D01*
X322738Y56823D01*
X322973Y57341D01*
X323114Y57717D01*
X323279Y58117D01*
X323443Y58564D01*
X323679Y59223D01*
X323702Y59246D01*
X323773Y59552D01*
X323867Y59787D01*
X323937Y59999D01*
X324032Y60423D01*
X324126Y60517D01*
X324173Y60705D01*
X324267Y61270D01*
X324408Y61740D01*
X324455Y62211D01*
X324549Y62587D01*
X324643Y62916D01*
X324714Y63787D01*
X324761Y63975D01*
X324832Y64234D01*
X324879Y64705D01*
X324926Y65504D01*
X324973Y65646D01*
X325020Y67010D01*
X324973Y67151D01*
X324926Y68140D01*
X324879Y68281D01*
X324832Y69175D01*
X324785Y69316D01*
X324737Y69504D01*
X324690Y69833D01*
X324643Y70398D01*
X324596Y70539D01*
X324502Y70916D01*
X324432Y71316D01*
X324384Y71504D01*
X324338Y71739D01*
X324196Y72304D01*
X324008Y72774D01*
X323914Y73151D01*
X323749Y73551D01*
X323679Y73810D01*
X323608Y74021D01*
X323561Y74210D01*
X323373Y74633D01*
X323326Y74821D01*
X322996Y75527D01*
X322761Y76045D01*
X322620Y76374D01*
X322526Y76609D01*
X322102Y77409D01*
X322008Y77503D01*
X321914Y77739D01*
X321867Y77833D01*
X321773Y77927D01*
X321585Y78256D01*
X321491Y78350D01*
X321397Y78586D01*
X321185Y78844D01*
X321067Y78962D01*
X320926Y79197D01*
X320714Y79456D01*
X320644Y79527D01*
X320503Y79762D01*
X320338Y79880D01*
X320267Y79950D01*
X320220Y80044D01*
X319632Y80632D01*
X319538Y80680D01*
X319350Y80868D01*
X319256Y80915D01*
X318926Y81244D01*
X318832Y81291D01*
X318738Y81385D01*
X318409Y81573D01*
X318267Y81715D01*
X318173Y81762D01*
X318079Y81856D01*
X317609Y82138D01*
X317279Y82232D01*
D02*
G37*
G36*
X354029Y58611D02*
X352241Y58564D01*
X352099Y58517D01*
X351911Y58470D01*
X351370Y58399D01*
X351182Y58352D01*
X350923Y58282D01*
X350641Y58235D01*
X350500Y58188D01*
X350147Y58117D01*
X349747Y57999D01*
X349558Y57952D01*
X349253Y57835D01*
X348876Y57741D01*
X348382Y57529D01*
X348076Y57411D01*
X347817Y57294D01*
X347629Y57246D01*
X347535Y57200D01*
X347112Y57011D01*
X347018Y56964D01*
X346782Y56870D01*
X346524Y56800D01*
X346406Y56682D01*
X346030Y56541D01*
X345865Y56376D01*
X345912Y56188D01*
X346006Y55953D01*
X346053Y55388D01*
X346218Y55082D01*
X346359Y55129D01*
X346594Y55223D01*
X347112Y55458D01*
X347441Y55553D01*
X347629Y55600D01*
X347935Y55717D01*
X348194Y55835D01*
X348429Y55929D01*
X348735Y56047D01*
X348994Y56164D01*
X349888Y56447D01*
X350076Y56494D01*
X350311Y56588D01*
X350664Y56658D01*
X350876Y56729D01*
X351182Y56846D01*
X351441Y56917D01*
X351629Y56964D01*
X352029Y57035D01*
X352217Y57082D01*
X352452Y57129D01*
X353464Y57200D01*
X353605Y57152D01*
X354499Y57105D01*
X354829Y56964D01*
X355017Y56917D01*
X355111Y56870D01*
X355252Y56729D01*
X355629Y56588D01*
X355723Y56494D01*
X355817Y56447D01*
X355958Y56305D01*
X356052Y56258D01*
X356311Y56000D01*
X356358Y55905D01*
X356499Y55764D01*
X356640Y55529D01*
X356828Y55200D01*
X356946Y55176D01*
X357111Y55341D01*
X357158Y55576D01*
Y55623D01*
X357205Y55717D01*
X357346Y55953D01*
X357464Y56258D01*
X357534Y56470D01*
X357581Y56705D01*
X357675Y56941D01*
X357628Y57364D01*
X357275Y57717D01*
X357181Y57764D01*
X357087Y57858D01*
X356993Y57905D01*
X356899Y57999D01*
X356664Y58094D01*
X356428Y58235D01*
X356005Y58423D01*
X354970Y58470D01*
X354829Y58517D01*
X354358Y58564D01*
X354029Y58611D01*
D02*
G37*
G36*
X311256Y56964D02*
X310927Y56729D01*
X310833Y56682D01*
X310715Y56470D01*
X310668Y56282D01*
X310856Y55858D01*
X310903Y55670D01*
X310998Y55435D01*
X311045Y55153D01*
X311139Y55058D01*
X311233Y54823D01*
X311280Y54635D01*
X311421Y54306D01*
X311539Y54000D01*
X311727Y53812D01*
X312292Y53859D01*
X312386Y53906D01*
X312527Y53859D01*
X312856Y53906D01*
X313092Y54047D01*
X313115Y54117D01*
X312997Y54235D01*
X312786Y54353D01*
X312833Y54400D01*
X312645Y54682D01*
X312362Y55200D01*
X312339Y55223D01*
X312221Y55341D01*
X312033Y55670D01*
X311939Y55764D01*
X311892Y56141D01*
X311703Y56329D01*
X311656Y56611D01*
X311421Y56941D01*
X311256Y56964D01*
D02*
G37*
G36*
X319397Y57952D02*
X319256Y57905D01*
X319185Y57835D01*
X319138Y57646D01*
X318903Y57411D01*
X318667Y56988D01*
X318573Y56894D01*
X318385Y56564D01*
X318244Y56423D01*
X318197Y56329D01*
X318009Y56141D01*
X317962Y56047D01*
X317891Y55929D01*
X317797Y55882D01*
X317679Y55717D01*
X317585Y55623D01*
X317444Y55388D01*
X316432Y54376D01*
X316197Y54235D01*
X316103Y54141D01*
X316009Y54094D01*
X315821Y53906D01*
X315585Y53765D01*
X315256Y53529D01*
X314950Y53412D01*
X314880Y53341D01*
X314785Y53294D01*
X314550Y53200D01*
X314033Y52965D01*
X313703Y52823D01*
X313515Y52776D01*
X313044Y52635D01*
X312856Y52588D01*
X312009Y52541D01*
X311868Y52494D01*
X310951Y52470D01*
X310480Y52518D01*
X310245Y52565D01*
X309680Y52612D01*
X309445Y52659D01*
X309257Y52706D01*
X308974Y52753D01*
X308786Y52800D01*
X308621Y52823D01*
X308551Y52753D01*
X308786Y52235D01*
X308833Y52000D01*
X309021Y51576D01*
X309068Y51294D01*
X309209Y50965D01*
X309257Y50729D01*
X309445Y50447D01*
X309492Y50259D01*
X309610Y50141D01*
X310033Y49906D01*
X310880Y49530D01*
X311068Y49483D01*
X311539Y49436D01*
X311680Y49388D01*
X311868Y49341D01*
X312197Y49294D01*
X313374Y49247D01*
X313515Y49294D01*
X313868Y49365D01*
X314150Y49412D01*
X314621Y49459D01*
X314856Y49506D01*
X315350Y49718D01*
X315609Y49788D01*
X316009Y49953D01*
X316197Y50000D01*
X316291Y50047D01*
X316621Y50188D01*
X316715Y50235D01*
X317232Y50518D01*
X317515Y50706D01*
X317750Y50847D01*
X318173Y51082D01*
X318267Y51177D01*
X318573Y51341D01*
X318620Y51435D01*
X318738Y51553D01*
X318973Y51694D01*
X319491Y52212D01*
X319585Y52259D01*
X319703Y52376D01*
X319750Y52470D01*
X320220Y52941D01*
X320267Y53035D01*
X320597Y53365D01*
X320738Y53600D01*
X320973Y53929D01*
X321020Y54023D01*
X321255Y54353D01*
X321302Y54447D01*
X321491Y54635D01*
X321679Y54964D01*
X321891Y55270D01*
X321914Y55294D01*
X321961Y55482D01*
X322149Y55764D01*
X322102Y56000D01*
X322032Y56070D01*
X321702Y56258D01*
X321608Y56353D01*
X321514Y56399D01*
X321067Y56705D01*
X320808Y56964D01*
X320714Y57011D01*
X320267Y57317D01*
X320103Y57435D01*
X320009Y57529D01*
X319914Y57576D01*
X319632Y57858D01*
X319538Y57905D01*
X319397Y57952D01*
D02*
G37*
G36*
X302645Y58658D02*
X302622Y58446D01*
X302810Y58023D01*
X302881Y57764D01*
X303069Y57294D01*
X303187Y56988D01*
X303328Y56611D01*
X303469Y56376D01*
X303939Y55482D01*
X304081Y55247D01*
X304316Y54823D01*
X304551Y54494D01*
X304645Y54400D01*
X304928Y53882D01*
X305116Y53694D01*
X305163Y53600D01*
X305375Y53341D01*
X305445Y53270D01*
X305586Y53035D01*
X305681Y52941D01*
X305728Y52847D01*
X305798Y52776D01*
X305892Y52729D01*
X305963Y52659D01*
X306010Y52565D01*
X306127Y52447D01*
X306198Y52424D01*
X306245Y52329D01*
X306316Y52212D01*
X306551Y52071D01*
X306622Y52000D01*
X306669Y51906D01*
X306739Y51835D01*
X306833Y51788D01*
X307092Y51576D01*
X307210Y51459D01*
X307304Y51412D01*
X307398Y51318D01*
X308057Y50941D01*
X308174Y50965D01*
X308127Y51247D01*
X308080Y51388D01*
X307892Y52047D01*
X307845Y52235D01*
X307704Y52565D01*
X307468Y53176D01*
X307327Y53412D01*
X307069Y53670D01*
X306975Y53717D01*
X306880Y53812D01*
X306786Y53859D01*
X306528Y54070D01*
X306410Y54188D01*
X306245Y54259D01*
X306198Y54353D01*
X306127Y54423D01*
X306033Y54470D01*
X305939Y54564D01*
X305704Y54706D01*
X305328Y55082D01*
X305304Y55106D01*
X305233Y55176D01*
X305139Y55223D01*
X305022Y55341D01*
X304975Y55435D01*
X304834Y55529D01*
X304786Y55623D01*
X304575Y55882D01*
X304457Y56047D01*
X304269Y56235D01*
X304222Y56329D01*
X303892Y56658D01*
X303845Y56846D01*
X303728Y56964D01*
X303634Y57011D01*
X303587Y57200D01*
X303422Y57364D01*
X303375Y57458D01*
X303187Y57741D01*
X302716Y58635D01*
X302645Y58658D01*
D02*
G37*
G36*
X339865Y55741D02*
X339607Y55670D01*
X339207Y55458D01*
X339113Y55364D01*
X338783Y55176D01*
X338689Y55082D01*
X338454Y54941D01*
X338360Y54847D01*
X338265Y54800D01*
X338124Y54658D01*
X338030Y54612D01*
X337701Y54376D01*
X337607Y54329D01*
X337513Y54235D01*
X337419Y54188D01*
X337230Y54000D01*
X337136Y53953D01*
X336548Y53506D01*
X336289Y53247D01*
X336195Y53200D01*
X336054Y53059D01*
X335960Y53012D01*
X335607Y52753D01*
X335560Y52659D01*
X335489Y52588D01*
X335395Y52541D01*
X334925Y52071D01*
X334854Y52047D01*
X334807Y51953D01*
X334642Y51835D01*
X334242Y51435D01*
X334195Y51341D01*
X334031Y51177D01*
X333937Y51129D01*
X333913Y51059D01*
X333890Y51035D01*
X333795Y50988D01*
X333678Y50824D01*
X333537Y50682D01*
X333489Y50588D01*
X333348Y50494D01*
X333301Y50400D01*
X332878Y49977D01*
X332831Y49882D01*
X332643Y49694D01*
X332595Y49600D01*
X332384Y49341D01*
X332290Y49200D01*
X332196Y49153D01*
X332007Y48871D01*
X331937Y48800D01*
X331796Y48565D01*
X331702Y48471D01*
X331654Y48377D01*
X331466Y48189D01*
X331419Y48095D01*
X331278Y48000D01*
X331231Y47812D01*
X331090Y47671D01*
X330854Y47248D01*
X330760Y47153D01*
X330713Y46965D01*
X330760Y46871D01*
X330925Y46848D01*
X331137Y47012D01*
X331184Y47106D01*
X331796Y47718D01*
X331843Y47812D01*
X331913Y47883D01*
X332007Y47930D01*
X332125Y48047D01*
X332172Y48141D01*
X332548Y48518D01*
X332595Y48612D01*
X333019Y49036D01*
X333066Y49130D01*
X333725Y49788D01*
X333772Y49882D01*
X333960Y50071D01*
X334007Y50165D01*
X334384Y50541D01*
X334431Y50635D01*
X335513Y51718D01*
X335560Y51812D01*
X335630Y51882D01*
X335725Y51929D01*
X336242Y52447D01*
X336336Y52494D01*
X336454Y52659D01*
X336525Y52729D01*
X336619Y52776D01*
X336760Y52917D01*
X336854Y52965D01*
X336948Y53059D01*
X337042Y53106D01*
X337183Y53247D01*
X337277Y53294D01*
X337466Y53482D01*
X337795Y53670D01*
X337889Y53765D01*
X337983Y53812D01*
X338124Y53953D01*
X338454Y54141D01*
X338548Y54235D01*
X338877Y54423D01*
X338971Y54517D01*
X339065Y54564D01*
X339160Y54658D01*
X339583Y54894D01*
X339842Y55106D01*
X340101Y55270D01*
X340218Y55388D01*
X340171Y55576D01*
X340101Y55647D01*
X340006Y55694D01*
X339865Y55741D01*
D02*
G37*
G36*
X354499Y55976D02*
X352570Y55929D01*
X352335Y55835D01*
X351629Y55788D01*
X351488Y55741D01*
X350923Y55694D01*
X350594Y55553D01*
X350076Y55505D01*
X349747Y55364D01*
X349558Y55317D01*
X349300Y55247D01*
X348994Y55129D01*
X348806Y55082D01*
X348194Y54800D01*
X347959Y54706D01*
X347347Y54423D01*
X347159Y54376D01*
X346923Y54235D01*
X346618Y54117D01*
X346453Y53953D01*
X346194Y53882D01*
X346077Y53765D01*
X345700Y53623D01*
X345606Y53529D01*
X345418Y53482D01*
X345324Y53435D01*
X345182Y53294D01*
X344571Y52965D01*
X344477Y52870D01*
X344383Y52823D01*
X344053Y52588D01*
X343865Y52541D01*
X343724Y52400D01*
X343489Y52306D01*
X343300Y52118D01*
X343065Y51976D01*
X341959Y51247D01*
X341842Y51129D01*
X341748Y51082D01*
X341277Y50753D01*
X341183Y50706D01*
X341042Y50565D01*
X340948Y50518D01*
X340759Y50329D01*
X340524Y50188D01*
X339677Y49530D01*
X339418Y49365D01*
X339465Y49177D01*
X340406Y48659D01*
X340477Y48589D01*
X341089Y48259D01*
X341559Y47977D01*
X341889Y47789D01*
X341983Y47695D01*
X342242Y47577D01*
X342289Y47483D01*
X342406Y47365D01*
X342477Y47342D01*
X342524Y47153D01*
X342477Y46730D01*
X342336Y46589D01*
X342147Y46259D01*
X341959Y46071D01*
X341912Y45977D01*
X341677Y45648D01*
X341536Y45507D01*
X341489Y45412D01*
X341112Y45036D01*
X341065Y44942D01*
X340901Y44824D01*
X340807Y44730D01*
X340477Y44589D01*
X339748Y44660D01*
X339371Y44801D01*
X339160Y44871D01*
X338971Y44918D01*
X338454Y45154D01*
X338195Y45224D01*
X337936Y45342D01*
X337560Y45436D01*
X337136Y45624D01*
X336948Y45671D01*
X336713Y45812D01*
X336525Y45859D01*
X336289Y45718D01*
X336172Y45601D01*
X336054Y45389D01*
X335960Y45342D01*
X335889Y45271D01*
X335842Y45177D01*
X335513Y44660D01*
X335466Y44518D01*
X335372Y44424D01*
X335183Y44095D01*
X334948Y43671D01*
X334854Y43577D01*
X334807Y43389D01*
X334619Y42919D01*
X334501Y42613D01*
X334431Y42354D01*
X334313Y42048D01*
X334242Y41836D01*
X334172Y41295D01*
X334054Y40895D01*
X334007Y39907D01*
X334101Y39672D01*
X334195Y39295D01*
X334384Y38966D01*
X334595Y38707D01*
X334666Y38637D01*
X334713Y38542D01*
X334831Y38425D01*
X335160Y38331D01*
X335254Y38284D01*
X335348Y38190D01*
X335536Y38142D01*
X335936Y38166D01*
X335889Y38354D01*
X335748Y38495D01*
X335325Y39389D01*
X334995Y40707D01*
X335042Y42636D01*
X335089Y42777D01*
X335183Y43107D01*
X335230Y43436D01*
X335325Y43671D01*
X335372Y43954D01*
X335466Y44048D01*
X335560Y44424D01*
X335677Y44542D01*
X335772Y44589D01*
X335913Y44730D01*
X337042Y44683D01*
X337183Y44636D01*
X337513Y44589D01*
X337701Y44542D01*
X338171Y44495D01*
X338618Y44424D01*
X338830Y44354D01*
X339089Y44283D01*
X339183Y44236D01*
X339230Y44142D01*
X339324Y43907D01*
X339277Y43342D01*
X339136Y43013D01*
X339089Y41601D01*
X339183Y41366D01*
X339418Y40942D01*
X339912Y40448D01*
X340406Y40189D01*
X340430Y40166D01*
X340924Y39907D01*
X340877Y39672D01*
X340807Y39601D01*
X340195Y39272D01*
X339983Y39107D01*
X340006Y39037D01*
X340430Y39084D01*
X340759Y39225D01*
X341065Y39342D01*
X341324Y39460D01*
X341583Y39531D01*
X341983Y39742D01*
X342171Y39789D01*
X342453Y39978D01*
X342689Y40072D01*
X343300Y40354D01*
X344124Y40754D01*
X344077Y40942D01*
X343818Y41060D01*
X343583Y41107D01*
X343512Y41178D01*
X343559Y41366D01*
X343653Y41601D01*
X343630Y41719D01*
X343489Y41672D01*
X343206Y41483D01*
X343112Y41436D01*
X343018Y41342D01*
X342406Y41060D01*
X342124Y41013D01*
X341889Y40919D01*
X340854Y40966D01*
X340077Y41366D01*
X340124Y41554D01*
X340265Y41695D01*
X340312Y41789D01*
X340548Y42119D01*
X340595Y42213D01*
X340830Y42636D01*
X341042Y42895D01*
X341277Y43271D01*
X341348Y43342D01*
X341395Y43436D01*
X341630Y43766D01*
X341677Y43860D01*
X341771Y43954D01*
X341818Y44048D01*
X341959Y44283D01*
X342289Y44707D01*
X342477Y45036D01*
X342783Y45483D01*
X342971Y45765D01*
X343089Y45930D01*
X343418Y46400D01*
X343465Y46495D01*
X343653Y46777D01*
X343794Y47012D01*
X344006Y47271D01*
X344124Y47389D01*
X344312Y47718D01*
X344547Y48095D01*
X344594Y48189D01*
X344735Y48330D01*
X344782Y48424D01*
X345018Y48753D01*
X345159Y48988D01*
X345465Y49436D01*
X345700Y49812D01*
X345818Y49977D01*
X346006Y50259D01*
X346053Y50353D01*
X346194Y50494D01*
X346429Y50918D01*
X346571Y51059D01*
X346618Y51153D01*
X346853Y51482D01*
X346900Y51576D01*
X346994Y51671D01*
X347135Y51906D01*
X347229Y52000D01*
X347276Y52094D01*
X347488Y52353D01*
X347771Y52635D01*
X348382Y52917D01*
X348665Y52965D01*
X348806Y53012D01*
X349935Y52965D01*
X350076Y52917D01*
X350688Y52870D01*
X351253Y52965D01*
X351864Y53012D01*
X352005Y53059D01*
X352194Y53106D01*
X352711Y53247D01*
X353041Y53294D01*
X354876Y53247D01*
X354946Y53176D01*
X354899Y52988D01*
X354805Y52894D01*
X354476Y52188D01*
X354099Y51388D01*
X353911Y51059D01*
X353676Y50635D01*
X353535Y50306D01*
X353252Y49788D01*
X353158Y49694D01*
X352970Y49365D01*
X352735Y48988D01*
X352641Y48753D01*
X352405Y48330D01*
X352217Y48047D01*
X352170Y47953D01*
X352076Y47859D01*
X351841Y47436D01*
X351652Y47106D01*
X351558Y46871D01*
X351582Y46800D01*
X351723Y46848D01*
X351888Y47106D01*
X352076Y47295D01*
X352123Y47389D01*
X352358Y47624D01*
X352405Y47718D01*
X352547Y47859D01*
X352688Y48095D01*
X352923Y48330D01*
X352970Y48424D01*
X353252Y48706D01*
X353299Y48800D01*
X353511Y49059D01*
X353676Y49318D01*
X353770Y49412D01*
X353817Y49506D01*
X354029Y49765D01*
X354476Y50353D01*
X354523Y50447D01*
X354946Y51059D01*
X354993Y51153D01*
X355087Y51247D01*
X355323Y51671D01*
X355652Y52188D01*
X355699Y52282D01*
X355793Y52376D01*
X355911Y52682D01*
X356029Y52941D01*
X356076Y53129D01*
X356123Y54023D01*
X356052Y54423D01*
X355958Y54658D01*
X355840Y54917D01*
X355699Y55153D01*
X355511Y55341D01*
X355464Y55435D01*
X355393Y55505D01*
X355299Y55553D01*
X355205Y55647D01*
X354499Y55976D01*
D02*
G37*
G36*
X351441Y46706D02*
X351417Y46589D01*
X351441Y46565D01*
X351464Y46589D01*
X351511Y46683D01*
X351441Y46706D01*
D02*
G37*
G36*
X344336Y58188D02*
X344194Y58046D01*
X344006Y57999D01*
X343300Y57623D01*
X342877Y57388D01*
X342171Y57058D01*
X342077Y57011D01*
X341983Y56917D01*
X341724Y56846D01*
X341371Y56635D01*
X340854Y56353D01*
X340830Y56235D01*
X340924Y56141D01*
X341301Y55435D01*
X341395Y55200D01*
X341348Y54917D01*
X341183Y54800D01*
X340995Y54612D01*
X340901Y54564D01*
X340807Y54470D01*
X340571Y54376D01*
X340430Y54329D01*
X340336Y54235D01*
X340101Y54141D01*
X340006Y54094D01*
X339818Y53906D01*
X339677Y53859D01*
X339536Y53717D01*
X339301Y53623D01*
X339018Y53435D01*
X338924Y53388D01*
X338830Y53294D01*
X338736Y53247D01*
X338642Y53153D01*
X338407Y53012D01*
X338313Y52917D01*
X337983Y52729D01*
X337889Y52635D01*
X337795Y52588D01*
X337654Y52447D01*
X337560Y52400D01*
X337301Y52188D01*
X337183Y52071D01*
X337089Y52024D01*
X336854Y51788D01*
X336760Y51741D01*
X336666Y51647D01*
X336572Y51600D01*
X336430Y51459D01*
X336336Y51412D01*
X335772Y50847D01*
X335677Y50800D01*
X335136Y50259D01*
X335113Y50188D01*
X335089Y50165D01*
X334807Y49977D01*
X334760Y49788D01*
X334501Y49624D01*
X334431Y49553D01*
X334384Y49459D01*
X333960Y49036D01*
X333913Y48941D01*
X333631Y48659D01*
X333584Y48565D01*
X333513Y48447D01*
X333419Y48400D01*
X333348Y48330D01*
X333301Y48236D01*
X332925Y47859D01*
X332878Y47765D01*
X332666Y47506D01*
X332501Y47248D01*
X332313Y47059D01*
X332266Y46965D01*
X332172Y46871D01*
X332125Y46777D01*
X331890Y46448D01*
X331678Y46236D01*
X331255Y46048D01*
X331066Y46000D01*
X330102Y46024D01*
X330008Y45930D01*
X329961Y45601D01*
X329819Y45271D01*
X329772Y45083D01*
X329678Y44848D01*
X329537Y44518D01*
X329466Y44212D01*
X329372Y43977D01*
X329255Y43671D01*
X329208Y43201D01*
X329019Y42777D01*
X328972Y42401D01*
X328878Y42166D01*
X328784Y41366D01*
X328855Y40542D01*
X328902Y40354D01*
X329019Y39954D01*
X329255Y39437D01*
X329325Y39178D01*
X329443Y39060D01*
X329584Y38825D01*
X329725Y38684D01*
X329772Y38589D01*
X329984Y38331D01*
X330102Y38213D01*
X330149Y38119D01*
X330337Y37931D01*
X330384Y37837D01*
X330454Y37766D01*
X330549Y37719D01*
X330643Y37625D01*
X330737Y37578D01*
X331349Y37295D01*
X331537Y37248D01*
X332666Y37295D01*
X332807Y37343D01*
X333395Y37413D01*
X333913Y37460D01*
X334078Y37531D01*
X334101Y37648D01*
X333937Y37813D01*
X333842Y37860D01*
X333725Y37978D01*
X333678Y38072D01*
X333584Y38166D01*
X333537Y38260D01*
X333395Y38495D01*
X333160Y39013D01*
X332972Y39672D01*
X332901Y40119D01*
X332854Y40354D01*
X332831Y40378D01*
X332878Y40519D01*
X332925Y40989D01*
X333019Y41366D01*
X333160Y41836D01*
X333207Y42213D01*
X333395Y42636D01*
X333442Y42965D01*
X333678Y43483D01*
X333725Y43671D01*
X333913Y43954D01*
X334478Y45036D01*
X334666Y45365D01*
X334760Y45459D01*
X334807Y45553D01*
X335042Y45883D01*
X335230Y46212D01*
X335466Y46542D01*
X335607Y46683D01*
X335795Y47012D01*
X335983Y47200D01*
X336030Y47295D01*
X336172Y47436D01*
X336219Y47530D01*
X336360Y47671D01*
X336407Y47765D01*
X336689Y48047D01*
X336736Y48141D01*
X336854Y48259D01*
X336948Y48306D01*
X337254Y48612D01*
X337301Y48706D01*
X338030Y49436D01*
X338124Y49483D01*
X338360Y49718D01*
X338454Y49765D01*
X338642Y49953D01*
X338736Y50000D01*
X339113Y50377D01*
X339207Y50424D01*
X339301Y50565D01*
X339395Y50612D01*
X339654Y50824D01*
X339724Y50894D01*
X339818Y50941D01*
X339959Y51082D01*
X340054Y51129D01*
X340148Y51224D01*
X340453Y51388D01*
X340501Y51482D01*
X340618Y51600D01*
X340712Y51647D01*
X340971Y51859D01*
X341254Y52047D01*
X341630Y52282D01*
X341748Y52400D01*
X341983Y52541D01*
X342312Y52729D01*
X342406Y52823D01*
X342642Y52965D01*
X342971Y53153D01*
X343112Y53294D01*
X343347Y53435D01*
X343677Y53670D01*
X343771Y53717D01*
X344053Y53906D01*
X344288Y54047D01*
X344430Y54188D01*
X344759Y54376D01*
X345253Y54729D01*
X345182Y55458D01*
X345065Y55717D01*
X345018Y56188D01*
X344924Y56423D01*
X344853Y56682D01*
X344759Y57058D01*
X344712Y57294D01*
X344594Y57552D01*
X344547Y57741D01*
X344500Y58164D01*
X344336Y58188D01*
D02*
G37*
G36*
X338830Y48494D02*
X338548Y48212D01*
X338477Y48189D01*
X338383Y47953D01*
X338124Y47789D01*
X338007Y47624D01*
X337536Y47153D01*
X337489Y47059D01*
X337230Y46895D01*
X337207Y46730D01*
X337277Y46659D01*
X337583Y46542D01*
X337842Y46471D01*
X338030Y46424D01*
X338265Y46330D01*
X338360Y46283D01*
X338454Y46189D01*
X338783Y46095D01*
X339113Y45953D01*
X339301Y45906D01*
X339889Y45695D01*
X340383Y45671D01*
X340501Y45789D01*
X340548Y45883D01*
X340830Y46306D01*
X340901Y46471D01*
X340995Y46518D01*
X341136Y46659D01*
X341230Y46706D01*
X341301Y46777D01*
X341254Y46965D01*
X341136Y47083D01*
X340830Y47200D01*
X340665Y47365D01*
X340289Y47553D01*
X340265Y47577D01*
X340195Y47648D01*
X340101Y47695D01*
X339583Y48024D01*
X339348Y48165D01*
X339018Y48400D01*
X338830Y48494D01*
D02*
G37*
G36*
X353088Y52212D02*
X352758Y52165D01*
X352523Y52024D01*
X352335Y51835D01*
X352170Y51765D01*
X352076Y51529D01*
X352029Y51435D01*
X351935Y51341D01*
X351888Y51247D01*
X351747Y50918D01*
X351699Y50824D01*
X351629Y50753D01*
X351558Y50729D01*
X351511Y50635D01*
X351276Y50306D01*
X351182Y50212D01*
X351041Y49882D01*
X351017Y49859D01*
X350853Y49694D01*
X350806Y49600D01*
X350664Y49459D01*
X350617Y49365D01*
X350194Y48753D01*
X350053Y48518D01*
X349911Y48377D01*
X349864Y48283D01*
X349770Y48189D01*
X349723Y48095D01*
X349629Y48000D01*
X349582Y47906D01*
X349276Y47459D01*
X349182Y47412D01*
X349041Y47130D01*
X348970Y47059D01*
X348782Y46730D01*
X348688Y46636D01*
X348641Y46542D01*
X348570Y46471D01*
X348476Y46424D01*
X348335Y46142D01*
X348147Y45859D01*
X348029Y45742D01*
X347888Y45507D01*
X347794Y45412D01*
X347653Y45177D01*
X347465Y44989D01*
X347229Y44565D01*
X347088Y44424D01*
X347041Y44330D01*
X346735Y43883D01*
X346547Y43601D01*
X346477Y43577D01*
X346429Y43483D01*
X346335Y43389D01*
X346288Y43295D01*
X346077Y43036D01*
X346006Y42965D01*
X345959Y42777D01*
X345724Y42542D01*
X345700Y42471D01*
X345606Y42424D01*
X345535Y42260D01*
X345606Y42189D01*
X345865Y42401D01*
X345935Y42471D01*
X346030Y42519D01*
X346312Y42801D01*
X346406Y42848D01*
X346500Y42989D01*
X346594Y43036D01*
X346712Y43154D01*
X346759Y43248D01*
X346947Y43342D01*
X347065Y43554D01*
X347159Y43601D01*
X347300Y43836D01*
X347535Y43977D01*
X347653Y44142D01*
X347935Y44424D01*
X347982Y44518D01*
X348265Y44801D01*
X348382Y45012D01*
X348547Y45083D01*
X348594Y45177D01*
X349159Y45930D01*
X349300Y46071D01*
X349441Y46306D01*
X349582Y46448D01*
X349629Y46542D01*
X349747Y46753D01*
X349841Y46800D01*
X349911Y46871D01*
X349958Y46965D01*
X350053Y47059D01*
X350100Y47153D01*
X350311Y47412D01*
X350382Y47483D01*
X350523Y47718D01*
X350711Y48047D01*
X350853Y48189D01*
X350994Y48424D01*
X351088Y48518D01*
X351135Y48612D01*
X351229Y48706D01*
X351417Y49036D01*
X351747Y49553D01*
X352029Y50071D01*
X352170Y50212D01*
X352547Y50918D01*
X352782Y51341D01*
X352970Y51671D01*
X353111Y52000D01*
X353088Y52212D01*
D02*
G37*
G36*
X349464Y51788D02*
X348853Y51741D01*
X348617Y51647D01*
X348382Y51506D01*
X348170Y51294D01*
X348123Y51200D01*
X347888Y50871D01*
X347841Y50777D01*
X347629Y50518D01*
X347418Y50118D01*
X346876Y49247D01*
X346853Y49224D01*
X346665Y49036D01*
X346571Y48800D01*
X346429Y48706D01*
X346147Y48189D01*
X346053Y48095D01*
X346006Y48000D01*
X345794Y47742D01*
X345677Y47624D01*
X345488Y47295D01*
X345182Y46848D01*
X345018Y46589D01*
X344830Y46400D01*
X344782Y46259D01*
X344641Y46118D01*
X344524Y45812D01*
X344406Y45695D01*
X344265Y45459D01*
X344053Y45201D01*
X343936Y45083D01*
X343606Y44471D01*
X343512Y44377D01*
X343465Y44283D01*
X343324Y44142D01*
X343159Y43789D01*
X343065Y43742D01*
X342900Y43483D01*
X342853Y43342D01*
X342712Y43107D01*
X342618Y43013D01*
X342571Y42919D01*
X342383Y42730D01*
X342242Y42495D01*
X342100Y42354D01*
X342053Y42071D01*
X342124Y42048D01*
X342336Y42213D01*
X342383Y42307D01*
X342524Y42448D01*
X342571Y42542D01*
X342736Y42754D01*
X342830Y42801D01*
X343089Y43060D01*
X343136Y43154D01*
X343418Y43436D01*
X343465Y43530D01*
X344171Y44236D01*
X344218Y44330D01*
X344430Y44589D01*
X344547Y44754D01*
X344688Y44895D01*
X344735Y44989D01*
X344971Y45224D01*
X345112Y45459D01*
X345253Y45601D01*
X345300Y45695D01*
X345394Y45789D01*
X345441Y45883D01*
X345653Y46236D01*
X345747Y46283D01*
X345818Y46354D01*
X345865Y46448D01*
X345935Y46518D01*
X346030Y46565D01*
X346100Y46636D01*
X346147Y46777D01*
X346335Y46965D01*
X346382Y47153D01*
X346571Y47342D01*
X346618Y47436D01*
X346806Y47624D01*
X346947Y47859D01*
X347182Y48283D01*
X347253Y48353D01*
X347323Y48377D01*
X347370Y48471D01*
X347488Y48683D01*
X347582Y48730D01*
X347653Y48800D01*
X347982Y49412D01*
X348076Y49506D01*
X348170Y49741D01*
X348218Y49836D01*
X348594Y50212D01*
X348641Y50306D01*
X348782Y50447D01*
X348900Y50753D01*
X349017Y50871D01*
X349064Y51059D01*
X349276Y51318D01*
X349394Y51435D01*
X349488Y51671D01*
X349464Y51788D01*
D02*
G37*
G36*
X336383Y43742D02*
X336313Y43671D01*
X336266Y43483D01*
X336219Y43013D01*
X336077Y42683D01*
X336124Y42495D01*
X336054Y41954D01*
X336030Y41272D01*
X336077Y41130D01*
X336124Y40331D01*
X336266Y40001D01*
X336336Y39742D01*
X336501Y39437D01*
X336642Y39201D01*
X336713Y39131D01*
X336877Y39107D01*
X337113Y39154D01*
X337301Y39201D01*
X337513Y39272D01*
X337701Y39319D01*
X338007Y39437D01*
X338265Y39507D01*
X338713Y39672D01*
X339065Y39836D01*
X339089Y39860D01*
X338924Y40072D01*
X338830Y40119D01*
X338760Y40189D01*
X338524Y40707D01*
X338501Y40731D01*
X338430Y40801D01*
X338336Y41036D01*
X338289Y41319D01*
X338195Y41554D01*
X338218Y43413D01*
X337983Y43507D01*
X337536Y43577D01*
X337277Y43648D01*
X336830Y43718D01*
X336383Y43742D01*
D02*
G37*
G36*
X306975Y49765D02*
X306904Y49694D01*
X306951Y49506D01*
X307139Y49318D01*
X307186Y49224D01*
X307327Y49083D01*
X307421Y48847D01*
X307657Y48612D01*
X307845Y48283D01*
X308033Y48095D01*
X308174Y47859D01*
X308386Y47600D01*
X308457Y47530D01*
X308504Y47436D01*
X308715Y47177D01*
X308880Y47012D01*
X308927Y46918D01*
X309139Y46659D01*
X309398Y46400D01*
X309445Y46306D01*
X311068Y44683D01*
X311162Y44636D01*
X311539Y44260D01*
X311633Y44212D01*
X311868Y43977D01*
X311962Y43930D01*
X312103Y43789D01*
X312197Y43742D01*
X312339Y43601D01*
X312433Y43554D01*
X312692Y43342D01*
X312809Y43224D01*
X312903Y43177D01*
X313162Y42965D01*
X313233Y42895D01*
X313327Y42848D01*
X313656Y42613D01*
X313750Y42566D01*
X313844Y42471D01*
X313939Y42424D01*
X314080Y42283D01*
X314174Y42236D01*
X314503Y42001D01*
X315021Y41719D01*
X315115Y41624D01*
X315444Y41436D01*
X315774Y41201D01*
X315868Y41154D01*
X316574Y40778D01*
X316668Y40683D01*
X316973Y40566D01*
X317326Y40354D01*
X318173Y39978D01*
X319161Y39507D01*
X319350Y39413D01*
X319397D01*
X319726Y39272D01*
X319961Y39178D01*
X320150Y39131D01*
X320573Y38942D01*
X321020Y38778D01*
X321255Y38684D01*
X321561Y38566D01*
X321985Y38472D01*
X322220Y38378D01*
X322408Y38331D01*
X322714Y38260D01*
X323020Y38142D01*
X323279Y38072D01*
X323467Y38025D01*
X323937Y37931D01*
X324173Y37837D01*
X324432Y37766D01*
X324761Y37719D01*
X324949Y37672D01*
X325302Y37601D01*
X325490Y37554D01*
X326125Y37484D01*
X326596Y37437D01*
X326855Y37366D01*
X327043Y37319D01*
X327420Y37272D01*
X328361Y37225D01*
X328619Y37154D01*
X328713Y37201D01*
X328784Y37272D01*
X328713Y37437D01*
X328619Y37484D01*
X328549Y37554D01*
X328172Y38213D01*
X327937Y38731D01*
X327843Y38966D01*
X327608Y39483D01*
X327537Y39789D01*
X327490Y39978D01*
X327420Y40236D01*
X327373Y40425D01*
X327325Y42213D01*
X327161Y42377D01*
X326902Y42448D01*
X326667Y42542D01*
X326408Y42613D01*
X326173Y42707D01*
X325843Y42848D01*
X325326Y43083D01*
X325137Y43130D01*
X325043Y43224D01*
X324808Y43319D01*
X324502Y43436D01*
X324432Y43507D01*
X324243Y43554D01*
X323726Y43789D01*
X322832Y44260D01*
X322220Y44589D01*
X321796Y44824D01*
X321467Y45012D01*
X321326Y45154D01*
X321185Y45201D01*
X320855Y45436D01*
X320761Y45483D01*
X320432Y45718D01*
X320338Y45765D01*
X319914Y46095D01*
X319820Y46189D01*
X319585Y46330D01*
X319444Y46471D01*
X319114Y46659D01*
X318785Y46989D01*
X318691Y47036D01*
X318550Y47177D01*
X318456Y47224D01*
X318126Y47553D01*
X318032Y47600D01*
X317797Y47836D01*
X317703Y47883D01*
X317185Y48400D01*
X316856Y48494D01*
X316432Y48447D01*
X316103Y48306D01*
X315750Y48236D01*
X315491Y48165D01*
X315115Y48071D01*
X314785Y48024D01*
X314597Y47977D01*
X314268Y47883D01*
X313515Y47836D01*
X311539Y47883D01*
X311398Y47930D01*
X311068Y47977D01*
X310786Y48024D01*
X310551Y48118D01*
X310151Y48189D01*
X309751Y48306D01*
X309421Y48447D01*
X309115Y48565D01*
X309045Y48636D01*
X308951Y48683D01*
X308810Y48730D01*
X308504Y48847D01*
X308292Y48965D01*
X307586Y49341D01*
X306975Y49765D01*
D02*
G37*
%LPD*%
G36*
X323608Y90632D02*
X323796Y90584D01*
X324079Y90443D01*
X324455Y90208D01*
X324549Y90114D01*
X324596Y90020D01*
X324690Y89926D01*
X324785Y89361D01*
X324737Y89079D01*
X324502Y88749D01*
X324338Y88538D01*
X324243Y88490D01*
X324149Y88349D01*
X323914Y88255D01*
X323585Y88114D01*
X323396Y88067D01*
X322738Y87973D01*
X322597Y88020D01*
X322314Y88067D01*
X322291Y88091D01*
X321985Y88255D01*
X321749Y88349D01*
X321679Y88420D01*
X321655Y88490D01*
X321561Y88538D01*
X321444Y88655D01*
X321397Y88749D01*
X321208Y89173D01*
X321255Y89549D01*
X321444Y89879D01*
X321655Y90137D01*
X321796Y90279D01*
X322032Y90420D01*
X322361Y90561D01*
X322738Y90608D01*
X322973Y90702D01*
X323608Y90632D01*
D02*
G37*
%LPC*%
G36*
X323255Y90043D02*
X322973Y89996D01*
X322267Y89620D01*
X322197Y89549D01*
X322102Y89314D01*
X322149Y89126D01*
X322197Y89079D01*
Y89032D01*
X322267Y88961D01*
X322455Y88914D01*
X322785Y88773D01*
X323349Y88820D01*
X323679Y88961D01*
X323773Y89008D01*
X323937Y89126D01*
X323985Y89314D01*
X323937Y89596D01*
X323820Y89808D01*
X323585Y89902D01*
X323255Y90043D01*
D02*
G37*
%LPD*%
G36*
X306951Y76797D02*
X306880Y76774D01*
X306857Y76797D01*
X306880Y76821D01*
X306927D01*
X306951Y76797D01*
D02*
G37*
G36*
X306574Y76468D02*
X306598Y76350D01*
X306504Y76256D01*
X306269Y76304D01*
X306245Y76327D01*
X306292Y76515D01*
X306457Y76539D01*
X306574Y76468D01*
D02*
G37*
G36*
X313915Y77315D02*
X313891Y77245D01*
X313797D01*
X313727Y77268D01*
X313750Y77339D01*
X313915Y77315D01*
D02*
G37*
G36*
X314974Y75974D02*
X314997Y75904D01*
X314927Y75833D01*
X314832Y75880D01*
X314809Y75998D01*
X314832Y76021D01*
X314974Y75974D01*
D02*
G37*
G36*
X317138Y74045D02*
X317162Y74021D01*
X317138Y73904D01*
X317068Y73974D01*
X317091Y74092D01*
X317138Y74045D01*
D02*
G37*
G36*
X312503Y73080D02*
X312480Y72727D01*
X312386Y72774D01*
X312362Y72798D01*
X312409Y73127D01*
X312433Y73151D01*
X312503Y73080D01*
D02*
G37*
G36*
X312268Y71669D02*
X312197Y71598D01*
X312103Y71645D01*
X312080Y71669D01*
X312127Y71716D01*
Y71763D01*
X312244Y71786D01*
X312268Y71669D01*
D02*
G37*
G36*
X318244Y71528D02*
X318220Y71457D01*
X318173D01*
X318103Y71480D01*
X318126Y71551D01*
X318244Y71528D01*
D02*
G37*
G36*
X310009Y70916D02*
Y70869D01*
X309939Y70845D01*
X309798Y70939D01*
X309845Y70986D01*
X310009Y70916D01*
D02*
G37*
G36*
X308598Y71010D02*
X308645Y70916D01*
X308386Y70798D01*
X308268Y70822D01*
X308316Y70963D01*
X308574Y71033D01*
X308598Y71010D01*
D02*
G37*
G36*
X310457Y70704D02*
X310480Y70633D01*
X310409Y70610D01*
X310245Y70728D01*
X310315Y70751D01*
X310362D01*
X310457Y70704D01*
D02*
G37*
G36*
X311586Y70610D02*
X311609Y70492D01*
X311586Y70469D01*
X311445Y70422D01*
X311374Y70492D01*
X311421Y70586D01*
X311492Y70657D01*
X311586Y70610D01*
D02*
G37*
G36*
X310856Y70351D02*
X310809Y70257D01*
X310786Y70233D01*
X310692Y70280D01*
X310668Y70304D01*
X310574Y70398D01*
X310786Y70422D01*
X310856Y70351D01*
D02*
G37*
G36*
X311280Y69928D02*
X311209Y69904D01*
X311186Y69928D01*
X311209Y69951D01*
X311256D01*
X311280Y69928D01*
D02*
G37*
G36*
X314997Y69128D02*
X314974Y68963D01*
X314832Y69010D01*
X314809Y69034D01*
X314832Y69057D01*
X314856Y69081D01*
X314880Y69151D01*
X314997Y69128D01*
D02*
G37*
G36*
X314668Y68610D02*
X314644Y68587D01*
X314574Y68610D01*
X314597Y68681D01*
X314668Y68610D01*
D02*
G37*
G36*
X312339Y61105D02*
X312362Y61034D01*
X312315Y60987D01*
X312292Y60964D01*
X312150Y60917D01*
X312127Y61081D01*
X312197Y61152D01*
X312339Y61105D01*
D02*
G37*
G36*
X311939Y60705D02*
X311868Y60682D01*
X311845Y60705D01*
X311868Y60729D01*
X311915Y60776D01*
X311939Y60705D01*
D02*
G37*
G36*
X309163Y70539D02*
X309327Y70516D01*
X309468Y70563D01*
X309798Y70516D01*
X310080Y70328D01*
X310174Y70280D01*
X310762Y69833D01*
X310951Y69645D01*
X311045Y69410D01*
X311092Y69316D01*
X311233Y69175D01*
X311280Y69081D01*
X311539Y68587D01*
X311609Y68563D01*
X311656Y68281D01*
X311892Y68046D01*
X311939Y67904D01*
X312033Y67669D01*
X312080Y67575D01*
Y67528D01*
X312174Y67293D01*
X312409Y66681D01*
X312456Y66446D01*
X312550Y66210D01*
X312621Y65951D01*
X312668Y65669D01*
X312715Y65434D01*
X312786Y65175D01*
X312809Y64869D01*
X312786Y64752D01*
X312833Y64611D01*
X312762Y63505D01*
X312715Y63222D01*
X312597Y62822D01*
X312550Y62399D01*
X312362Y62117D01*
X311986Y61411D01*
X311774Y61152D01*
X311680Y61058D01*
X311492Y61011D01*
X311398Y60917D01*
X311303Y60870D01*
X311209Y60776D01*
X311021Y60729D01*
X310692Y60682D01*
X309892Y60729D01*
X309798Y60823D01*
X309562Y60917D01*
X309468Y60964D01*
X309045Y61293D01*
X308927Y61411D01*
X308880Y61505D01*
X308598Y61693D01*
X308551Y61787D01*
X308316Y62211D01*
X308198Y62328D01*
X308127Y62352D01*
X308080Y62681D01*
X307986Y62775D01*
X307798Y63105D01*
X307704Y63340D01*
X307657Y63528D01*
X307516Y63669D01*
X307468Y63858D01*
X307421Y64234D01*
X307280Y64469D01*
X307233Y64799D01*
X307116Y65575D01*
X307069Y65951D01*
X307022Y67316D01*
X306998Y67575D01*
X307045Y67716D01*
X307116Y68163D01*
X307233Y68563D01*
X307304Y68869D01*
X307374Y69128D01*
X307704Y69739D01*
X307892Y69928D01*
X308010Y70139D01*
X308245Y70280D01*
X308857Y70563D01*
X308974Y70586D01*
X309163Y70539D01*
D02*
G37*
G36*
X311068Y60352D02*
X311092Y60329D01*
X311021Y60258D01*
X310833Y60305D01*
X310809Y60329D01*
X310833Y60352D01*
X310974Y60399D01*
X311068Y60352D01*
D02*
G37*
G36*
X310315Y60211D02*
X310386Y60140D01*
X310339Y60046D01*
X310080Y60023D01*
X309915Y60187D01*
X309986Y60258D01*
X310080D01*
X310315Y60211D01*
D02*
G37*
G36*
X311656Y60234D02*
X311586Y60117D01*
X311492Y60070D01*
X311162Y59882D01*
X310974Y59693D01*
X310856Y59764D01*
X310880Y59834D01*
X311092Y59952D01*
Y59999D01*
X311115Y60023D01*
X311256Y60070D01*
X311350Y60117D01*
X311468Y60282D01*
X311586Y60305D01*
X311656Y60234D01*
D02*
G37*
%LPC*%
G36*
X309233Y69763D02*
X308904Y69716D01*
X308692Y69551D01*
X308363Y68845D01*
X308268Y68610D01*
X308221Y68046D01*
X308174Y67904D01*
X308127Y67622D01*
X308080Y67481D01*
X308033Y67010D01*
X308080Y65552D01*
X308127Y65410D01*
X308221Y64846D01*
X308268Y64516D01*
X308410Y64187D01*
X308457Y63999D01*
X308574Y63693D01*
X308810Y63222D01*
X308927Y63011D01*
X309068Y62775D01*
X309163Y62681D01*
X309209Y62587D01*
X309304Y62493D01*
X309351Y62399D01*
X309562Y62140D01*
X309657Y62046D01*
X309751Y61999D01*
X309939Y61811D01*
X310033Y61764D01*
X310268Y61670D01*
X310457Y61623D01*
X310927Y61670D01*
X311068Y61811D01*
X311162Y61858D01*
X311280Y61975D01*
X311374Y62211D01*
X311421Y62305D01*
X311515Y62399D01*
X311609Y62634D01*
X311680Y62940D01*
X311727Y63175D01*
X311798Y63434D01*
X311845Y63622D01*
X311939Y64422D01*
X311892Y65034D01*
X311845Y65222D01*
X311798Y65740D01*
X311751Y65881D01*
X311703Y66069D01*
X311633Y66516D01*
X311562Y66728D01*
Y66775D01*
X311374Y67199D01*
X311139Y67716D01*
X310809Y68328D01*
X310621Y68657D01*
X310386Y68892D01*
X310339Y68987D01*
X309798Y69528D01*
X309562Y69622D01*
X309233Y69763D01*
D02*
G37*
%LPD*%
G36*
X302763Y66116D02*
X302810Y65928D01*
X302834Y65857D01*
X302975D01*
X303210Y65951D01*
X303351Y65904D01*
X303422Y65834D01*
X303398Y65575D01*
X303257Y65622D01*
X303163Y65716D01*
X302904Y65693D01*
X302787Y65857D01*
X302645Y65904D01*
X302575Y66022D01*
X302645Y66140D01*
X302763Y66116D01*
D02*
G37*
G36*
X303610Y65269D02*
X303540Y65246D01*
X303516Y65316D01*
Y65363D01*
X303469Y65458D01*
X303587Y65481D01*
X303610Y65269D01*
D02*
G37*
G36*
X303187D02*
X303140Y65175D01*
X303022Y65152D01*
X302951Y65222D01*
Y65269D01*
X302928Y65293D01*
X302904Y65410D01*
X302975Y65434D01*
X303187Y65269D01*
D02*
G37*
G36*
X318103Y65410D02*
X318079Y65387D01*
X318032D01*
X318009Y65458D01*
X318079Y65481D01*
X318103Y65410D01*
D02*
G37*
G36*
X317585Y65269D02*
Y65222D01*
X317562Y65199D01*
X317538Y65269D01*
X317562Y65293D01*
X317585Y65269D01*
D02*
G37*
G36*
X351088Y68704D02*
X351347Y68540D01*
X351605Y68281D01*
X351652Y68187D01*
X351747Y68092D01*
X351817Y67834D01*
X351864Y67646D01*
X351958Y67410D01*
X352029Y67151D01*
X352076Y66963D01*
X352029Y65693D01*
X351935Y65599D01*
X351888Y65504D01*
X351794Y65410D01*
X351723Y65152D01*
X351394Y64822D01*
X351158Y64728D01*
X350829Y64681D01*
X350406Y64775D01*
X350147Y64987D01*
X349958Y65175D01*
X349817Y65504D01*
X349723Y65834D01*
X349582Y66163D01*
X349488Y66540D01*
X349394Y66775D01*
X349441Y67057D01*
X349676Y67575D01*
X349817Y67951D01*
X350005Y68281D01*
X350217Y68587D01*
X350311Y68634D01*
X350547Y68728D01*
X350735Y68775D01*
X350829D01*
X351088Y68704D01*
D02*
G37*
G36*
X325561Y51365D02*
X325702Y51318D01*
X325984Y51177D01*
X326031D01*
X326549Y50894D01*
X326808Y50682D01*
X326973Y50565D01*
X327090Y50400D01*
X327231Y50259D01*
X327278Y50165D01*
X327420Y50071D01*
X327843Y49177D01*
X327772Y48824D01*
X327537Y48447D01*
X327349Y48259D01*
X327114Y48165D01*
X326926Y48118D01*
X326596Y48165D01*
X326408Y48212D01*
X326031Y48353D01*
X325608Y48683D01*
X325279Y48918D01*
X325161Y49036D01*
X325114Y49130D01*
X324949Y49247D01*
X324879Y49318D01*
X324832Y49412D01*
X324596Y49741D01*
X324502Y49977D01*
X324455Y50165D01*
X324384Y50471D01*
X324361Y50682D01*
X324643Y51200D01*
X324714Y51271D01*
X324902Y51318D01*
X324996Y51412D01*
X325561Y51365D01*
D02*
G37*
%LPC*%
G36*
X350923Y67881D02*
X350688Y67834D01*
X350476Y67481D01*
X350406Y67222D01*
X350288Y66916D01*
X350335Y66163D01*
X350429Y65928D01*
X350453Y65904D01*
X350570Y65740D01*
X350711Y65599D01*
X350735Y65528D01*
X351017Y65575D01*
X351088Y65646D01*
X351135Y65740D01*
X351229Y65834D01*
X351370Y66304D01*
X351323Y67199D01*
X351088Y67575D01*
X350994Y67810D01*
X350923Y67881D01*
D02*
G37*
G36*
X325420Y50612D02*
X325326Y50565D01*
X325302Y50541D01*
X325255Y50400D01*
X325396Y50071D01*
X325443Y49930D01*
X325584Y49788D01*
X325631Y49694D01*
X325843Y49436D01*
X325984Y49247D01*
X326290Y49130D01*
X326502Y49059D01*
X326690Y49012D01*
X326973Y49059D01*
X326996Y49224D01*
X326761Y49647D01*
X326502Y50047D01*
X326408Y50094D01*
X326267Y50235D01*
X326173Y50283D01*
X325796Y50518D01*
X325420Y50612D01*
D02*
G37*
%LPD*%
G36*
X358358Y68069D02*
X358452Y67928D01*
X358522Y67904D01*
X358758Y67387D01*
X358805Y67057D01*
X358828Y67034D01*
X358946Y66634D01*
X358969Y66187D01*
X358922Y65716D01*
X358805Y65316D01*
X358734Y65058D01*
X358663Y64987D01*
X358616Y64893D01*
X358405Y64634D01*
X358287Y64469D01*
X358122Y64352D01*
X357887Y64211D01*
X357746Y64163D01*
X357323Y64211D01*
X357228Y64305D01*
X356805Y64540D01*
X356640Y64799D01*
X356452Y65222D01*
X356358Y65458D01*
X356311Y65646D01*
X356240Y65951D01*
X356193Y66140D01*
X356170Y66351D01*
X356264Y66587D01*
X356381Y66893D01*
X356452Y66963D01*
X356546Y67199D01*
X356593Y67293D01*
X356687Y67387D01*
X356734Y67575D01*
X356875Y67810D01*
X357087Y68069D01*
X357181Y68163D01*
X357628Y68328D01*
X357840Y68351D01*
X358358Y68069D01*
D02*
G37*
%LPC*%
G36*
X357840Y67457D02*
X357605Y67410D01*
X357299Y67104D01*
X357134Y66657D01*
X357087Y66469D01*
X357017Y66210D01*
X357064Y65599D01*
X357158Y65363D01*
X357275Y65058D01*
X357417Y64916D01*
X357605Y64869D01*
X357817Y64987D01*
Y65034D01*
X357911Y65128D01*
X357958Y65222D01*
X358052Y65316D01*
X358170Y65622D01*
X358240Y65834D01*
X358193Y66728D01*
X358099Y66963D01*
X357840Y67457D01*
D02*
G37*
%LPD*%
G36*
X318644Y81009D02*
X318738Y80915D01*
X318832Y80868D01*
X319161Y80632D01*
X319373Y80421D01*
X319420Y80327D01*
X319797Y79950D01*
X319844Y79856D01*
X320079Y79621D01*
X320126Y79527D01*
X320361Y79197D01*
X320644Y78915D01*
X320738Y78680D01*
X320926Y78492D01*
X321114Y78162D01*
X321326Y77903D01*
X321608Y77433D01*
X321820Y77221D01*
X322102Y76609D01*
X322149Y76280D01*
X322102Y75904D01*
X321914Y75574D01*
X321585Y75151D01*
X321138Y74704D01*
X320950Y74609D01*
X320926Y74586D01*
X320667Y74468D01*
X320291Y74421D01*
X320220Y74492D01*
X320173Y74586D01*
X320009Y74751D01*
X319914Y74798D01*
X319797Y74962D01*
X319703Y75057D01*
X319656Y75151D01*
X319326Y75574D01*
X319232Y75668D01*
X319161Y75833D01*
X319067Y75880D01*
X318879Y76162D01*
X318809Y76233D01*
X318762Y76327D01*
X318573Y76515D01*
X318526Y76609D01*
X318314Y76868D01*
X318150Y77033D01*
X318103Y77127D01*
X317656Y77715D01*
X317562Y77762D01*
X317326Y78139D01*
X317209Y78256D01*
X317068Y78492D01*
X316738Y78821D01*
X316691Y78915D01*
X316503Y79103D01*
X316362Y79433D01*
X316409Y79668D01*
X316597Y79856D01*
X316715Y80068D01*
X316809Y80115D01*
X316903Y80209D01*
X316997Y80256D01*
X317138Y80397D01*
X317232Y80444D01*
X317350Y80562D01*
X317397Y80656D01*
X317515Y80774D01*
X317703Y80821D01*
X318126Y81009D01*
X318314Y81056D01*
X318644Y81009D01*
D02*
G37*
%LPC*%
G36*
X318362Y80162D02*
X318126Y80021D01*
X317962Y79903D01*
X317915Y79809D01*
X317844Y79738D01*
X317609Y79597D01*
X317538Y79480D01*
X317844Y79033D01*
X317915Y78962D01*
X317962Y78868D01*
X318244Y78586D01*
X318291Y78492D01*
X318738Y77903D01*
X318950Y77692D01*
X318997Y77597D01*
X319114Y77386D01*
X319209Y77339D01*
X319397Y77056D01*
X319467Y76986D01*
X319514Y76892D01*
X319656Y76750D01*
X319703Y76656D01*
X319797Y76562D01*
X319844Y76468D01*
X319985Y76327D01*
X320126Y76092D01*
X320220Y75998D01*
X320267Y75904D01*
X320597Y75480D01*
X320808Y75457D01*
X320832Y75480D01*
Y75527D01*
X321020Y75856D01*
X321208Y76139D01*
X321255Y76327D01*
X321138Y76633D01*
X321020Y76892D01*
X320550Y77786D01*
X320409Y77927D01*
X320267Y78162D01*
X320173Y78256D01*
X319985Y78586D01*
X319844Y78727D01*
X319797Y78821D01*
X319467Y79150D01*
X319420Y79244D01*
X319138Y79527D01*
X319091Y79621D01*
X318926Y79738D01*
X318691Y79974D01*
X318597Y80021D01*
X318503Y80115D01*
X318362Y80162D01*
D02*
G37*
%LPD*%
G36*
X311515Y56000D02*
X311398Y55882D01*
X311374Y55905D01*
X311468Y56141D01*
X311492Y56258D01*
X311515Y56000D01*
D02*
G37*
G36*
X311374Y55858D02*
X311350Y55835D01*
X311327Y55858D01*
X311350Y55882D01*
X311374Y55858D01*
D02*
G37*
G36*
X312550Y54447D02*
X312527Y54423D01*
X312503Y54447D01*
Y54494D01*
X312527Y54517D01*
X312550Y54447D01*
D02*
G37*
G36*
X312080Y54306D02*
X312103Y54094D01*
X312056Y54047D01*
X312009D01*
X311868Y54094D01*
X311845Y54400D01*
X311962Y54423D01*
X312080Y54306D01*
D02*
G37*
G36*
X340195Y47177D02*
X340218Y47106D01*
X340148Y47083D01*
X340101Y47130D01*
X340077Y47153D01*
X340101Y47224D01*
X340195Y47177D01*
D02*
G37*
G36*
X337771Y46871D02*
X337748Y46848D01*
X337724Y46824D01*
X337701Y46800D01*
X337677Y46871D01*
X337748Y46895D01*
X337771Y46871D01*
D02*
G37*
G36*
X340642Y46918D02*
X340595Y46777D01*
X340477Y46753D01*
X340406Y46824D01*
X340430Y46942D01*
X340524D01*
X340642Y46918D01*
D02*
G37*
G36*
X339936Y46871D02*
X339912Y46753D01*
X339865D01*
X339795Y46777D01*
X339818Y46895D01*
X339936Y46871D01*
D02*
G37*
G36*
X339842Y46212D02*
Y46165D01*
X339771Y46142D01*
X339701Y46212D01*
X339818Y46236D01*
X339842Y46212D01*
D02*
G37*
G36*
X352311Y51059D02*
X352194Y50941D01*
X352123Y50965D01*
Y51012D01*
Y51059D01*
X352170Y51153D01*
X352288Y51177D01*
X352311Y51059D01*
D02*
G37*
G36*
X351323Y49741D02*
X351300Y49577D01*
X351229Y49600D01*
Y49647D01*
X351205Y49671D01*
X351182Y49694D01*
X351253Y49765D01*
X351323Y49741D01*
D02*
G37*
G36*
X351135Y49224D02*
X351017Y49106D01*
X350970D01*
X350947Y49130D01*
X350994Y49318D01*
X351111Y49341D01*
X351135Y49224D01*
D02*
G37*
G36*
X350758Y48847D02*
X350711Y48753D01*
X350688Y48730D01*
X350664Y48800D01*
X350735Y48871D01*
X350758Y48847D01*
D02*
G37*
G36*
X350429Y48283D02*
X350359Y48212D01*
X350311D01*
X350288Y48236D01*
X350335Y48377D01*
X350406Y48400D01*
X350429Y48283D01*
D02*
G37*
G36*
X349206Y46495D02*
X349159Y46400D01*
X349135Y46377D01*
X349112Y46400D01*
X349135Y46518D01*
X349206Y46495D01*
D02*
G37*
G36*
X348170Y50494D02*
X348147Y50424D01*
X348123Y50400D01*
X348053Y50329D01*
X347982Y50400D01*
X348029Y50541D01*
X348100Y50565D01*
X348170Y50494D01*
D02*
G37*
G36*
X347512Y49412D02*
X347465Y49224D01*
X347347Y49106D01*
X347276Y49177D01*
X347323Y49318D01*
X347347Y49341D01*
X347441Y49436D01*
X347512Y49412D01*
D02*
G37*
G36*
X344782Y45695D02*
Y45648D01*
X344759Y45577D01*
X344665Y45624D01*
X344641Y45648D01*
X344712Y45718D01*
X344782Y45695D01*
D02*
G37*
G36*
X343794Y44330D02*
X343771Y44260D01*
X343747Y44330D01*
X343771Y44354D01*
X343794Y44330D01*
D02*
G37*
G36*
X320150Y43742D02*
X320244Y43648D01*
X320573Y43460D01*
X320902Y43224D01*
X321044Y43083D01*
X321138Y43036D01*
X321820Y42354D01*
X321867Y42260D01*
X321961Y42166D01*
X322055Y41930D01*
X322102Y41789D01*
X321985Y41530D01*
X321891Y41483D01*
X321702Y41295D01*
X321397Y41225D01*
X321138Y41107D01*
X320644Y41178D01*
X320620Y41201D01*
X320361Y41272D01*
X320173Y41319D01*
X320009Y41389D01*
X319491Y41672D01*
X319397Y41766D01*
X319303Y41813D01*
X319044Y42071D01*
X318997Y42166D01*
X318856Y42307D01*
X318667Y42636D01*
X318573Y42730D01*
X318620Y43295D01*
X318832Y43507D01*
X318926Y43554D01*
X319444Y43789D01*
X320150Y43742D01*
D02*
G37*
%LPC*%
G36*
X319632Y42989D02*
X319467Y42919D01*
X319444Y42801D01*
X319562Y42636D01*
X319726Y42471D01*
X319820Y42424D01*
X319938Y42307D01*
X319985Y42213D01*
X320503Y41977D01*
X321138Y41954D01*
X321208Y42024D01*
X321161Y42213D01*
X320926Y42448D01*
X320879Y42542D01*
X320761Y42613D01*
X320714D01*
X320385Y42801D01*
X320150Y42895D01*
X319773Y42942D01*
X319632Y42989D01*
D02*
G37*
%LPD*%
D24*
X211326Y222805D02*
D03*
X189235Y200714D02*
D03*
D37*
X139421Y504190D02*
G03*
X139421Y504190I-8611J0D01*
G01*
Y529590D02*
G03*
X139421Y529590I-8611J0D01*
G01*
X209271D02*
G03*
X209271Y529590I-8611J0D01*
G01*
Y504190D02*
G03*
X209271Y504190I-8611J0D01*
G01*
D38*
X184908Y387769D02*
D03*
X214880D02*
D03*
X434086Y179070D02*
D03*
X404114D02*
D03*
X434086Y205740D02*
D03*
X404114D02*
D03*
X454914Y246380D02*
D03*
X484886D02*
D03*
X444246Y447040D02*
D03*
X414274D02*
D03*
X483616Y220980D02*
D03*
X453644D02*
D03*
X454914Y270510D02*
D03*
X484886D02*
D03*
X267716Y251460D02*
D03*
X237744D02*
D03*
X180594D02*
D03*
X210566D02*
D03*
X508254Y637540D02*
D03*
X538226D02*
D03*
X86614Y440690D02*
D03*
X116586D02*
D03*
D39*
X374650Y169672D02*
D03*
Y177546D02*
D03*
Y185674D02*
D03*
Y193548D02*
D03*
Y201676D02*
D03*
Y209550D02*
D03*
Y217678D02*
D03*
Y225552D02*
D03*
X289050D02*
D03*
Y217678D02*
D03*
Y209550D02*
D03*
Y201676D02*
D03*
Y193548D02*
D03*
Y185674D02*
D03*
Y177546D02*
D03*
Y169672D02*
D03*
D40*
X360280Y240412D02*
D03*
X352406D02*
D03*
X344278D02*
D03*
X336404D02*
D03*
X328276D02*
D03*
X320402D02*
D03*
X312274D02*
D03*
X304400D02*
D03*
Y154812D02*
D03*
X312274D02*
D03*
X320402D02*
D03*
X328276D02*
D03*
X336404D02*
D03*
X344278D02*
D03*
X352406D02*
D03*
X360280D02*
D03*
D41*
X263327Y192207D02*
D03*
X242133Y171013D02*
D03*
X261172Y226388D02*
D03*
X239978Y205195D02*
D03*
D42*
X67310Y352806D02*
D03*
Y322834D02*
D03*
Y236474D02*
D03*
Y266446D02*
D03*
X247650Y450596D02*
D03*
Y420624D02*
D03*
X556260Y616966D02*
D03*
Y586994D02*
D03*
X463550Y449326D02*
D03*
Y419354D02*
D03*
X394970Y448056D02*
D03*
Y418084D02*
D03*
X342900Y359664D02*
D03*
Y389636D02*
D03*
X311150Y359664D02*
D03*
Y389636D02*
D03*
X247650Y360934D02*
D03*
Y390906D02*
D03*
X482600Y665226D02*
D03*
Y635254D02*
D03*
X311150Y420624D02*
D03*
Y450596D02*
D03*
X138430Y599186D02*
D03*
Y569214D02*
D03*
X189230Y599186D02*
D03*
Y569214D02*
D03*
X342900Y450596D02*
D03*
Y420624D02*
D03*
X278130D02*
D03*
Y450596D02*
D03*
Y390906D02*
D03*
Y360934D02*
D03*
X166370Y538226D02*
D03*
Y508254D02*
D03*
X396240Y575564D02*
D03*
Y605536D02*
D03*
D43*
X659110Y622540D02*
D03*
X593110Y652540D02*
D03*
Y622540D02*
D03*
X659110Y652540D02*
D03*
D44*
X560070Y669300D02*
D03*
Y638800D02*
D03*
D45*
X187960Y300240D02*
D03*
D46*
X211074Y365240D02*
D03*
X187960D02*
D03*
X164846Y367740D02*
D03*
D47*
X425490Y265930D02*
D03*
X406090Y239530D02*
D03*
Y265930D02*
D03*
X425490Y239530D02*
D03*
D48*
X250657Y553103D02*
D03*
Y543603D02*
D03*
Y534103D02*
D03*
X274282D02*
D03*
Y543603D02*
D03*
Y553103D02*
D03*
D49*
X423672Y614680D02*
D03*
Y601980D02*
D03*
Y589280D02*
D03*
Y576580D02*
D03*
Y563880D02*
D03*
Y551180D02*
D03*
Y538480D02*
D03*
Y525780D02*
D03*
X483108D02*
D03*
Y538480D02*
D03*
Y551180D02*
D03*
Y563880D02*
D03*
Y576580D02*
D03*
Y589280D02*
D03*
Y601980D02*
D03*
Y614680D02*
D03*
D50*
X439920Y478750D02*
D03*
X413520Y498150D02*
D03*
X439920D02*
D03*
X413520Y478750D02*
D03*
D51*
X130810Y504190D02*
D03*
Y529590D02*
D03*
X200660D02*
D03*
Y504190D02*
D03*
D52*
X655320Y25400D02*
D03*
Y50800D02*
D03*
Y76200D02*
D03*
Y101600D02*
D03*
Y127000D02*
D03*
Y152400D02*
D03*
Y177800D02*
D03*
Y203200D02*
D03*
X579120Y25400D02*
D03*
Y50800D02*
D03*
Y76200D02*
D03*
Y101600D02*
D03*
Y127000D02*
D03*
Y152400D02*
D03*
Y177800D02*
D03*
Y203200D02*
D03*
X655320Y472440D02*
D03*
Y447040D02*
D03*
Y421640D02*
D03*
Y396240D02*
D03*
Y370840D02*
D03*
Y345440D02*
D03*
Y320040D02*
D03*
Y294640D02*
D03*
Y269240D02*
D03*
Y243840D02*
D03*
X579120D02*
D03*
Y269240D02*
D03*
Y294640D02*
D03*
Y320040D02*
D03*
Y345440D02*
D03*
Y370840D02*
D03*
Y396240D02*
D03*
Y421640D02*
D03*
Y447040D02*
D03*
Y472440D02*
D03*
X96520Y152400D02*
D03*
Y127000D02*
D03*
Y101600D02*
D03*
Y76200D02*
D03*
Y50800D02*
D03*
Y25400D02*
D03*
Y381000D02*
D03*
Y355600D02*
D03*
Y330200D02*
D03*
Y304800D02*
D03*
Y279400D02*
D03*
Y254000D02*
D03*
Y228600D02*
D03*
Y203200D02*
D03*
X20320Y381000D02*
D03*
Y355600D02*
D03*
Y330200D02*
D03*
Y304800D02*
D03*
Y279400D02*
D03*
Y254000D02*
D03*
Y228600D02*
D03*
Y203200D02*
D03*
Y127000D02*
D03*
Y152400D02*
D03*
Y101600D02*
D03*
Y76200D02*
D03*
Y50800D02*
D03*
Y25400D02*
D03*
X166370Y457200D02*
D03*
Y431800D02*
D03*
D53*
X581660Y515620D02*
D03*
X607060D02*
D03*
X530860D02*
D03*
X556260D02*
D03*
Y560070D02*
D03*
X530860D02*
D03*
X607060D02*
D03*
X581660D02*
D03*
X25400Y477520D02*
D03*
Y502920D02*
D03*
Y426720D02*
D03*
Y452120D02*
D03*
X269240Y316230D02*
D03*
X243840D02*
D03*
X320040D02*
D03*
X294640D02*
D03*
D54*
X138430Y636270D02*
D03*
X163830D02*
D03*
X189230D02*
D03*
D55*
X373750Y639128D02*
D03*
Y591628D02*
D03*
X299350D02*
D03*
Y639128D02*
D03*
D56*
X320351Y582612D02*
D03*
X336351D02*
D03*
X328352Y594649D02*
D03*
X344352D02*
D03*
X352350Y582612D02*
D03*
D57*
X18270Y568250D02*
D03*
D58*
X64770Y603250D02*
D03*
Y543250D02*
D03*
D59*
X448310Y179070D02*
D03*
X226060Y190500D02*
D03*
X220980Y172720D02*
D03*
X417830Y514350D02*
D03*
X430530Y462280D02*
D03*
X196850Y269240D02*
D03*
X354330Y198120D02*
D03*
X76200Y425450D02*
D03*
X279400Y346710D02*
D03*
X246380D02*
D03*
X397510Y622300D02*
D03*
X452120Y613410D02*
D03*
X595630Y605790D02*
D03*
X500380Y670560D02*
D03*
X313690Y601980D02*
D03*
X207010Y558800D02*
D03*
X123190Y557530D02*
D03*
X217170Y407670D02*
D03*
X504190Y259080D02*
D03*
X501650Y220980D02*
D03*
X440690Y256540D02*
D03*
X448310Y200660D02*
D03*
X68580Y372110D02*
D03*
X66040Y218440D02*
D03*
X394970Y401320D02*
D03*
X388620Y238760D02*
D03*
X537210Y585470D02*
D03*
X462280Y402590D02*
D03*
X307340Y189230D02*
D03*
X355600Y185420D02*
D03*
X233680Y543560D02*
D03*
X210820Y340360D02*
D03*
M02*
