G04*
G04 #@! TF.GenerationSoftware,Altium Limited,Altium Designer,24.2.2 (26)*
G04*
G04 Layer_Color=8421504*
%FSLAX44Y44*%
%MOMM*%
G71*
G04*
G04 #@! TF.SameCoordinates,EF5741E1-F204-4FC3-9B2C-2ADE7EA652BA*
G04*
G04*
G04 #@! TF.FilePolarity,Positive*
G04*
G01*
G75*
%ADD23R,1.1176X1.8034*%
G04:AMPARAMS|DCode=24|XSize=1.3716mm|YSize=1.8542mm|CornerRadius=0mm|HoleSize=0mm|Usage=FLASHONLY|Rotation=45.000|XOffset=0mm|YOffset=0mm|HoleType=Round|Shape=Rectangle|*
%AMROTATEDRECTD24*
4,1,4,0.1706,-1.1405,-1.1405,0.1706,-0.1706,1.1405,1.1405,-0.1706,0.1706,-1.1405,0.0*
%
%ADD24ROTATEDRECTD24*%

%ADD25R,1.6500X0.5080*%
%ADD26R,0.5080X1.6500*%
G04:AMPARAMS|DCode=27|XSize=1.1176mm|YSize=1.8034mm|CornerRadius=0mm|HoleSize=0mm|Usage=FLASHONLY|Rotation=225.000|XOffset=0mm|YOffset=0mm|HoleType=Round|Shape=Rectangle|*
%AMROTATEDRECTD27*
4,1,4,-0.2425,1.0327,1.0327,-0.2425,0.2425,-1.0327,-1.0327,0.2425,-0.2425,1.0327,0.0*
%
%ADD27ROTATEDRECTD27*%

%ADD28R,1.8034X1.1176*%
%ADD29R,1.5000X1.2000*%
%ADD30R,1.8500X1.3500*%
%ADD31R,3.0988X1.7000*%
%ADD32R,0.8382X1.7000*%
%ADD33R,1.4000X1.8000*%
%ADD34R,1.0000X0.7000*%
%ADD35O,2.2000X0.6096*%
%ADD36R,1.8000X1.4000*%
D23*
X184908Y387769D02*
D03*
X214880D02*
D03*
X434086Y179070D02*
D03*
X404114D02*
D03*
X434086Y205740D02*
D03*
X404114D02*
D03*
X454914Y246380D02*
D03*
X484886D02*
D03*
X444246Y447040D02*
D03*
X414274D02*
D03*
X483616Y220980D02*
D03*
X453644D02*
D03*
X454914Y270510D02*
D03*
X484886D02*
D03*
X267716Y251460D02*
D03*
X237744D02*
D03*
X180594D02*
D03*
X210566D02*
D03*
X508254Y637540D02*
D03*
X538226D02*
D03*
X86614Y440690D02*
D03*
X116586D02*
D03*
D24*
X211326Y222805D02*
D03*
X189235Y200714D02*
D03*
D25*
X374650Y169672D02*
D03*
Y177546D02*
D03*
Y185674D02*
D03*
Y193548D02*
D03*
Y201676D02*
D03*
Y209550D02*
D03*
Y217678D02*
D03*
Y225552D02*
D03*
X289050D02*
D03*
Y217678D02*
D03*
Y209550D02*
D03*
Y201676D02*
D03*
Y193548D02*
D03*
Y185674D02*
D03*
Y177546D02*
D03*
Y169672D02*
D03*
D26*
X360280Y240412D02*
D03*
X352406D02*
D03*
X344278D02*
D03*
X336404D02*
D03*
X328276D02*
D03*
X320402D02*
D03*
X312274D02*
D03*
X304400D02*
D03*
Y154812D02*
D03*
X312274D02*
D03*
X320402D02*
D03*
X328276D02*
D03*
X336404D02*
D03*
X344278D02*
D03*
X352406D02*
D03*
X360280D02*
D03*
D27*
X263327Y192207D02*
D03*
X242133Y171013D02*
D03*
X261172Y226388D02*
D03*
X239978Y205195D02*
D03*
D28*
X67310Y352806D02*
D03*
Y322834D02*
D03*
Y236474D02*
D03*
Y266446D02*
D03*
X247650Y450596D02*
D03*
Y420624D02*
D03*
X556260Y616966D02*
D03*
Y586994D02*
D03*
X463550Y449326D02*
D03*
Y419354D02*
D03*
X394970Y448056D02*
D03*
Y418084D02*
D03*
X342900Y359664D02*
D03*
Y389636D02*
D03*
X311150Y359664D02*
D03*
Y389636D02*
D03*
X247650Y360934D02*
D03*
Y390906D02*
D03*
X482600Y665226D02*
D03*
Y635254D02*
D03*
X311150Y420624D02*
D03*
Y450596D02*
D03*
X138430Y599186D02*
D03*
Y569214D02*
D03*
X189230Y599186D02*
D03*
Y569214D02*
D03*
X342900Y450596D02*
D03*
Y420624D02*
D03*
X278130D02*
D03*
Y450596D02*
D03*
Y390906D02*
D03*
Y360934D02*
D03*
X166370Y538226D02*
D03*
Y508254D02*
D03*
X396240Y575564D02*
D03*
Y605536D02*
D03*
D29*
X659110Y622540D02*
D03*
X593110Y652540D02*
D03*
Y622540D02*
D03*
X659110Y652540D02*
D03*
D30*
X560070Y669300D02*
D03*
Y638800D02*
D03*
D31*
X187960Y300240D02*
D03*
D32*
X211074Y365240D02*
D03*
X187960D02*
D03*
X164846Y367740D02*
D03*
D33*
X425490Y265930D02*
D03*
X406090Y239530D02*
D03*
Y265930D02*
D03*
X425490Y239530D02*
D03*
D34*
X250657Y553103D02*
D03*
Y543603D02*
D03*
Y534103D02*
D03*
X274282D02*
D03*
Y543603D02*
D03*
Y553103D02*
D03*
D35*
X423672Y614680D02*
D03*
Y601980D02*
D03*
Y589280D02*
D03*
Y576580D02*
D03*
Y563880D02*
D03*
Y551180D02*
D03*
Y538480D02*
D03*
Y525780D02*
D03*
X483108D02*
D03*
Y538480D02*
D03*
Y551180D02*
D03*
Y563880D02*
D03*
Y576580D02*
D03*
Y589280D02*
D03*
Y601980D02*
D03*
Y614680D02*
D03*
D36*
X439920Y478750D02*
D03*
X413520Y498150D02*
D03*
X439920D02*
D03*
X413520Y478750D02*
D03*
M02*
