M48
;Layer_Color=9474304
;FILE_FORMAT=4:4
METRIC,LZ
;TYPE=PLATED
T01F00S00C0.3302
T02F00S00C0.8000
T05F00S00C1.0160
T06F00S00C1.0201
T07F00S00C1.1000
%
T01
X0022098Y0017272
X0022606Y001905
X0030734Y0018923
X003556Y0018542
X0035433Y0019812
X0038862Y0023876
X0044069Y0025654
X0044831Y0020066
Y0017907
X0050165Y0022098
X0050419Y0025908
X0046228Y0040259
X0039497Y0040132
X0043053Y0046228
X0041783Y0051435
X002794Y0034671
X0024638
X0021082Y0034036
X0021717Y0040767
X0019685Y0026924
X0006604Y0021844
X0006858Y0037211
X000762Y0042545
X0012319Y0055753
X0020701Y005588
X0023368Y0054356
X0031369Y0060198
X0039751Y006223
X0045212Y0061341
X0050038Y0067056
X0053721Y0058547
X0059563Y0060579
T02
X00320351Y00582612
X00336351
X0035235
X00344352Y00594649
X00328352
T05
X0055626Y0051562
X0058166
X0060706
X0053086
X0032004Y0031623
X0029464
X0026924
X0024384
X000254Y0042672
Y0045212
Y0047752
Y0050292
X0053086Y0056007
X0055626
X0058166
X0060706
T06
X0020066Y0050419
Y0052959
X0013081
Y0050419
T07
X0002032Y000254
Y000508
Y000762
Y001016
Y00127
X0009652
Y001016
Y000762
Y000508
Y000254
X0057912
Y000508
Y000762
Y001016
Y00127
X0065532
Y001016
Y000762
Y000508
Y000254
Y001524
Y001778
Y002032
Y0024384
Y0026924
Y0029464
Y0032004
Y0034544
Y0037084
Y0039624
Y0042164
Y0044704
Y0047244
X0057912
Y0044704
Y0042164
Y0039624
Y0037084
Y0034544
Y0032004
Y0029464
Y0026924
Y0024384
Y002032
Y001778
Y001524
X0016637Y004318
Y004572
X0009652Y00381
Y003556
Y003302
Y003048
Y002794
Y00254
Y002286
Y002032
Y001524
X0002032
Y002032
Y002286
Y00254
Y002794
Y003048
Y003302
Y003556
Y00381
X0013843Y0063627
X0016383
X0018923
M30
