M48
;Layer_Color=9474304
;FILE_FORMAT=4:4
METRIC,LZ
;TYPE=PLATED
T01F00S00C0.3302
T02F00S00C0.8000
T04F00S00C0.9000
T05F00S00C1.0000
T07F00S00C1.0200
T08F00S00C1.0201
T09F00S00C1.1000
%
T01
X0028702Y0004953
X0024892Y0014732
X0021717Y0017907
X002413Y0021971
X0024384Y0029083
X0028194Y0030861
X0032004Y0032766
Y0038481
X00265961Y0037288
X00234104Y00343324
X0019558Y0034925
X0018415Y0036576
X0014986Y0038227
X0016256Y002921
X0019558Y0025146
X0015367Y0021717
X0018034Y0014859
X0014478Y00127
X0032893Y004445
X001397Y0041402
X00138389Y00381923
X0008763Y0038989
X0007747Y0039878
X0008255Y003683
X000762Y0036068
X0002667Y0037592
X0004826Y0029718
Y0028702
X0003937Y0027559
X0002921Y0027432
X0001778Y0027559
X000254Y0025273
Y0024257
X0006731Y0025527
X0009017Y0028702
X0010033Y0028448
X0012192Y0029718
X0010795Y0021082
X0009906Y0020574
Y002159
X0011303Y0014859
X0004445Y0014605
X001016Y0041148
X0010033Y0043688
X0009906Y0044577
X0009525Y0046101
X0008255Y0045339
X00080899Y00470789
X0008001Y00485013
X00095377Y0047879
X0010414Y0046863
X00105608Y00501452
X0006096Y0050038
X0003175Y0049403
X0002159
X0005334Y0047117
X0006858Y0062611
X0013081Y0065278
X0015748Y00690058
X0019304Y00681347
X0027813Y0066929
X0028321Y006477
Y00635
X00296164
X0029591Y0064897
X0033528Y0061595
X0033274Y0057277
X00296164Y005715
X0023241Y0057023
X0018034Y0059563
X0017399Y0051435
Y0050165
X00170014Y00493699
X0024892Y0050673
X002794Y0052197
X0031877Y0074168
X0033782Y0078105
X0024511Y0076073
X0023368
X0021463Y0080772
T02
X0024074Y00721041
X00256739
X00272739
X00264738Y00733079
X00248738
T04
X0031496Y0058726
Y0065226
T05
X0033528Y0002822
Y0006322
T07
X0014859Y0053213
X0017399
X0019939
X0022479
T08
X0020193Y0001905
X0022733
X0029464Y0022479
Y0025019
Y002921
Y003175
X0035941Y0031496
Y0028956
Y0025019
Y0022479
X0036068Y0046355
X0002286Y0058039
Y0060579
X0012319Y0070866
Y0073406
X0019304
Y0070866
X0025781Y0069469
X0028321
X0033147
X0035687
X0036068Y0048895
T09
X0017018Y0008763
X0019558
X0022098
X003048Y0013081
X003302
X003556
X0011811Y0058039
Y0060579
X0009271
Y0058039
X0006731
Y0060579
X0013335Y0079375
X0015875
X0018415
M30
