M48
;Layer_Color=9474304
;FILE_FORMAT=4:4
METRIC,LZ
;TYPE=PLATED
T03F00S00C0.8000
T06F00S00C1.0000
T10F00S00C1.2000
%
G90
G05
T03
G00X0021934Y00724558
M15
G01Y00735559
M16
G00X0021934Y00772058
M15
G01Y00783059
M16
G00X0029374Y00772058
M15
G01Y00783059
M16
G00X0029374Y00724558
M15
G01Y00735559
M16
T06
G00X0010751Y0001319
M15
G01X0012251
M16
G00X0001573Y0071291
M15
G01Y0069791
M16
T10
G00X0008001Y0006869
M15
G01Y0005069
M16
G00X0014001Y0006869
M15
G01Y0005069
M16
G00X0007123Y0068041
M15
G01X0005323
M16
G00X0007123Y0074041
M15
G01X0005323
M16
M17
M30
