G04*
G04 #@! TF.GenerationSoftware,Altium Limited,Altium Designer,24.3.1 (35)*
G04*
G04 Layer_Color=128*
%FSLAX44Y44*%
%MOMM*%
G71*
G04*
G04 #@! TF.SameCoordinates,270278F2-5DE0-4317-936F-1FC35F10D9A2*
G04*
G04*
G04 #@! TF.FilePolarity,Positive*
G04*
G01*
G75*
%ADD20R,1.1176X1.8034*%
%ADD22R,1.8034X1.1176*%
%ADD68R,1.5500X0.6000*%
G04:AMPARAMS|DCode=69|XSize=1.35mm|YSize=0.59mm|CornerRadius=0.1475mm|HoleSize=0mm|Usage=FLASHONLY|Rotation=180.000|XOffset=0mm|YOffset=0mm|HoleType=Round|Shape=RoundedRectangle|*
%AMROUNDEDRECTD69*
21,1,1.3500,0.2950,0,0,180.0*
21,1,1.0550,0.5900,0,0,180.0*
1,1,0.2950,-0.5275,0.1475*
1,1,0.2950,0.5275,0.1475*
1,1,0.2950,0.5275,-0.1475*
1,1,0.2950,-0.5275,-0.1475*
%
%ADD69ROUNDEDRECTD69*%
%ADD70O,2.2000X0.6096*%
G04:AMPARAMS|DCode=71|XSize=1.61mm|YSize=0.59mm|CornerRadius=0.0738mm|HoleSize=0mm|Usage=FLASHONLY|Rotation=90.000|XOffset=0mm|YOffset=0mm|HoleType=Round|Shape=RoundedRectangle|*
%AMROUNDEDRECTD71*
21,1,1.6100,0.4425,0,0,90.0*
21,1,1.4625,0.5900,0,0,90.0*
1,1,0.1475,0.2213,0.7313*
1,1,0.1475,0.2213,-0.7313*
1,1,0.1475,-0.2213,-0.7313*
1,1,0.1475,-0.2213,0.7313*
%
%ADD71ROUNDEDRECTD71*%
%ADD72R,1.4500X0.3000*%
%ADD73R,1.4700X0.3000*%
%ADD74R,1.0000X0.7000*%
%ADD75R,1.8000X1.4000*%
D20*
X152654Y342900D02*
D03*
X182626D02*
D03*
X139954Y666750D02*
D03*
X169926D02*
D03*
X85090Y435610D02*
D03*
X55118D02*
D03*
X140716Y297180D02*
D03*
X110744D02*
D03*
X273304Y502920D02*
D03*
X303276D02*
D03*
X291084Y617220D02*
D03*
X321056D02*
D03*
X209804Y684530D02*
D03*
X239776D02*
D03*
D22*
X250190Y554736D02*
D03*
Y524764D02*
D03*
X140970Y178816D02*
D03*
Y148844D02*
D03*
X113030Y195834D02*
D03*
Y225806D02*
D03*
X173990Y195834D02*
D03*
Y225806D02*
D03*
X146050Y249174D02*
D03*
Y279146D02*
D03*
X242570Y166624D02*
D03*
Y196596D02*
D03*
X220980Y212344D02*
D03*
Y242316D02*
D03*
X264160Y241046D02*
D03*
Y211074D02*
D03*
X332740Y554736D02*
D03*
Y524764D02*
D03*
D68*
X108890Y363220D02*
D03*
Y375920D02*
D03*
Y388620D02*
D03*
Y401320D02*
D03*
X162890Y363220D02*
D03*
Y375920D02*
D03*
Y388620D02*
D03*
Y401320D02*
D03*
D69*
X206340Y286410D02*
D03*
X179740Y295910D02*
D03*
X206340Y305410D02*
D03*
D70*
X201422Y660400D02*
D03*
Y647700D02*
D03*
Y635000D02*
D03*
Y622300D02*
D03*
Y609600D02*
D03*
Y596900D02*
D03*
Y584200D02*
D03*
Y571500D02*
D03*
X260858D02*
D03*
Y584200D02*
D03*
Y596900D02*
D03*
Y609600D02*
D03*
Y622300D02*
D03*
Y635000D02*
D03*
Y647700D02*
D03*
Y660400D02*
D03*
D71*
X47650Y375900D02*
D03*
X57150D02*
D03*
X66650D02*
D03*
Y398800D02*
D03*
X57150D02*
D03*
X47650D02*
D03*
D72*
X31340Y287180D02*
D03*
D73*
Y292180D02*
D03*
Y297180D02*
D03*
Y302180D02*
D03*
Y307180D02*
D03*
X75340D02*
D03*
Y302180D02*
D03*
Y297180D02*
D03*
Y292180D02*
D03*
Y287180D02*
D03*
D74*
X146750Y713080D02*
D03*
Y703580D02*
D03*
Y694080D02*
D03*
X170375D02*
D03*
Y703580D02*
D03*
Y713080D02*
D03*
D75*
X278900Y537170D02*
D03*
X305300Y556570D02*
D03*
X278900D02*
D03*
X305300Y537170D02*
D03*
M02*
