G04*
G04 #@! TF.GenerationSoftware,Altium Limited,Altium Designer,24.3.1 (35)*
G04*
G04 Layer_Physical_Order=4*
G04 Layer_Color=16711680*
%FSLAX44Y44*%
%MOMM*%
G71*
G04*
G04 #@! TF.SameCoordinates,270278F2-5DE0-4317-936F-1FC35F10D9A2*
G04*
G04*
G04 #@! TF.FilePolarity,Positive*
G04*
G01*
G75*
%ADD11C,0.2540*%
%ADD13C,0.1524*%
%ADD20R,1.1176X1.8034*%
%ADD22R,1.8034X1.1176*%
%ADD53C,0.5080*%
%ADD54C,1.6200*%
%ADD55C,1.6000*%
%ADD56O,1.2000X2.4000*%
%ADD57C,1.2000*%
%ADD58C,1.6500*%
%ADD59C,2.0000*%
%ADD60O,3.3000X1.8000*%
%ADD61O,2.0000X3.8000*%
%ADD62O,1.8000X3.3000*%
%ADD63O,3.8000X2.0000*%
%ADD64C,1.7780*%
%ADD65R,1.5240X1.5240*%
%ADD66C,1.5240*%
%ADD67C,0.6350*%
%ADD68R,1.5500X0.6000*%
G04:AMPARAMS|DCode=69|XSize=1.35mm|YSize=0.59mm|CornerRadius=0.1475mm|HoleSize=0mm|Usage=FLASHONLY|Rotation=180.000|XOffset=0mm|YOffset=0mm|HoleType=Round|Shape=RoundedRectangle|*
%AMROUNDEDRECTD69*
21,1,1.3500,0.2950,0,0,180.0*
21,1,1.0550,0.5900,0,0,180.0*
1,1,0.2950,-0.5275,0.1475*
1,1,0.2950,0.5275,0.1475*
1,1,0.2950,0.5275,-0.1475*
1,1,0.2950,-0.5275,-0.1475*
%
%ADD69ROUNDEDRECTD69*%
%ADD70O,2.2000X0.6096*%
G04:AMPARAMS|DCode=71|XSize=1.61mm|YSize=0.59mm|CornerRadius=0.0738mm|HoleSize=0mm|Usage=FLASHONLY|Rotation=90.000|XOffset=0mm|YOffset=0mm|HoleType=Round|Shape=RoundedRectangle|*
%AMROUNDEDRECTD71*
21,1,1.6100,0.4425,0,0,90.0*
21,1,1.4625,0.5900,0,0,90.0*
1,1,0.1475,0.2213,0.7313*
1,1,0.1475,0.2213,-0.7313*
1,1,0.1475,-0.2213,-0.7313*
1,1,0.1475,-0.2213,0.7313*
%
%ADD71ROUNDEDRECTD71*%
%ADD72R,1.4500X0.3000*%
%ADD73R,1.4700X0.3000*%
%ADD74R,1.0000X0.7000*%
%ADD75R,1.8000X1.4000*%
D11*
X75340Y297180D02*
X110744D01*
D13*
X96646Y325006D02*
G03*
X96647Y325140I-6476J114D01*
G01*
X278563Y523331D02*
Y523330D01*
X291753Y568196D02*
X295057Y571500D01*
X296164D01*
X291753Y568117D02*
Y568196D01*
Y568117D02*
X303300Y556570D01*
X80010Y485013D02*
X109347Y514350D01*
X173990D01*
X118237Y501650D02*
X173990D01*
X199390Y512477D02*
Y532130D01*
X95250Y461010D02*
X147923D01*
X146050Y453390D02*
X224790Y532130D01*
X147923Y461010D02*
X199390Y512477D01*
X82550Y453390D02*
X146050D01*
X95377Y478790D02*
X118237Y501650D01*
X306042Y132052D02*
Y229513D01*
X304800Y130810D02*
X306042Y132052D01*
X298065Y237490D02*
X306042Y229513D01*
X267716Y237490D02*
X298065D01*
X264160Y241046D02*
X267716Y237490D01*
X280924Y211074D02*
X294640Y224790D01*
X264160Y211074D02*
X280924D01*
X184150Y344424D02*
Y365760D01*
X182626Y342900D02*
X184150Y344424D01*
X143510Y328930D02*
X299335D01*
X119942Y352498D02*
X143510Y328930D01*
X299335D02*
X306042Y322223D01*
Y312777D02*
Y322223D01*
X295751Y302486D02*
X306042Y312777D01*
X295751Y293211D02*
Y302486D01*
X294640Y292100D02*
X295751Y293211D01*
X107787Y411480D02*
X108890Y410377D01*
X101600Y411480D02*
X107787D01*
X108890Y401320D02*
Y410377D01*
X248920Y506730D02*
Y526034D01*
X250190Y527304D01*
Y529844D01*
X81430Y287100D02*
X90090D01*
X90170Y287020D01*
X81350D02*
X81430Y287100D01*
X157480Y297180D02*
X162560Y292100D01*
X140716Y297180D02*
X157480D01*
X69850Y481838D02*
X80899Y470789D01*
X69850Y481838D02*
Y532130D01*
X258356Y681266D02*
X260511D01*
X240030Y662940D02*
X258356Y681266D01*
X240030Y609776D02*
Y662940D01*
X260728Y677202D02*
X281847D01*
X246556Y613234D02*
Y663030D01*
X260511Y681266D02*
X272824Y693579D01*
X246556Y663030D02*
X260728Y677202D01*
X281847D02*
X299335Y694690D01*
X246556Y613234D02*
X249315Y610475D01*
X69850Y532130D02*
X118110Y580390D01*
X66670Y398780D02*
X77470D01*
X85090Y435610D02*
Y437082D01*
X89916Y441908D02*
X95198D01*
X99060Y445770D01*
X85090Y437082D02*
X89916Y441908D01*
X108890Y341960D02*
X130810Y320040D01*
X180877Y315693D02*
X201868Y294701D01*
X191710Y320040D02*
X201997Y309753D01*
X130810Y320040D02*
X191710D01*
X179193Y311629D02*
X190246Y300577D01*
X96440Y302180D02*
X105889Y311629D01*
X179193D01*
X96520Y315693D02*
X180877D01*
X83688Y315528D02*
X86136Y315693D01*
X83284Y315123D02*
X83688Y315528D01*
X86136Y315693D02*
X96520D01*
X75340Y307180D02*
X83284Y315123D01*
X96520Y368300D02*
X96966Y368746D01*
X96520Y367037D02*
Y368300D01*
X96520Y315693D02*
X96520Y317849D01*
X96646Y325006D01*
X96966Y368746D02*
X104140Y375920D01*
X96520Y367037D02*
X96647Y325140D01*
X260858Y635000D02*
X283210D01*
X110998Y650360D02*
X124580Y636778D01*
X182372D02*
X192912Y626238D01*
X124580Y636778D02*
X182372D01*
X195024Y622300D02*
X201422D01*
X192912Y624412D02*
Y626238D01*
Y624412D02*
X195024Y622300D01*
X130810Y652780D02*
X130961D01*
X135128Y656947D01*
X110998Y650360D02*
Y737993D01*
X138743Y381923D02*
X158140Y401320D01*
X138389Y381923D02*
X138743D01*
X158140Y401320D02*
X162890D01*
X152713Y383193D02*
X158140Y388620D01*
X162890D01*
X150783Y383193D02*
X152713D01*
X149860Y382270D02*
X150783Y383193D01*
X108890Y388620D02*
X111017Y386493D01*
X117697D02*
X119942Y384248D01*
Y352498D02*
Y384248D01*
X96028Y388620D02*
X108890D01*
X111017Y386493D02*
X117697D01*
X108890Y341960D02*
Y363220D01*
X190246Y285888D02*
Y300577D01*
X201868Y290882D02*
Y294701D01*
X104140Y375920D02*
X108890D01*
X90821Y383413D02*
X96028Y388620D01*
X80063Y383413D02*
X90821D01*
X76028Y387448D02*
X80063Y383413D01*
X66650Y370800D02*
X76200Y361250D01*
Y360680D02*
Y361250D01*
X66650Y370800D02*
Y375900D01*
X75340Y302180D02*
X96440D01*
X201997Y307544D02*
Y309753D01*
X204130Y305410D02*
X260754D01*
X201997Y307544D02*
X204130Y305410D01*
Y286410D02*
X206340D01*
X201997Y288544D02*
X204130Y286410D01*
X201868Y290882D02*
X201997Y290753D01*
Y288544D02*
Y290753D01*
X47650Y398800D02*
X49838Y396612D01*
Y390874D02*
Y396612D01*
Y390874D02*
X53264Y387448D01*
X76028D01*
X260754Y305410D02*
X288006Y278158D01*
X307300Y537170D02*
X319445D01*
X260858Y584200D02*
X298340D01*
X317602Y564938D01*
Y547472D02*
Y564938D01*
X305300Y537170D02*
X307300D01*
X317602Y547472D01*
X319445Y537170D02*
X329311Y527304D01*
X332740D01*
X304546Y505460D02*
Y536416D01*
X305300Y537170D01*
X266598Y525612D02*
X274574Y517636D01*
X266598Y525612D02*
Y546268D01*
X276900Y556570D01*
X278900D01*
X274574Y505460D02*
Y517636D01*
X332740Y557276D02*
Y572770D01*
X303300Y556570D02*
X305300D01*
X253619Y559816D02*
X275654D01*
X250190D02*
X253619D01*
X275654D02*
X278900Y556570D01*
X258445Y564642D02*
Y569388D01*
X253619Y559816D02*
X258445Y564642D01*
X260557Y571500D02*
X260858D01*
X258445Y569388D02*
X260557Y571500D01*
X278563Y523330D02*
X278563Y522699D01*
X278563Y523331D02*
X278563Y523444D01*
X279400Y521970D02*
Y536670D01*
X278900Y537170D02*
X279400Y536670D01*
X321056Y620014D02*
X325120Y615950D01*
X133735Y760730D02*
X233680D01*
X110998Y737993D02*
X133735Y760730D01*
X237490Y239551D02*
Y248920D01*
X220853Y222914D02*
X228784Y230845D01*
X228784D02*
X237490Y239551D01*
X229362Y257048D02*
X237490Y248920D01*
X228784Y230845D02*
X228784D01*
X220853Y220964D02*
Y222914D01*
X33823Y281137D02*
X39370Y275590D01*
X23663Y281137D02*
X33823D01*
X20688Y284112D02*
X23663Y281137D01*
X17780Y275590D02*
Y276896D01*
X16624Y278052D02*
X17780Y276896D01*
X16624Y278052D02*
Y301731D01*
X80992Y287378D02*
X81350Y287020D01*
X65875Y287378D02*
X80992D01*
X57150Y296103D02*
Y375900D01*
X249315Y610475D02*
X259983D01*
X240030Y609776D02*
X252906Y596900D01*
X259983Y610475D02*
X260858Y609600D01*
X325120Y615950D02*
X335280D01*
X190246Y285888D02*
X219086Y257048D01*
X229362D01*
X206340Y276260D02*
Y286410D01*
Y276260D02*
X220980Y261620D01*
X26670Y375920D02*
X47630D01*
X66650Y398800D02*
X66670Y398780D01*
X158403Y690981D02*
Y695278D01*
X164007Y700882D02*
X167677D01*
X157480Y690058D02*
X158403Y690981D01*
Y695278D02*
X164007Y700882D01*
X260858Y622300D02*
X268810D01*
X273890Y617220D02*
X291084D01*
X268810Y622300D02*
X273890Y617220D01*
X321056D02*
Y620014D01*
X277915Y669290D02*
X278130D01*
X260858Y660400D02*
X269025D01*
X277915Y669290D01*
X260858Y647700D02*
X283210D01*
X304539Y694690D02*
X331470D01*
X299335D02*
X304539D01*
X282099Y693579D02*
X283210Y694690D01*
X272824Y693579D02*
X282099D01*
X252906Y596900D02*
X260858D01*
X266041Y711740D02*
X276592D01*
X282041Y717188D02*
X304539Y694690D01*
X256739Y721041D02*
X266041Y711740D01*
X206621Y681347D02*
X209804Y684530D01*
X193040Y681347D02*
X206621D01*
X135128Y656947D02*
Y658495D01*
X139954Y663321D01*
Y666750D01*
X288006Y278158D02*
X318247D01*
X31420Y287100D02*
X48180D01*
X31340Y287180D02*
X31420Y287100D01*
X48180D02*
X48260Y287020D01*
X31340Y297180D02*
X48260D01*
X318247Y278158D02*
X329649Y289560D01*
X351790D01*
X22073Y307180D02*
X31340D01*
X16624Y301731D02*
X22073Y307180D01*
X20688Y284112D02*
Y300048D01*
X99695Y205740D02*
X109601Y195834D01*
X113030D01*
X99060Y205740D02*
X99695D01*
X99060Y215900D02*
X99695D01*
X109601Y225806D01*
X140970Y130913D02*
X144780Y127103D01*
Y127000D02*
Y127103D01*
X140970Y130913D02*
Y148844D01*
X20688Y300048D02*
X22622Y301982D01*
X31142D01*
X31340Y302180D01*
X109601Y225806D02*
X113030D01*
X117348Y230124D02*
X123571D01*
X113030Y225806D02*
X117348Y230124D01*
X238760Y261620D02*
X248666Y251714D01*
X220980Y261620D02*
X238760D01*
X293116Y251714D02*
X294640Y250190D01*
X248666Y251714D02*
X293116D01*
X294640Y250190D02*
X330200Y214630D01*
Y130810D02*
Y214630D01*
X149479Y249174D02*
X166243Y232410D01*
X146050Y249174D02*
X149479D01*
X166243Y230124D02*
Y232410D01*
X142621Y249174D02*
X146050D01*
X166243Y230124D02*
X170561Y225806D01*
X173990D01*
X208153Y171141D02*
Y232918D01*
X64688Y294312D02*
Y373938D01*
X66650Y375900D01*
X57150Y296103D02*
X65875Y287378D01*
X64688Y294312D02*
X66622Y292378D01*
X75142D01*
X75340Y292180D01*
X220980Y212344D02*
Y220837D01*
X220853Y220964D02*
X220980Y220837D01*
X173990Y195834D02*
X177419D01*
X181737Y191516D01*
Y183189D02*
Y191516D01*
Y183189D02*
X259516Y105410D01*
X354440D01*
X372740Y123710D01*
Y236860D01*
X359410Y250190D02*
X372740Y236860D01*
X186817Y185293D02*
X261620Y110490D01*
X352335D02*
X367660Y125815D01*
X186817Y185293D02*
Y203000D01*
X367660Y125815D02*
Y169329D01*
X261620Y110490D02*
X352335D01*
X263724Y115570D02*
X340360D01*
X359410Y177579D02*
Y224790D01*
Y177579D02*
X367660Y169329D01*
X173990Y215827D02*
X186817Y203000D01*
X173990Y215827D02*
Y225806D01*
X340360Y115570D02*
X355600Y130810D01*
X208153Y171141D02*
X263724Y115570D01*
X129159Y183134D02*
X136652D01*
X140970Y178816D01*
X113030Y195834D02*
X116459D01*
X129159Y183134D01*
X148717D02*
Y183388D01*
X144399Y178816D02*
X148717Y183134D01*
X161163Y195834D02*
X173990D01*
X148717Y183388D02*
X161163Y195834D01*
X140970Y178816D02*
X144399D01*
X123571Y230124D02*
X142621Y249174D01*
X47630Y375920D02*
X47650Y375900D01*
X217551Y242316D02*
X220980D01*
X208153Y232918D02*
X217551Y242316D01*
X220980Y212344D02*
X224409D01*
X228727Y207010D02*
Y208026D01*
Y207010D02*
X239141Y196596D01*
X224409Y212344D02*
X228727Y208026D01*
X239141Y166624D02*
X242570D01*
X226695Y179070D02*
X239141Y166624D01*
X217170Y179070D02*
X226695D01*
X239141Y196596D02*
X242570D01*
X246888Y200914D02*
X250571D01*
X242570Y196596D02*
X246888Y200914D01*
X250571D02*
X260731Y211074D01*
X167677Y700882D02*
X170375Y703580D01*
X174613Y715818D02*
Y737505D01*
X186634Y749526D01*
X261445D01*
X188317Y745462D02*
X236355D01*
X282041Y717188D02*
Y728931D01*
X276592Y711740D02*
X282041Y717188D01*
X171875Y713080D02*
X174613Y715818D01*
X170375Y713080D02*
X171875D01*
X261445Y749526D02*
X282041Y728931D01*
X236355Y745462D02*
X248738Y733079D01*
X173073Y696778D02*
X176743D01*
X181638Y701673D01*
Y738783D01*
X188317Y745462D01*
X170375Y694080D02*
X173073Y696778D01*
D20*
X152654Y342900D02*
D03*
X182626D02*
D03*
X139954Y666750D02*
D03*
X169926D02*
D03*
X85090Y435610D02*
D03*
X55118D02*
D03*
X140716Y297180D02*
D03*
X110744D02*
D03*
X273304Y502920D02*
D03*
X303276D02*
D03*
X291084Y617220D02*
D03*
X321056D02*
D03*
X209804Y684530D02*
D03*
X239776D02*
D03*
D22*
X250190Y554736D02*
D03*
Y524764D02*
D03*
X140970Y178816D02*
D03*
Y148844D02*
D03*
X113030Y195834D02*
D03*
Y225806D02*
D03*
X173990Y195834D02*
D03*
Y225806D02*
D03*
X146050Y249174D02*
D03*
Y279146D02*
D03*
X242570Y166624D02*
D03*
Y196596D02*
D03*
X220980Y212344D02*
D03*
Y242316D02*
D03*
X264160Y241046D02*
D03*
Y211074D02*
D03*
X332740Y554736D02*
D03*
Y524764D02*
D03*
D53*
X110744Y297180D02*
X121920D01*
X145418Y363220D02*
X149606Y359032D01*
Y345948D02*
X152654Y342900D01*
X149606Y345948D02*
Y359032D01*
X175464Y279146D02*
X179740Y283422D01*
Y295910D01*
X146050Y279146D02*
X175464D01*
X143002Y276098D02*
X146050Y279146D01*
X56740Y414020D02*
Y433988D01*
X57150Y398800D02*
Y414020D01*
X127000Y642620D02*
X145796D01*
X169926Y663448D02*
Y666750D01*
X166878Y660273D02*
X169989Y663384D01*
X169926Y663448D02*
X169989Y663384D01*
X116840Y652780D02*
X127000Y642620D01*
X145796D02*
X163449Y660273D01*
X171196Y666750D02*
Y668020D01*
X163449Y660273D02*
X166878D01*
X129540Y379098D02*
X145418Y363220D01*
X123825Y422275D02*
X129540Y416560D01*
Y379098D02*
Y416560D01*
X98425Y422275D02*
X123825D01*
X145418Y363220D02*
X162890D01*
X90170Y414020D02*
X98425Y422275D01*
X57150Y414020D02*
X90170D01*
X116840Y652780D02*
Y700124D01*
X123190Y706474D01*
Y708660D01*
X90043Y159903D02*
Y228209D01*
X137932Y276098D01*
X143002D01*
X90043Y159903D02*
X131201Y118745D01*
X10160Y242570D02*
X24130Y228600D01*
X10160Y242570D02*
X25400D01*
X8890Y243840D02*
X10160Y242570D01*
X110744Y268224D02*
Y297180D01*
X24130Y228600D02*
X71120D01*
X8890Y243840D02*
Y385953D01*
X71120Y228600D02*
X110744Y268224D01*
X21590Y472567D02*
Y494030D01*
X169989Y663384D02*
X172974Y660400D01*
X201422D01*
X202057Y698627D02*
X229108D01*
X193032Y689602D02*
X202057Y698627D01*
X181581Y689602D02*
X193032D01*
X238316Y689419D02*
X239776Y687959D01*
X229108Y698627D02*
X238316Y689419D01*
X173782Y681803D02*
X181581Y689602D01*
X143343Y681803D02*
X173782D01*
X136670Y688476D02*
X143343Y681803D01*
X136670Y699684D02*
X139646Y702660D01*
X145830D01*
X136670Y688476D02*
Y699684D01*
X239776Y684530D02*
Y687959D01*
X145830Y702660D02*
X146750Y703580D01*
X239623Y690727D02*
Y719924D01*
X21590Y472567D02*
X55118Y439039D01*
Y435610D02*
Y439039D01*
X8890Y385953D02*
X55118Y432181D01*
X164465Y118745D02*
X195580Y87630D01*
X131201Y118745D02*
X164465D01*
X55118Y432181D02*
Y435610D01*
X56740Y433988D01*
X239623Y719924D02*
X240740Y721041D01*
D54*
X360680Y488950D02*
D03*
Y463550D02*
D03*
X294640Y317500D02*
D03*
Y292100D02*
D03*
X359410Y314960D02*
D03*
Y289560D02*
D03*
X294640Y250190D02*
D03*
Y224790D02*
D03*
X359410Y250190D02*
D03*
Y224790D02*
D03*
X193040Y734060D02*
D03*
Y708660D02*
D03*
X123190Y734060D02*
D03*
Y708660D02*
D03*
X356870Y694690D02*
D03*
X331470D02*
D03*
X257810D02*
D03*
X283210D02*
D03*
X227330Y19050D02*
D03*
X201930D02*
D03*
X22860Y605790D02*
D03*
Y580390D02*
D03*
D55*
X314960Y652260D02*
D03*
Y587260D02*
D03*
D56*
X219340Y777559D02*
D03*
Y730059D02*
D03*
X293740D02*
D03*
Y777559D02*
D03*
D57*
X272739Y721041D02*
D03*
X256739D02*
D03*
X264738Y733079D02*
D03*
X248738D02*
D03*
X240740Y721041D02*
D03*
D58*
X304800Y130810D02*
D03*
X330200D02*
D03*
X355600D02*
D03*
X220980Y87630D02*
D03*
X195580D02*
D03*
X170180D02*
D03*
X133350Y793750D02*
D03*
X158750D02*
D03*
X184150D02*
D03*
D59*
X335280Y28220D02*
D03*
Y63220D02*
D03*
D60*
X115010Y13190D02*
D03*
D61*
X80010Y59690D02*
D03*
X140010D02*
D03*
D62*
X15730Y705410D02*
D03*
D63*
X62230Y740410D02*
D03*
Y680410D02*
D03*
D64*
X118110Y605790D02*
D03*
Y580390D02*
D03*
X92710Y605790D02*
D03*
Y580390D02*
D03*
X67310Y605790D02*
D03*
Y580390D02*
D03*
D65*
X224790Y532130D02*
D03*
D66*
X199390D02*
D03*
X173990D02*
D03*
X148590D02*
D03*
D67*
X296164Y571500D02*
D03*
X105608Y501452D02*
D03*
X173990Y514350D02*
D03*
X180340Y595630D02*
D03*
X170014Y493699D02*
D03*
X173990Y501650D02*
D03*
X121920Y297180D02*
D03*
X184150Y365760D02*
D03*
X234104Y343324D02*
D03*
X281940Y308610D02*
D03*
X287020Y49530D02*
D03*
X328930Y444500D02*
D03*
X101600Y411480D02*
D03*
X248920Y506730D02*
D03*
X100330Y284480D02*
D03*
X90170Y287020D02*
D03*
X245110Y760730D02*
D03*
X53340Y471170D02*
D03*
X60960Y500380D02*
D03*
X104140Y468630D02*
D03*
X162560Y292100D02*
D03*
X82550Y453390D02*
D03*
X95250Y461010D02*
D03*
X95377Y478790D02*
D03*
X80010Y485013D02*
D03*
X80899Y470789D02*
D03*
X82550Y368300D02*
D03*
X77470Y398780D02*
D03*
X99060Y445770D02*
D03*
X265961Y372880D02*
D03*
X296164Y635000D02*
D03*
X283210D02*
D03*
X130810Y652780D02*
D03*
X139700Y414020D02*
D03*
X138389Y381923D02*
D03*
X76200Y360680D02*
D03*
X195580Y349250D02*
D03*
X149860Y382270D02*
D03*
X243840Y290830D02*
D03*
X279400Y521970D02*
D03*
X337820Y781050D02*
D03*
X318770Y741680D02*
D03*
X214630Y807720D02*
D03*
X233680Y760730D02*
D03*
X67310Y255270D02*
D03*
X153670Y217170D02*
D03*
X241300Y219710D02*
D03*
X195580Y251460D02*
D03*
X25400Y252730D02*
D03*
X29210Y274320D02*
D03*
X39370Y275590D02*
D03*
X25400Y242570D02*
D03*
X17780Y275590D02*
D03*
X335280Y615950D02*
D03*
X332740Y572770D02*
D03*
X26670Y375920D02*
D03*
X100330Y436880D02*
D03*
X21590Y494030D02*
D03*
X31750D02*
D03*
X157480Y690058D02*
D03*
X295910Y648970D02*
D03*
X278130Y669290D02*
D03*
X283210Y647700D02*
D03*
X193040Y681347D02*
D03*
X48260Y287020D02*
D03*
Y297180D02*
D03*
X107950Y210820D02*
D03*
X99060Y205740D02*
D03*
Y215900D02*
D03*
X144780Y127000D02*
D03*
X113030Y148590D02*
D03*
X217170Y179070D02*
D03*
X180340Y148590D02*
D03*
X248920Y147320D02*
D03*
X44450Y146050D02*
D03*
X320040Y384810D02*
D03*
Y327660D02*
D03*
X87630Y389890D02*
D03*
X232410Y570230D02*
D03*
X68580Y626110D02*
D03*
D68*
X108890Y363220D02*
D03*
Y375920D02*
D03*
Y388620D02*
D03*
Y401320D02*
D03*
X162890Y363220D02*
D03*
Y375920D02*
D03*
Y388620D02*
D03*
Y401320D02*
D03*
D69*
X206340Y286410D02*
D03*
X179740Y295910D02*
D03*
X206340Y305410D02*
D03*
D70*
X201422Y660400D02*
D03*
Y647700D02*
D03*
Y635000D02*
D03*
Y622300D02*
D03*
Y609600D02*
D03*
Y596900D02*
D03*
Y584200D02*
D03*
Y571500D02*
D03*
X260858D02*
D03*
Y584200D02*
D03*
Y596900D02*
D03*
Y609600D02*
D03*
Y622300D02*
D03*
Y635000D02*
D03*
Y647700D02*
D03*
Y660400D02*
D03*
D71*
X47650Y375900D02*
D03*
X57150D02*
D03*
X66650D02*
D03*
Y398800D02*
D03*
X57150D02*
D03*
X47650D02*
D03*
D72*
X31340Y287180D02*
D03*
D73*
Y292180D02*
D03*
Y297180D02*
D03*
Y302180D02*
D03*
Y307180D02*
D03*
X75340D02*
D03*
Y302180D02*
D03*
Y297180D02*
D03*
Y292180D02*
D03*
Y287180D02*
D03*
D74*
X146750Y713080D02*
D03*
Y703580D02*
D03*
Y694080D02*
D03*
X170375D02*
D03*
Y703580D02*
D03*
Y713080D02*
D03*
D75*
X278900Y537170D02*
D03*
X305300Y556570D02*
D03*
X278900D02*
D03*
X305300Y537170D02*
D03*
M02*
