G04*
G04 #@! TF.GenerationSoftware,Altium Limited,Altium Designer,24.3.1 (35)*
G04*
G04 Layer_Color=16711935*
%FSLAX44Y44*%
%MOMM*%
G71*
G04*
G04 #@! TF.SameCoordinates,270278F2-5DE0-4317-936F-1FC35F10D9A2*
G04*
G04*
G04 #@! TF.FilePolarity,Negative*
G04*
G01*
G75*
%ADD28C,0.0000*%
%ADD32R,1.3208X2.0066*%
%ADD34R,2.0066X1.3208*%
%ADD39C,1.8232*%
%ADD40C,1.8032*%
%ADD41O,1.4032X2.6032*%
%ADD42C,1.4032*%
%ADD43C,1.8532*%
%ADD44C,2.2032*%
%ADD45O,3.5032X2.0032*%
%ADD46O,2.2032X4.0032*%
%ADD47O,2.0032X3.5032*%
%ADD48O,4.0032X2.2032*%
%ADD49C,1.9812*%
%ADD50R,1.7272X1.7272*%
%ADD51C,1.7272*%
%ADD52C,0.8382*%
%ADD76R,1.7532X0.8032*%
G04:AMPARAMS|DCode=77|XSize=1.5532mm|YSize=0.7932mm|CornerRadius=0.2491mm|HoleSize=0mm|Usage=FLASHONLY|Rotation=180.000|XOffset=0mm|YOffset=0mm|HoleType=Round|Shape=RoundedRectangle|*
%AMROUNDEDRECTD77*
21,1,1.5532,0.2950,0,0,180.0*
21,1,1.0550,0.7932,0,0,180.0*
1,1,0.4982,-0.5275,0.1475*
1,1,0.4982,0.5275,0.1475*
1,1,0.4982,0.5275,-0.1475*
1,1,0.4982,-0.5275,-0.1475*
%
%ADD77ROUNDEDRECTD77*%
%ADD78O,2.4032X0.8128*%
G04:AMPARAMS|DCode=79|XSize=1.8132mm|YSize=0.7932mm|CornerRadius=0.1754mm|HoleSize=0mm|Usage=FLASHONLY|Rotation=90.000|XOffset=0mm|YOffset=0mm|HoleType=Round|Shape=RoundedRectangle|*
%AMROUNDEDRECTD79*
21,1,1.8132,0.4425,0,0,90.0*
21,1,1.4625,0.7932,0,0,90.0*
1,1,0.3507,0.2213,0.7313*
1,1,0.3507,0.2213,-0.7313*
1,1,0.3507,-0.2213,-0.7313*
1,1,0.3507,-0.2213,0.7313*
%
%ADD79ROUNDEDRECTD79*%
%ADD80R,1.5008X0.3508*%
%ADD81R,1.5208X0.3508*%
%ADD82R,1.0508X0.7508*%
%ADD83R,2.0032X1.6032*%
D28*
X369291Y488950D02*
G03*
X369291Y488950I-8611J0D01*
G01*
Y463550D02*
G03*
X369291Y463550I-8611J0D01*
G01*
X303251Y317500D02*
G03*
X303251Y317500I-8611J0D01*
G01*
Y292100D02*
G03*
X303251Y292100I-8611J0D01*
G01*
X368021Y314960D02*
G03*
X368021Y314960I-8611J0D01*
G01*
Y289560D02*
G03*
X368021Y289560I-8611J0D01*
G01*
X303251Y250190D02*
G03*
X303251Y250190I-8611J0D01*
G01*
Y224790D02*
G03*
X303251Y224790I-8611J0D01*
G01*
X368021Y250190D02*
G03*
X368021Y250190I-8611J0D01*
G01*
Y224790D02*
G03*
X368021Y224790I-8611J0D01*
G01*
X201651Y734060D02*
G03*
X201651Y734060I-8611J0D01*
G01*
Y708660D02*
G03*
X201651Y708660I-8611J0D01*
G01*
X131801Y734060D02*
G03*
X131801Y734060I-8611J0D01*
G01*
Y708660D02*
G03*
X131801Y708660I-8611J0D01*
G01*
X365481Y694690D02*
G03*
X365481Y694690I-8611J0D01*
G01*
X340081D02*
G03*
X340081Y694690I-8611J0D01*
G01*
X266421D02*
G03*
X266421Y694690I-8611J0D01*
G01*
X291821D02*
G03*
X291821Y694690I-8611J0D01*
G01*
X235941Y19050D02*
G03*
X235941Y19050I-8611J0D01*
G01*
X210541D02*
G03*
X210541Y19050I-8611J0D01*
G01*
X31471Y605790D02*
G03*
X31471Y605790I-8611J0D01*
G01*
Y580390D02*
G03*
X31471Y580390I-8611J0D01*
G01*
D32*
X152654Y342900D02*
D03*
X182626D02*
D03*
X139954Y666750D02*
D03*
X169926D02*
D03*
X85090Y435610D02*
D03*
X55118D02*
D03*
X140716Y297180D02*
D03*
X110744D02*
D03*
X273304Y502920D02*
D03*
X303276D02*
D03*
X291084Y617220D02*
D03*
X321056D02*
D03*
X209804Y684530D02*
D03*
X239776D02*
D03*
D34*
X250190Y554736D02*
D03*
Y524764D02*
D03*
X140970Y178816D02*
D03*
Y148844D02*
D03*
X113030Y195834D02*
D03*
Y225806D02*
D03*
X173990Y195834D02*
D03*
Y225806D02*
D03*
X146050Y249174D02*
D03*
Y279146D02*
D03*
X242570Y166624D02*
D03*
Y196596D02*
D03*
X220980Y212344D02*
D03*
Y242316D02*
D03*
X264160Y241046D02*
D03*
Y211074D02*
D03*
X332740Y554736D02*
D03*
Y524764D02*
D03*
D39*
X360680Y488950D02*
D03*
Y463550D02*
D03*
X294640Y317500D02*
D03*
Y292100D02*
D03*
X359410Y314960D02*
D03*
Y289560D02*
D03*
X294640Y250190D02*
D03*
Y224790D02*
D03*
X359410Y250190D02*
D03*
Y224790D02*
D03*
X193040Y734060D02*
D03*
Y708660D02*
D03*
X123190Y734060D02*
D03*
Y708660D02*
D03*
X356870Y694690D02*
D03*
X331470D02*
D03*
X257810D02*
D03*
X283210D02*
D03*
X227330Y19050D02*
D03*
X201930D02*
D03*
X22860Y605790D02*
D03*
Y580390D02*
D03*
D40*
X314960Y652260D02*
D03*
Y587260D02*
D03*
D41*
X219340Y777559D02*
D03*
Y730059D02*
D03*
X293740D02*
D03*
Y777559D02*
D03*
D42*
X272739Y721041D02*
D03*
X256739D02*
D03*
X264738Y733079D02*
D03*
X248738D02*
D03*
X240740Y721041D02*
D03*
D43*
X304800Y130810D02*
D03*
X330200D02*
D03*
X355600D02*
D03*
X220980Y87630D02*
D03*
X195580D02*
D03*
X170180D02*
D03*
X133350Y793750D02*
D03*
X158750D02*
D03*
X184150D02*
D03*
D44*
X335280Y28220D02*
D03*
Y63220D02*
D03*
D45*
X115010Y13190D02*
D03*
D46*
X80010Y59690D02*
D03*
X140010D02*
D03*
D47*
X15730Y705410D02*
D03*
D48*
X62230Y740410D02*
D03*
Y680410D02*
D03*
D49*
X118110Y605790D02*
D03*
Y580390D02*
D03*
X92710Y605790D02*
D03*
Y580390D02*
D03*
X67310Y605790D02*
D03*
Y580390D02*
D03*
D50*
X224790Y532130D02*
D03*
D51*
X199390D02*
D03*
X173990D02*
D03*
X148590D02*
D03*
D52*
X296164Y571500D02*
D03*
X105608Y501452D02*
D03*
X173990Y514350D02*
D03*
X180340Y595630D02*
D03*
X170014Y493699D02*
D03*
X173990Y501650D02*
D03*
X121920Y297180D02*
D03*
X184150Y365760D02*
D03*
X234104Y343324D02*
D03*
X281940Y308610D02*
D03*
X287020Y49530D02*
D03*
X328930Y444500D02*
D03*
X101600Y411480D02*
D03*
X248920Y506730D02*
D03*
X100330Y284480D02*
D03*
X90170Y287020D02*
D03*
X245110Y760730D02*
D03*
X53340Y471170D02*
D03*
X60960Y500380D02*
D03*
X104140Y468630D02*
D03*
X162560Y292100D02*
D03*
X82550Y453390D02*
D03*
X95250Y461010D02*
D03*
X95377Y478790D02*
D03*
X80010Y485013D02*
D03*
X80899Y470789D02*
D03*
X82550Y368300D02*
D03*
X77470Y398780D02*
D03*
X99060Y445770D02*
D03*
X265961Y372880D02*
D03*
X296164Y635000D02*
D03*
X283210D02*
D03*
X130810Y652780D02*
D03*
X139700Y414020D02*
D03*
X138389Y381923D02*
D03*
X76200Y360680D02*
D03*
X195580Y349250D02*
D03*
X149860Y382270D02*
D03*
X243840Y290830D02*
D03*
X279400Y521970D02*
D03*
X337820Y781050D02*
D03*
X318770Y741680D02*
D03*
X214630Y807720D02*
D03*
X233680Y760730D02*
D03*
X67310Y255270D02*
D03*
X153670Y217170D02*
D03*
X241300Y219710D02*
D03*
X195580Y251460D02*
D03*
X25400Y252730D02*
D03*
X29210Y274320D02*
D03*
X39370Y275590D02*
D03*
X25400Y242570D02*
D03*
X17780Y275590D02*
D03*
X335280Y615950D02*
D03*
X332740Y572770D02*
D03*
X26670Y375920D02*
D03*
X100330Y436880D02*
D03*
X21590Y494030D02*
D03*
X31750D02*
D03*
X157480Y690058D02*
D03*
X295910Y648970D02*
D03*
X278130Y669290D02*
D03*
X283210Y647700D02*
D03*
X193040Y681347D02*
D03*
X48260Y287020D02*
D03*
Y297180D02*
D03*
X107950Y210820D02*
D03*
X99060Y205740D02*
D03*
Y215900D02*
D03*
X144780Y127000D02*
D03*
X113030Y148590D02*
D03*
X217170Y179070D02*
D03*
X180340Y148590D02*
D03*
X248920Y147320D02*
D03*
X44450Y146050D02*
D03*
X320040Y384810D02*
D03*
Y327660D02*
D03*
X87630Y389890D02*
D03*
X232410Y570230D02*
D03*
X68580Y626110D02*
D03*
D76*
X108890Y363220D02*
D03*
Y375920D02*
D03*
Y388620D02*
D03*
Y401320D02*
D03*
X162890Y363220D02*
D03*
Y375920D02*
D03*
Y388620D02*
D03*
Y401320D02*
D03*
D77*
X206340Y286410D02*
D03*
X179740Y295910D02*
D03*
X206340Y305410D02*
D03*
D78*
X201422Y660400D02*
D03*
Y647700D02*
D03*
Y635000D02*
D03*
Y622300D02*
D03*
Y609600D02*
D03*
Y596900D02*
D03*
Y584200D02*
D03*
Y571500D02*
D03*
X260858D02*
D03*
Y584200D02*
D03*
Y596900D02*
D03*
Y609600D02*
D03*
Y622300D02*
D03*
Y635000D02*
D03*
Y647700D02*
D03*
Y660400D02*
D03*
D79*
X47650Y375900D02*
D03*
X57150D02*
D03*
X66650D02*
D03*
Y398800D02*
D03*
X57150D02*
D03*
X47650D02*
D03*
D80*
X31340Y287180D02*
D03*
D81*
Y292180D02*
D03*
Y297180D02*
D03*
Y302180D02*
D03*
Y307180D02*
D03*
X75340D02*
D03*
Y302180D02*
D03*
Y297180D02*
D03*
Y292180D02*
D03*
Y287180D02*
D03*
D82*
X146750Y713080D02*
D03*
Y703580D02*
D03*
Y694080D02*
D03*
X170375D02*
D03*
Y703580D02*
D03*
Y713080D02*
D03*
D83*
X278900Y537170D02*
D03*
X305300Y556570D02*
D03*
X278900D02*
D03*
X305300Y537170D02*
D03*
M02*
