G04*
G04 #@! TF.GenerationSoftware,Altium Limited,Altium Designer,24.1.2 (44)*
G04*
G04 Layer_Color=8388736*
%FSLAX44Y44*%
%MOMM*%
G71*
G04*
G04 #@! TF.SameCoordinates,18497732-E450-413E-AE6D-1912215BE0D1*
G04*
G04*
G04 #@! TF.FilePolarity,Negative*
G04*
G01*
G75*
%ADD22C,0.0000*%
%ADD23R,1.3208X2.0066*%
%ADD24R,2.0066X1.3208*%
%ADD25R,0.8032X3.6032*%
%ADD26O,3.5032X2.0032*%
%ADD27O,2.2032X4.0032*%
%ADD28C,1.8232*%
%ADD29C,1.9812*%
%ADD30C,0.8382*%
D22*
X247371Y320040D02*
G03*
X247371Y320040I-8611J0D01*
G01*
Y345440D02*
G03*
X247371Y345440I-8611J0D01*
G01*
X425171Y170180D02*
G03*
X425171Y170180I-8611J0D01*
G01*
Y195580D02*
G03*
X425171Y195580I-8611J0D01*
G01*
D23*
X416306Y458800D02*
D03*
X386334D02*
D03*
X172466Y200660D02*
D03*
X142494D02*
D03*
X296164Y459740D02*
D03*
X326136D02*
D03*
D24*
X81280Y38354D02*
D03*
Y68326D02*
D03*
Y185420D02*
D03*
Y215392D02*
D03*
X195580Y454406D02*
D03*
Y424434D02*
D03*
X81280Y112014D02*
D03*
Y141986D02*
D03*
X797560Y89789D02*
D03*
Y119761D02*
D03*
X708973Y89789D02*
D03*
Y119761D02*
D03*
X620387Y89789D02*
D03*
Y119761D02*
D03*
X531800Y89789D02*
D03*
Y119761D02*
D03*
X533400Y192786D02*
D03*
Y162814D02*
D03*
X621987Y192786D02*
D03*
Y162814D02*
D03*
X799160D02*
D03*
Y192786D02*
D03*
X710573Y162814D02*
D03*
Y192786D02*
D03*
D25*
X199390Y100000D02*
D03*
X212090D02*
D03*
X224790D02*
D03*
X237490D02*
D03*
Y154000D02*
D03*
X224790D02*
D03*
X212090D02*
D03*
X199390D02*
D03*
D26*
X117494Y408758D02*
D03*
D27*
X82494Y455258D02*
D03*
X142494D02*
D03*
D28*
X238760Y320040D02*
D03*
Y345440D02*
D03*
X416560Y170180D02*
D03*
Y195580D02*
D03*
D29*
X320040Y58420D02*
D03*
Y33020D02*
D03*
Y109220D02*
D03*
Y83820D02*
D03*
X53340Y330200D02*
D03*
X27940D02*
D03*
X104140D02*
D03*
X78740D02*
D03*
X579120Y58420D02*
D03*
Y33020D02*
D03*
Y109220D02*
D03*
Y83820D02*
D03*
X670560Y58420D02*
D03*
Y33020D02*
D03*
Y109220D02*
D03*
Y83820D02*
D03*
X756920Y58420D02*
D03*
Y33020D02*
D03*
Y109220D02*
D03*
Y83820D02*
D03*
X843280Y58420D02*
D03*
Y33020D02*
D03*
Y109220D02*
D03*
Y83820D02*
D03*
D30*
X195580Y403860D02*
D03*
X81280Y15240D02*
D03*
X121920Y198120D02*
D03*
X444794Y458800D02*
D03*
X200660Y71120D02*
D03*
X797560Y60960D02*
D03*
X708660D02*
D03*
X619760D02*
D03*
X532130Y59690D02*
D03*
M02*
