G04*
G04 #@! TF.GenerationSoftware,Altium Limited,Altium Designer,24.1.2 (44)*
G04*
G04 Layer_Physical_Order=2*
G04 Layer_Color=16711680*
%FSLAX44Y44*%
%MOMM*%
G71*
G04*
G04 #@! TF.SameCoordinates,18497732-E450-413E-AE6D-1912215BE0D1*
G04*
G04*
G04 #@! TF.FilePolarity,Positive*
G04*
G01*
G75*
%ADD31O,3.3000X1.8000*%
%ADD32O,2.0000X3.8000*%
%ADD33C,1.6200*%
%ADD34C,1.7780*%
%ADD35C,0.6350*%
G36*
X883820Y5179D02*
X5179D01*
Y502821D01*
X883820D01*
Y5179D01*
D02*
G37*
%LPC*%
G36*
X446064Y464460D02*
Y460070D01*
X450454D01*
X449639Y462037D01*
X448031Y463645D01*
X446064Y464460D01*
D02*
G37*
G36*
X443524D02*
X441557Y463645D01*
X439949Y462037D01*
X439134Y460070D01*
X443524D01*
Y464460D01*
D02*
G37*
G36*
X83764Y476739D02*
Y456528D01*
X95142D01*
Y464258D01*
X94711Y467532D01*
X93448Y470582D01*
X91438Y473202D01*
X88818Y475212D01*
X85768Y476475D01*
X83764Y476739D01*
D02*
G37*
G36*
X81224D02*
X79220Y476475D01*
X76170Y475212D01*
X73550Y473202D01*
X71540Y470582D01*
X70277Y467532D01*
X69846Y464258D01*
Y456528D01*
X81224D01*
Y476739D01*
D02*
G37*
G36*
X450454Y457530D02*
X446064D01*
Y453140D01*
X448031Y453955D01*
X449639Y455563D01*
X450454Y457530D01*
D02*
G37*
G36*
X443524D02*
X439134D01*
X439949Y455563D01*
X441557Y453955D01*
X443524Y453140D01*
Y457530D01*
D02*
G37*
G36*
X95142Y453988D02*
X83764D01*
Y433777D01*
X85768Y434041D01*
X88818Y435304D01*
X91438Y437314D01*
X93448Y439934D01*
X94711Y442985D01*
X95142Y446258D01*
Y453988D01*
D02*
G37*
G36*
X81224D02*
X69846D01*
Y446258D01*
X70277Y442985D01*
X71540Y439934D01*
X73550Y437314D01*
X76170Y435304D01*
X79220Y434041D01*
X81224Y433777D01*
Y453988D01*
D02*
G37*
G36*
X142494Y476906D02*
X139220Y476475D01*
X136170Y475212D01*
X133550Y473202D01*
X131540Y470582D01*
X130277Y467532D01*
X129846Y464258D01*
Y446258D01*
X130277Y442985D01*
X131540Y439934D01*
X133550Y437314D01*
X136170Y435304D01*
X139220Y434041D01*
X142494Y433610D01*
X145768Y434041D01*
X148818Y435304D01*
X151438Y437314D01*
X153448Y439934D01*
X154711Y442985D01*
X155142Y446258D01*
Y464258D01*
X154711Y467532D01*
X153448Y470582D01*
X151438Y473202D01*
X148818Y475212D01*
X145768Y476475D01*
X142494Y476906D01*
D02*
G37*
G36*
X124994Y420398D02*
X118764D01*
Y410028D01*
X136466D01*
X136237Y411771D01*
X135074Y414578D01*
X133224Y416988D01*
X130814Y418838D01*
X128007Y420001D01*
X124994Y420398D01*
D02*
G37*
G36*
X116224D02*
X109994D01*
X106981Y420001D01*
X104174Y418838D01*
X101764Y416988D01*
X99914Y414578D01*
X98751Y411771D01*
X98522Y410028D01*
X116224D01*
Y420398D01*
D02*
G37*
G36*
X196850Y409520D02*
Y405130D01*
X201240D01*
X200425Y407097D01*
X198817Y408705D01*
X196850Y409520D01*
D02*
G37*
G36*
X194310D02*
X192343Y408705D01*
X190735Y407097D01*
X189920Y405130D01*
X194310D01*
Y409520D01*
D02*
G37*
G36*
X201240Y402590D02*
X196850D01*
Y398200D01*
X198817Y399015D01*
X200425Y400623D01*
X201240Y402590D01*
D02*
G37*
G36*
X194310D02*
X189920D01*
X190735Y400623D01*
X192343Y399015D01*
X194310Y398200D01*
Y402590D01*
D02*
G37*
G36*
X136466Y407488D02*
X118764D01*
Y397119D01*
X124994D01*
X128007Y397515D01*
X130814Y398678D01*
X133224Y400528D01*
X135074Y402938D01*
X136237Y405746D01*
X136466Y407488D01*
D02*
G37*
G36*
X116224D02*
X98522D01*
X98751Y405746D01*
X99914Y402938D01*
X101764Y400528D01*
X104174Y398678D01*
X106981Y397515D01*
X109994Y397119D01*
X116224D01*
Y407488D01*
D02*
G37*
G36*
X240161Y356080D02*
X237359D01*
X234653Y355355D01*
X232227Y353954D01*
X230246Y351973D01*
X228845Y349547D01*
X228120Y346841D01*
Y344039D01*
X228845Y341333D01*
X230246Y338907D01*
X232227Y336926D01*
X234653Y335525D01*
X237359Y334800D01*
X240161D01*
X242867Y335525D01*
X245293Y336926D01*
X247274Y338907D01*
X248675Y341333D01*
X249400Y344039D01*
Y346841D01*
X248675Y349547D01*
X247274Y351973D01*
X245293Y353954D01*
X242867Y355355D01*
X240161Y356080D01*
D02*
G37*
G36*
X29445Y341630D02*
X29210D01*
Y331470D01*
X39370D01*
Y331705D01*
X38591Y334612D01*
X37086Y337218D01*
X34958Y339346D01*
X32352Y340851D01*
X29445Y341630D01*
D02*
G37*
G36*
X54845D02*
X54610D01*
Y331470D01*
X64770D01*
Y331705D01*
X63991Y334612D01*
X62486Y337218D01*
X60358Y339346D01*
X57752Y340851D01*
X54845Y341630D01*
D02*
G37*
G36*
X80245D02*
X80010D01*
Y331470D01*
X90170D01*
Y331705D01*
X89391Y334612D01*
X87886Y337218D01*
X85758Y339346D01*
X83152Y340851D01*
X80245Y341630D01*
D02*
G37*
G36*
X26670D02*
X26435D01*
X23528Y340851D01*
X20922Y339346D01*
X18794Y337218D01*
X17289Y334612D01*
X16510Y331705D01*
Y331470D01*
X26670D01*
Y341630D01*
D02*
G37*
G36*
X52070D02*
X51835D01*
X48928Y340851D01*
X46322Y339346D01*
X44194Y337218D01*
X42689Y334612D01*
X41910Y331705D01*
Y331470D01*
X52070D01*
Y341630D01*
D02*
G37*
G36*
X77470D02*
X77235D01*
X74328Y340851D01*
X71722Y339346D01*
X69594Y337218D01*
X68089Y334612D01*
X67310Y331705D01*
Y331470D01*
X77470D01*
Y341630D01*
D02*
G37*
G36*
X105645D02*
X102635D01*
X99728Y340851D01*
X97122Y339346D01*
X94994Y337218D01*
X93489Y334612D01*
X92710Y331705D01*
Y328695D01*
X93489Y325788D01*
X94994Y323182D01*
X97122Y321054D01*
X99728Y319549D01*
X102635Y318770D01*
X105645D01*
X108552Y319549D01*
X111158Y321054D01*
X113286Y323182D01*
X114791Y325788D01*
X115570Y328695D01*
Y331705D01*
X114791Y334612D01*
X113286Y337218D01*
X111158Y339346D01*
X108552Y340851D01*
X105645Y341630D01*
D02*
G37*
G36*
X90170Y328930D02*
X80010D01*
Y318770D01*
X80245D01*
X83152Y319549D01*
X85758Y321054D01*
X87886Y323182D01*
X89391Y325788D01*
X90170Y328695D01*
Y328930D01*
D02*
G37*
G36*
X77470D02*
X67310D01*
Y328695D01*
X68089Y325788D01*
X69594Y323182D01*
X71722Y321054D01*
X74328Y319549D01*
X77235Y318770D01*
X77470D01*
Y328930D01*
D02*
G37*
G36*
X64770D02*
X54610D01*
Y318770D01*
X54845D01*
X57752Y319549D01*
X60358Y321054D01*
X62486Y323182D01*
X63991Y325788D01*
X64770Y328695D01*
Y328930D01*
D02*
G37*
G36*
X52070D02*
X41910D01*
Y328695D01*
X42689Y325788D01*
X44194Y323182D01*
X46322Y321054D01*
X48928Y319549D01*
X51835Y318770D01*
X52070D01*
Y328930D01*
D02*
G37*
G36*
X39370D02*
X29210D01*
Y318770D01*
X29445D01*
X32352Y319549D01*
X34958Y321054D01*
X37086Y323182D01*
X38591Y325788D01*
X39370Y328695D01*
Y328930D01*
D02*
G37*
G36*
X26670D02*
X16510D01*
Y328695D01*
X17289Y325788D01*
X18794Y323182D01*
X20922Y321054D01*
X23528Y319549D01*
X26435Y318770D01*
X26670D01*
Y328930D01*
D02*
G37*
G36*
X240161Y330680D02*
X237359D01*
X234653Y329955D01*
X232227Y328554D01*
X230246Y326573D01*
X228845Y324147D01*
X228120Y321441D01*
Y318639D01*
X228845Y315933D01*
X230246Y313507D01*
X232227Y311526D01*
X234653Y310125D01*
X237359Y309400D01*
X240161D01*
X242867Y310125D01*
X245293Y311526D01*
X247274Y313507D01*
X248675Y315933D01*
X249400Y318639D01*
Y321441D01*
X248675Y324147D01*
X247274Y326573D01*
X245293Y328554D01*
X242867Y329955D01*
X240161Y330680D01*
D02*
G37*
G36*
X123190Y203780D02*
Y199390D01*
X127580D01*
X126765Y201357D01*
X125157Y202965D01*
X123190Y203780D01*
D02*
G37*
G36*
X120650D02*
X118683Y202965D01*
X117075Y201357D01*
X116260Y199390D01*
X120650D01*
Y203780D01*
D02*
G37*
G36*
X127580Y196850D02*
X123190D01*
Y192460D01*
X125157Y193275D01*
X126765Y194883D01*
X127580Y196850D01*
D02*
G37*
G36*
X120650D02*
X116260D01*
X117075Y194883D01*
X118683Y193275D01*
X120650Y192460D01*
Y196850D01*
D02*
G37*
G36*
X417961Y206220D02*
X415159D01*
X412453Y205495D01*
X410027Y204094D01*
X408046Y202113D01*
X406645Y199687D01*
X405920Y196981D01*
Y194179D01*
X406645Y191473D01*
X408046Y189047D01*
X410027Y187066D01*
X412453Y185665D01*
X415159Y184940D01*
X417961D01*
X420667Y185665D01*
X423093Y187066D01*
X425074Y189047D01*
X426475Y191473D01*
X427200Y194179D01*
Y196981D01*
X426475Y199687D01*
X425074Y202113D01*
X423093Y204094D01*
X420667Y205495D01*
X417961Y206220D01*
D02*
G37*
G36*
Y180820D02*
X415159D01*
X412453Y180095D01*
X410027Y178694D01*
X408046Y176713D01*
X406645Y174287D01*
X405920Y171581D01*
Y168779D01*
X406645Y166073D01*
X408046Y163647D01*
X410027Y161666D01*
X412453Y160265D01*
X415159Y159540D01*
X417961D01*
X420667Y160265D01*
X423093Y161666D01*
X425074Y163647D01*
X426475Y166073D01*
X427200Y168779D01*
Y171581D01*
X426475Y174287D01*
X425074Y176713D01*
X423093Y178694D01*
X420667Y180095D01*
X417961Y180820D01*
D02*
G37*
G36*
X844785Y120650D02*
X841775D01*
X838868Y119871D01*
X836262Y118366D01*
X834134Y116238D01*
X832629Y113632D01*
X831850Y110725D01*
Y107715D01*
X832629Y104808D01*
X834134Y102202D01*
X836262Y100074D01*
X838868Y98569D01*
X841775Y97790D01*
X844785D01*
X847692Y98569D01*
X850298Y100074D01*
X852426Y102202D01*
X853931Y104808D01*
X854710Y107715D01*
Y110725D01*
X853931Y113632D01*
X852426Y116238D01*
X850298Y118366D01*
X847692Y119871D01*
X844785Y120650D01*
D02*
G37*
G36*
X758425D02*
X755415D01*
X752508Y119871D01*
X749902Y118366D01*
X747774Y116238D01*
X746269Y113632D01*
X745490Y110725D01*
Y107715D01*
X746269Y104808D01*
X747774Y102202D01*
X749902Y100074D01*
X752508Y98569D01*
X755415Y97790D01*
X758425D01*
X761332Y98569D01*
X763938Y100074D01*
X766066Y102202D01*
X767571Y104808D01*
X768350Y107715D01*
Y110725D01*
X767571Y113632D01*
X766066Y116238D01*
X763938Y118366D01*
X761332Y119871D01*
X758425Y120650D01*
D02*
G37*
G36*
X672065D02*
X669055D01*
X666148Y119871D01*
X663542Y118366D01*
X661414Y116238D01*
X659909Y113632D01*
X659130Y110725D01*
Y107715D01*
X659909Y104808D01*
X661414Y102202D01*
X663542Y100074D01*
X666148Y98569D01*
X669055Y97790D01*
X672065D01*
X674972Y98569D01*
X677578Y100074D01*
X679706Y102202D01*
X681211Y104808D01*
X681990Y107715D01*
Y110725D01*
X681211Y113632D01*
X679706Y116238D01*
X677578Y118366D01*
X674972Y119871D01*
X672065Y120650D01*
D02*
G37*
G36*
X580625D02*
X577615D01*
X574708Y119871D01*
X572102Y118366D01*
X569974Y116238D01*
X568469Y113632D01*
X567690Y110725D01*
Y107715D01*
X568469Y104808D01*
X569974Y102202D01*
X572102Y100074D01*
X574708Y98569D01*
X577615Y97790D01*
X580625D01*
X583532Y98569D01*
X586138Y100074D01*
X588266Y102202D01*
X589771Y104808D01*
X590550Y107715D01*
Y110725D01*
X589771Y113632D01*
X588266Y116238D01*
X586138Y118366D01*
X583532Y119871D01*
X580625Y120650D01*
D02*
G37*
G36*
X321545D02*
X318535D01*
X315628Y119871D01*
X313022Y118366D01*
X310894Y116238D01*
X309389Y113632D01*
X308610Y110725D01*
Y107715D01*
X309389Y104808D01*
X310894Y102202D01*
X313022Y100074D01*
X315628Y98569D01*
X318535Y97790D01*
X321545D01*
X324452Y98569D01*
X327058Y100074D01*
X329186Y102202D01*
X330691Y104808D01*
X331470Y107715D01*
Y110725D01*
X330691Y113632D01*
X329186Y116238D01*
X327058Y118366D01*
X324452Y119871D01*
X321545Y120650D01*
D02*
G37*
G36*
X844785Y95250D02*
X844550D01*
Y85090D01*
X854710D01*
Y85325D01*
X853931Y88232D01*
X852426Y90838D01*
X850298Y92966D01*
X847692Y94471D01*
X844785Y95250D01*
D02*
G37*
G36*
X758425D02*
X758190D01*
Y85090D01*
X768350D01*
Y85325D01*
X767571Y88232D01*
X766066Y90838D01*
X763938Y92966D01*
X761332Y94471D01*
X758425Y95250D01*
D02*
G37*
G36*
X672065D02*
X671830D01*
Y85090D01*
X681990D01*
Y85325D01*
X681211Y88232D01*
X679706Y90838D01*
X677578Y92966D01*
X674972Y94471D01*
X672065Y95250D01*
D02*
G37*
G36*
X580625D02*
X580390D01*
Y85090D01*
X590550D01*
Y85325D01*
X589771Y88232D01*
X588266Y90838D01*
X586138Y92966D01*
X583532Y94471D01*
X580625Y95250D01*
D02*
G37*
G36*
X321545D02*
X321310D01*
Y85090D01*
X331470D01*
Y85325D01*
X330691Y88232D01*
X329186Y90838D01*
X327058Y92966D01*
X324452Y94471D01*
X321545Y95250D01*
D02*
G37*
G36*
X842010D02*
X841775D01*
X838868Y94471D01*
X836262Y92966D01*
X834134Y90838D01*
X832629Y88232D01*
X831850Y85325D01*
Y85090D01*
X842010D01*
Y95250D01*
D02*
G37*
G36*
X577850D02*
X577615D01*
X574708Y94471D01*
X572102Y92966D01*
X569974Y90838D01*
X568469Y88232D01*
X567690Y85325D01*
Y85090D01*
X577850D01*
Y95250D01*
D02*
G37*
G36*
X318770D02*
X318535D01*
X315628Y94471D01*
X313022Y92966D01*
X310894Y90838D01*
X309389Y88232D01*
X308610Y85325D01*
Y85090D01*
X318770D01*
Y95250D01*
D02*
G37*
G36*
X755650D02*
X755415D01*
X752508Y94471D01*
X749902Y92966D01*
X747774Y90838D01*
X746269Y88232D01*
X745490Y85325D01*
Y85090D01*
X755650D01*
Y95250D01*
D02*
G37*
G36*
X669290D02*
X669055D01*
X666148Y94471D01*
X663542Y92966D01*
X661414Y90838D01*
X659909Y88232D01*
X659130Y85325D01*
Y85090D01*
X669290D01*
Y95250D01*
D02*
G37*
G36*
X854710Y82550D02*
X844550D01*
Y72390D01*
X844785D01*
X847692Y73169D01*
X850298Y74674D01*
X852426Y76802D01*
X853931Y79408D01*
X854710Y82315D01*
Y82550D01*
D02*
G37*
G36*
X842010D02*
X831850D01*
Y82315D01*
X832629Y79408D01*
X834134Y76802D01*
X836262Y74674D01*
X838868Y73169D01*
X841775Y72390D01*
X842010D01*
Y82550D01*
D02*
G37*
G36*
X768350D02*
X758190D01*
Y72390D01*
X758425D01*
X761332Y73169D01*
X763938Y74674D01*
X766066Y76802D01*
X767571Y79408D01*
X768350Y82315D01*
Y82550D01*
D02*
G37*
G36*
X755650D02*
X745490D01*
Y82315D01*
X746269Y79408D01*
X747774Y76802D01*
X749902Y74674D01*
X752508Y73169D01*
X755415Y72390D01*
X755650D01*
Y82550D01*
D02*
G37*
G36*
X681990D02*
X671830D01*
Y72390D01*
X672065D01*
X674972Y73169D01*
X677578Y74674D01*
X679706Y76802D01*
X681211Y79408D01*
X681990Y82315D01*
Y82550D01*
D02*
G37*
G36*
X669290D02*
X659130D01*
Y82315D01*
X659909Y79408D01*
X661414Y76802D01*
X663542Y74674D01*
X666148Y73169D01*
X669055Y72390D01*
X669290D01*
Y82550D01*
D02*
G37*
G36*
X590550D02*
X580390D01*
Y72390D01*
X580625D01*
X583532Y73169D01*
X586138Y74674D01*
X588266Y76802D01*
X589771Y79408D01*
X590550Y82315D01*
Y82550D01*
D02*
G37*
G36*
X577850D02*
X567690D01*
Y82315D01*
X568469Y79408D01*
X569974Y76802D01*
X572102Y74674D01*
X574708Y73169D01*
X577615Y72390D01*
X577850D01*
Y82550D01*
D02*
G37*
G36*
X331470D02*
X321310D01*
Y72390D01*
X321545D01*
X324452Y73169D01*
X327058Y74674D01*
X329186Y76802D01*
X330691Y79408D01*
X331470Y82315D01*
Y82550D01*
D02*
G37*
G36*
X318770D02*
X308610D01*
Y82315D01*
X309389Y79408D01*
X310894Y76802D01*
X313022Y74674D01*
X315628Y73169D01*
X318535Y72390D01*
X318770D01*
Y82550D01*
D02*
G37*
G36*
X201930Y76780D02*
Y72390D01*
X206320D01*
X205505Y74357D01*
X203897Y75965D01*
X201930Y76780D01*
D02*
G37*
G36*
X199390D02*
X197423Y75965D01*
X195815Y74357D01*
X195000Y72390D01*
X199390D01*
Y76780D01*
D02*
G37*
G36*
X206320Y69850D02*
X201930D01*
Y65460D01*
X203897Y66275D01*
X205505Y67883D01*
X206320Y69850D01*
D02*
G37*
G36*
X199390D02*
X195000D01*
X195815Y67883D01*
X197423Y66275D01*
X199390Y65460D01*
Y69850D01*
D02*
G37*
G36*
X798830Y66620D02*
Y62230D01*
X803220D01*
X802405Y64197D01*
X800797Y65805D01*
X798830Y66620D01*
D02*
G37*
G36*
X796290D02*
X794323Y65805D01*
X792715Y64197D01*
X791900Y62230D01*
X796290D01*
Y66620D01*
D02*
G37*
G36*
X709930D02*
Y62230D01*
X714320D01*
X713505Y64197D01*
X711897Y65805D01*
X709930Y66620D01*
D02*
G37*
G36*
X707390D02*
X705423Y65805D01*
X703815Y64197D01*
X703000Y62230D01*
X707390D01*
Y66620D01*
D02*
G37*
G36*
X621030D02*
Y62230D01*
X625420D01*
X624605Y64197D01*
X622997Y65805D01*
X621030Y66620D01*
D02*
G37*
G36*
X618490D02*
X616523Y65805D01*
X614915Y64197D01*
X614100Y62230D01*
X618490D01*
Y66620D01*
D02*
G37*
G36*
X533400Y65350D02*
Y60960D01*
X537790D01*
X536975Y62927D01*
X535367Y64535D01*
X533400Y65350D01*
D02*
G37*
G36*
X530860D02*
X528893Y64535D01*
X527285Y62927D01*
X526470Y60960D01*
X530860D01*
Y65350D01*
D02*
G37*
G36*
X844785Y69850D02*
X844550D01*
Y59690D01*
X854710D01*
Y59925D01*
X853931Y62832D01*
X852426Y65438D01*
X850298Y67566D01*
X847692Y69071D01*
X844785Y69850D01*
D02*
G37*
G36*
X758425D02*
X758190D01*
Y59690D01*
X768350D01*
Y59925D01*
X767571Y62832D01*
X766066Y65438D01*
X763938Y67566D01*
X761332Y69071D01*
X758425Y69850D01*
D02*
G37*
G36*
X672065D02*
X671830D01*
Y59690D01*
X681990D01*
Y59925D01*
X681211Y62832D01*
X679706Y65438D01*
X677578Y67566D01*
X674972Y69071D01*
X672065Y69850D01*
D02*
G37*
G36*
X580625D02*
X580390D01*
Y59690D01*
X590550D01*
Y59925D01*
X589771Y62832D01*
X588266Y65438D01*
X586138Y67566D01*
X583532Y69071D01*
X580625Y69850D01*
D02*
G37*
G36*
X321545D02*
X321310D01*
Y59690D01*
X331470D01*
Y59925D01*
X330691Y62832D01*
X329186Y65438D01*
X327058Y67566D01*
X324452Y69071D01*
X321545Y69850D01*
D02*
G37*
G36*
X842010D02*
X841775D01*
X838868Y69071D01*
X836262Y67566D01*
X834134Y65438D01*
X832629Y62832D01*
X831850Y59925D01*
Y59690D01*
X842010D01*
Y69850D01*
D02*
G37*
G36*
X755650D02*
X755415D01*
X752508Y69071D01*
X749902Y67566D01*
X747774Y65438D01*
X746269Y62832D01*
X745490Y59925D01*
Y59690D01*
X755650D01*
Y69850D01*
D02*
G37*
G36*
X669290D02*
X669055D01*
X666148Y69071D01*
X663542Y67566D01*
X661414Y65438D01*
X659909Y62832D01*
X659130Y59925D01*
Y59690D01*
X669290D01*
Y69850D01*
D02*
G37*
G36*
X577850D02*
X577615D01*
X574708Y69071D01*
X572102Y67566D01*
X569974Y65438D01*
X568469Y62832D01*
X567690Y59925D01*
Y59690D01*
X577850D01*
Y69850D01*
D02*
G37*
G36*
X318770D02*
X318535D01*
X315628Y69071D01*
X313022Y67566D01*
X310894Y65438D01*
X309389Y62832D01*
X308610Y59925D01*
Y59690D01*
X318770D01*
Y69850D01*
D02*
G37*
G36*
X803220Y59690D02*
X798830D01*
Y55300D01*
X800797Y56115D01*
X802405Y57723D01*
X803220Y59690D01*
D02*
G37*
G36*
X796290D02*
X791900D01*
X792715Y57723D01*
X794323Y56115D01*
X796290Y55300D01*
Y59690D01*
D02*
G37*
G36*
X714320D02*
X709930D01*
Y55300D01*
X711897Y56115D01*
X713505Y57723D01*
X714320Y59690D01*
D02*
G37*
G36*
X707390D02*
X703000D01*
X703815Y57723D01*
X705423Y56115D01*
X707390Y55300D01*
Y59690D01*
D02*
G37*
G36*
X625420D02*
X621030D01*
Y55300D01*
X622997Y56115D01*
X624605Y57723D01*
X625420Y59690D01*
D02*
G37*
G36*
X618490D02*
X614100D01*
X614915Y57723D01*
X616523Y56115D01*
X618490Y55300D01*
Y59690D01*
D02*
G37*
G36*
X537790Y58420D02*
X533400D01*
Y54030D01*
X535367Y54845D01*
X536975Y56453D01*
X537790Y58420D01*
D02*
G37*
G36*
X530860D02*
X526470D01*
X527285Y56453D01*
X528893Y54845D01*
X530860Y54030D01*
Y58420D01*
D02*
G37*
G36*
X854710Y57150D02*
X844550D01*
Y46990D01*
X844785D01*
X847692Y47769D01*
X850298Y49274D01*
X852426Y51402D01*
X853931Y54008D01*
X854710Y56915D01*
Y57150D01*
D02*
G37*
G36*
X842010D02*
X831850D01*
Y56915D01*
X832629Y54008D01*
X834134Y51402D01*
X836262Y49274D01*
X838868Y47769D01*
X841775Y46990D01*
X842010D01*
Y57150D01*
D02*
G37*
G36*
X768350D02*
X758190D01*
Y46990D01*
X758425D01*
X761332Y47769D01*
X763938Y49274D01*
X766066Y51402D01*
X767571Y54008D01*
X768350Y56915D01*
Y57150D01*
D02*
G37*
G36*
X755650D02*
X745490D01*
Y56915D01*
X746269Y54008D01*
X747774Y51402D01*
X749902Y49274D01*
X752508Y47769D01*
X755415Y46990D01*
X755650D01*
Y57150D01*
D02*
G37*
G36*
X681990D02*
X671830D01*
Y46990D01*
X672065D01*
X674972Y47769D01*
X677578Y49274D01*
X679706Y51402D01*
X681211Y54008D01*
X681990Y56915D01*
Y57150D01*
D02*
G37*
G36*
X669290D02*
X659130D01*
Y56915D01*
X659909Y54008D01*
X661414Y51402D01*
X663542Y49274D01*
X666148Y47769D01*
X669055Y46990D01*
X669290D01*
Y57150D01*
D02*
G37*
G36*
X590550D02*
X580390D01*
Y46990D01*
X580625D01*
X583532Y47769D01*
X586138Y49274D01*
X588266Y51402D01*
X589771Y54008D01*
X590550Y56915D01*
Y57150D01*
D02*
G37*
G36*
X577850D02*
X567690D01*
Y56915D01*
X568469Y54008D01*
X569974Y51402D01*
X572102Y49274D01*
X574708Y47769D01*
X577615Y46990D01*
X577850D01*
Y57150D01*
D02*
G37*
G36*
X331470D02*
X321310D01*
Y46990D01*
X321545D01*
X324452Y47769D01*
X327058Y49274D01*
X329186Y51402D01*
X330691Y54008D01*
X331470Y56915D01*
Y57150D01*
D02*
G37*
G36*
X318770D02*
X308610D01*
Y56915D01*
X309389Y54008D01*
X310894Y51402D01*
X313022Y49274D01*
X315628Y47769D01*
X318535Y46990D01*
X318770D01*
Y57150D01*
D02*
G37*
G36*
X844785Y44450D02*
X844550D01*
Y34290D01*
X854710D01*
Y34525D01*
X853931Y37432D01*
X852426Y40038D01*
X850298Y42166D01*
X847692Y43671D01*
X844785Y44450D01*
D02*
G37*
G36*
X758425D02*
X758190D01*
Y34290D01*
X768350D01*
Y34525D01*
X767571Y37432D01*
X766066Y40038D01*
X763938Y42166D01*
X761332Y43671D01*
X758425Y44450D01*
D02*
G37*
G36*
X672065D02*
X671830D01*
Y34290D01*
X681990D01*
Y34525D01*
X681211Y37432D01*
X679706Y40038D01*
X677578Y42166D01*
X674972Y43671D01*
X672065Y44450D01*
D02*
G37*
G36*
X580625D02*
X580390D01*
Y34290D01*
X590550D01*
Y34525D01*
X589771Y37432D01*
X588266Y40038D01*
X586138Y42166D01*
X583532Y43671D01*
X580625Y44450D01*
D02*
G37*
G36*
X321545D02*
X321310D01*
Y34290D01*
X331470D01*
Y34525D01*
X330691Y37432D01*
X329186Y40038D01*
X327058Y42166D01*
X324452Y43671D01*
X321545Y44450D01*
D02*
G37*
G36*
X842010D02*
X841775D01*
X838868Y43671D01*
X836262Y42166D01*
X834134Y40038D01*
X832629Y37432D01*
X831850Y34525D01*
Y34290D01*
X842010D01*
Y44450D01*
D02*
G37*
G36*
X755650D02*
X755415D01*
X752508Y43671D01*
X749902Y42166D01*
X747774Y40038D01*
X746269Y37432D01*
X745490Y34525D01*
Y34290D01*
X755650D01*
Y44450D01*
D02*
G37*
G36*
X669290D02*
X669055D01*
X666148Y43671D01*
X663542Y42166D01*
X661414Y40038D01*
X659909Y37432D01*
X659130Y34525D01*
Y34290D01*
X669290D01*
Y44450D01*
D02*
G37*
G36*
X577850D02*
X577615D01*
X574708Y43671D01*
X572102Y42166D01*
X569974Y40038D01*
X568469Y37432D01*
X567690Y34525D01*
Y34290D01*
X577850D01*
Y44450D01*
D02*
G37*
G36*
X318770D02*
X318535D01*
X315628Y43671D01*
X313022Y42166D01*
X310894Y40038D01*
X309389Y37432D01*
X308610Y34525D01*
Y34290D01*
X318770D01*
Y44450D01*
D02*
G37*
G36*
X854710Y31750D02*
X844550D01*
Y21590D01*
X844785D01*
X847692Y22369D01*
X850298Y23874D01*
X852426Y26002D01*
X853931Y28608D01*
X854710Y31515D01*
Y31750D01*
D02*
G37*
G36*
X842010D02*
X831850D01*
Y31515D01*
X832629Y28608D01*
X834134Y26002D01*
X836262Y23874D01*
X838868Y22369D01*
X841775Y21590D01*
X842010D01*
Y31750D01*
D02*
G37*
G36*
X768350D02*
X758190D01*
Y21590D01*
X758425D01*
X761332Y22369D01*
X763938Y23874D01*
X766066Y26002D01*
X767571Y28608D01*
X768350Y31515D01*
Y31750D01*
D02*
G37*
G36*
X755650D02*
X745490D01*
Y31515D01*
X746269Y28608D01*
X747774Y26002D01*
X749902Y23874D01*
X752508Y22369D01*
X755415Y21590D01*
X755650D01*
Y31750D01*
D02*
G37*
G36*
X681990D02*
X671830D01*
Y21590D01*
X672065D01*
X674972Y22369D01*
X677578Y23874D01*
X679706Y26002D01*
X681211Y28608D01*
X681990Y31515D01*
Y31750D01*
D02*
G37*
G36*
X669290D02*
X659130D01*
Y31515D01*
X659909Y28608D01*
X661414Y26002D01*
X663542Y23874D01*
X666148Y22369D01*
X669055Y21590D01*
X669290D01*
Y31750D01*
D02*
G37*
G36*
X590550D02*
X580390D01*
Y21590D01*
X580625D01*
X583532Y22369D01*
X586138Y23874D01*
X588266Y26002D01*
X589771Y28608D01*
X590550Y31515D01*
Y31750D01*
D02*
G37*
G36*
X577850D02*
X567690D01*
Y31515D01*
X568469Y28608D01*
X569974Y26002D01*
X572102Y23874D01*
X574708Y22369D01*
X577615Y21590D01*
X577850D01*
Y31750D01*
D02*
G37*
G36*
X331470D02*
X321310D01*
Y21590D01*
X321545D01*
X324452Y22369D01*
X327058Y23874D01*
X329186Y26002D01*
X330691Y28608D01*
X331470Y31515D01*
Y31750D01*
D02*
G37*
G36*
X318770D02*
X308610D01*
Y31515D01*
X309389Y28608D01*
X310894Y26002D01*
X313022Y23874D01*
X315628Y22369D01*
X318535Y21590D01*
X318770D01*
Y31750D01*
D02*
G37*
G36*
X82550Y20900D02*
Y16510D01*
X86940D01*
X86125Y18477D01*
X84517Y20085D01*
X82550Y20900D01*
D02*
G37*
G36*
X80010D02*
X78043Y20085D01*
X76435Y18477D01*
X75620Y16510D01*
X80010D01*
Y20900D01*
D02*
G37*
G36*
X86940Y13970D02*
X82550D01*
Y9580D01*
X84517Y10395D01*
X86125Y12003D01*
X86940Y13970D01*
D02*
G37*
G36*
X80010D02*
X75620D01*
X76435Y12003D01*
X78043Y10395D01*
X80010Y9580D01*
Y13970D01*
D02*
G37*
%LPD*%
D31*
X117494Y408758D02*
D03*
D32*
X82494Y455258D02*
D03*
X142494D02*
D03*
D33*
X238760Y320040D02*
D03*
Y345440D02*
D03*
X416560Y170180D02*
D03*
Y195580D02*
D03*
D34*
X320040Y58420D02*
D03*
Y33020D02*
D03*
Y109220D02*
D03*
Y83820D02*
D03*
X53340Y330200D02*
D03*
X27940D02*
D03*
X104140D02*
D03*
X78740D02*
D03*
X579120Y58420D02*
D03*
Y33020D02*
D03*
Y109220D02*
D03*
Y83820D02*
D03*
X670560Y58420D02*
D03*
Y33020D02*
D03*
Y109220D02*
D03*
Y83820D02*
D03*
X756920Y58420D02*
D03*
Y33020D02*
D03*
Y109220D02*
D03*
Y83820D02*
D03*
X843280Y58420D02*
D03*
Y33020D02*
D03*
Y109220D02*
D03*
Y83820D02*
D03*
D35*
X195580Y403860D02*
D03*
X81280Y15240D02*
D03*
X121920Y198120D02*
D03*
X444794Y458800D02*
D03*
X200660Y71120D02*
D03*
X797560Y60960D02*
D03*
X708660D02*
D03*
X619760D02*
D03*
X532130Y59690D02*
D03*
M02*
