<?xml version="1.0" encoding="UTF-8"?>
<svg version="1.1" xmlns="http://www.w3.org/2000/svg" width="503" height="685">
<path d="M0 0 C165.99 0 331.98 0 503 0 C503 226.05 503 452.1 503 685 C337.01 685 171.02 685 0 685 C0 458.95 0 232.9 0 0 Z " fill="#909090" transform="translate(0,0)"/>
<path d="M0 0 C25.08 0 50.16 0 76 0 C76 46.53 76 93.06 76 141 C-89.99 141 -255.98 141 -427 141 C-427 95.13 -427 49.26 -427 2 C-402.25 2 -377.5 2 -352 2 C-352 25.76 -352 49.52 -352 74 C-308.77 74 -265.54 74 -221 74 C-219.875 86.375 -219.875 86.375 -219.88647461 91.20581055 C-219.88655014 92.28610031 -219.88662567 93.36639008 -219.88670349 94.47941589 C-219.89186478 95.60382584 -219.89702606 96.72823578 -219.90234375 97.88671875 C-219.90446617 99.66125175 -219.90446617 99.66125175 -219.90663147 101.47163391 C-219.91218088 105.21028284 -219.92472371 108.9488695 -219.9375 112.6875 C-219.94252155 115.23893142 -219.9470833 117.79036379 -219.95117188 120.34179688 C-219.96213369 126.56121878 -219.9788206 132.78060494 -220 139 C-218.68 139 -217.36 139 -216 139 C-216.33 117.55 -216.66 96.1 -217 74 C-181.69 74 -146.38 74 -110 74 C-108.84966216 111.96114865 -108.84966216 111.96114865 -108.9375 125.0625 C-108.94256631 126.45377428 -108.94711945 127.84505052 -108.95117188 129.23632812 C-108.962512 132.4909427 -108.97860357 135.74543908 -109 139 C-107.68 139 -106.36 139 -105 139 C-105 117.55 -105 96.1 -105 74 C-70.35 74 -35.7 74 0 74 C0 49.58 0 25.16 0 0 Z " fill="#FEFEFE" transform="translate(427,544)"/>
<path d="M0 0 C165.99 0 331.98 0 503 0 C503 37.29 503 74.58 503 113 C477.92 113 452.84 113 427 113 C427 97.49 427 81.98 427 66 C386.41 66 345.82 66 304 66 C302.84857383 31.45721477 302.84857383 31.45721477 302.9375 16.625 C302.94255619 15.07552238 302.94711139 13.52604305 302.95117188 11.9765625 C302.96178134 8.31767029 302.97878456 4.65884813 303 1 C301.68 1 300.36 1 299 1 C299.33 22.45 299.66 43.9 300 66 C269.64 66 239.28 66 208 66 C207.40953025 50.05731665 206.85215268 34.2434623 206.9375 18.3125 C206.94254797 16.60481909 206.9471048 14.89713665 206.95117188 13.18945312 C206.96186442 9.12626219 206.97892725 5.06314979 207 1 C205.68 1 204.36 1 203 1 C203.03029297 2.11632812 203.06058594 3.23265625 203.09179688 4.3828125 C203.20684671 8.65470333 203.31759204 12.92669803 203.42724609 17.19873047 C203.47463348 19.02330404 203.52308235 20.84785046 203.57275391 22.67236328 C203.96509338 37.12486854 204 51.53410058 204 66 C161.43 66 118.86 66 75 66 C75 81.51 75 97.02 75 113 C50.25 113 25.5 113 0 113 C0 75.71 0 38.42 0 0 Z " fill="#FEFEFE" transform="translate(0,0)"/>
<path d="M0 0 C25.08 0 50.16 0 76 0 C76 15.18 76 30.36 76 46 C50.92 46 25.84 46 0 46 C0 30.82 0 15.64 0 0 Z " fill="#FEFEFE" transform="translate(427,352)"/>
<path d="M0 0 C24.75 0 49.5 0 75 0 C75 14.85 75 29.7 75 45 C50.25 45 25.5 45 0 45 C0 30.15 0 15.3 0 0 Z " fill="#FFFFFF" transform="translate(0,118)"/>
<path d="M0 0 C25.08 0 50.16 0 76 0 C76 14.52 76 29.04 76 44 C50.92 44 25.84 44 0 44 C0 29.48 0 14.96 0 0 Z " fill="#FEFEFE" transform="translate(427,496)"/>
<path d="M0 0 C25.08 0 50.16 0 76 0 C76 14.52 76 29.04 76 44 C50.92 44 25.84 44 0 44 C0 29.48 0 14.96 0 0 Z " fill="#FEFEFE" transform="translate(427,448)"/>
<path d="M0 0 C25.08 0 50.16 0 76 0 C76 14.52 76 29.04 76 44 C50.92 44 25.84 44 0 44 C0 29.48 0 14.96 0 0 Z " fill="#FEFEFE" transform="translate(427,304)"/>
<path d="M0 0 C24.75 0 49.5 0 75 0 C75 14.52 75 29.04 75 44 C50.25 44 25.5 44 0 44 C0 29.48 0 14.96 0 0 Z " fill="#FEFEFE" transform="translate(0,498)"/>
<path d="M0 0 C24.75 0 49.5 0 75 0 C75 14.52 75 29.04 75 44 C50.25 44 25.5 44 0 44 C0 29.48 0 14.96 0 0 Z " fill="#FEFEFE" transform="translate(0,450)"/>
<path d="M0 0 C24.75 0 49.5 0 75 0 C75 14.52 75 29.04 75 44 C50.25 44 25.5 44 0 44 C0 29.48 0 14.96 0 0 Z " fill="#FEFEFE" transform="translate(0,402)"/>
<path d="M0 0 C24.75 0 49.5 0 75 0 C75 14.52 75 29.04 75 44 C50.25 44 25.5 44 0 44 C0 29.48 0 14.96 0 0 Z " fill="#FEFEFE" transform="translate(0,354)"/>
<path d="M0 0 C24.75 0 49.5 0 75 0 C75 14.52 75 29.04 75 44 C50.25 44 25.5 44 0 44 C0 29.48 0 14.96 0 0 Z " fill="#FEFEFE" transform="translate(0,306)"/>
<path d="M0 0 C25.08 0 50.16 0 76 0 C76 14.19 76 28.38 76 43 C50.92 43 25.84 43 0 43 C0 28.81 0 14.62 0 0 Z " fill="#FEFEFE" transform="translate(427,213)"/>
<path d="M0 0 C25.08 0 50.16 0 76 0 C76 14.19 76 28.38 76 43 C50.92 43 25.84 43 0 43 C0 28.81 0 14.62 0 0 Z " fill="#FFFFFF" transform="translate(427,118)"/>
<path d="M0 0 C24.75 0 49.5 0 75 0 C75 14.19 75 28.38 75 43 C50.25 43 25.5 43 0 43 C0 28.81 0 14.62 0 0 Z " fill="#FEFEFE" transform="translate(0,215)"/>
<path d="M0 0 C25.08 0 50.16 0 76 0 C76 13.86 76 27.72 76 42 C50.92 42 25.84 42 0 42 C0 28.14 0 14.28 0 0 Z " fill="#FEFEFE" transform="translate(427,402)"/>
<path d="M0 0 C25.08 0 50.16 0 76 0 C76 13.86 76 27.72 76 42 C50.92 42 25.84 42 0 42 C0 28.14 0 14.28 0 0 Z " fill="#FFFFFF" transform="translate(427,166)"/>
<path d="M0 0 C24.75 0 49.5 0 75 0 C75 13.86 75 27.72 75 42 C50.25 42 25.5 42 0 42 C0 28.14 0 14.28 0 0 Z " fill="#FFFFFF" transform="translate(0,168)"/>
<path d="M0 0 C25.08 0 50.16 0 76 0 C76 13.2 76 26.4 76 40 C50.92 40 25.84 40 0 40 C0 26.8 0 13.6 0 0 Z " fill="#FEFEFE" transform="translate(427,260)"/>
<path d="M0 0 C24.75 0 49.5 0 75 0 C75 13.2 75 26.4 75 40 C50.25 40 25.5 40 0 40 C0 26.8 0 13.6 0 0 Z " fill="#FEFEFE" transform="translate(0,262)"/>
<path d="M0 0 C25.08 0 50.16 0 76 0 C76 1.32 76 2.64 76 4 C50.92 4 25.84 4 0 4 C0 2.68 0 1.36 0 0 Z " fill="#090909" transform="translate(427,540)"/>
<path d="M0 0 C25.08 0 50.16 0 76 0 C76 1.32 76 2.64 76 4 C50.92 4 25.84 4 0 4 C0 2.68 0 1.36 0 0 Z " fill="#090909" transform="translate(427,492)"/>
<path d="M0 0 C25.08 0 50.16 0 76 0 C76 1.32 76 2.64 76 4 C50.92 4 25.84 4 0 4 C0 2.68 0 1.36 0 0 Z " fill="#090909" transform="translate(427,444)"/>
<path d="M0 0 C25.08 0 50.16 0 76 0 C76 1.32 76 2.64 76 4 C50.92 4 25.84 4 0 4 C0 2.68 0 1.36 0 0 Z " fill="#090909" transform="translate(427,398)"/>
<path d="M0 0 C25.08 0 50.16 0 76 0 C76 1.32 76 2.64 76 4 C50.92 4 25.84 4 0 4 C0 2.68 0 1.36 0 0 Z " fill="#090909" transform="translate(427,348)"/>
<path d="M0 0 C25.08 0 50.16 0 76 0 C76 1.32 76 2.64 76 4 C50.92 4 25.84 4 0 4 C0 2.68 0 1.36 0 0 Z " fill="#090909" transform="translate(427,300)"/>
<path d="M0 0 C25.08 0 50.16 0 76 0 C76 1.32 76 2.64 76 4 C50.92 4 25.84 4 0 4 C0 2.68 0 1.36 0 0 Z " fill="#090909" transform="translate(427,256)"/>
<path d="M0 0 C24.75 0 49.5 0 75 0 C75 1.32 75 2.64 75 4 C50.25 4 25.5 4 0 4 C0 2.68 0 1.36 0 0 Z " fill="#080808" transform="translate(0,542)"/>
<path d="M0 0 C24.75 0 49.5 0 75 0 C75 1.32 75 2.64 75 4 C50.25 4 25.5 4 0 4 C0 2.68 0 1.36 0 0 Z " fill="#080808" transform="translate(0,494)"/>
<path d="M0 0 C24.75 0 49.5 0 75 0 C75 1.32 75 2.64 75 4 C50.25 4 25.5 4 0 4 C0 2.68 0 1.36 0 0 Z " fill="#080808" transform="translate(0,446)"/>
<path d="M0 0 C24.75 0 49.5 0 75 0 C75 1.32 75 2.64 75 4 C50.25 4 25.5 4 0 4 C0 2.68 0 1.36 0 0 Z " fill="#080808" transform="translate(0,398)"/>
<path d="M0 0 C24.75 0 49.5 0 75 0 C75 1.32 75 2.64 75 4 C50.25 4 25.5 4 0 4 C0 2.68 0 1.36 0 0 Z " fill="#080808" transform="translate(0,350)"/>
<path d="M0 0 C24.75 0 49.5 0 75 0 C75 1.32 75 2.64 75 4 C50.25 4 25.5 4 0 4 C0 2.68 0 1.36 0 0 Z " fill="#080808" transform="translate(0,302)"/>
<path d="M0 0 C24.75 0 49.5 0 75 0 C75 1.32 75 2.64 75 4 C50.25 4 25.5 4 0 4 C0 2.68 0 1.36 0 0 Z " fill="#080808" transform="translate(0,258)"/>
<path d="M0 0 C1.32 0 2.64 0 4 0 C5.07619365 3.22858094 5.12052496 5.54539279 5.11352539 8.94018555 C5.11341209 10.77174446 5.11341209 10.77174446 5.11329651 12.64030457 C5.10813522 13.95912125 5.10297394 15.27793793 5.09765625 16.63671875 C5.0957908 18.00006559 5.0943675 19.36341311 5.09336853 20.72676086 C5.08955332 24.31228491 5.07973155 27.89776835 5.06866455 31.48327637 C5.05842901 35.1431422 5.05386632 38.8030146 5.04882812 42.46289062 C5.03810838 49.64194558 5.02104393 56.8209671 5 64 C3.68 64 2.36 64 1 64 C0.67 42.88 0.34 21.76 0 0 Z " fill="#171717" transform="translate(206,619)"/>
<path d="M0 0 C1.32 0 2.64 0 4 0 C4.63684196 21.33759314 5.1899432 42.65038455 5 64 C3.68 64 2.36 64 1 64 C-0.29934462 42.67682664 -0.09969901 21.35245996 0 0 Z " fill="#0F0F0F" transform="translate(203,1)"/>
<path d="M0 0 C1.32 0 2.64 0 4 0 C4 21.12 4 42.24 4 64 C3.01 64 2.02 64 1 64 C0.24001886 55.50459459 -0.1396352 47.10184229 -0.09765625 38.57421875 C-0.0962413 37.46061478 -0.09482635 36.3470108 -0.09336853 35.19966125 C-0.08783865 31.69557839 -0.07530001 28.19156305 -0.0625 24.6875 C-0.05747591 22.28971447 -0.05291461 19.89192793 -0.04882812 17.49414062 C-0.03789233 11.66273797 -0.021226 5.83137381 0 0 Z " fill="#0F0F0F" transform="translate(299,1)"/>
<path d="M0 0 C0.99 0 1.98 0 3 0 C4.16845954 21.33370937 4.10646669 42.64278278 4 64 C2.68 64 1.36 64 0 64 C0 42.88 0 21.76 0 0 Z " fill="#0C0C0C" transform="translate(318,619)"/>
<path d="M0 0 C24.75 0 49.5 0 75 0 C75 0.99 75 1.98 75 3 C50.25 3 25.5 3 0 3 C0 2.01 0 1.02 0 0 Z " fill="#000000" transform="translate(0,211)"/>
<path d="M0 0 C24.75 0 49.5 0 75 0 C75 0.99 75 1.98 75 3 C50.25 3 25.5 3 0 3 C0 2.01 0 1.02 0 0 Z " fill="#000000" transform="translate(427,209)"/>
<path d="M0 0 C24.75 0 49.5 0 75 0 C75 0.99 75 1.98 75 3 C50.25 3 25.5 3 0 3 C0 2.01 0 1.02 0 0 Z " fill="#000000" transform="translate(0,164)"/>
<path d="M0 0 C24.75 0 49.5 0 75 0 C75 0.99 75 1.98 75 3 C50.25 3 25.5 3 0 3 C0 2.01 0 1.02 0 0 Z " fill="#000000" transform="translate(427,162)"/>
<path d="M0 0 C24.75 0 49.5 0 75 0 C75 0.99 75 1.98 75 3 C50.25 3 25.5 3 0 3 C0 2.01 0 1.02 0 0 Z " fill="#000000" transform="translate(427,114)"/>
<path d="M0 0 C24.75 0 49.5 0 75 0 C75 0.99 75 1.98 75 3 C50.25 3 25.5 3 0 3 C0 2.01 0 1.02 0 0 Z " fill="#000000" transform="translate(0,114)"/>
<path d="M0 0 C3.375 -0.125 3.375 -0.125 7 0 C7.66 0.66 8.32 1.32 9 2 C10.98 1.34 12.96 0.68 15 0 C15 3.63 15 7.26 15 11 C15.99 11.33 16.98 11.66 18 12 C15.36 12 12.72 12 10 12 C10 11.34 10 10.68 10 10 C9.01 10.66 8.02 11.32 7 12 C4.66800612 12.07905064 2.33167378 12.08798769 0 12 C0 8.04 0 4.08 0 0 Z " fill="#393939" transform="translate(200,595)"/>
<path d="M0 0 C1.94981027 0.22374872 3.90174244 0.45389851 5.83203125 0.80859375 C8.49085407 1.14587781 8.49085407 1.14587781 13 0 C13 3.63 13 7.26 13 11 C13.99 11.33 14.98 11.66 16 12 C12.33333333 12 8.66666667 12 5 12 C3.7625 12.12375 3.7625 12.12375 2.5 12.25 C0 12 0 12 -1.875 10.375 C-3.38776998 7.18137449 -2.94757993 5.35297515 -2 2 C-1.34 1.34 -0.68 0.68 0 0 Z " fill="#606060" transform="translate(395,296)"/>
<path d="M0 0 C4.62 0 9.24 0 14 0 C14 3.63 14 7.26 14 11 C14.66 11.33 15.32 11.66 16 12 C10.72 12 5.44 12 0 12 C0 8.04 0 4.08 0 0 Z " fill="#8E8E8E" transform="translate(199,86)"/>
<path d="M0 0 C7.75 -0.125 7.75 -0.125 10 1 C11.32 0.67 12.64 0.34 14 0 C14 3.63 14 7.26 14 11 C14.99 11.33 15.98 11.66 17 12 C11.39 12 5.78 12 0 12 C0 8.04 0 4.08 0 0 Z " fill="#707070" transform="translate(295,89)"/>
<path d="M0 0 C6.3782235 -0.36103152 6.3782235 -0.36103152 8.9375 1.125 C10.50422245 3.88980433 10.38976435 5.88188517 10 9 C8.9375 10.875 8.9375 10.875 7 12 C3.3125 12.1875 3.3125 12.1875 0 12 C0 8.04 0 4.08 0 0 Z " fill="#2A2A2A" transform="translate(322,595)"/>
<path d="M0 0 C6.3782235 -0.36103152 6.3782235 -0.36103152 8.9375 1.125 C10.50422245 3.88980433 10.38976435 5.88188517 10 9 C8.9375 10.875 8.9375 10.875 7 12 C3.3125 12.1875 3.3125 12.1875 0 12 C0 8.04 0 4.08 0 0 Z " fill="#2A2A2A" transform="translate(105,489)"/>
<path d="M0 0 C6.3782235 -0.36103152 6.3782235 -0.36103152 8.9375 1.125 C10.50422245 3.88980433 10.38976435 5.88188517 10 9 C8.9375 10.875 8.9375 10.875 7 12 C3.3125 12.1875 3.3125 12.1875 0 12 C0 8.04 0 4.08 0 0 Z " fill="#2A2A2A" transform="translate(380,106)"/>
<path d="M0 0 C6.3782235 -0.36103152 6.3782235 -0.36103152 8.9375 1.125 C10.50422245 3.88980433 10.38976435 5.88188517 10 9 C8.9375 10.875 8.9375 10.875 7 12 C3.3125 12.1875 3.3125 12.1875 0 12 C0 8.04 0 4.08 0 0 Z " fill="#292929" transform="translate(333,396)"/>
<path d="M0 0 C6.3782235 -0.36103152 6.3782235 -0.36103152 8.9375 1.125 C10.50422245 3.88980433 10.38976435 5.88188517 10 9 C8.9375 10.875 8.9375 10.875 7 12 C3.3125 12.1875 3.3125 12.1875 0 12 C0 8.04 0 4.08 0 0 Z " fill="#292929" transform="translate(113,157)"/>
<path d="M0 0 C6.3782235 -0.36103152 6.3782235 -0.36103152 8.9375 1.125 C10.50422245 3.88980433 10.38976435 5.88188517 10 9 C8.9375 10.875 8.9375 10.875 7 12 C3.3125 12.1875 3.3125 12.1875 0 12 C0 8.04 0 4.08 0 0 Z " fill="#292929" transform="translate(393,106)"/>
<path d="M0 0 C6.57692308 0.57692308 6.57692308 0.57692308 8 2 C8.27314815 7.73611111 8.27314815 7.73611111 8 10 C6 12 6 12 3 12.25 C0 12 0 12 -2 10 C-2.265625 8.125 -2.265625 8.125 -2.25 6 C-2.25515625 5.29875 -2.2603125 4.5975 -2.265625 3.875 C-2 2 -2 2 0 0 Z " fill="#5A5A5A" transform="translate(369,396)"/>
<path d="M0 0 C6 0 6 0 8.4375 1.625 C10 4 10 4 9.875 7.125 C9 10 9 10 7 12 C3.375 12.125 3.375 12.125 0 12 C0 8.04 0 4.08 0 0 Z " fill="#565656" transform="translate(310,595)"/>
<path d="M0 0 C6 0 6 0 8.4375 1.625 C10 4 10 4 9.875 7.125 C9 10 9 10 7 12 C3.375 12.125 3.375 12.125 0 12 C0 8.04 0 4.08 0 0 Z " fill="#565656" transform="translate(118,489)"/>
<path d="M0 0 C6 0 6 0 8.4375 1.625 C10 4 10 4 9.875 7.125 C9 10 9 10 7 12 C3.375 12.125 3.375 12.125 0 12 C0 8.04 0 4.08 0 0 Z " fill="#565656" transform="translate(354,440)"/>
<path d="M0 0 C6 0 6 0 8.4375 1.625 C10 4 10 4 9.875 7.125 C9 10 9 10 7 12 C3.375 12.125 3.375 12.125 0 12 C0 8.04 0 4.08 0 0 Z " fill="#565656" transform="translate(126,157)"/>
<path d="M0 0 C2 2 2 2 2.265625 3.875 C2.26046875 4.57625 2.2553125 5.2775 2.25 6 C2.25515625 6.70125 2.2603125 7.4025 2.265625 8.125 C2 10 2 10 0 12 C-3 12.3125 -3 12.3125 -6 12 C-8.31282587 8.53076119 -8.42478586 7.07794425 -8 3 C-5.8975876 -0.31959853 -3.76753493 -0.4830173 0 0 Z " fill="#5A5A5A" transform="translate(97,157)"/>
<path d="M0 0 C2 2 2 2 2.265625 3.875 C2.26046875 4.57625 2.2553125 5.2775 2.25 6 C2.25515625 6.70125 2.2603125 7.4025 2.265625 8.125 C2 10 2 10 0 12 C-3 12.3125 -3 12.3125 -6 12 C-8.31282587 8.53076119 -8.42478586 7.07794425 -8 3 C-5.8975876 -0.31959853 -3.76753493 -0.4830173 0 0 Z " fill="#5A5A5A" transform="translate(364,106)"/>
<path d="M0 0 C6 0 6 0 9 2 C9.36328125 3.875 9.36328125 3.875 9.3125 6 C9.30863281 6.70125 9.30476563 7.4025 9.30078125 8.125 C9 10 9 10 7 12 C3.375 12.125 3.375 12.125 0 12 C0 8.04 0 4.08 0 0 Z " fill="#575757" transform="translate(392,535)"/>
<path d="M0 0 C6 0 6 0 9 2 C9.36328125 3.875 9.36328125 3.875 9.3125 6 C9.30863281 6.70125 9.30476563 7.4025 9.30078125 8.125 C9 10 9 10 7 12 C3.375 12.125 3.375 12.125 0 12 C0 8.04 0 4.08 0 0 Z " fill="#575757" transform="translate(391,487)"/>
<path d="M0 0 C6 0 6 0 9 2 C9.36328125 3.875 9.36328125 3.875 9.3125 6 C9.30863281 6.70125 9.30476563 7.4025 9.30078125 8.125 C9 10 9 10 7 12 C3.375 12.125 3.375 12.125 0 12 C0 8.04 0 4.08 0 0 Z " fill="#575757" transform="translate(374,440)"/>
<path d="M0 0 C2.31 0 4.62 0 7 0 C7.33333333 1.66666667 7.66666667 3.33333333 8 5 C8.226875 5.886875 8.45375 6.77375 8.6875 7.6875 C8.790625 8.450625 8.89375 9.21375 9 10 C7 12 7 12 3.375 12.125 C2.26125 12.08375 1.1475 12.0425 0 12 C0 8.04 0 4.08 0 0 Z " fill="#393939" transform="translate(93,345)"/>
<path d="M0 0 C2.5 -0.3125 2.5 -0.3125 5 0 C7 2 7 2 7.265625 3.875 C7.26046875 4.57625 7.2553125 5.2775 7.25 6 C7.25515625 6.70125 7.2603125 7.4025 7.265625 8.125 C7 10 7 10 5 12 C2.5 12.25 2.5 12.25 0 12 C-2 10 -2 10 -2.25 6.5625 C-2 3 -2 3 0 0 Z " fill="#282828" transform="translate(107,204)"/>
<path d="M0 0 C2.5 -0.3125 2.5 -0.3125 5 0 C7 2 7 2 7.265625 3.875 C7.26046875 4.57625 7.2553125 5.2775 7.25 6 C7.25515625 6.70125 7.2603125 7.4025 7.265625 8.125 C7 10 7 10 5 12 C2.5 12.25 2.5 12.25 0 12 C-2 10 -2 10 -2.25 6.5625 C-2 3 -2 3 0 0 Z " fill="#282828" transform="translate(147,157)"/>
<path d="M0 0 C3.0625 0.25 3.0625 0.25 6 1 C7.38550197 3.77100394 7.1877467 5.9334706 7 9 C6.01 10.485 6.01 10.485 5 12 C2.5 12.3125 2.5 12.3125 0 12 C-2 10 -2 10 -2.265625 8.125 C-2.26046875 7.42375 -2.2553125 6.7225 -2.25 6 C-2.25515625 5.29875 -2.2603125 4.5975 -2.265625 3.875 C-2 2 -2 2 0 0 Z " fill="#565656" transform="translate(344,595)"/>
<path d="M0 0 C3.0625 0.25 3.0625 0.25 6 1 C7.38550197 3.77100394 7.1877467 5.9334706 7 9 C6.01 10.485 6.01 10.485 5 12 C2.5 12.3125 2.5 12.3125 0 12 C-2 10 -2 10 -2.265625 8.125 C-2.26046875 7.42375 -2.2553125 6.7225 -2.25 6 C-2.25515625 5.29875 -2.2603125 4.5975 -2.265625 3.875 C-2 2 -2 2 0 0 Z " fill="#565656" transform="translate(107,109)"/>
<path d="M0 0 C3.29714793 0.32971479 4.6226839 0.6226839 7 3 C7.34490322 7.05261287 7.30163882 8.54754176 5 12 C2.5 12.3125 2.5 12.3125 0 12 C-2 10 -2 10 -2.265625 8.125 C-2.26046875 7.42375 -2.2553125 6.7225 -2.25 6 C-2.25515625 5.29875 -2.2603125 4.5975 -2.265625 3.875 C-2 2 -2 2 0 0 Z " fill="#585858" transform="translate(409,256)"/>
<path d="M0 0 C1.98 0 3.96 0 6 0 C8 3.75 8 3.75 8 6 C8.020625 6.845625 8.04125 7.69125 8.0625 8.5625 C8 11 8 11 7 12 C4.66702567 12.04092937 2.33294775 12.04241723 0 12 C0 8.04 0 4.08 0 0 Z " fill="#111111" transform="translate(91,537)"/>
<path d="M0 0 C1.98 0 3.96 0 6 0 C8 3.75 8 3.75 8 6 C8.020625 6.845625 8.04125 7.69125 8.0625 8.5625 C8 11 8 11 7 12 C4.66702567 12.04092937 2.33294775 12.04241723 0 12 C0 8.04 0 4.08 0 0 Z " fill="#111111" transform="translate(93,441)"/>
<path d="M0 0 C1.98 0 3.96 0 6 0 C8 3.75 8 3.75 8 6 C8.020625 6.845625 8.04125 7.69125 8.0625 8.5625 C8 11 8 11 7 12 C4.66702567 12.04092937 2.33294775 12.04241723 0 12 C0 8.04 0 4.08 0 0 Z " fill="#111111" transform="translate(96,297)"/>
<path d="M0 0 C1.65 0.33 3.3 0.66 5 1 C4.979375 1.721875 4.95875 2.44375 4.9375 3.1875 C4.91643458 6.00835294 4.91643458 6.00835294 5.5625 8.75 C5.706875 9.4925 5.85125 10.235 6 11 C5 12 5 12 1.9375 12.0625 C0.968125 12.041875 -0.00125 12.02125 -1 12 C-2.125 7.25 -2.125 7.25 -1 5 C-0.64386903 3.33805547 -0.30791692 1.671549 0 0 Z " fill="#464646" transform="translate(106,345)"/>
<path d="M0 0 C0 3.63 0 7.26 0 11 C0.99 11.33 1.98 11.66 3 12 C0.36 12 -2.28 12 -5 12 C-6.625 8.6875 -6.625 8.6875 -8 5 C-5.81209839 1.71814759 -4.05191042 0 0 0 Z " fill="#5F5F5F" transform="translate(215,595)"/>
<path d="M0 0 C0.78375 0.04125 1.5675 0.0825 2.375 0.125 C2.375 0.785 2.375 1.445 2.375 2.125 C0.725 2.125 -0.925 2.125 -2.625 2.125 C-2.625 2.785 -2.625 3.445 -2.625 4.125 C-1.820625 4.269375 -1.01625 4.41375 -0.1875 4.5625 C2.375 5.125 2.375 5.125 3.375 6.125 C3.5 8.625 3.5 8.625 3.375 11.125 C2.375 12.125 2.375 12.125 -0.0625 12.3125 C-2.625 12.125 -2.625 12.125 -4.625 10.125 C-4.890625 8.25 -4.890625 8.25 -4.875 6.125 C-4.88015625 5.42375 -4.8853125 4.7225 -4.890625 4 C-4.43038182 0.75122461 -3.13681296 0.14937205 0 0 Z " fill="#282828" transform="translate(408.625,534.875)"/>
<path d="M0 0 C2.33294775 -0.04241723 4.66702567 -0.04092937 7 0 C8.89688882 1.89688882 8 5.46151915 8 8 C8.42854995 10.31036915 8.42854995 10.31036915 9 12 C8.34 12 7.68 12 7 12 C6.67 10.35 6.34 8.7 6 7 C4.68 7 3.36 7 2 7 C2 8.65 2 10.3 2 12 C1.34 12 0.68 12 0 12 C0 8.04 0 4.08 0 0 Z " fill="#292929" transform="translate(82,393)"/>
<path d="M0 0 C2.33294775 -0.04241723 4.66702567 -0.04092937 7 0 C8 1 8 1 8.0625 3.4375 C8.041875 4.283125 8.02125 5.12875 8 6 C8 6.66 8 7.32 8 8 C7.68521554 9.33783393 7.35412344 10.67203709 7 12 C6.731875 11.360625 6.46375 10.72125 6.1875 10.0625 C5.11332248 7.66868314 5.11332248 7.66868314 2 7 C2 8.65 2 10.3 2 12 C1.34 12 0.68 12 0 12 C0 8.04 0 4.08 0 0 Z " fill="#535353" transform="translate(386,440)"/>
<path d="M0 0 C3.375 -0.125 3.375 -0.125 7 0 C7.66 0.66 8.32 1.32 9 2 C8.46428571 5.53571429 8.46428571 5.53571429 7 7 C5.33382885 7.04063832 3.66611905 7.042721 2 7 C2 8.65 2 10.3 2 12 C1.34 12 0.68 12 0 12 C0 8.04 0 4.08 0 0 Z " fill="#2C2C2C" transform="translate(189,595)"/>
<path d="M0 0 C3.375 -0.125 3.375 -0.125 7 0 C7.66 0.66 8.32 1.32 9 2 C8.46428571 5.53571429 8.46428571 5.53571429 7 7 C5.33382885 7.04063832 3.66611905 7.042721 2 7 C2 8.65 2 10.3 2 12 C1.34 12 0.68 12 0 12 C0 8.04 0 4.08 0 0 Z " fill="#2C2C2C" transform="translate(392,396)"/>
<path d="M0 0 C3.375 -0.125 3.375 -0.125 7 0 C7.66 0.66 8.32 1.32 9 2 C8.46428571 5.53571429 8.46428571 5.53571429 7 7 C5.33382885 7.04063832 3.66611905 7.042721 2 7 C2 8.65 2 10.3 2 12 C1.34 12 0.68 12 0 12 C0 8.04 0 4.08 0 0 Z " fill="#2C2C2C" transform="translate(82,345)"/>
<path d="M0 0 C3.375 -0.125 3.375 -0.125 7 0 C7.66 0.66 8.32 1.32 9 2 C8.46428571 5.53571429 8.46428571 5.53571429 7 7 C5.33382885 7.04063832 3.66611905 7.042721 2 7 C2 8.65 2 10.3 2 12 C1.34 12 0.68 12 0 12 C0 8.04 0 4.08 0 0 Z " fill="#2C2C2C" transform="translate(376,343)"/>
<path d="M0 0 C3.375 -0.125 3.375 -0.125 7 0 C7.66 0.66 8.32 1.32 9 2 C8.46428571 5.53571429 8.46428571 5.53571429 7 7 C5.33382885 7.04063832 3.66611905 7.042721 2 7 C2 8.65 2 10.3 2 12 C1.34 12 0.68 12 0 12 C0 8.04 0 4.08 0 0 Z " fill="#2C2C2C" transform="translate(85,256)"/>
<path d="M0 0 C3.375 -0.125 3.375 -0.125 7 0 C7.66 0.66 8.32 1.32 9 2 C8.46428571 5.53571429 8.46428571 5.53571429 7 7 C5.33382885 7.04063832 3.66611905 7.042721 2 7 C2 8.65 2 10.3 2 12 C1.34 12 0.68 12 0 12 C0 8.04 0 4.08 0 0 Z " fill="#2C2C2C" transform="translate(83,109)"/>
<path d="M0 0 C6 0 6 0 8 1 C8.042721 2.66611905 8.04063832 4.33382885 8 6 C7 7 7 7 4.4375 7.0625 C3.2309375 7.0315625 3.2309375 7.0315625 2 7 C2 8.65 2 10.3 2 12 C1.34 12 0.68 12 0 12 C0 8.04 0 4.08 0 0 Z " fill="#272727" transform="translate(382,296)"/>
<path d="M0 0 C6 0 6 0 8 1 C8.042721 2.66611905 8.04063832 4.33382885 8 6 C7 7 7 7 4.4375 7.0625 C3.2309375 7.0315625 3.2309375 7.0315625 2 7 C2 8.65 2 10.3 2 12 C1.34 12 0.68 12 0 12 C0 8.04 0 4.08 0 0 Z " fill="#272727" transform="translate(83,204)"/>
<path d="M0 0 C6 0 6 0 8 1 C8.042721 2.66611905 8.04063832 4.33382885 8 6 C7 7 7 7 4.4375 7.0625 C3.2309375 7.0315625 3.2309375 7.0315625 2 7 C2 8.65 2 10.3 2 12 C1.34 12 0.68 12 0 12 C0 8.04 0 4.08 0 0 Z " fill="#272727" transform="translate(391,159)"/>
<path d="M0 0 C6 0 6 0 8 1 C8.042721 2.66611905 8.04063832 4.33382885 8 6 C7 7 7 7 4.4375 7.0625 C3.2309375 7.0315625 3.2309375 7.0315625 2 7 C2 8.65 2 10.3 2 12 C1.34 12 0.68 12 0 12 C0 8.04 0 4.08 0 0 Z " fill="#272727" transform="translate(188,86)"/>
<path d="M0 0 C0.99 0.33 1.98 0.66 3 1 C3.94921875 3.50390625 3.94921875 3.50390625 4.6875 6.5625 C5.06455078 8.08037109 5.06455078 8.08037109 5.44921875 9.62890625 C5.63097656 10.41136719 5.81273438 11.19382812 6 12 C5.34 12 4.68 12 4 12 C4 11.01 4 10.02 4 9 C2.02 9 0.04 9 -2 9 C-2 9.99 -2 10.98 -2 12 C-2.66 12 -3.32 12 -4 12 C-3.52494322 10.18641846 -3.04483958 8.37415821 -2.5625 6.5625 C-2.29566406 5.55316406 -2.02882813 4.54382813 -1.75390625 3.50390625 C-1 1 -1 1 0 0 Z " fill="#373737" transform="translate(86,489)"/>
<path d="M0 0 C0.99 0.33 1.98 0.66 3 1 C3.94921875 3.50390625 3.94921875 3.50390625 4.6875 6.5625 C5.06455078 8.08037109 5.06455078 8.08037109 5.44921875 9.62890625 C5.63097656 10.41136719 5.81273438 11.19382812 6 12 C5.34 12 4.68 12 4 12 C4 11.01 4 10.02 4 9 C2.02 9 0.04 9 -2 9 C-2 9.99 -2 10.98 -2 12 C-2.66 12 -3.32 12 -4 12 C-3.52494322 10.18641846 -3.04483958 8.37415821 -2.5625 6.5625 C-2.29566406 5.55316406 -2.02882813 4.54382813 -1.75390625 3.50390625 C-1 1 -1 1 0 0 Z " fill="#373737" transform="translate(97,109)"/>
<path d="M0 0 C1.98 0 3.96 0 6 0 C6.66 0.66 7.32 1.32 8 2 C7.625 4.625 7.625 4.625 7 7 C5.02 7 3.04 7 1 7 C1 8.65 1 10.3 1 12 C0.67 12 0.34 12 0 12 C0 8.04 0 4.08 0 0 Z " fill="#414141" transform="translate(80,537)"/>
<path d="M0 0 C1.98 0 3.96 0 6 0 C6.66 0.66 7.32 1.32 8 2 C7.625 4.625 7.625 4.625 7 7 C5.02 7 3.04 7 1 7 C1 8.65 1 10.3 1 12 C0.67 12 0.34 12 0 12 C0 8.04 0 4.08 0 0 Z " fill="#414141" transform="translate(381,535)"/>
<path d="M0 0 C1.98 0 3.96 0 6 0 C6.66 0.66 7.32 1.32 8 2 C7.625 4.625 7.625 4.625 7 7 C5.02 7 3.04 7 1 7 C1 8.65 1 10.3 1 12 C0.67 12 0.34 12 0 12 C0 8.04 0 4.08 0 0 Z " fill="#414141" transform="translate(380,487)"/>
<path d="M0 0 C1.98 0 3.96 0 6 0 C6.66 0.66 7.32 1.32 8 2 C7.625 4.625 7.625 4.625 7 7 C5.02 7 3.04 7 1 7 C1 8.65 1 10.3 1 12 C0.67 12 0.34 12 0 12 C0 8.04 0 4.08 0 0 Z " fill="#414141" transform="translate(82,441)"/>
<path d="M0 0 C1.98 0 3.96 0 6 0 C6.66 0.66 7.32 1.32 8 2 C7.625 4.625 7.625 4.625 7 7 C5.02 7 3.04 7 1 7 C1 8.65 1 10.3 1 12 C0.67 12 0.34 12 0 12 C0 8.04 0 4.08 0 0 Z " fill="#414141" transform="translate(85,297)"/>
<path d="M0 0 C1.98 0 3.96 0 6 0 C6.66 0.66 7.32 1.32 8 2 C7.625 4.625 7.625 4.625 7 7 C5.02 7 3.04 7 1 7 C1 8.65 1 10.3 1 12 C0.67 12 0.34 12 0 12 C0 8.04 0 4.08 0 0 Z " fill="#161616" transform="translate(387,256)"/>
<path d="M0 0 C1.98 0 3.96 0 6 0 C6.66 0.66 7.32 1.32 8 2 C7.625 4.625 7.625 4.625 7 7 C5.02 7 3.04 7 1 7 C1 8.65 1 10.3 1 12 C0.67 12 0.34 12 0 12 C0 8.04 0 4.08 0 0 Z " fill="#414141" transform="translate(389,204)"/>
<path d="M0 0 C1.98 0 3.96 0 6 0 C6.66 0.66 7.32 1.32 8 2 C7.625 4.625 7.625 4.625 7 7 C5.02 7 3.04 7 1 7 C1 8.65 1 10.3 1 12 C0.67 12 0.34 12 0 12 C0 8.04 0 4.08 0 0 Z " fill="#161616" transform="translate(285,89)"/>
<path d="M0 0 C0.66 0 1.32 0 2 0 C3.32 3.96 4.64 7.92 6 12 C5.34 12 4.68 12 4 12 C4 11.01 4 10.02 4 9 C2.02 9 0.04 9 -2 9 C-2.33 9.99 -2.66 10.98 -3 12 C-4.21386936 8.35839192 -3.6674695 7.66834531 -2.0625 4.3125 C-1.49208984 3.10013672 -1.49208984 3.10013672 -0.91015625 1.86328125 C-0.60980469 1.24839844 -0.30945313 0.63351562 0 0 Z " fill="#353535" transform="translate(291,595)"/>
<path d="M0 0 C1.66611905 -0.042721 3.33382885 -0.04063832 5 0 C6 1 6 1 6.0625 4.5625 C6.041875 5.696875 6.02125 6.83125 6 8 C4.02 8.33 2.04 8.66 0 9 C0 6.03 0 3.06 0 0 Z " fill="#8D8D8D" transform="translate(324,597)"/>
<path d="M0 0 C1.66611905 -0.042721 3.33382885 -0.04063832 5 0 C6 1 6 1 6.0625 4.5625 C6.041875 5.696875 6.02125 6.83125 6 8 C4.02 8.33 2.04 8.66 0 9 C0 6.03 0 3.06 0 0 Z " fill="#8D8D8D" transform="translate(107,491)"/>
<path d="M0 0 C1.66611905 -0.042721 3.33382885 -0.04063832 5 0 C6 1 6 1 6.0625 4.5625 C6.041875 5.696875 6.02125 6.83125 6 8 C4.02 8.33 2.04 8.66 0 9 C0 6.03 0 3.06 0 0 Z " fill="#8D8D8D" transform="translate(382,108)"/>
<path d="M0 0 C2.64 0 5.28 0 8 0 C8 0.66 8 1.32 8 2 C6.02 2 4.04 2 2 2 C2 2.99 2 3.98 2 5 C3.65 5 5.3 5 7 5 C7 5.66 7 6.32 7 7 C5.35 7 3.7 7 2 7 C2 8.32 2 9.64 2 11 C3.65 11 5.3 11 7 11 C7 11.33 7 11.66 7 12 C4.69 12 2.38 12 0 12 C0 8.04 0 4.08 0 0 Z " fill="#2F2F2F" transform="translate(199,86)"/>
<path d="M0 0 C1.66611905 -0.042721 3.33382885 -0.04063832 5 0 C6 1 6 1 6.1875 3.9375 C6 7 6 7 4 9 C2.68 9 1.36 9 0 9 C0 6.03 0 3.06 0 0 Z " fill="#8D8D8D" transform="translate(335,398)"/>
<path d="M0 0 C1.66611905 -0.042721 3.33382885 -0.04063832 5 0 C6 1 6 1 6.1875 3.9375 C6 7 6 7 4 9 C2.68 9 1.36 9 0 9 C0 6.03 0 3.06 0 0 Z " fill="#8D8D8D" transform="translate(115,159)"/>
<path d="M0 0 C1.66611905 -0.042721 3.33382885 -0.04063832 5 0 C6 1 6 1 6.1875 3.9375 C6 7 6 7 4 9 C2.68 9 1.36 9 0 9 C0 6.03 0 3.06 0 0 Z " fill="#8D8D8D" transform="translate(395,108)"/>
<path d="M0 0 C2.64 0 5.28 0 8 0 C8 0.33 8 0.66 8 1 C6.02 1 4.04 1 2 1 C2 2.32 2 3.64 2 5 C3.65 5 5.3 5 7 5 C7 5.66 7 6.32 7 7 C5.35 7 3.7 7 2 7 C2 8.32 2 9.64 2 11 C3.98 11 5.96 11 8 11 C8 11.33 8 11.66 8 12 C5.36 12 2.72 12 0 12 C0 8.04 0 4.08 0 0 Z " fill="#2A2A2A" transform="translate(412,396)"/>
<path d="M0 0 C2.64 0 5.28 0 8 0 C8 0.33 8 0.66 8 1 C6.02 1 4.04 1 2 1 C2 2.32 2 3.64 2 5 C3.65 5 5.3 5 7 5 C7 5.66 7 6.32 7 7 C5.35 7 3.7 7 2 7 C2 8.32 2 9.64 2 11 C3.98 11 5.96 11 8 11 C8 11.33 8 11.66 8 12 C5.36 12 2.72 12 0 12 C0 8.04 0 4.08 0 0 Z " fill="#2A2A2A" transform="translate(113,393)"/>
<path d="M0 0 C2.64 0 5.28 0 8 0 C8 0.33 8 0.66 8 1 C6.02 1 4.04 1 2 1 C2 2.32 2 3.64 2 5 C3.65 5 5.3 5 7 5 C7 5.66 7 6.32 7 7 C5.35 7 3.7 7 2 7 C2 8.32 2 9.64 2 11 C3.98 11 5.96 11 8 11 C8 11.33 8 11.66 8 12 C5.36 12 2.72 12 0 12 C0 8.04 0 4.08 0 0 Z " fill="#2A2A2A" transform="translate(93,393)"/>
<path d="M0 0 C2.64 0 5.28 0 8 0 C8 0.33 8 0.66 8 1 C6.02 1 4.04 1 2 1 C2 2.32 2 3.64 2 5 C3.65 5 5.3 5 7 5 C7 5.66 7 6.32 7 7 C5.35 7 3.7 7 2 7 C2 8.32 2 9.64 2 11 C3.98 11 5.96 11 8 11 C8 11.33 8 11.66 8 12 C5.36 12 2.72 12 0 12 C0 8.04 0 4.08 0 0 Z " fill="#2A2A2A" transform="translate(295,89)"/>
<path d="M0 0 C2.31 0 4.62 0 7 0 C7 0.33 7 0.66 7 1 C5.35 1 3.7 1 2 1 C2 2.32 2 3.64 2 5 C3.65 5 5.3 5 7 5 C7 5.66 7 6.32 7 7 C5.35 7 3.7 7 2 7 C2 8.32 2 9.64 2 11 C3.98 11 5.96 11 8 11 C8 11.33 8 11.66 8 12 C5.36 12 2.72 12 0 12 C0 8.04 0 4.08 0 0 Z " fill="#282828" transform="translate(397,440)"/>
<path d="M0 0 C0.66 0 1.32 0 2 0 C2 2.64 2 5.28 2 8 C2.66 8.33 3.32 8.66 4 9 C3.34 9 2.68 9 2 9 C1.67 9.99 1.34 10.98 1 12 C1 11.01 1 10.02 1 9 C-0.98 9 -2.96 9 -5 9 C-3.35 6.03 -1.7 3.06 0 0 Z " fill="#303030" transform="translate(411,343)"/>
<path d="M0 0 C1.65 0 3.3 0 5 0 C5.33333333 1.66666667 5.66666667 3.33333333 6 5 C6.3403125 6.3303125 6.3403125 6.3303125 6.6875 7.6875 C6.790625 8.450625 6.89375 9.21375 7 10 C5 12 5 12 2.375 12.125 C1.59125 12.08375 0.8075 12.0425 0 12 C0 11.01 0 10.02 0 9 C1.98 9.495 1.98 9.495 4 10 C4.33 9.01 4.66 8.02 5 7 C3.68 7 2.36 7 1 7 C1 6.34 1 5.68 1 5 C1.99 5 2.98 5 4 5 C4 4.01 4 3.02 4 2 C2.35 2.33 0.7 2.66 -1 3 C-0.67 2.01 -0.34 1.02 0 0 Z " fill="#2B2B2B" transform="translate(218,86)"/>
<path d="M0 0 C1.2065625 0.0309375 1.2065625 0.0309375 2.4375 0.0625 C2.7675 0.7225 3.0975 1.3825 3.4375 2.0625 C1.7875 2.0625 0.1375 2.0625 -1.5625 2.0625 C-1.5625 3.0525 -1.5625 4.0425 -1.5625 5.0625 C0.0875 5.3925 1.7375 5.7225 3.4375 6.0625 C3.81968767 7.71864657 4.15145102 9.38707024 4.4375 11.0625 C3.4375 12.0625 3.4375 12.0625 0.375 12.125 C-0.594375 12.104375 -1.56375 12.08375 -2.5625 12.0625 C-2.5625 11.0725 -2.5625 10.0825 -2.5625 9.0625 C-0.0875 10.0525 -0.0875 10.0525 2.4375 11.0625 C2.4375 9.7425 2.4375 8.4225 2.4375 7.0625 C0.7875 6.7325 -0.8625 6.4025 -2.5625 6.0625 C-2.94468767 4.40635343 -3.27645102 2.73792976 -3.5625 1.0625 C-2.5625 0.0625 -2.5625 0.0625 0 0 Z " fill="#252525" transform="translate(106.5625,392.9375)"/>
<path d="M0 0 C1.65 0 3.3 0 5 0 C5 2.64 5 5.28 5 8 C3.0625 8.5625 3.0625 8.5625 1 9 C0 8 0 8 -0.09765625 6.15234375 C-0.06510417 4.1015625 -0.03255208 2.05078125 0 0 Z " fill="#8C8C8C" transform="translate(107,206)"/>
<path d="M0 0 C1.65 0 3.3 0 5 0 C5 2.64 5 5.28 5 8 C3.0625 8.5625 3.0625 8.5625 1 9 C0 8 0 8 -0.09765625 6.15234375 C-0.06510417 4.1015625 -0.03255208 2.05078125 0 0 Z " fill="#8C8C8C" transform="translate(147,159)"/>
<path d="M0 0 C2.72426311 2.35277269 3.8141763 4.62496331 5 8 C5.99 5.36 6.98 2.72 8 0 C8.66 0 9.32 0 10 0 C9.52309796 1.62566606 9.04340334 3.25051311 8.5625 4.875 C8.29566406 5.77992188 8.02882813 6.68484375 7.75390625 7.6171875 C7 10 7 10 6 12 C3 11 3 11 2.05078125 9.2578125 C1.80714844 8.55398438 1.56351562 7.85015625 1.3125 7.125 C1.06113281 6.42632813 0.80976563 5.72765625 0.55078125 5.0078125 C0 3 0 3 0 0 Z " fill="#282828" transform="translate(298,595)"/>
<path d="M0 0 C2.72426311 2.35277269 3.8141763 4.62496331 5 8 C5.99 5.36 6.98 2.72 8 0 C8.66 0 9.32 0 10 0 C9.52309796 1.62566606 9.04340334 3.25051311 8.5625 4.875 C8.29566406 5.77992188 8.02882813 6.68484375 7.75390625 7.6171875 C7 10 7 10 6 12 C3 11 3 11 2.05078125 9.2578125 C1.80714844 8.55398438 1.56351562 7.85015625 1.3125 7.125 C1.06113281 6.42632812 0.80976563 5.72765625 0.55078125 5.0078125 C0 3 0 3 0 0 Z " fill="#282828" transform="translate(342,440)"/>
<path d="M0 0 C2.31 0 4.62 0 7 0 C7 0.33 7 0.66 7 1 C5.35 1 3.7 1 2 1 C2 1.99 2 2.98 2 4 C3.65 4.33 5.3 4.66 7 5 C7.04254356 6.99954746 7.04080783 9.00041636 7 11 C6 12 6 12 3.4375 12.0625 C2.633125 12.041875 1.82875 12.02125 1 12 C1 11.01 1 10.02 1 9 C2.98 9.495 2.98 9.495 5 10 C5.33 8.68 5.66 7.36 6 6 C4.02 6.33 2.04 6.66 0 7 C0 4.69 0 2.38 0 0 Z " fill="#252525" transform="translate(413,296)"/>
<path d="M0 0 C0.66 0 1.32 0 2 0 C2.99 2.64 3.98 5.28 5 8 C6.32 5.36 7.64 2.72 9 0 C10.21386936 3.64160808 9.6674695 4.33165469 8.0625 7.6875 C7.68222656 8.49574219 7.30195313 9.30398437 6.91015625 10.13671875 C6.60980469 10.75160156 6.30945313 11.36648437 6 12 C5.34 12 4.68 12 4 12 C3.3291288 10.3767313 2.66342971 8.75132422 2 7.125 C1.62875 6.22007813 1.2575 5.31515625 0.875 4.3828125 C0 2 0 2 0 0 Z " fill="#252525" transform="translate(368,106)"/>
<path d="M0 0 C0.66 0 1.32 0 2 0 C2.66 2.97 3.32 5.94 4 9 C4.66 9 5.32 9 6 9 C6.66 6.03 7.32 3.06 8 0 C8.66 0 9.32 0 10 0 C9.01 3.63 8.02 7.26 7 11 C5.68 11 4.36 11 3 11 C2.01 7.37 1.02 3.74 0 0 Z " fill="#242424" transform="translate(93,489)"/>
<path d="M0 0 C0.66 0 1.32 0 2 0 C2.66 2.97 3.32 5.94 4 9 C4.66 9 5.32 9 6 9 C6.66 6.03 7.32 3.06 8 0 C8.66 0 9.32 0 10 0 C9.01 3.63 8.02 7.26 7 11 C5.68 11 4.36 11 3 11 C2.01 7.37 1.02 3.74 0 0 Z " fill="#242424" transform="translate(101,157)"/>
<path d="M0 0 C0 3.63 0 7.26 0 11 C0.66 11.33 1.32 11.66 2 12 C-0.31 12 -2.62 12 -5 12 C-4.01 11.67 -3.02 11.34 -2 11 C-2.33 8.36 -2.66 5.72 -3 3 C-3.66 3 -4.32 3 -5 3 C-5 2.34 -5 1.68 -5 1 C-2 0 -2 0 0 0 Z " fill="#262626" transform="translate(106,537)"/>
<path d="M0 0 C2 2 2 2 2 6 C3.65 6.33 5.3 6.66 7 7 C7.33 8.65 7.66 10.3 8 12 C7.566875 11.360625 7.13375 10.72125 6.6875 10.0625 C5.08760823 7.73253997 5.08760823 7.73253997 2 7 C2 8.65 2 10.3 2 12 C1.34 12 0.68 12 0 12 C0 8.04 0 4.08 0 0 Z " fill="#282828" transform="translate(386,440)"/>
<path d="M0 0 C0 3.63 0 7.26 0 11 C0.66 11.33 1.32 11.66 2 12 C-0.31 12 -2.62 12 -5 12 C-4.01 11.67 -3.02 11.34 -2 11 C-2.33 8.36 -2.66 5.72 -3 3 C-3.66 3 -4.32 3 -5 3 C-5 2.34 -5 1.68 -5 1 C-2 0 -2 0 0 0 Z " fill="#262626" transform="translate(117,441)"/>
<path d="M0 0 C0 3.63 0 7.26 0 11 C0.66 11.33 1.32 11.66 2 12 C-0.31 12 -2.62 12 -5 12 C-4.01 11.67 -3.02 11.34 -2 11 C-2.33 8.36 -2.66 5.72 -3 3 C-3.66 3 -4.32 3 -5 3 C-5 2.34 -5 1.68 -5 1 C-2 0 -2 0 0 0 Z " fill="#262626" transform="translate(108,441)"/>
<path d="M0 0 C2.31 0 4.62 0 7 0 C7 0.33 7 0.66 7 1 C5.35 1 3.7 1 2 1 C2 2.65 2 4.3 2 6 C3.65 6 5.3 6 7 6 C7 6.33 7 6.66 7 7 C5.35 7 3.7 7 2 7 C2 8.65 2 10.3 2 12 C1.34 12 0.68 12 0 12 C0 8.04 0 4.08 0 0 Z " fill="#2A2A2A" transform="translate(397,256)"/>
<path d="M0 0 C0 3.63 0 7.26 0 11 C0.66 11.33 1.32 11.66 2 12 C-0.31 12 -2.62 12 -5 12 C-4.01 11.67 -3.02 11.34 -2 11 C-2.33 8.36 -2.66 5.72 -3 3 C-3.66 3 -4.32 3 -5 3 C-5 2.34 -5 1.68 -5 1 C-2 0 -2 0 0 0 Z " fill="#262626" transform="translate(112,256)"/>
<path d="M0 0 C0 3.63 0 7.26 0 11 C0.66 11.33 1.32 11.66 2 12 C-0.31 12 -2.62 12 -5 12 C-4.01 11.67 -3.02 11.34 -2 11 C-2.33 8.36 -2.66 5.72 -3 3 C-3.66 3 -4.32 3 -5 3 C-5 2.34 -5 1.68 -5 1 C-2 0 -2 0 0 0 Z " fill="#262626" transform="translate(213,86)"/>
<path d="M0 0 C2.31 0 4.62 0 7 0 C6.45660208 4.56454251 5.20536179 7.9728176 3 12 C1.60804085 7.82412255 3.17676781 5.86525224 5 2 C3.35 2 1.7 2 0 2 C0 1.34 0 0.68 0 0 Z " fill="#2B2B2B" transform="translate(402,487)"/>
<path d="M0 0 C2.31 0 4.62 0 7 0 C6.45660208 4.56454251 5.20536179 7.9728176 3 12 C1.60804085 7.82412255 3.17676781 5.86525224 5 2 C3.35 2 1.7 2 0 2 C0 1.34 0 0.68 0 0 Z " fill="#2B2B2B" transform="translate(106,297)"/>
<path d="M0 0 C1.65 0 3.3 0 5 0 C5.5625 1.9375 5.5625 1.9375 6 4 C5 5 5 5 2.4375 5.0625 C1.2309375 5.0315625 1.2309375 5.0315625 0 5 C0 3.35 0 1.7 0 0 Z " fill="#7D7D7D" transform="translate(92,543)"/>
<path d="M0 0 C1.65 0 3.3 0 5 0 C5.5625 1.9375 5.5625 1.9375 6 4 C5 5 5 5 2.4375 5.0625 C1.2309375 5.0315625 1.2309375 5.0315625 0 5 C0 3.35 0 1.7 0 0 Z " fill="#7D7D7D" transform="translate(94,447)"/>
<path d="M0 0 C1.65 0 3.3 0 5 0 C5.5625 1.9375 5.5625 1.9375 6 4 C5 5 5 5 2.4375 5.0625 C1.2309375 5.0315625 1.2309375 5.0315625 0 5 C0 3.35 0 1.7 0 0 Z " fill="#7D7D7D" transform="translate(97,303)"/>
<path d="M0 0 C1.99954746 -0.04254356 4.00041636 -0.04080783 6 0 C7 1 7 1 7.09765625 2.84765625 C7.06510417 4.8984375 7.03255208 6.94921875 7 9 C6.67 9 6.34 9 6 9 C5.67 6.69 5.34 4.38 5 2 C4.01 2.33 3.02 2.66 2 3 C1.67 4.98 1.34 6.96 1 9 C0.67 9 0.34 9 0 9 C0 6.03 0 3.06 0 0 Z " fill="#141414" transform="translate(133,396)"/>
<path d="M0 0 C0.66 0 1.32 0 2 0 C2 2.64 2 5.28 2 8 C2.66 8.33 3.32 8.66 4 9 C3.34 9 2.68 9 2 9 C1.67 9.99 1.34 10.98 1 12 C1 11.01 1 10.02 1 9 C-0.98 9 -2.96 9 -5 9 C-5 8.67 -5 8.34 -5 8 C-3.02 8 -1.04 8 1 8 C0.7525 6.8553125 0.7525 6.8553125 0.5 5.6875 C0 3 0 3 0 0 Z " fill="#111111" transform="translate(224,595)"/>
<path d="M0 0 C2.475 0.495 2.475 0.495 5 1 C5 2.32 5 3.64 5 5 C3.35 5 1.7 5 0 5 C0 3.35 0 1.7 0 0 Z " fill="#818181" transform="translate(388,257)"/>
<path d="M0 0 C2.475 0.495 2.475 0.495 5 1 C5 2.32 5 3.64 5 5 C3.35 5 1.7 5 0 5 C0 3.35 0 1.7 0 0 Z " fill="#818181" transform="translate(286,90)"/>
<path d="M0 0 C2.475 0.495 2.475 0.495 5 1 C4.67 2.32 4.34 3.64 4 5 C2.68 5 1.36 5 0 5 C0 3.35 0 1.7 0 0 Z " fill="#858585" transform="translate(202,601)"/>
<path d="M0 0 C0 1.98 0 3.96 0 6 C-1.98 6 -3.96 6 -6 6 C-2.61538462 0 -2.61538462 0 0 0 Z " fill="#555555" transform="translate(225,597)"/>
<path d="M0 0 C2.475 0.495 2.475 0.495 5 1 C4.67 2.32 4.34 3.64 4 5 C2.68 5 1.36 5 0 5 C0 3.35 0 1.7 0 0 Z " fill="#858585" transform="translate(95,351)"/>
<path d="M0 0 C1.32 0 2.64 0 4 0 C3.67 1.65 3.34 3.3 3 5 C1.68 4.67 0.36 4.34 -1 4 C-1 1 -1 1 0 0 Z " fill="#898989" transform="translate(415,302)"/>
<path d="M0 0 C1.65 0 3.3 0 5 0 C5 1.32 5 2.64 5 4 C3.35 4 1.7 4 0 4 C0 2.68 0 1.36 0 0 Z " fill="#8C8C8C" transform="translate(191,597)"/>
<path d="M0 0 C1.65 0 3.3 0 5 0 C5 1.32 5 2.64 5 4 C3.35 4 1.7 4 0 4 C0 2.68 0 1.36 0 0 Z " fill="#8C8C8C" transform="translate(394,398)"/>
<path d="M0 0 C1.65 0 3.3 0 5 0 C5 1.32 5 2.64 5 4 C3.35 4 1.7 4 0 4 C0 2.68 0 1.36 0 0 Z " fill="#8C8C8C" transform="translate(84,347)"/>
<path d="M0 0 C1.65 0 3.3 0 5 0 C5 1.32 5 2.64 5 4 C3.35 4 1.7 4 0 4 C0 2.68 0 1.36 0 0 Z " fill="#8C8C8C" transform="translate(378,345)"/>
<path d="M0 0 C1.65 0 3.3 0 5 0 C5 1.32 5 2.64 5 4 C3.35 4 1.7 4 0 4 C0 2.68 0 1.36 0 0 Z " fill="#8C8C8C" transform="translate(87,258)"/>
<path d="M0 0 C1.65 0 3.3 0 5 0 C5 1.32 5 2.64 5 4 C3.35 4 1.7 4 0 4 C0 2.68 0 1.36 0 0 Z " fill="#8C8C8C" transform="translate(85,111)"/>
<path d="M0 0 C2.31 0 4.62 0 7 0 C7 0.33 7 0.66 7 1 C5.35 1 3.7 1 2 1 C2.33 2.65 2.66 4.3 3 6 C2.01 6.33 1.02 6.66 0 7 C0 4.69 0 2.38 0 0 Z " fill="#323232" transform="translate(412,106)"/>
<path d="M0 0 C1.32 0 2.64 0 4 0 C4 1.65 4 3.3 4 5 C2.68 4.67 1.36 4.34 0 4 C0 2.68 0 1.36 0 0 Z " fill="#8A8A8A" transform="translate(406,541)"/>
<path d="M0 0 C2.475 0.495 2.475 0.495 5 1 C5 1.99 5 2.98 5 4 C3.35 4 1.7 4 0 4 C0 2.68 0 1.36 0 0 Z " fill="#7F7F7F" transform="translate(92,538)"/>
<path d="M0 0 C2.475 0.495 2.475 0.495 5 1 C5 1.99 5 2.98 5 4 C3.35 4 1.7 4 0 4 C0 2.68 0 1.36 0 0 Z " fill="#7F7F7F" transform="translate(94,442)"/>
<path d="M0 0 C2.475 0.495 2.475 0.495 5 1 C5 1.99 5 2.98 5 4 C3.35 4 1.7 4 0 4 C0 2.68 0 1.36 0 0 Z " fill="#808080" transform="translate(84,394)"/>
<path d="M0 0 C2.475 0.495 2.475 0.495 5 1 C5 1.99 5 2.98 5 4 C3.35 4 1.7 4 0 4 C0 2.68 0 1.36 0 0 Z " fill="#7F7F7F" transform="translate(97,298)"/>
<path d="M0 0 C1.65 0 3.3 0 5 0 C4.67 1.32 4.34 2.64 4 4 C2.68 4 1.36 4 0 4 C0 2.68 0 1.36 0 0 Z " fill="#8B8B8B" transform="translate(384,298)"/>
<path d="M0 0 C1.65 0 3.3 0 5 0 C4.67 1.32 4.34 2.64 4 4 C2.68 4 1.36 4 0 4 C0 2.68 0 1.36 0 0 Z " fill="#8B8B8B" transform="translate(85,206)"/>
<path d="M0 0 C1.65 0 3.3 0 5 0 C4.67 1.32 4.34 2.64 4 4 C2.68 4 1.36 4 0 4 C0 2.68 0 1.36 0 0 Z " fill="#8B8B8B" transform="translate(393,161)"/>
<path d="M0 0 C1.65 0 3.3 0 5 0 C4.67 1.32 4.34 2.64 4 4 C2.68 4 1.36 4 0 4 C0 2.68 0 1.36 0 0 Z " fill="#8B8B8B" transform="translate(190,88)"/>
</svg>
