G04*
G04 #@! TF.GenerationSoftware,Altium Limited,Altium Designer,24.1.2 (44)*
G04*
G04 Layer_Physical_Order=1*
G04 Layer_Color=255*
%FSLAX44Y44*%
%MOMM*%
G71*
G04*
G04 #@! TF.SameCoordinates,18497732-E450-413E-AE6D-1912215BE0D1*
G04*
G04*
G04 #@! TF.FilePolarity,Positive*
G04*
G01*
G75*
%ADD11C,0.5080*%
%ADD15C,0.1524*%
%ADD19R,1.1176X1.8034*%
%ADD20R,1.8034X1.1176*%
%ADD21R,0.6000X3.4000*%
%ADD31O,3.3000X1.8000*%
%ADD32O,2.0000X3.8000*%
%ADD33C,1.6200*%
%ADD34C,1.7780*%
%ADD35C,0.6350*%
D11*
X238760Y457200D02*
X293624D01*
X192786D02*
X195580Y454406D01*
X238760Y345440D02*
Y457200D01*
X195580D02*
X238760D01*
X142494Y455258D02*
X144436Y457200D01*
X192786D01*
X104140Y330200D02*
X142494Y368554D01*
Y455986D01*
X293624Y457200D02*
X296164Y459740D01*
X195580Y403860D02*
Y424434D01*
X81280Y271780D02*
X91440Y281940D01*
X81280Y215392D02*
Y271780D01*
X172466Y200660D02*
X199390D01*
X121920Y198120D02*
X139954D01*
X260350Y109220D02*
Y182444D01*
X199390Y185420D02*
X257374D01*
X260350Y182444D01*
X251130Y100000D02*
X260350Y109220D01*
X199390Y185420D02*
Y200660D01*
Y154000D02*
Y185420D01*
X237490Y100000D02*
X251130D01*
X199390Y200660D02*
Y280670D01*
X198120Y281940D02*
X236220D01*
X91440D02*
X198120D01*
X199390Y280670D01*
X238760Y284480D02*
Y320040D01*
X236220Y281940D02*
X238760Y284480D01*
X416306Y458800D02*
X444794D01*
X326136Y459740D02*
X385394D01*
X386334Y458800D01*
D15*
X416560Y195580D02*
X419100Y193040D01*
X533146D01*
X411480Y167640D02*
X416560D01*
X401320Y170180D02*
X416560D01*
X340360Y109220D02*
X401320Y170180D01*
X320040Y109220D02*
X340360D01*
X81280Y15240D02*
Y38354D01*
X279400Y58420D02*
Y104140D01*
X229870Y53340D02*
X274320D01*
X279400Y58420D01*
Y104140D02*
X284480Y109220D01*
X320040D01*
X224790Y58420D02*
Y100000D01*
Y58420D02*
X229870Y53340D01*
X139954Y198120D02*
X142494Y200660D01*
X81280Y112014D02*
X101854D01*
X110490Y120650D01*
X203410D01*
X205692Y118368D01*
X206804Y100000D02*
X212090D01*
X205692Y101112D02*
X206804Y100000D01*
X205692Y101112D02*
Y118368D01*
X81280Y141986D02*
X82804Y143510D01*
X101600D01*
X111412Y133698D01*
X205788D01*
X212090Y140000D02*
Y154000D01*
X205788Y133698D02*
X212090Y140000D01*
X81280Y68326D02*
Y112014D01*
X212090Y100000D02*
Y120650D01*
X224790Y133350D01*
Y154000D01*
X797560Y119761D02*
Y161214D01*
X799160Y162814D01*
X731520Y109220D02*
X756920D01*
X720979Y119761D02*
X731520Y109220D01*
X708973Y161214D02*
X710573Y162814D01*
X708973Y119761D02*
Y161214D01*
X621987Y121361D02*
Y162814D01*
X620387Y119761D02*
X621987Y121361D01*
X531800Y119761D02*
X533400Y121361D01*
Y162814D01*
X710573Y192786D02*
X799160D01*
X621987D02*
X710573D01*
X533400D02*
X621987D01*
X533146Y193040D02*
X533400Y192786D01*
X199390Y100000D02*
X200660Y98730D01*
Y71120D02*
Y98730D01*
X81280Y141986D02*
Y185420D01*
X820420Y109220D02*
X843280D01*
X797560Y119761D02*
X809879D01*
X820420Y109220D01*
X708973Y119761D02*
X720979D01*
X642620Y109220D02*
X670560D01*
X632079Y119761D02*
X642620Y109220D01*
X620387Y119761D02*
X632079D01*
X554990Y109220D02*
X579120D01*
X544449Y119761D02*
X554990Y109220D01*
X531800Y119761D02*
X544449D01*
X797560Y60960D02*
Y89789D01*
X708660Y89476D02*
X708973Y89789D01*
X708660Y60960D02*
Y89476D01*
X619760Y89162D02*
X620387Y89789D01*
X619760Y60960D02*
Y89162D01*
X531800Y89789D02*
X532130Y89459D01*
Y59690D02*
Y89459D01*
D19*
X416306Y458800D02*
D03*
X386334D02*
D03*
X172466Y200660D02*
D03*
X142494D02*
D03*
X296164Y459740D02*
D03*
X326136D02*
D03*
D20*
X81280Y38354D02*
D03*
Y68326D02*
D03*
Y185420D02*
D03*
Y215392D02*
D03*
X195580Y454406D02*
D03*
Y424434D02*
D03*
X81280Y112014D02*
D03*
Y141986D02*
D03*
X797560Y89789D02*
D03*
Y119761D02*
D03*
X708973Y89789D02*
D03*
Y119761D02*
D03*
X620387Y89789D02*
D03*
Y119761D02*
D03*
X531800Y89789D02*
D03*
Y119761D02*
D03*
X533400Y192786D02*
D03*
Y162814D02*
D03*
X621987Y192786D02*
D03*
Y162814D02*
D03*
X799160D02*
D03*
Y192786D02*
D03*
X710573Y162814D02*
D03*
Y192786D02*
D03*
D21*
X199390Y100000D02*
D03*
X212090D02*
D03*
X224790D02*
D03*
X237490D02*
D03*
Y154000D02*
D03*
X224790D02*
D03*
X212090D02*
D03*
X199390D02*
D03*
D31*
X117494Y408758D02*
D03*
D32*
X82494Y455258D02*
D03*
X142494D02*
D03*
D33*
X238760Y320040D02*
D03*
Y345440D02*
D03*
X416560Y170180D02*
D03*
Y195580D02*
D03*
D34*
X320040Y58420D02*
D03*
Y33020D02*
D03*
Y109220D02*
D03*
Y83820D02*
D03*
X53340Y330200D02*
D03*
X27940D02*
D03*
X104140D02*
D03*
X78740D02*
D03*
X579120Y58420D02*
D03*
Y33020D02*
D03*
Y109220D02*
D03*
Y83820D02*
D03*
X670560Y58420D02*
D03*
Y33020D02*
D03*
Y109220D02*
D03*
Y83820D02*
D03*
X756920Y58420D02*
D03*
Y33020D02*
D03*
Y109220D02*
D03*
Y83820D02*
D03*
X843280Y58420D02*
D03*
Y33020D02*
D03*
Y109220D02*
D03*
Y83820D02*
D03*
D35*
X195580Y403860D02*
D03*
X81280Y15240D02*
D03*
X121920Y198120D02*
D03*
X444794Y458800D02*
D03*
X200660Y71120D02*
D03*
X797560Y60960D02*
D03*
X708660D02*
D03*
X619760D02*
D03*
X532130Y59690D02*
D03*
M02*
