M48
;Layer_Color=9474304
;FILE_FORMAT=4:4
METRIC,LZ
;TYPE=PLATED
T01F00S00C0.3302
T03F00S00C1.0160
T04F00S00C1.0201
%
T01
X0008128Y0001524
X0020066Y0007112
X0053213Y0005969
X0061976Y0006096
X0070866
X0079756
X00444794Y004588
X0019558Y0040386
X0012192Y0019812
T03
X0032004Y0003302
Y0005842
Y0008382
Y0010922
X0057912
Y0008382
Y0005842
Y0003302
X0067056
Y0005842
Y0008382
Y0010922
X0075692
Y0008382
Y0005842
Y0003302
X0084328
Y0005842
Y0008382
Y0010922
X0010414Y003302
X0007874
X0005334
X0002794
T04
X0023876Y0032004
Y0034544
X0041656Y0019558
Y0017018
M30
