G04*
G04 #@! TF.GenerationSoftware,Altium Limited,Altium Designer,24.1.2 (44)*
G04*
G04 Layer_Color=8421504*
%FSLAX44Y44*%
%MOMM*%
G71*
G04*
G04 #@! TF.SameCoordinates,18497732-E450-413E-AE6D-1912215BE0D1*
G04*
G04*
G04 #@! TF.FilePolarity,Positive*
G04*
G01*
G75*
%ADD19R,1.1176X1.8034*%
%ADD20R,1.8034X1.1176*%
%ADD21R,0.6000X3.4000*%
D19*
X416306Y458800D02*
D03*
X386334D02*
D03*
X172466Y200660D02*
D03*
X142494D02*
D03*
X296164Y459740D02*
D03*
X326136D02*
D03*
D20*
X81280Y38354D02*
D03*
Y68326D02*
D03*
Y185420D02*
D03*
Y215392D02*
D03*
X195580Y454406D02*
D03*
Y424434D02*
D03*
X81280Y112014D02*
D03*
Y141986D02*
D03*
X797560Y89789D02*
D03*
Y119761D02*
D03*
X708973Y89789D02*
D03*
Y119761D02*
D03*
X620387Y89789D02*
D03*
Y119761D02*
D03*
X531800Y89789D02*
D03*
Y119761D02*
D03*
X533400Y192786D02*
D03*
Y162814D02*
D03*
X621987Y192786D02*
D03*
Y162814D02*
D03*
X799160D02*
D03*
Y192786D02*
D03*
X710573Y162814D02*
D03*
Y192786D02*
D03*
D21*
X199390Y100000D02*
D03*
X212090D02*
D03*
X224790D02*
D03*
X237490D02*
D03*
Y154000D02*
D03*
X224790D02*
D03*
X212090D02*
D03*
X199390D02*
D03*
M02*
